<?xml version="1.0" encoding="UTF-8" standalone="yes"?>
<!DOCTYPE svg PUBLIC "-//W3C//DTD SVG 1.0//EN" "http://www.w3.org/TR/2001/REC-SVG-20010904/DTD/svg10.dtd">
<svg height="323" id="ctl/RT-ctl-05.svg" width="481" xmlns="http://www.w3.org/2000/svg" xmlns:svg="http://www.w3.org/2000/svg" xmlns:xlink="http://www.w3.org/1999/xlink"><title id="title">ctl/RT-ctl-05
</title><style type="text/css"><![CDATA[.mono {
    font-size: 14px;
    font-family:  BitstreamVeraSansMono, Monaco, Courier, monospace;
}
.tics {
    stroke: black;
    stroke-width: .5;
    font-family: serif;
    font-size: 10px;
    text-anchor: middle;
}
.vertlines {
    stroke: black;
    stroke-width: .5;
}
.arrows {
    stroke: black;
    stroke-width: .5;
}
.label {
    font-family: serif;
    font-size: 11px;
    text-anchor: middle;
}
.name {
    font-family: serif;
    font-size: 12px;
    text-anchor: end;
}
]]>
</style>
<defs >
<marker id="arrowhead-end" markerHeight="12" markerUnits="strokeWidth" markerWidth="12" orient="auto" refX="24" refY="15" viewBox="0, 0, 30, 30">
<path d="M 0 0 L 30 15 L 0 30 z" />
</marker>
<marker id="arrowhead-start" markerHeight="12" markerUnits="strokeWidth" markerWidth="12" orient="auto" refX="6" refY="15" viewBox="0, 0, 30, 30">
<path d="M 30 0 L 0 15 L 30 30 z" />
</marker>
</defs>
<rect fill="oldlace" height="323" rx="5" width="481" x="0" y="0" />
<g class="mono" id="rule">
<a target="_top" xlink:href="../../ctl_search?results=Search;protein=RT;spans=201"><text x="48" y="294">K
</text>
</a>
<a target="_top" xlink:href="../../ctl_search?results=Search;protein=RT;spans=202"><text x="56" y="294">I
</text>
</a>
<a target="_top" xlink:href="../../ctl_search?results=Search;protein=RT;spans=203"><text x="64" y="294">E
</text>
</a>
<a target="_top" xlink:href="../../ctl_search?results=Search;protein=RT;spans=204"><text x="72" y="294">E
</text>
</a>
<a target="_top" xlink:href="../../ctl_search?results=Search;protein=RT;spans=205"><text x="80" y="294">L
</text>
</a>
<a target="_top" xlink:href="../../ctl_search?results=Search;protein=RT;spans=206"><text x="88" y="294">R
</text>
</a>
<a target="_top" xlink:href="../../ctl_search?results=Search;protein=RT;spans=207"><text x="96" y="294">Q
</text>
</a>
<a target="_top" xlink:href="../../ctl_search?results=Search;protein=RT;spans=208"><text x="104" y="294">H
</text>
</a>
<a target="_top" xlink:href="../../ctl_search?results=Search;protein=RT;spans=209"><text x="112" y="294">L
</text>
</a>
<a target="_top" xlink:href="../../ctl_search?results=Search;protein=RT;spans=210"><text x="120" y="294">L
</text>
</a>
<a target="_top" xlink:href="../../ctl_search?results=Search;protein=RT;spans=211"><text x="128" y="294">R
</text>
</a>
<a target="_top" xlink:href="../../ctl_search?results=Search;protein=RT;spans=212"><text x="136" y="294">W
</text>
</a>
<a target="_top" xlink:href="../../ctl_search?results=Search;protein=RT;spans=213"><text x="144" y="294">G
</text>
</a>
<a target="_top" xlink:href="../../ctl_search?results=Search;protein=RT;spans=214"><text x="152" y="294">L
</text>
</a>
<a target="_top" xlink:href="../../ctl_search?results=Search;protein=RT;spans=215"><text x="160" y="294">T
</text>
</a>
<a target="_top" xlink:href="../../ctl_search?results=Search;protein=RT;spans=216"><text x="168" y="294">T
</text>
</a>
<a target="_top" xlink:href="../../ctl_search?results=Search;protein=RT;spans=217"><text x="176" y="294">P
</text>
</a>
<a target="_top" xlink:href="../../ctl_search?results=Search;protein=RT;spans=218"><text x="184" y="294">D
</text>
</a>
<a target="_top" xlink:href="../../ctl_search?results=Search;protein=RT;spans=219"><text x="192" y="294">K
</text>
</a>
<a target="_top" xlink:href="../../ctl_search?results=Search;protein=RT;spans=220"><text x="200" y="294">K
</text>
</a>
<a target="_top" xlink:href="../../ctl_search?results=Search;protein=RT;spans=221"><text x="208" y="294">H
</text>
</a>
<a target="_top" xlink:href="../../ctl_search?results=Search;protein=RT;spans=222"><text x="216" y="294">Q
</text>
</a>
<a target="_top" xlink:href="../../ctl_search?results=Search;protein=RT;spans=223"><text x="224" y="294">K
</text>
</a>
<a target="_top" xlink:href="../../ctl_search?results=Search;protein=RT;spans=224"><text x="232" y="294">E
</text>
</a>
<a target="_top" xlink:href="../../ctl_search?results=Search;protein=RT;spans=225"><text x="240" y="294">P
</text>
</a>
<a target="_top" xlink:href="../../ctl_search?results=Search;protein=RT;spans=226"><text x="248" y="294">P
</text>
</a>
<a target="_top" xlink:href="../../ctl_search?results=Search;protein=RT;spans=227"><text x="256" y="294">F
</text>
</a>
<a target="_top" xlink:href="../../ctl_search?results=Search;protein=RT;spans=228"><text x="264" y="294">L
</text>
</a>
<a target="_top" xlink:href="../../ctl_search?results=Search;protein=RT;spans=229"><text x="272" y="294">W
</text>
</a>
<a target="_top" xlink:href="../../ctl_search?results=Search;protein=RT;spans=230"><text x="280" y="294">M
</text>
</a>
<a target="_top" xlink:href="../../ctl_search?results=Search;protein=RT;spans=231"><text x="288" y="294">G
</text>
</a>
<a target="_top" xlink:href="../../ctl_search?results=Search;protein=RT;spans=232"><text x="296" y="294">Y
</text>
</a>
<a target="_top" xlink:href="../../ctl_search?results=Search;protein=RT;spans=233"><text x="304" y="294">E
</text>
</a>
<a target="_top" xlink:href="../../ctl_search?results=Search;protein=RT;spans=234"><text x="312" y="294">L
</text>
</a>
<a target="_top" xlink:href="../../ctl_search?results=Search;protein=RT;spans=235"><text x="320" y="294">H
</text>
</a>
<a target="_top" xlink:href="../../ctl_search?results=Search;protein=RT;spans=236"><text x="328" y="294">P
</text>
</a>
<a target="_top" xlink:href="../../ctl_search?results=Search;protein=RT;spans=237"><text x="336" y="294">D
</text>
</a>
<a target="_top" xlink:href="../../ctl_search?results=Search;protein=RT;spans=238"><text x="344" y="294">K
</text>
</a>
<a target="_top" xlink:href="../../ctl_search?results=Search;protein=RT;spans=239"><text x="352" y="294">W
</text>
</a>
<a target="_top" xlink:href="../../ctl_search?results=Search;protein=RT;spans=240"><text x="360" y="294">T
</text>
</a>
<a target="_top" xlink:href="../../ctl_search?results=Search;protein=RT;spans=241"><text x="368" y="294">V
</text>
</a>
<a target="_top" xlink:href="../../ctl_search?results=Search;protein=RT;spans=242"><text x="376" y="294">Q
</text>
</a>
<a target="_top" xlink:href="../../ctl_search?results=Search;protein=RT;spans=243"><text x="384" y="294">P
</text>
</a>
<a target="_top" xlink:href="../../ctl_search?results=Search;protein=RT;spans=244"><text x="392" y="294">I
</text>
</a>
<a target="_top" xlink:href="../../ctl_search?results=Search;protein=RT;spans=245"><text x="400" y="294">V
</text>
</a>
<a target="_top" xlink:href="../../ctl_search?results=Search;protein=RT;spans=246"><text x="408" y="294">L
</text>
</a>
<a target="_top" xlink:href="../../ctl_search?results=Search;protein=RT;spans=247"><text x="416" y="294">P
</text>
</a>
<a target="_top" xlink:href="../../ctl_search?results=Search;protein=RT;spans=248"><text x="424" y="294">E
</text>
</a>
<a target="_top" xlink:href="../../ctl_search?results=Search;protein=RT;spans=249"><text x="432" y="294">K
</text>
</a>
<a target="_top" xlink:href="../../ctl_search?results=Search;protein=RT;spans=250"><text x="440" y="294">D
</text>
</a>
</g>
<g class="tics" id="tics">
<line x1="124" x2="124" y1="295" y2="299" /><text stroke-width="0" x="124" y="308">210
</text>
<line x1="204" x2="204" y1="295" y2="299" /><text stroke-width="0" x="204" y="308">220
</text>
<line x1="284" x2="284" y1="295" y2="299" /><text stroke-width="0" x="284" y="308">230
</text>
<line x1="364" x2="364" y1="295" y2="299" /><text stroke-width="0" x="364" y="308">240
</text>
<line x1="444" x2="444" y1="295" y2="299" /><text stroke-width="0" x="444" y="308">250
</text>
</g>
<g class="vertlines" id="vertlines">
<line x1="48" x2="48" y1="280" y2="221.2" />
<line x1="56" x2="56" y1="280" y2="151.2" />
<line x1="64" x2="64" y1="280" y2="109.2" />
<line x1="72" x2="72" y1="280" y2="95.2" />
<line x1="88" x2="88" y1="280" y2="81.2" />
<line x1="112" x2="112" y1="280" y2="53.2" />
<line x1="120" x2="120" y1="280" y2="235.2" />
<line x1="128" x2="128" y1="280" y2="151.2" />
<line x1="136" x2="136" y1="280" y2="137.2" />
<line x1="144" x2="144" y1="280" y2="95.2" />
<line x1="152" x2="152" y1="280" y2="39.2" />
<line x1="160" x2="160" y1="280" y2="25.2" />
<line x1="208" x2="208" y1="280" y2="53.2" />
<line x1="232" x2="232" y1="280" y2="39.2" />
<line x1="240" x2="240" y1="280" y2="25.2" />
<line x1="280" x2="280" y1="280" y2="235.2" />
<line x1="304" x2="304" y1="280" y2="263.2" />
<line x1="360" x2="360" y1="280" y2="249.2" />
<line x1="376" x2="376" y1="280" y2="263.2" />
<line x1="384" x2="384" y1="280" y2="221.2" />
<line x1="392" x2="392" y1="280" y2="165.2" />
<line x1="400" x2="400" y1="280" y2="151.2" />
<line x1="432" x2="432" y1="280" y2="249.2" />
</g>
<g class="arrows" id="arrows">
<line marker-end="url(#arrowhead-end)" x1="40" x2="56" y1="266" y2="266" />
<line marker-end="url(#arrowhead-end)" marker-start="url(#arrowhead-start)" x1="120" x2="208" y1="266" y2="266" />
<line marker-end="url(#arrowhead-end)" marker-start="url(#arrowhead-start)" x1="304" x2="376" y1="266" y2="266" />
<line marker-end="url(#arrowhead-end)" x1="40" x2="64" y1="252" y2="252" />
<line marker-end="url(#arrowhead-end)" marker-start="url(#arrowhead-start)" x1="152" x2="232" y1="252" y2="252" />
<line marker-end="url(#arrowhead-end)" marker-start="url(#arrowhead-start)" x1="360" x2="432" y1="252" y2="252" />
<line marker-end="url(#arrowhead-end)" marker-start="url(#arrowhead-start)" x1="48" x2="120" y1="238" y2="238" />
<line marker-end="url(#arrowhead-end)" marker-start="url(#arrowhead-start)" x1="208" x2="280" y1="238" y2="238" />
<line marker-start="url(#arrowhead-start)" x1="384" x2="456" y1="238" y2="238" />
<line marker-end="url(#arrowhead-end)" marker-start="url(#arrowhead-start)" x1="48" x2="128" y1="224" y2="224" />
<line marker-start="url(#arrowhead-start)" x1="384" x2="456" y1="224" y2="224" />
<line marker-end="url(#arrowhead-end)" marker-start="url(#arrowhead-start)" x1="56" x2="128" y1="210" y2="210" />
<line marker-start="url(#arrowhead-start)" x1="392" x2="456" y1="210" y2="210" />
<line marker-end="url(#arrowhead-end)" marker-start="url(#arrowhead-start)" x1="56" x2="128" y1="196" y2="196" />
<line marker-start="url(#arrowhead-start)" x1="392" x2="456" y1="196" y2="196" />
<line marker-end="url(#arrowhead-end)" marker-start="url(#arrowhead-start)" x1="56" x2="128" y1="182" y2="182" />
<line marker-start="url(#arrowhead-start)" x1="392" x2="456" y1="182" y2="182" />
<line marker-end="url(#arrowhead-end)" marker-start="url(#arrowhead-start)" x1="56" x2="128" y1="168" y2="168" />
<line marker-start="url(#arrowhead-start)" x1="392" x2="456" y1="168" y2="168" />
<line marker-end="url(#arrowhead-end)" marker-start="url(#arrowhead-start)" x1="56" x2="128" y1="154" y2="154" />
<line marker-start="url(#arrowhead-start)" x1="400" x2="456" y1="154" y2="154" />
<line marker-end="url(#arrowhead-end)" marker-start="url(#arrowhead-start)" x1="64" x2="136" y1="140" y2="140" />
<line marker-end="url(#arrowhead-end)" marker-start="url(#arrowhead-start)" x1="64" x2="144" y1="126" y2="126" />
<line marker-end="url(#arrowhead-end)" marker-start="url(#arrowhead-start)" x1="64" x2="144" y1="112" y2="112" />
<line marker-end="url(#arrowhead-end)" marker-start="url(#arrowhead-start)" x1="72" x2="144" y1="98" y2="98" />
<line marker-end="url(#arrowhead-end)" marker-start="url(#arrowhead-start)" x1="88" x2="160" y1="84" y2="84" />
<line marker-end="url(#arrowhead-end)" marker-start="url(#arrowhead-start)" x1="112" x2="208" y1="70" y2="70" />
<line marker-end="url(#arrowhead-end)" marker-start="url(#arrowhead-start)" x1="112" x2="208" y1="56" y2="56" />
<line marker-end="url(#arrowhead-end)" marker-start="url(#arrowhead-start)" x1="152" x2="232" y1="42" y2="42" />
<line marker-end="url(#arrowhead-end)" marker-start="url(#arrowhead-start)" x1="160" x2="240" y1="28" y2="28" />
</g>
<g class="label" id="label">
<a target="_top" xlink:href="../../ctl_search?results=Search;protein=RT;inrange=192-201;hla=A3"><text x="48" y="265">A3
</text>
</a>
<a target="_top" xlink:href="../../ctl_search?results=Search;protein=RT;inrange=210-220;hla=B57"><text x="164" y="265">B57
</text>
</a>
<a target="_top" xlink:href="../../ctl_search?results=Search;protein=RT;inrange=233-241"><text x="340" y="265">human
</text>
</a>
<a target="_top" xlink:href="../../ctl_search?results=Search;protein=RT;inrange=192-202;hla=A3"><text x="52" y="251">A3
</text>
</a>
<a target="_top" xlink:href="../../ctl_search?results=Search;protein=RT;inrange=214-223;hla=A11"><text x="192" y="251">A11
</text>
</a>
<a target="_top" xlink:href="../../ctl_search?results=Search;protein=RT;inrange=240-248"><text x="396" y="251">human
</text>
</a>
<a target="_top" xlink:href="../../ctl_search?results=Search;protein=RT;inrange=201-209;hla=A2"><text x="84" y="237">A2
</text>
</a>
<a target="_top" xlink:href="../../ctl_search?results=Search;protein=RT;inrange=221-229"><text x="244" y="237">human
</text>
</a>
<a target="_top" xlink:href="../../ctl_search?results=Search;protein=RT;inrange=243-252;hla=B*5701"><text x="420" y="237">B*5701
</text>
</a>
<a target="_top" xlink:href="../../ctl_search?results=Search;protein=RT;inrange=201-210;hla=B58"><text x="88" y="223">B58
</text>
</a>
<a target="_top" xlink:href="../../ctl_search?results=Search;protein=RT;inrange=243-252;hla=B57"><text x="420" y="223">B57
</text>
</a>
<a target="_top" xlink:href="../../ctl_search?results=Search;protein=RT;inrange=202-210;hla=B*4001"><text x="92" y="209">B*4001
</text>
</a>
<a target="_top" xlink:href="../../ctl_search?results=Search;protein=RT;inrange=244-252;hla=B*5701"><text x="424" y="209">B*5701
</text>
</a>
<a target="_top" xlink:href="../../ctl_search?results=Search;protein=RT;inrange=202-210;hla=B*60"><text x="92" y="195">B*60
</text>
</a>
<a target="_top" xlink:href="../../ctl_search?results=Search;protein=RT;inrange=244-252;hla=B*5801"><text x="424" y="195">B*5801
</text>
</a>
<a target="_top" xlink:href="../../ctl_search?results=Search;protein=RT;inrange=202-210;hla=B40"><text x="92" y="181">B40
</text>
</a>
<a target="_top" xlink:href="../../ctl_search?results=Search;protein=RT;inrange=244-252;hla=B57"><text x="424" y="181">B57
</text>
</a>
<a target="_top" xlink:href="../../ctl_search?results=Search;protein=RT;inrange=202-210;hla=B60"><text x="92" y="167">B60
</text>
</a>
<a target="_top" xlink:href="../../ctl_search?results=Search;protein=RT;inrange=244-252;hla=B58"><text x="424" y="167">B58
</text>
</a>
<a target="_top" xlink:href="../../ctl_search?results=Search;protein=RT;inrange=202-210;hla=B61"><text x="92" y="153">B61
</text>
</a>
<a target="_top" xlink:href="../../ctl_search?results=Search;protein=RT;inrange=245-252;hla=B57"><text x="428" y="153">B57
</text>
</a>
<a target="_top" xlink:href="../../ctl_search?results=Search;protein=RT;inrange=203-211;hla=B44"><text x="100" y="139">B44
</text>
</a>
<a target="_top" xlink:href="../../ctl_search?results=Search;protein=RT;inrange=203-212;hla=B*4403"><text x="104" y="125">B*4403
</text>
</a>
<a target="_top" xlink:href="../../ctl_search?results=Search;protein=RT;inrange=203-212;hla=B44"><text x="104" y="111">B44
</text>
</a>
<a target="_top" xlink:href="../../ctl_search?results=Search;protein=RT;inrange=204-212;hla=A*2501"><text x="108" y="97">A*2501
</text>
</a>
<a target="_top" xlink:href="../../ctl_search?results=Search;protein=RT;inrange=206-214;hla=H-2K&lt;sup&gt;d&lt;/sup&gt;"><text x="124" y="83">H-2Kd
</text>
</a>
<a target="_top" xlink:href="../../ctl_search?results=Search;protein=RT;inrange=209-220;hla=A*0201"><text x="160" y="69">A*0201
</text>
</a>
<a target="_top" xlink:href="../../ctl_search?results=Search;protein=RT;inrange=209-220;hla=A2"><text x="160" y="55">A2
</text>
</a>
<a target="_top" xlink:href="../../ctl_search?results=Search;protein=RT;inrange=214-223;hla=A68"><text x="192" y="41">A68
</text>
</a>
<a target="_top" xlink:href="../../ctl_search?results=Search;protein=RT;inrange=215-224;hla=A11"><text x="200" y="27">A11
</text>
</a>
</g>
</svg>
