<?xml version="1.0" encoding="UTF-8" standalone="yes"?>
<!DOCTYPE svg PUBLIC "-//W3C//DTD SVG 1.0//EN" "http://www.w3.org/TR/2001/REC-SVG-20010904/DTD/svg10.dtd">
<svg height="519" id="ctl/RT-ctl-04.svg" width="481" xmlns="http://www.w3.org/2000/svg" xmlns:svg="http://www.w3.org/2000/svg" xmlns:xlink="http://www.w3.org/1999/xlink"><title id="title">ctl/RT-ctl-04
</title><style type="text/css"><![CDATA[.mono {
    font-size: 14px;
    font-family:  BitstreamVeraSansMono, Monaco, Courier, monospace;
}
.tics {
    stroke: black;
    stroke-width: .5;
    font-family: serif;
    font-size: 10px;
    text-anchor: middle;
}
.vertlines {
    stroke: black;
    stroke-width: .5;
}
.arrows {
    stroke: black;
    stroke-width: .5;
}
.label {
    font-family: serif;
    font-size: 11px;
    text-anchor: middle;
}
.name {
    font-family: serif;
    font-size: 12px;
    text-anchor: end;
}
]]>
</style>
<defs >
<marker id="arrowhead-end" markerHeight="12" markerUnits="strokeWidth" markerWidth="12" orient="auto" refX="24" refY="15" viewBox="0, 0, 30, 30">
<path d="M 0 0 L 30 15 L 0 30 z" />
</marker>
<marker id="arrowhead-start" markerHeight="12" markerUnits="strokeWidth" markerWidth="12" orient="auto" refX="6" refY="15" viewBox="0, 0, 30, 30">
<path d="M 30 0 L 0 15 L 30 30 z" />
</marker>
</defs>
<rect fill="oldlace" height="519" rx="5" width="481" x="0" y="0" />
<g class="mono" id="rule">
<a target="_top" xlink:href="../../ctl_search?results=Search;protein=RT;spans=151"><text x="48" y="490">Q
</text>
</a>
<a target="_top" xlink:href="../../ctl_search?results=Search;protein=RT;spans=152"><text x="56" y="490">G
</text>
</a>
<a target="_top" xlink:href="../../ctl_search?results=Search;protein=RT;spans=153"><text x="64" y="490">W
</text>
</a>
<a target="_top" xlink:href="../../ctl_search?results=Search;protein=RT;spans=154"><text x="72" y="490">K
</text>
</a>
<a target="_top" xlink:href="../../ctl_search?results=Search;protein=RT;spans=155"><text x="80" y="490">G
</text>
</a>
<a target="_top" xlink:href="../../ctl_search?results=Search;protein=RT;spans=156"><text x="88" y="490">S
</text>
</a>
<a target="_top" xlink:href="../../ctl_search?results=Search;protein=RT;spans=157"><text x="96" y="490">P
</text>
</a>
<a target="_top" xlink:href="../../ctl_search?results=Search;protein=RT;spans=158"><text x="104" y="490">A
</text>
</a>
<a target="_top" xlink:href="../../ctl_search?results=Search;protein=RT;spans=159"><text x="112" y="490">I
</text>
</a>
<a target="_top" xlink:href="../../ctl_search?results=Search;protein=RT;spans=160"><text x="120" y="490">F
</text>
</a>
<a target="_top" xlink:href="../../ctl_search?results=Search;protein=RT;spans=161"><text x="128" y="490">Q
</text>
</a>
<a target="_top" xlink:href="../../ctl_search?results=Search;protein=RT;spans=162"><text x="136" y="490">S
</text>
</a>
<a target="_top" xlink:href="../../ctl_search?results=Search;protein=RT;spans=163"><text x="144" y="490">S
</text>
</a>
<a target="_top" xlink:href="../../ctl_search?results=Search;protein=RT;spans=164"><text x="152" y="490">M
</text>
</a>
<a target="_top" xlink:href="../../ctl_search?results=Search;protein=RT;spans=165"><text x="160" y="490">T
</text>
</a>
<a target="_top" xlink:href="../../ctl_search?results=Search;protein=RT;spans=166"><text x="168" y="490">K
</text>
</a>
<a target="_top" xlink:href="../../ctl_search?results=Search;protein=RT;spans=167"><text x="176" y="490">I
</text>
</a>
<a target="_top" xlink:href="../../ctl_search?results=Search;protein=RT;spans=168"><text x="184" y="490">L
</text>
</a>
<a target="_top" xlink:href="../../ctl_search?results=Search;protein=RT;spans=169"><text x="192" y="490">E
</text>
</a>
<a target="_top" xlink:href="../../ctl_search?results=Search;protein=RT;spans=170"><text x="200" y="490">P
</text>
</a>
<a target="_top" xlink:href="../../ctl_search?results=Search;protein=RT;spans=171"><text x="208" y="490">F
</text>
</a>
<a target="_top" xlink:href="../../ctl_search?results=Search;protein=RT;spans=172"><text x="216" y="490">R
</text>
</a>
<a target="_top" xlink:href="../../ctl_search?results=Search;protein=RT;spans=173"><text x="224" y="490">K
</text>
</a>
<a target="_top" xlink:href="../../ctl_search?results=Search;protein=RT;spans=174"><text x="232" y="490">Q
</text>
</a>
<a target="_top" xlink:href="../../ctl_search?results=Search;protein=RT;spans=175"><text x="240" y="490">N
</text>
</a>
<a target="_top" xlink:href="../../ctl_search?results=Search;protein=RT;spans=176"><text x="248" y="490">P
</text>
</a>
<a target="_top" xlink:href="../../ctl_search?results=Search;protein=RT;spans=177"><text x="256" y="490">D
</text>
</a>
<a target="_top" xlink:href="../../ctl_search?results=Search;protein=RT;spans=178"><text x="264" y="490">I
</text>
</a>
<a target="_top" xlink:href="../../ctl_search?results=Search;protein=RT;spans=179"><text x="272" y="490">V
</text>
</a>
<a target="_top" xlink:href="../../ctl_search?results=Search;protein=RT;spans=180"><text x="280" y="490">I
</text>
</a>
<a target="_top" xlink:href="../../ctl_search?results=Search;protein=RT;spans=181"><text x="288" y="490">Y
</text>
</a>
<a target="_top" xlink:href="../../ctl_search?results=Search;protein=RT;spans=182"><text x="296" y="490">Q
</text>
</a>
<a target="_top" xlink:href="../../ctl_search?results=Search;protein=RT;spans=183"><text x="304" y="490">Y
</text>
</a>
<a target="_top" xlink:href="../../ctl_search?results=Search;protein=RT;spans=184"><text x="312" y="490">M
</text>
</a>
<a target="_top" xlink:href="../../ctl_search?results=Search;protein=RT;spans=185"><text x="320" y="490">D
</text>
</a>
<a target="_top" xlink:href="../../ctl_search?results=Search;protein=RT;spans=186"><text x="328" y="490">D
</text>
</a>
<a target="_top" xlink:href="../../ctl_search?results=Search;protein=RT;spans=187"><text x="336" y="490">L
</text>
</a>
<a target="_top" xlink:href="../../ctl_search?results=Search;protein=RT;spans=188"><text x="344" y="490">Y
</text>
</a>
<a target="_top" xlink:href="../../ctl_search?results=Search;protein=RT;spans=189"><text x="352" y="490">V
</text>
</a>
<a target="_top" xlink:href="../../ctl_search?results=Search;protein=RT;spans=190"><text x="360" y="490">G
</text>
</a>
<a target="_top" xlink:href="../../ctl_search?results=Search;protein=RT;spans=191"><text x="368" y="490">S
</text>
</a>
<a target="_top" xlink:href="../../ctl_search?results=Search;protein=RT;spans=192"><text x="376" y="490">D
</text>
</a>
<a target="_top" xlink:href="../../ctl_search?results=Search;protein=RT;spans=193"><text x="384" y="490">L
</text>
</a>
<a target="_top" xlink:href="../../ctl_search?results=Search;protein=RT;spans=194"><text x="392" y="490">E
</text>
</a>
<a target="_top" xlink:href="../../ctl_search?results=Search;protein=RT;spans=195"><text x="400" y="490">I
</text>
</a>
<a target="_top" xlink:href="../../ctl_search?results=Search;protein=RT;spans=196"><text x="408" y="490">G
</text>
</a>
<a target="_top" xlink:href="../../ctl_search?results=Search;protein=RT;spans=197"><text x="416" y="490">Q
</text>
</a>
<a target="_top" xlink:href="../../ctl_search?results=Search;protein=RT;spans=198"><text x="424" y="490">H
</text>
</a>
<a target="_top" xlink:href="../../ctl_search?results=Search;protein=RT;spans=199"><text x="432" y="490">R
</text>
</a>
<a target="_top" xlink:href="../../ctl_search?results=Search;protein=RT;spans=200"><text x="440" y="490">T
</text>
</a>
</g>
<g class="tics" id="tics">
<line x1="124" x2="124" y1="491" y2="495" /><text stroke-width="0" x="124" y="504">160
</text>
<line x1="204" x2="204" y1="491" y2="495" /><text stroke-width="0" x="204" y="504">170
</text>
<line x1="284" x2="284" y1="491" y2="495" /><text stroke-width="0" x="284" y="504">180
</text>
<line x1="364" x2="364" y1="491" y2="495" /><text stroke-width="0" x="364" y="504">190
</text>
<line x1="444" x2="444" y1="491" y2="495" /><text stroke-width="0" x="444" y="504">200
</text>
</g>
<g class="vertlines" id="vertlines">
<line x1="48" x2="48" y1="476" y2="431.2" />
<line x1="64" x2="64" y1="476" y2="417.2" />
<line x1="80" x2="80" y1="476" y2="403.2" />
<line x1="88" x2="88" y1="476" y2="207.2" />
<line x1="104" x2="104" y1="476" y2="95.2" />
<line x1="112" x2="112" y1="476" y2="67.2" />
<line x1="120" x2="120" y1="476" y2="431.2" />
<line x1="144" x2="144" y1="476" y2="53.2" />
<line x1="152" x2="152" y1="476" y2="25.1999999999999" />
<line x1="160" x2="160" y1="476" y2="319.2" />
<line x1="168" x2="168" y1="476" y2="291.2" />
<line x1="176" x2="176" y1="476" y2="95.2" />
<line x1="184" x2="184" y1="476" y2="67.2" />
<line x1="208" x2="208" y1="476" y2="459.2" />
<line x1="216" x2="216" y1="476" y2="53.2" />
<line x1="224" x2="224" y1="476" y2="25.1999999999999" />
<line x1="232" x2="232" y1="476" y2="417.2" />
<line x1="240" x2="240" y1="476" y2="305.2" />
<line x1="272" x2="272" y1="476" y2="263.2" />
<line x1="280" x2="280" y1="476" y2="249.2" />
<line x1="288" x2="288" y1="476" y2="221.2" />
<line x1="296" x2="296" y1="476" y2="389.2" />
<line x1="304" x2="304" y1="476" y2="361.2" />
<line x1="312" x2="312" y1="476" y2="319.2" />
<line x1="320" x2="320" y1="476" y2="305.2" />
<line x1="328" x2="328" y1="476" y2="207.2" />
<line x1="344" x2="344" y1="476" y2="263.2" />
<line x1="360" x2="360" y1="476" y2="221.2" />
<line x1="376" x2="376" y1="476" y2="445.2" />
<line x1="400" x2="400" y1="476" y2="207.2" />
</g>
<g class="arrows" id="arrows">
<line marker-end="url(#arrowhead-end)" x1="40" x2="112" y1="462" y2="462" />
<line marker-end="url(#arrowhead-end)" marker-start="url(#arrowhead-start)" x1="208" x2="280" y1="462" y2="462" />
<line marker-start="url(#arrowhead-start)" x1="376" x2="456" y1="462" y2="462" />
<line marker-end="url(#arrowhead-end)" x1="40" x2="120" y1="448" y2="448" />
<line marker-end="url(#arrowhead-end)" marker-start="url(#arrowhead-start)" x1="224" x2="296" y1="448" y2="448" />
<line marker-start="url(#arrowhead-start)" x1="376" x2="456" y1="448" y2="448" />
<line marker-end="url(#arrowhead-end)" marker-start="url(#arrowhead-start)" x1="48" x2="120" y1="434" y2="434" />
<line marker-end="url(#arrowhead-end)" marker-start="url(#arrowhead-start)" x1="224" x2="296" y1="434" y2="434" />
<line marker-end="url(#arrowhead-end)" marker-start="url(#arrowhead-start)" x1="64" x2="168" y1="420" y2="420" />
<line marker-end="url(#arrowhead-end)" marker-start="url(#arrowhead-start)" x1="232" x2="304" y1="420" y2="420" />
<line marker-end="url(#arrowhead-end)" marker-start="url(#arrowhead-start)" x1="80" x2="152" y1="406" y2="406" />
<line marker-end="url(#arrowhead-end)" marker-start="url(#arrowhead-start)" x1="224" x2="296" y1="406" y2="406" />
<line marker-end="url(#arrowhead-end)" marker-start="url(#arrowhead-start)" x1="88" x2="160" y1="392" y2="392" />
<line marker-end="url(#arrowhead-end)" marker-start="url(#arrowhead-start)" x1="224" x2="296" y1="392" y2="392" />
<line marker-end="url(#arrowhead-end)" marker-start="url(#arrowhead-start)" x1="88" x2="160" y1="378" y2="378" />
<line marker-end="url(#arrowhead-end)" marker-start="url(#arrowhead-start)" x1="224" x2="312" y1="378" y2="378" />
<line marker-end="url(#arrowhead-end)" marker-start="url(#arrowhead-start)" x1="88" x2="160" y1="364" y2="364" />
<line marker-end="url(#arrowhead-end)" marker-start="url(#arrowhead-start)" x1="240" x2="304" y1="364" y2="364" />
<line marker-end="url(#arrowhead-end)" marker-start="url(#arrowhead-start)" x1="88" x2="160" y1="350" y2="350" />
<line marker-end="url(#arrowhead-end)" marker-start="url(#arrowhead-start)" x1="240" x2="312" y1="350" y2="350" />
<line marker-end="url(#arrowhead-end)" marker-start="url(#arrowhead-start)" x1="88" x2="160" y1="336" y2="336" />
<line marker-end="url(#arrowhead-end)" marker-start="url(#arrowhead-start)" x1="240" x2="312" y1="336" y2="336" />
<line marker-end="url(#arrowhead-end)" marker-start="url(#arrowhead-start)" x1="88" x2="160" y1="322" y2="322" />
<line marker-end="url(#arrowhead-end)" marker-start="url(#arrowhead-start)" x1="240" x2="312" y1="322" y2="322" />
<line marker-end="url(#arrowhead-end)" marker-start="url(#arrowhead-start)" x1="88" x2="168" y1="308" y2="308" />
<line marker-end="url(#arrowhead-end)" marker-start="url(#arrowhead-start)" x1="240" x2="320" y1="308" y2="308" />
<line marker-end="url(#arrowhead-end)" marker-start="url(#arrowhead-start)" x1="88" x2="168" y1="294" y2="294" />
<line marker-end="url(#arrowhead-end)" marker-start="url(#arrowhead-start)" x1="272" x2="344" y1="294" y2="294" />
<line marker-end="url(#arrowhead-end)" marker-start="url(#arrowhead-start)" x1="88" x2="176" y1="280" y2="280" />
<line marker-end="url(#arrowhead-end)" marker-start="url(#arrowhead-start)" x1="272" x2="344" y1="280" y2="280" />
<line marker-end="url(#arrowhead-end)" marker-start="url(#arrowhead-start)" x1="88" x2="176" y1="266" y2="266" />
<line marker-end="url(#arrowhead-end)" marker-start="url(#arrowhead-start)" x1="272" x2="344" y1="266" y2="266" />
<line marker-end="url(#arrowhead-end)" marker-start="url(#arrowhead-start)" x1="88" x2="176" y1="252" y2="252" />
<line marker-end="url(#arrowhead-end)" marker-start="url(#arrowhead-start)" x1="280" x2="360" y1="252" y2="252" />
<line marker-end="url(#arrowhead-end)" marker-start="url(#arrowhead-start)" x1="88" x2="176" y1="238" y2="238" />
<line marker-end="url(#arrowhead-end)" marker-start="url(#arrowhead-start)" x1="288" x2="360" y1="238" y2="238" />
<line marker-end="url(#arrowhead-end)" marker-start="url(#arrowhead-start)" x1="88" x2="176" y1="224" y2="224" />
<line marker-end="url(#arrowhead-end)" marker-start="url(#arrowhead-start)" x1="288" x2="360" y1="224" y2="224" />
<line marker-end="url(#arrowhead-end)" marker-start="url(#arrowhead-start)" x1="88" x2="176" y1="210" y2="210" />
<line marker-end="url(#arrowhead-end)" marker-start="url(#arrowhead-start)" x1="328" x2="400" y1="210" y2="210" />
<line marker-end="url(#arrowhead-end)" marker-start="url(#arrowhead-start)" x1="104" x2="176" y1="196" y2="196" />
<line marker-end="url(#arrowhead-end)" marker-start="url(#arrowhead-start)" x1="104" x2="176" y1="182" y2="182" />
<line marker-end="url(#arrowhead-end)" marker-start="url(#arrowhead-start)" x1="104" x2="176" y1="168" y2="168" />
<line marker-end="url(#arrowhead-end)" marker-start="url(#arrowhead-start)" x1="104" x2="176" y1="154" y2="154" />
<line marker-end="url(#arrowhead-end)" marker-start="url(#arrowhead-start)" x1="104" x2="176" y1="140" y2="140" />
<line marker-end="url(#arrowhead-end)" marker-start="url(#arrowhead-start)" x1="104" x2="176" y1="126" y2="126" />
<line marker-end="url(#arrowhead-end)" marker-start="url(#arrowhead-start)" x1="104" x2="176" y1="112" y2="112" />
<line marker-end="url(#arrowhead-end)" marker-start="url(#arrowhead-start)" x1="104" x2="176" y1="98" y2="98" />
<line marker-end="url(#arrowhead-end)" marker-start="url(#arrowhead-start)" x1="112" x2="184" y1="84" y2="84" />
<line marker-end="url(#arrowhead-end)" marker-start="url(#arrowhead-start)" x1="112" x2="184" y1="70" y2="70" />
<line marker-end="url(#arrowhead-end)" marker-start="url(#arrowhead-start)" x1="144" x2="216" y1="56" y2="56" />
<line marker-end="url(#arrowhead-end)" marker-start="url(#arrowhead-start)" x1="152" x2="224" y1="42" y2="42" />
<line marker-end="url(#arrowhead-end)" marker-start="url(#arrowhead-start)" x1="152" x2="224" y1="28" y2="28" />
</g>
<g class="label" id="label">
<a target="_top" xlink:href="../../ctl_search?results=Search;protein=RT;inrange=149-158;hla=B*5401"><text x="76" y="461">B*5401
</text>
</a>
<a target="_top" xlink:href="../../ctl_search?results=Search;protein=RT;inrange=171-179"><text x="244" y="461">human
</text>
</a>
<a target="_top" xlink:href="../../ctl_search?results=Search;protein=RT;inrange=192-201;hla=A3"><text x="416" y="461">A3
</text>
</a>
<a target="_top" xlink:href="../../ctl_search?results=Search;protein=RT;inrange=149-159;hla=B*3910"><text x="80" y="447">B*3910
</text>
</a>
<a target="_top" xlink:href="../../ctl_search?results=Search;protein=RT;inrange=173-181;hla=A*3002"><text x="260" y="447">A*3002
</text>
</a>
<a target="_top" xlink:href="../../ctl_search?results=Search;protein=RT;inrange=192-202;hla=A3"><text x="416" y="447">A3
</text>
</a>
<a target="_top" xlink:href="../../ctl_search?results=Search;protein=RT;inrange=151-159;hla=B*5101"><text x="84" y="433">B*5101
</text>
</a>
<a target="_top" xlink:href="../../ctl_search?results=Search;protein=RT;inrange=173-181;hla=A30"><text x="260" y="433">A30
</text>
</a>
<a target="_top" xlink:href="../../ctl_search?results=Search;protein=RT;inrange=153-165;hla=B7"><text x="116" y="419">B7
</text>
</a>
<a target="_top" xlink:href="../../ctl_search?results=Search;protein=RT;inrange=174-182"><text x="268" y="419">human
</text>
</a>
<a target="_top" xlink:href="../../ctl_search?results=Search;protein=RT;inrange=155-163"><text x="116" y="405">human
</text>
</a>
<a target="_top" xlink:href="../../ctl_search?results=Search;protein=RT;inrange=173-181;hla=B*1503"><text x="260" y="405">B*1503
</text>
</a>
<a target="_top" xlink:href="../../ctl_search?results=Search;protein=RT;inrange=156-164;hla=B*0702"><text x="124" y="391">B*0702
</text>
</a>
<a target="_top" xlink:href="../../ctl_search?results=Search;protein=RT;inrange=173-181;hla=Cw*1202"><text x="260" y="391">Cw*1202
</text>
</a>
<a target="_top" xlink:href="../../ctl_search?results=Search;protein=RT;inrange=156-164;hla=B*3501"><text x="124" y="377">B*3501
</text>
</a>
<a target="_top" xlink:href="../../ctl_search?results=Search;protein=RT;inrange=173-183;hla=A*3002"><text x="268" y="377">A*3002
</text>
</a>
<a target="_top" xlink:href="../../ctl_search?results=Search;protein=RT;inrange=156-164;hla=B*4202"><text x="124" y="363">B*4202
</text>
</a>
<a target="_top" xlink:href="../../ctl_search?results=Search;protein=RT;inrange=175-182;hla=B35"><text x="272" y="363">B35
</text>
</a>
<a target="_top" xlink:href="../../ctl_search?results=Search;protein=RT;inrange=156-164;hla=B*8101"><text x="124" y="349">B*8101
</text>
</a>
<a target="_top" xlink:href="../../ctl_search?results=Search;protein=RT;inrange=175-183;hla=B*3501"><text x="276" y="349">B*3501
</text>
</a>
<a target="_top" xlink:href="../../ctl_search?results=Search;protein=RT;inrange=156-164;hla=B35"><text x="124" y="335">B35
</text>
</a>
<a target="_top" xlink:href="../../ctl_search?results=Search;protein=RT;inrange=175-183;hla=B18"><text x="276" y="335">B18
</text>
</a>
<a target="_top" xlink:href="../../ctl_search?results=Search;protein=RT;inrange=156-164;hla=B7"><text x="124" y="321">B7
</text>
</a>
<a target="_top" xlink:href="../../ctl_search?results=Search;protein=RT;inrange=175-183;hla=B35"><text x="276" y="321">B35
</text>
</a>
<a target="_top" xlink:href="../../ctl_search?results=Search;protein=RT;inrange=156-165;hla=B35"><text x="128" y="307">B35
</text>
</a>
<a target="_top" xlink:href="../../ctl_search?results=Search;protein=RT;inrange=175-184;hla=B51"><text x="280" y="307">B51
</text>
</a>
<a target="_top" xlink:href="../../ctl_search?results=Search;protein=RT;inrange=156-165;hla=B7"><text x="128" y="293">B7
</text>
</a>
<a target="_top" xlink:href="../../ctl_search?results=Search;protein=RT;inrange=179-187;hla=A*0201"><text x="308" y="293">A*0201
</text>
</a>
<a target="_top" xlink:href="../../ctl_search?results=Search;protein=RT;inrange=156-166;hla=A*6801"><text x="132" y="279">A*6801
</text>
</a>
<a target="_top" xlink:href="../../ctl_search?results=Search;protein=RT;inrange=179-187;hla=A*0202"><text x="308" y="279">A*0202
</text>
</a>
<a target="_top" xlink:href="../../ctl_search?results=Search;protein=RT;inrange=156-166;hla=A11"><text x="132" y="265">A11
</text>
</a>
<a target="_top" xlink:href="../../ctl_search?results=Search;protein=RT;inrange=179-187;hla=A2"><text x="308" y="265">A2
</text>
</a>
<a target="_top" xlink:href="../../ctl_search?results=Search;protein=RT;inrange=156-166;hla=A3"><text x="132" y="251">A3
</text>
</a>
<a target="_top" xlink:href="../../ctl_search?results=Search;protein=RT;inrange=180-189;hla=A*0201"><text x="320" y="251">A*0201
</text>
</a>
<a target="_top" xlink:href="../../ctl_search?results=Search;protein=RT;inrange=156-166;hla=A33"><text x="132" y="237">A33
</text>
</a>
<a target="_top" xlink:href="../../ctl_search?results=Search;protein=RT;inrange=181-189;hla=A*0201"><text x="324" y="237">A*0201
</text>
</a>
<a target="_top" xlink:href="../../ctl_search?results=Search;protein=RT;inrange=156-166;hla=B35"><text x="132" y="223">B35
</text>
</a>
<a target="_top" xlink:href="../../ctl_search?results=Search;protein=RT;inrange=181-189;hla=A2"><text x="324" y="223">A2
</text>
</a>
<a target="_top" xlink:href="../../ctl_search?results=Search;protein=RT;inrange=156-166;hla=B7"><text x="132" y="209">B7
</text>
</a>
<a target="_top" xlink:href="../../ctl_search?results=Search;protein=RT;inrange=186-194"><text x="364" y="209">human
</text>
</a>
<a target="_top" xlink:href="../../ctl_search?results=Search;protein=RT;inrange=158-166;hla=A*0301"><text x="140" y="195">A*0301
</text>
</a>
<a target="_top" xlink:href="../../ctl_search?results=Search;protein=RT;inrange=158-166;hla=A*1101"><text x="140" y="181">A*1101
</text>
</a>
<a target="_top" xlink:href="../../ctl_search?results=Search;protein=RT;inrange=158-166;hla=A*6801"><text x="140" y="167">A*6801
</text>
</a>
<a target="_top" xlink:href="../../ctl_search?results=Search;protein=RT;inrange=158-166;hla=A11"><text x="140" y="153">A11
</text>
</a>
<a target="_top" xlink:href="../../ctl_search?results=Search;protein=RT;inrange=158-166;hla=A3"><text x="140" y="139">A3
</text>
</a>
<a target="_top" xlink:href="../../ctl_search?results=Search;protein=RT;inrange=158-166;hla=A3 supertype"><text x="140" y="125">A3 supertype
</text>
</a>
<a target="_top" xlink:href="../../ctl_search?results=Search;protein=RT;inrange=158-166;hla=A33"><text x="140" y="111">A33
</text>
</a>
<a target="_top" xlink:href="../../ctl_search?results=Search;protein=RT;inrange=158-166;hla=A68"><text x="140" y="97">A68
</text>
</a>
<a target="_top" xlink:href="../../ctl_search?results=Search;protein=RT;inrange=159-167;hla=H-2&lt;sup&gt;d&lt;/sup&gt;"><text x="148" y="83">H-2d
</text>
</a>
<a target="_top" xlink:href="../../ctl_search?results=Search;protein=RT;inrange=159-167;hla=H-2K&lt;sup&gt;d&lt;/sup&gt;"><text x="148" y="69">H-2Kd
</text>
</a>
<a target="_top" xlink:href="../../ctl_search?results=Search;protein=RT;inrange=163-171"><text x="180" y="55">human
</text>
</a>
<a target="_top" xlink:href="../../ctl_search?results=Search;protein=RT;inrange=164-172;hla=A*0301"><text x="188" y="41">A*0301
</text>
</a>
<a target="_top" xlink:href="../../ctl_search?results=Search;protein=RT;inrange=164-172;hla=A3 supertype"><text x="188" y="27">A3 supertype
</text>
</a>
</g>
</svg>
