<?xml version="1.0" encoding="UTF-8" standalone="yes"?>
<!DOCTYPE svg PUBLIC "-//W3C//DTD SVG 1.0//EN" "http://www.w3.org/TR/2001/REC-SVG-20010904/DTD/svg10.dtd">
<svg height="267" id="ctl/RT-ctl-08.svg" width="481" xmlns="http://www.w3.org/2000/svg" xmlns:svg="http://www.w3.org/2000/svg" xmlns:xlink="http://www.w3.org/1999/xlink"><title id="title">ctl/RT-ctl-08
</title><style type="text/css"><![CDATA[.mono {
    font-size: 14px;
    font-family:  BitstreamVeraSansMono, Monaco, Courier, monospace;
}
.tics {
    stroke: black;
    stroke-width: .5;
    font-family: serif;
    font-size: 10px;
    text-anchor: middle;
}
.vertlines {
    stroke: black;
    stroke-width: .5;
}
.arrows {
    stroke: black;
    stroke-width: .5;
}
.label {
    font-family: serif;
    font-size: 11px;
    text-anchor: middle;
}
.name {
    font-family: serif;
    font-size: 12px;
    text-anchor: end;
}
]]>
</style>
<defs >
<marker id="arrowhead-end" markerHeight="12" markerUnits="strokeWidth" markerWidth="12" orient="auto" refX="24" refY="15" viewBox="0, 0, 30, 30">
<path d="M 0 0 L 30 15 L 0 30 z" />
</marker>
<marker id="arrowhead-start" markerHeight="12" markerUnits="strokeWidth" markerWidth="12" orient="auto" refX="6" refY="15" viewBox="0, 0, 30, 30">
<path d="M 30 0 L 0 15 L 30 30 z" />
</marker>
</defs>
<rect fill="oldlace" height="267" rx="5" width="481" x="0" y="0" />
<g class="mono" id="rule">
<a target="_top" xlink:href="../../ctl_search?results=Search;protein=RT;spans=351"><text x="48" y="238">T
</text>
</a>
<a target="_top" xlink:href="../../ctl_search?results=Search;protein=RT;spans=352"><text x="56" y="238">G
</text>
</a>
<a target="_top" xlink:href="../../ctl_search?results=Search;protein=RT;spans=353"><text x="64" y="238">K
</text>
</a>
<a target="_top" xlink:href="../../ctl_search?results=Search;protein=RT;spans=354"><text x="72" y="238">Y
</text>
</a>
<a target="_top" xlink:href="../../ctl_search?results=Search;protein=RT;spans=355"><text x="80" y="238">A
</text>
</a>
<a target="_top" xlink:href="../../ctl_search?results=Search;protein=RT;spans=356"><text x="88" y="238">R
</text>
</a>
<a target="_top" xlink:href="../../ctl_search?results=Search;protein=RT;spans=357"><text x="96" y="238">M
</text>
</a>
<a target="_top" xlink:href="../../ctl_search?results=Search;protein=RT;spans=358"><text x="104" y="238">R
</text>
</a>
<a target="_top" xlink:href="../../ctl_search?results=Search;protein=RT;spans=359"><text x="112" y="238">G
</text>
</a>
<a target="_top" xlink:href="../../ctl_search?results=Search;protein=RT;spans=360"><text x="120" y="238">A
</text>
</a>
<a target="_top" xlink:href="../../ctl_search?results=Search;protein=RT;spans=361"><text x="128" y="238">H
</text>
</a>
<a target="_top" xlink:href="../../ctl_search?results=Search;protein=RT;spans=362"><text x="136" y="238">T
</text>
</a>
<a target="_top" xlink:href="../../ctl_search?results=Search;protein=RT;spans=363"><text x="144" y="238">N
</text>
</a>
<a target="_top" xlink:href="../../ctl_search?results=Search;protein=RT;spans=364"><text x="152" y="238">D
</text>
</a>
<a target="_top" xlink:href="../../ctl_search?results=Search;protein=RT;spans=365"><text x="160" y="238">V
</text>
</a>
<a target="_top" xlink:href="../../ctl_search?results=Search;protein=RT;spans=366"><text x="168" y="238">K
</text>
</a>
<a target="_top" xlink:href="../../ctl_search?results=Search;protein=RT;spans=367"><text x="176" y="238">Q
</text>
</a>
<a target="_top" xlink:href="../../ctl_search?results=Search;protein=RT;spans=368"><text x="184" y="238">L
</text>
</a>
<a target="_top" xlink:href="../../ctl_search?results=Search;protein=RT;spans=369"><text x="192" y="238">T
</text>
</a>
<a target="_top" xlink:href="../../ctl_search?results=Search;protein=RT;spans=370"><text x="200" y="238">E
</text>
</a>
<a target="_top" xlink:href="../../ctl_search?results=Search;protein=RT;spans=371"><text x="208" y="238">A
</text>
</a>
<a target="_top" xlink:href="../../ctl_search?results=Search;protein=RT;spans=372"><text x="216" y="238">V
</text>
</a>
<a target="_top" xlink:href="../../ctl_search?results=Search;protein=RT;spans=373"><text x="224" y="238">Q
</text>
</a>
<a target="_top" xlink:href="../../ctl_search?results=Search;protein=RT;spans=374"><text x="232" y="238">K
</text>
</a>
<a target="_top" xlink:href="../../ctl_search?results=Search;protein=RT;spans=375"><text x="240" y="238">I
</text>
</a>
<a target="_top" xlink:href="../../ctl_search?results=Search;protein=RT;spans=376"><text x="248" y="238">T
</text>
</a>
<a target="_top" xlink:href="../../ctl_search?results=Search;protein=RT;spans=377"><text x="256" y="238">T
</text>
</a>
<a target="_top" xlink:href="../../ctl_search?results=Search;protein=RT;spans=378"><text x="264" y="238">E
</text>
</a>
<a target="_top" xlink:href="../../ctl_search?results=Search;protein=RT;spans=379"><text x="272" y="238">S
</text>
</a>
<a target="_top" xlink:href="../../ctl_search?results=Search;protein=RT;spans=380"><text x="280" y="238">I
</text>
</a>
<a target="_top" xlink:href="../../ctl_search?results=Search;protein=RT;spans=381"><text x="288" y="238">V
</text>
</a>
<a target="_top" xlink:href="../../ctl_search?results=Search;protein=RT;spans=382"><text x="296" y="238">I
</text>
</a>
<a target="_top" xlink:href="../../ctl_search?results=Search;protein=RT;spans=383"><text x="304" y="238">W
</text>
</a>
<a target="_top" xlink:href="../../ctl_search?results=Search;protein=RT;spans=384"><text x="312" y="238">G
</text>
</a>
<a target="_top" xlink:href="../../ctl_search?results=Search;protein=RT;spans=385"><text x="320" y="238">K
</text>
</a>
<a target="_top" xlink:href="../../ctl_search?results=Search;protein=RT;spans=386"><text x="328" y="238">T
</text>
</a>
<a target="_top" xlink:href="../../ctl_search?results=Search;protein=RT;spans=387"><text x="336" y="238">P
</text>
</a>
<a target="_top" xlink:href="../../ctl_search?results=Search;protein=RT;spans=388"><text x="344" y="238">K
</text>
</a>
<a target="_top" xlink:href="../../ctl_search?results=Search;protein=RT;spans=389"><text x="352" y="238">F
</text>
</a>
<a target="_top" xlink:href="../../ctl_search?results=Search;protein=RT;spans=390"><text x="360" y="238">K
</text>
</a>
<a target="_top" xlink:href="../../ctl_search?results=Search;protein=RT;spans=391"><text x="368" y="238">L
</text>
</a>
<a target="_top" xlink:href="../../ctl_search?results=Search;protein=RT;spans=392"><text x="376" y="238">P
</text>
</a>
<a target="_top" xlink:href="../../ctl_search?results=Search;protein=RT;spans=393"><text x="384" y="238">I
</text>
</a>
<a target="_top" xlink:href="../../ctl_search?results=Search;protein=RT;spans=394"><text x="392" y="238">Q
</text>
</a>
<a target="_top" xlink:href="../../ctl_search?results=Search;protein=RT;spans=395"><text x="400" y="238">K
</text>
</a>
<a target="_top" xlink:href="../../ctl_search?results=Search;protein=RT;spans=396"><text x="408" y="238">E
</text>
</a>
<a target="_top" xlink:href="../../ctl_search?results=Search;protein=RT;spans=397"><text x="416" y="238">T
</text>
</a>
<a target="_top" xlink:href="../../ctl_search?results=Search;protein=RT;spans=398"><text x="424" y="238">W
</text>
</a>
<a target="_top" xlink:href="../../ctl_search?results=Search;protein=RT;spans=399"><text x="432" y="238">E
</text>
</a>
<a target="_top" xlink:href="../../ctl_search?results=Search;protein=RT;spans=400"><text x="440" y="238">T
</text>
</a>
</g>
<g class="tics" id="tics">
<line x1="124" x2="124" y1="239" y2="243" /><text stroke-width="0" x="124" y="252">360
</text>
<line x1="204" x2="204" y1="239" y2="243" /><text stroke-width="0" x="204" y="252">370
</text>
<line x1="284" x2="284" y1="239" y2="243" /><text stroke-width="0" x="284" y="252">380
</text>
<line x1="364" x2="364" y1="239" y2="243" /><text stroke-width="0" x="364" y="252">390
</text>
<line x1="444" x2="444" y1="239" y2="243" /><text stroke-width="0" x="444" y="252">400
</text>
</g>
<g class="vertlines" id="vertlines">
<line x1="64" x2="64" y1="224" y2="207.2" />
<line x1="80" x2="80" y1="224" y2="193.2" />
<line x1="88" x2="88" y1="224" y2="137.2" />
<line x1="96" x2="96" y1="224" y2="123.2" />
<line x1="152" x2="152" y1="224" y2="109.2" />
<line x1="168" x2="168" y1="224" y2="123.2" />
<line x1="176" x2="176" y1="224" y2="95.2" />
<line x1="216" x2="216" y1="224" y2="81.2" />
<line x1="224" x2="224" y1="224" y2="109.2" />
<line x1="232" x2="232" y1="224" y2="123.2" />
<line x1="240" x2="240" y1="224" y2="25.2" />
<line x1="248" x2="248" y1="224" y2="95.2" />
<line x1="288" x2="288" y1="224" y2="81.2" />
<line x1="312" x2="312" y1="224" y2="25.2" />
<line x1="360" x2="360" y1="224" y2="207.2" />
<line x1="376" x2="376" y1="224" y2="179.2" />
<line x1="416" x2="416" y1="224" y2="151.2" />
<line x1="424" x2="424" y1="224" y2="137.2" />
<line x1="432" x2="432" y1="224" y2="207.2" />
</g>
<g class="arrows" id="arrows">
<line marker-end="url(#arrowhead-end)" x1="40" x2="64" y1="210" y2="210" />
<line marker-end="url(#arrowhead-end)" marker-start="url(#arrowhead-start)" x1="152" x2="224" y1="210" y2="210" />
<line marker-end="url(#arrowhead-end)" marker-start="url(#arrowhead-start)" x1="360" x2="432" y1="210" y2="210" />
<line marker-end="url(#arrowhead-end)" x1="40" x2="80" y1="196" y2="196" />
<line marker-end="url(#arrowhead-end)" marker-start="url(#arrowhead-start)" x1="152" x2="224" y1="196" y2="196" />
<line marker-start="url(#arrowhead-start)" x1="376" x2="456" y1="196" y2="196" />
<line marker-end="url(#arrowhead-end)" marker-start="url(#arrowhead-start)" x1="88" x2="168" y1="182" y2="182" />
<line marker-end="url(#arrowhead-end)" marker-start="url(#arrowhead-start)" x1="232" x2="312" y1="182" y2="182" />
<line marker-start="url(#arrowhead-start)" x1="376" x2="456" y1="182" y2="182" />
<line marker-end="url(#arrowhead-end)" marker-start="url(#arrowhead-start)" x1="88" x2="168" y1="168" y2="168" />
<line marker-end="url(#arrowhead-end)" marker-start="url(#arrowhead-start)" x1="232" x2="312" y1="168" y2="168" />
<line marker-start="url(#arrowhead-start)" x1="416" x2="456" y1="168" y2="168" />
<line marker-end="url(#arrowhead-end)" marker-start="url(#arrowhead-start)" x1="88" x2="176" y1="154" y2="154" />
<line marker-end="url(#arrowhead-end)" marker-start="url(#arrowhead-start)" x1="240" x2="312" y1="154" y2="154" />
<line marker-start="url(#arrowhead-start)" x1="416" x2="456" y1="154" y2="154" />
<line marker-end="url(#arrowhead-end)" marker-start="url(#arrowhead-start)" x1="88" x2="176" y1="140" y2="140" />
<line marker-end="url(#arrowhead-end)" marker-start="url(#arrowhead-start)" x1="240" x2="312" y1="140" y2="140" />
<line marker-start="url(#arrowhead-start)" x1="424" x2="456" y1="140" y2="140" />
<line marker-end="url(#arrowhead-end)" marker-start="url(#arrowhead-start)" x1="96" x2="168" y1="126" y2="126" />
<line marker-end="url(#arrowhead-end)" marker-start="url(#arrowhead-start)" x1="232" x2="312" y1="126" y2="126" />
<line marker-end="url(#arrowhead-end)" marker-start="url(#arrowhead-start)" x1="152" x2="224" y1="112" y2="112" />
<line marker-end="url(#arrowhead-end)" marker-start="url(#arrowhead-start)" x1="176" x2="248" y1="98" y2="98" />
<line marker-end="url(#arrowhead-end)" marker-start="url(#arrowhead-start)" x1="216" x2="288" y1="84" y2="84" />
<line marker-end="url(#arrowhead-end)" marker-start="url(#arrowhead-start)" x1="240" x2="312" y1="70" y2="70" />
<line marker-end="url(#arrowhead-end)" marker-start="url(#arrowhead-start)" x1="240" x2="312" y1="56" y2="56" />
<line marker-end="url(#arrowhead-end)" marker-start="url(#arrowhead-start)" x1="240" x2="312" y1="42" y2="42" />
<line marker-end="url(#arrowhead-end)" marker-start="url(#arrowhead-start)" x1="240" x2="312" y1="28" y2="28" />
</g>
<g class="label" id="label">
<a target="_top" xlink:href="../../ctl_search?results=Search;protein=RT;inrange=340-352;hla=A11"><text x="52" y="209">A11
</text>
</a>
<a target="_top" xlink:href="../../ctl_search?results=Search;protein=RT;inrange=364-372;hla=A*6802"><text x="188" y="209">A*6802
</text>
</a>
<a target="_top" xlink:href="../../ctl_search?results=Search;protein=RT;inrange=390-398;hla=B57"><text x="396" y="209">B57
</text>
</a>
<a target="_top" xlink:href="../../ctl_search?results=Search;protein=RT;inrange=346-354"><text x="60" y="195">human
</text>
</a>
<a target="_top" xlink:href="../../ctl_search?results=Search;protein=RT;inrange=364-372;hla=A28"><text x="188" y="195">A28
</text>
</a>
<a target="_top" xlink:href="../../ctl_search?results=Search;protein=RT;inrange=392-401;hla=A*3201"><text x="416" y="195">A*3201
</text>
</a>
<a target="_top" xlink:href="../../ctl_search?results=Search;protein=RT;inrange=356-365;hla=A*3002"><text x="128" y="181">A*3002
</text>
</a>
<a target="_top" xlink:href="../../ctl_search?results=Search;protein=RT;inrange=374-383;hla=B*5701"><text x="272" y="181">B*5701
</text>
</a>
<a target="_top" xlink:href="../../ctl_search?results=Search;protein=RT;inrange=392-401;hla=A32"><text x="416" y="181">A32
</text>
</a>
<a target="_top" xlink:href="../../ctl_search?results=Search;protein=RT;inrange=356-365;hla=A30"><text x="128" y="167">A30
</text>
</a>
<a target="_top" xlink:href="../../ctl_search?results=Search;protein=RT;inrange=374-383;hla=B15"><text x="272" y="167">B15
</text>
</a>
<a target="_top" xlink:href="../../ctl_search?results=Search;protein=RT;inrange=397-406;hla=B44"><text x="436" y="167">B44
</text>
</a>
<a target="_top" xlink:href="../../ctl_search?results=Search;protein=RT;inrange=356-366;hla=A*0301"><text x="132" y="153">A*0301
</text>
</a>
<a target="_top" xlink:href="../../ctl_search?results=Search;protein=RT;inrange=375-383;hla=B*5701"><text x="276" y="153">B*5701
</text>
</a>
<a target="_top" xlink:href="../../ctl_search?results=Search;protein=RT;inrange=397-406;hla=B49"><text x="436" y="153">B49
</text>
</a>
<a target="_top" xlink:href="../../ctl_search?results=Search;protein=RT;inrange=356-366;hla=A3"><text x="132" y="139">A3
</text>
</a>
<a target="_top" xlink:href="../../ctl_search?results=Search;protein=RT;inrange=375-383;hla=B*5702"><text x="276" y="139">B*5702
</text>
</a>
<a target="_top" xlink:href="../../ctl_search?results=Search;protein=RT;inrange=398-406"><text x="440" y="139">human
</text>
</a>
<a target="_top" xlink:href="../../ctl_search?results=Search;protein=RT;inrange=357-365;hla=A*3001"><text x="132" y="125">A*3001
</text>
</a>
<a target="_top" xlink:href="../../ctl_search?results=Search;protein=RT;inrange=374-383;hla=B57"><text x="272" y="125">B57
</text>
</a>
<a target="_top" xlink:href="../../ctl_search?results=Search;protein=RT;inrange=364-372;hla=B70"><text x="188" y="111">B70
</text>
</a>
<a target="_top" xlink:href="../../ctl_search?results=Search;protein=RT;inrange=367-375"><text x="212" y="97">human
</text>
</a>
<a target="_top" xlink:href="../../ctl_search?results=Search;protein=RT;inrange=372-380"><text x="252" y="83">human
</text>
</a>
<a target="_top" xlink:href="../../ctl_search?results=Search;protein=RT;inrange=375-383;hla=B*5703"><text x="276" y="69">B*5703
</text>
</a>
<a target="_top" xlink:href="../../ctl_search?results=Search;protein=RT;inrange=375-383;hla=B*5801"><text x="276" y="55">B*5801
</text>
</a>
<a target="_top" xlink:href="../../ctl_search?results=Search;protein=RT;inrange=375-383;hla=B57"><text x="276" y="41">B57
</text>
</a>
<a target="_top" xlink:href="../../ctl_search?results=Search;protein=RT;inrange=375-383;hla=B58"><text x="276" y="27">B58
</text>
</a>
</g>
</svg>
