<?xml version="1.0" encoding="UTF-8" standalone="yes"?>
<!DOCTYPE svg PUBLIC "-//W3C//DTD SVG 1.0//EN" "http://www.w3.org/TR/2001/REC-SVG-20010904/DTD/svg10.dtd">
<svg height="239" id="ctl/p17-ctl-04.svg" width="337" xmlns="http://www.w3.org/2000/svg" xmlns:svg="http://www.w3.org/2000/svg" xmlns:xlink="http://www.w3.org/1999/xlink"><title id="title">ctl/p17-ctl-04
</title><style type="text/css"><![CDATA[.mono {
    font-size: 14px;
    font-family:  BitstreamVeraSansMono, Monaco, Courier, monospace;
}
.tics {
    stroke: black;
    stroke-width: .5;
    font-family: serif;
    font-size: 10px;
    text-anchor: middle;
}
.vertlines {
    stroke: black;
    stroke-width: .5;
}
.arrows {
    stroke: black;
    stroke-width: .5;
}
.label {
    font-family: serif;
    font-size: 11px;
    text-anchor: middle;
}
.name {
    font-family: serif;
    font-size: 12px;
    text-anchor: end;
}
]]>
</style>
<defs >
<marker id="arrowhead-end" markerHeight="12" markerUnits="strokeWidth" markerWidth="12" orient="auto" refX="24" refY="15" viewBox="0, 0, 30, 30">
<path d="M 0 0 L 30 15 L 0 30 z" />
</marker>
<marker id="arrowhead-start" markerHeight="12" markerUnits="strokeWidth" markerWidth="12" orient="auto" refX="6" refY="15" viewBox="0, 0, 30, 30">
<path d="M 30 0 L 0 15 L 30 30 z" />
</marker>
</defs>
<rect fill="oldlace" height="239" rx="5" width="337" x="0" y="0" />
<g class="mono" id="rule">
<a target="_top" xlink:href="../../ctl_search?results=Search;protein=p17;spans=101"><text x="48" y="210">L
</text>
</a>
<a target="_top" xlink:href="../../ctl_search?results=Search;protein=p17;spans=102"><text x="56" y="210">D
</text>
</a>
<a target="_top" xlink:href="../../ctl_search?results=Search;protein=p17;spans=103"><text x="64" y="210">K
</text>
</a>
<a target="_top" xlink:href="../../ctl_search?results=Search;protein=p17;spans=104"><text x="72" y="210">I
</text>
</a>
<a target="_top" xlink:href="../../ctl_search?results=Search;protein=p17;spans=105"><text x="80" y="210">E
</text>
</a>
<a target="_top" xlink:href="../../ctl_search?results=Search;protein=p17;spans=106"><text x="88" y="210">E
</text>
</a>
<a target="_top" xlink:href="../../ctl_search?results=Search;protein=p17;spans=107"><text x="96" y="210">E
</text>
</a>
<a target="_top" xlink:href="../../ctl_search?results=Search;protein=p17;spans=108"><text x="104" y="210">Q
</text>
</a>
<a target="_top" xlink:href="../../ctl_search?results=Search;protein=p17;spans=109"><text x="112" y="210">N
</text>
</a>
<a target="_top" xlink:href="../../ctl_search?results=Search;protein=p17;spans=110"><text x="120" y="210">K
</text>
</a>
<a target="_top" xlink:href="../../ctl_search?results=Search;protein=p17;spans=111"><text x="128" y="210">S
</text>
</a>
<a target="_top" xlink:href="../../ctl_search?results=Search;protein=p17;spans=112"><text x="136" y="210">K
</text>
</a>
<a target="_top" xlink:href="../../ctl_search?results=Search;protein=p17;spans=113"><text x="144" y="210">K
</text>
</a>
<a target="_top" xlink:href="../../ctl_search?results=Search;protein=p17;spans=114"><text x="152" y="210">K
</text>
</a>
<a target="_top" xlink:href="../../ctl_search?results=Search;protein=p17;spans=115"><text x="160" y="210">A
</text>
</a>
<a target="_top" xlink:href="../../ctl_search?results=Search;protein=p17;spans=116"><text x="168" y="210">Q
</text>
</a>
<a target="_top" xlink:href="../../ctl_search?results=Search;protein=p17;spans=117"><text x="176" y="210">Q
</text>
</a>
<a target="_top" xlink:href="../../ctl_search?results=Search;protein=p17;spans=118"><text x="184" y="210">A
</text>
</a>
<a target="_top" xlink:href="../../ctl_search?results=Search;protein=p17;spans=119"><text x="192" y="210">A
</text>
</a>
<a target="_top" xlink:href="../../ctl_search?results=Search;protein=p17;spans=120"><text x="200" y="210">A
</text>
</a>
<a target="_top" xlink:href="../../ctl_search?results=Search;protein=p17;spans=121"><text x="208" y="210">D
</text>
</a>
<a target="_top" xlink:href="../../ctl_search?results=Search;protein=p17;spans=122"><text x="216" y="210">T
</text>
</a>
<a target="_top" xlink:href="../../ctl_search?results=Search;protein=p17;spans=123"><text x="224" y="210">G
</text>
</a>
<a target="_top" xlink:href="../../ctl_search?results=Search;protein=p17;spans=124"><text x="232" y="210">H
</text>
</a>
<a target="_top" xlink:href="../../ctl_search?results=Search;protein=p17;spans=125"><text x="240" y="210">S
</text>
</a>
<a target="_top" xlink:href="../../ctl_search?results=Search;protein=p17;spans=126"><text x="248" y="210">N
</text>
</a>
<a target="_top" xlink:href="../../ctl_search?results=Search;protein=p17;spans=127"><text x="256" y="210">Q
</text>
</a>
<a target="_top" xlink:href="../../ctl_search?results=Search;protein=p17;spans=128"><text x="264" y="210">V
</text>
</a>
<a target="_top" xlink:href="../../ctl_search?results=Search;protein=p17;spans=129"><text x="272" y="210">S
</text>
</a>
<a target="_top" xlink:href="../../ctl_search?results=Search;protein=p17;spans=130"><text x="280" y="210">Q
</text>
</a>
<a target="_top" xlink:href="../../ctl_search?results=Search;protein=p17;spans=131"><text x="288" y="210">N
</text>
</a>
<a target="_top" xlink:href="../../ctl_search?results=Search;protein=p17;spans=132"><text x="296" y="210">Y
</text>
</a>
</g>
<g class="tics" id="tics">
<line x1="124" x2="124" y1="211" y2="215" /><text stroke-width="0" x="124" y="224">110
</text>
<line x1="204" x2="204" y1="211" y2="215" /><text stroke-width="0" x="204" y="224">120
</text>
<line x1="284" x2="284" y1="211" y2="215" /><text stroke-width="0" x="284" y="224">130
</text>
</g>
<g class="vertlines" id="vertlines">
<line x1="56" x2="56" y1="196" y2="67.2" />
<line x1="64" x2="64" y1="196" y2="53.2" />
<line x1="144" x2="144" y1="196" y2="53.2" />
<line x1="152" x2="152" y1="196" y2="179.2" />
<line x1="192" x2="192" y1="196" y2="165.2" />
<line x1="208" x2="208" y1="196" y2="151.2" />
<line x1="224" x2="224" y1="196" y2="137.2" />
<line x1="232" x2="232" y1="196" y2="95.2" />
<line x1="240" x2="240" y1="196" y2="81.2" />
<line x1="256" x2="256" y1="196" y2="39.2" />
<line x1="264" x2="264" y1="196" y2="165.2" />
<line x1="272" x2="272" y1="196" y2="25.2" />
<line x1="288" x2="288" y1="196" y2="179.2" />
<line x1="304" x2="304" y1="196" y2="109.2" />
</g>
<g class="arrows" id="arrows">
<line marker-end="url(#arrowhead-end)" x1="40" x2="56" y1="182" y2="182" />
<line marker-end="url(#arrowhead-end)" marker-start="url(#arrowhead-start)" x1="152" x2="224" y1="182" y2="182" />
<line marker-start="url(#arrowhead-start)" x1="288" x2="312" y1="182" y2="182" />
<line marker-end="url(#arrowhead-end)" x1="40" x2="56" y1="168" y2="168" />
<line marker-end="url(#arrowhead-end)" marker-start="url(#arrowhead-start)" x1="192" x2="264" y1="168" y2="168" />
<line marker-end="url(#arrowhead-end)" x1="40" x2="56" y1="154" y2="154" />
<line marker-end="url(#arrowhead-end)" marker-start="url(#arrowhead-start)" x1="208" x2="304" y1="154" y2="154" />
<line marker-end="url(#arrowhead-end)" x1="40" x2="56" y1="140" y2="140" />
<line marker-end="url(#arrowhead-end)" marker-start="url(#arrowhead-start)" x1="224" x2="304" y1="140" y2="140" />
<line marker-end="url(#arrowhead-end)" x1="40" x2="56" y1="126" y2="126" />
<line marker-end="url(#arrowhead-end)" marker-start="url(#arrowhead-start)" x1="232" x2="304" y1="126" y2="126" />
<line marker-end="url(#arrowhead-end)" x1="40" x2="56" y1="112" y2="112" />
<line marker-end="url(#arrowhead-end)" marker-start="url(#arrowhead-start)" x1="232" x2="304" y1="112" y2="112" />
<line marker-end="url(#arrowhead-end)" x1="40" x2="56" y1="98" y2="98" />
<line marker-start="url(#arrowhead-start)" x1="232" x2="312" y1="98" y2="98" />
<line marker-end="url(#arrowhead-end)" x1="40" x2="56" y1="84" y2="84" />
<line marker-start="url(#arrowhead-start)" x1="240" x2="312" y1="84" y2="84" />
<line marker-end="url(#arrowhead-end)" x1="40" x2="56" y1="70" y2="70" />
<line marker-start="url(#arrowhead-start)" x1="256" x2="312" y1="70" y2="70" />
<line marker-end="url(#arrowhead-end)" marker-start="url(#arrowhead-start)" x1="64" x2="144" y1="56" y2="56" />
<line marker-start="url(#arrowhead-start)" x1="256" x2="312" y1="56" y2="56" />
<line marker-start="url(#arrowhead-start)" x1="256" x2="312" y1="42" y2="42" />
<line marker-start="url(#arrowhead-start)" x1="272" x2="312" y1="28" y2="28" />
</g>
<g class="label" id="label">
<a target="_top" xlink:href="../../ctl_search?results=Search;protein=p17;inrange=91-101"><text x="48" y="181">human
</text>
</a>
<a target="_top" xlink:href="../../ctl_search?results=Search;protein=p17;inrange=114-122;hla=B57"><text x="188" y="181">B57
</text>
</a>
<a target="_top" xlink:href="../../ctl_search?results=Search;protein=p17-p24;inrange=131-6;hla=A*2402"><text x="300" y="181">A*2402
</text>
</a>
<a target="_top" xlink:href="../../ctl_search?results=Search;protein=p17;inrange=92-101;hla=B*4001"><text x="48" y="167">B*4001
</text>
</a>
<a target="_top" xlink:href="../../ctl_search?results=Search;protein=p17;inrange=119-127"><text x="228" y="167">human
</text>
</a>
<a target="_top" xlink:href="../../ctl_search?results=Search;protein=p17;inrange=92-101;hla=B40"><text x="48" y="153">B40
</text>
</a>
<a target="_top" xlink:href="../../ctl_search?results=Search;protein=p17;inrange=121-132;hla=A33"><text x="256" y="153">A33
</text>
</a>
<a target="_top" xlink:href="../../ctl_search?results=Search;protein=p17;inrange=92-101;hla=B60"><text x="48" y="139">B60
</text>
</a>
<a target="_top" xlink:href="../../ctl_search?results=Search;protein=p17;inrange=123-132"><text x="264" y="139">human
</text>
</a>
<a target="_top" xlink:href="../../ctl_search?results=Search;protein=p17;inrange=92-101;hla=B61"><text x="48" y="125">B61
</text>
</a>
<a target="_top" xlink:href="../../ctl_search?results=Search;protein=p17;inrange=124-132;hla=B*3501"><text x="268" y="125">B*3501
</text>
</a>
<a target="_top" xlink:href="../../ctl_search?results=Search;protein=p17;inrange=93-101;hla=B*0801"><text x="48" y="111">B*0801
</text>
</a>
<a target="_top" xlink:href="../../ctl_search?results=Search;protein=p17;inrange=124-132;hla=B35"><text x="268" y="111">B35
</text>
</a>
<a target="_top" xlink:href="../../ctl_search?results=Search;protein=p17;inrange=93-101;hla=B*60"><text x="48" y="97">B*60
</text>
</a>
<a target="_top" xlink:href="../../ctl_search?results=Search;protein=p17-p24;inrange=124-1"><text x="272" y="97">human
</text>
</a>
<a target="_top" xlink:href="../../ctl_search?results=Search;protein=p17;inrange=93-101;hla=B60"><text x="48" y="83">B60
</text>
</a>
<a target="_top" xlink:href="../../ctl_search?results=Search;protein=p17-p24;inrange=125-3"><text x="276" y="83">human
</text>
</a>
<a target="_top" xlink:href="../../ctl_search?results=Search;protein=p17;inrange=93-101;hla=B8"><text x="48" y="69">B8
</text>
</a>
<a target="_top" xlink:href="../../ctl_search?results=Search;protein=p17-p24;inrange=127-3;hla=A*68"><text x="284" y="69">A*68
</text>
</a>
<a target="_top" xlink:href="../../ctl_search?results=Search;protein=p17;inrange=103-112;hla=A11"><text x="104" y="55">A11
</text>
</a>
<a target="_top" xlink:href="../../ctl_search?results=Search;protein=p17-p24;inrange=127-3;hla=A*6802"><text x="284" y="55">A*6802
</text>
</a>
<a target="_top" xlink:href="../../ctl_search?results=Search;protein=p17-p24;inrange=127-3;hla=A68"><text x="284" y="41">A68
</text>
</a>
<a target="_top" xlink:href="../../ctl_search?results=Search;protein=p17-p24;inrange=129-7"><text x="292" y="27">macaque
</text>
</a>
</g>
</svg>
