<?xml version="1.0" encoding="UTF-8" standalone="yes"?>
<!DOCTYPE svg PUBLIC "-//W3C//DTD SVG 1.0//EN" "http://www.w3.org/TR/2001/REC-SVG-20010904/DTD/svg10.dtd">
<svg height="925" id="ctl/p17-ctl-01.svg" width="481" xmlns="http://www.w3.org/2000/svg" xmlns:svg="http://www.w3.org/2000/svg" xmlns:xlink="http://www.w3.org/1999/xlink"><title id="title">ctl/p17-ctl-01
</title><style type="text/css"><![CDATA[.mono {
    font-size: 14px;
    font-family:  BitstreamVeraSansMono, Monaco, Courier, monospace;
}
.tics {
    stroke: black;
    stroke-width: .5;
    font-family: serif;
    font-size: 10px;
    text-anchor: middle;
}
.vertlines {
    stroke: black;
    stroke-width: .5;
}
.arrows {
    stroke: black;
    stroke-width: .5;
}
.label {
    font-family: serif;
    font-size: 11px;
    text-anchor: middle;
}
.name {
    font-family: serif;
    font-size: 12px;
    text-anchor: end;
}
]]>
</style>
<defs >
<marker id="arrowhead-end" markerHeight="12" markerUnits="strokeWidth" markerWidth="12" orient="auto" refX="24" refY="15" viewBox="0, 0, 30, 30">
<path d="M 0 0 L 30 15 L 0 30 z" />
</marker>
<marker id="arrowhead-start" markerHeight="12" markerUnits="strokeWidth" markerWidth="12" orient="auto" refX="6" refY="15" viewBox="0, 0, 30, 30">
<path d="M 30 0 L 0 15 L 30 30 z" />
</marker>
</defs>
<rect fill="oldlace" height="925" rx="5" width="481" x="0" y="0" />
<g class="mono" id="rule">
<a target="_top" xlink:href="../../ctl_search?results=Search;protein=p17;spans=1"><text x="48" y="896">M
</text>
</a>
<a target="_top" xlink:href="../../ctl_search?results=Search;protein=p17;spans=2"><text x="56" y="896">G
</text>
</a>
<a target="_top" xlink:href="../../ctl_search?results=Search;protein=p17;spans=3"><text x="64" y="896">A
</text>
</a>
<a target="_top" xlink:href="../../ctl_search?results=Search;protein=p17;spans=4"><text x="72" y="896">R
</text>
</a>
<a target="_top" xlink:href="../../ctl_search?results=Search;protein=p17;spans=5"><text x="80" y="896">A
</text>
</a>
<a target="_top" xlink:href="../../ctl_search?results=Search;protein=p17;spans=6"><text x="88" y="896">S
</text>
</a>
<a target="_top" xlink:href="../../ctl_search?results=Search;protein=p17;spans=7"><text x="96" y="896">V
</text>
</a>
<a target="_top" xlink:href="../../ctl_search?results=Search;protein=p17;spans=8"><text x="104" y="896">L
</text>
</a>
<a target="_top" xlink:href="../../ctl_search?results=Search;protein=p17;spans=9"><text x="112" y="896">S
</text>
</a>
<a target="_top" xlink:href="../../ctl_search?results=Search;protein=p17;spans=10"><text x="120" y="896">G
</text>
</a>
<a target="_top" xlink:href="../../ctl_search?results=Search;protein=p17;spans=11"><text x="128" y="896">G
</text>
</a>
<a target="_top" xlink:href="../../ctl_search?results=Search;protein=p17;spans=12"><text x="136" y="896">E
</text>
</a>
<a target="_top" xlink:href="../../ctl_search?results=Search;protein=p17;spans=13"><text x="144" y="896">L
</text>
</a>
<a target="_top" xlink:href="../../ctl_search?results=Search;protein=p17;spans=14"><text x="152" y="896">D
</text>
</a>
<a target="_top" xlink:href="../../ctl_search?results=Search;protein=p17;spans=15"><text x="160" y="896">R
</text>
</a>
<a target="_top" xlink:href="../../ctl_search?results=Search;protein=p17;spans=16"><text x="168" y="896">W
</text>
</a>
<a target="_top" xlink:href="../../ctl_search?results=Search;protein=p17;spans=17"><text x="176" y="896">E
</text>
</a>
<a target="_top" xlink:href="../../ctl_search?results=Search;protein=p17;spans=18"><text x="184" y="896">K
</text>
</a>
<a target="_top" xlink:href="../../ctl_search?results=Search;protein=p17;spans=19"><text x="192" y="896">I
</text>
</a>
<a target="_top" xlink:href="../../ctl_search?results=Search;protein=p17;spans=20"><text x="200" y="896">R
</text>
</a>
<a target="_top" xlink:href="../../ctl_search?results=Search;protein=p17;spans=21"><text x="208" y="896">L
</text>
</a>
<a target="_top" xlink:href="../../ctl_search?results=Search;protein=p17;spans=22"><text x="216" y="896">R
</text>
</a>
<a target="_top" xlink:href="../../ctl_search?results=Search;protein=p17;spans=23"><text x="224" y="896">P
</text>
</a>
<a target="_top" xlink:href="../../ctl_search?results=Search;protein=p17;spans=24"><text x="232" y="896">G
</text>
</a>
<a target="_top" xlink:href="../../ctl_search?results=Search;protein=p17;spans=25"><text x="240" y="896">G
</text>
</a>
<a target="_top" xlink:href="../../ctl_search?results=Search;protein=p17;spans=26"><text x="248" y="896">K
</text>
</a>
<a target="_top" xlink:href="../../ctl_search?results=Search;protein=p17;spans=27"><text x="256" y="896">K
</text>
</a>
<a target="_top" xlink:href="../../ctl_search?results=Search;protein=p17;spans=28"><text x="264" y="896">K
</text>
</a>
<a target="_top" xlink:href="../../ctl_search?results=Search;protein=p17;spans=29"><text x="272" y="896">Y
</text>
</a>
<a target="_top" xlink:href="../../ctl_search?results=Search;protein=p17;spans=30"><text x="280" y="896">K
</text>
</a>
<a target="_top" xlink:href="../../ctl_search?results=Search;protein=p17;spans=31"><text x="288" y="896">L
</text>
</a>
<a target="_top" xlink:href="../../ctl_search?results=Search;protein=p17;spans=32"><text x="296" y="896">K
</text>
</a>
<a target="_top" xlink:href="../../ctl_search?results=Search;protein=p17;spans=33"><text x="304" y="896">H
</text>
</a>
<a target="_top" xlink:href="../../ctl_search?results=Search;protein=p17;spans=34"><text x="312" y="896">I
</text>
</a>
<a target="_top" xlink:href="../../ctl_search?results=Search;protein=p17;spans=35"><text x="320" y="896">V
</text>
</a>
<a target="_top" xlink:href="../../ctl_search?results=Search;protein=p17;spans=36"><text x="328" y="896">W
</text>
</a>
<a target="_top" xlink:href="../../ctl_search?results=Search;protein=p17;spans=37"><text x="336" y="896">A
</text>
</a>
<a target="_top" xlink:href="../../ctl_search?results=Search;protein=p17;spans=38"><text x="344" y="896">S
</text>
</a>
<a target="_top" xlink:href="../../ctl_search?results=Search;protein=p17;spans=39"><text x="352" y="896">R
</text>
</a>
<a target="_top" xlink:href="../../ctl_search?results=Search;protein=p17;spans=40"><text x="360" y="896">E
</text>
</a>
<a target="_top" xlink:href="../../ctl_search?results=Search;protein=p17;spans=41"><text x="368" y="896">L
</text>
</a>
<a target="_top" xlink:href="../../ctl_search?results=Search;protein=p17;spans=42"><text x="376" y="896">E
</text>
</a>
<a target="_top" xlink:href="../../ctl_search?results=Search;protein=p17;spans=43"><text x="384" y="896">R
</text>
</a>
<a target="_top" xlink:href="../../ctl_search?results=Search;protein=p17;spans=44"><text x="392" y="896">F
</text>
</a>
<a target="_top" xlink:href="../../ctl_search?results=Search;protein=p17;spans=45"><text x="400" y="896">A
</text>
</a>
<a target="_top" xlink:href="../../ctl_search?results=Search;protein=p17;spans=46"><text x="408" y="896">V
</text>
</a>
<a target="_top" xlink:href="../../ctl_search?results=Search;protein=p17;spans=47"><text x="416" y="896">N
</text>
</a>
<a target="_top" xlink:href="../../ctl_search?results=Search;protein=p17;spans=48"><text x="424" y="896">P
</text>
</a>
<a target="_top" xlink:href="../../ctl_search?results=Search;protein=p17;spans=49"><text x="432" y="896">G
</text>
</a>
<a target="_top" xlink:href="../../ctl_search?results=Search;protein=p17;spans=50"><text x="440" y="896">L
</text>
</a>
</g>
<g class="tics" id="tics">
<line x1="124" x2="124" y1="897" y2="901" /><text stroke-width="0" x="124" y="910">10
</text>
<line x1="204" x2="204" y1="897" y2="901" /><text stroke-width="0" x="204" y="910">20
</text>
<line x1="284" x2="284" y1="897" y2="901" /><text stroke-width="0" x="284" y="910">30
</text>
<line x1="364" x2="364" y1="897" y2="901" /><text stroke-width="0" x="364" y="910">40
</text>
<line x1="444" x2="444" y1="897" y2="901" /><text stroke-width="0" x="444" y="910">50
</text>
</g>
<g class="vertlines" id="vertlines">
<line x1="48" x2="48" y1="882" y2="865.2" />
<line x1="80" x2="80" y1="882" y2="823.2" />
<line x1="88" x2="88" y1="882" y2="795.2" />
<line x1="104" x2="104" y1="882" y2="781.2" />
<line x1="128" x2="128" y1="882" y2="739.2" />
<line x1="136" x2="136" y1="882" y2="725.2" />
<line x1="152" x2="152" y1="882" y2="851.2" />
<line x1="168" x2="168" y1="882" y2="809.2" />
<line x1="176" x2="176" y1="882" y2="697.2" />
<line x1="184" x2="184" y1="882" y2="501.2" />
<line x1="192" x2="192" y1="882" y2="445.2" />
<line x1="200" x2="200" y1="882" y2="165.2" />
<line x1="208" x2="208" y1="882" y2="151.2" />
<line x1="216" x2="216" y1="882" y2="25.1999999999999" />
<line x1="224" x2="224" y1="882" y2="739.2" />
<line x1="232" x2="232" y1="882" y2="809.2" />
<line x1="256" x2="256" y1="882" y2="627.2" />
<line x1="264" x2="264" y1="882" y2="487.2" />
<line x1="272" x2="272" y1="882" y2="305.2" />
<line x1="280" x2="280" y1="882" y2="137.2" />
<line x1="288" x2="288" y1="882" y2="95.1999999999999" />
<line x1="296" x2="296" y1="882" y2="25.1999999999999" />
<line x1="304" x2="304" y1="882" y2="725.2" />
<line x1="328" x2="328" y1="882" y2="683.2" />
<line x1="336" x2="336" y1="882" y2="753.2" />
<line x1="376" x2="376" y1="882" y2="725.2" />
<line x1="384" x2="384" y1="882" y2="809.2" />
<line x1="392" x2="392" y1="882" y2="823.2" />
<line x1="400" x2="400" y1="882" y2="683.2" />
<line x1="416" x2="416" y1="882" y2="795.2" />
<line x1="432" x2="432" y1="882" y2="781.2" />
<line x1="448" x2="448" y1="882" y2="851.2" />
</g>
<g class="arrows" id="arrows">
<line marker-end="url(#arrowhead-end)" marker-start="url(#arrowhead-start)" x1="48" x2="128" y1="868" y2="868" />
<line marker-end="url(#arrowhead-end)" marker-start="url(#arrowhead-start)" x1="192" x2="264" y1="868" y2="868" />
<line marker-end="url(#arrowhead-end)" marker-start="url(#arrowhead-start)" x1="328" x2="400" y1="868" y2="868" />
<line marker-end="url(#arrowhead-end)" marker-start="url(#arrowhead-start)" x1="80" x2="152" y1="854" y2="854" />
<line marker-end="url(#arrowhead-end)" marker-start="url(#arrowhead-start)" x1="216" x2="280" y1="854" y2="854" />
<line marker-end="url(#arrowhead-end)" marker-start="url(#arrowhead-start)" x1="376" x2="448" y1="854" y2="854" />
<line marker-end="url(#arrowhead-end)" marker-start="url(#arrowhead-start)" x1="80" x2="168" y1="840" y2="840" />
<line marker-end="url(#arrowhead-end)" marker-start="url(#arrowhead-start)" x1="232" x2="296" y1="840" y2="840" />
<line marker-start="url(#arrowhead-start)" x1="376" x2="456" y1="840" y2="840" />
<line marker-end="url(#arrowhead-end)" marker-start="url(#arrowhead-start)" x1="80" x2="192" y1="826" y2="826" />
<line marker-end="url(#arrowhead-end)" marker-start="url(#arrowhead-start)" x1="256" x2="328" y1="826" y2="826" />
<line marker-start="url(#arrowhead-start)" x1="392" x2="456" y1="826" y2="826" />
<line marker-end="url(#arrowhead-end)" marker-start="url(#arrowhead-start)" x1="88" x2="168" y1="812" y2="812" />
<line marker-end="url(#arrowhead-end)" marker-start="url(#arrowhead-start)" x1="232" x2="296" y1="812" y2="812" />
<line marker-start="url(#arrowhead-start)" x1="384" x2="456" y1="812" y2="812" />
<line marker-end="url(#arrowhead-end)" marker-start="url(#arrowhead-start)" x1="88" x2="200" y1="798" y2="798" />
<line marker-end="url(#arrowhead-end)" marker-start="url(#arrowhead-start)" x1="264" x2="336" y1="798" y2="798" />
<line marker-start="url(#arrowhead-start)" x1="416" x2="456" y1="798" y2="798" />
<line marker-end="url(#arrowhead-end)" marker-start="url(#arrowhead-start)" x1="104" x2="192" y1="784" y2="784" />
<line marker-end="url(#arrowhead-end)" marker-start="url(#arrowhead-start)" x1="264" x2="336" y1="784" y2="784" />
<line marker-start="url(#arrowhead-start)" x1="432" x2="456" y1="784" y2="784" />
<line marker-end="url(#arrowhead-end)" marker-start="url(#arrowhead-start)" x1="128" x2="200" y1="770" y2="770" />
<line marker-end="url(#arrowhead-end)" marker-start="url(#arrowhead-start)" x1="264" x2="336" y1="770" y2="770" />
<line marker-end="url(#arrowhead-end)" marker-start="url(#arrowhead-start)" x1="128" x2="200" y1="756" y2="756" />
<line marker-end="url(#arrowhead-end)" marker-start="url(#arrowhead-start)" x1="264" x2="336" y1="756" y2="756" />
<line marker-end="url(#arrowhead-end)" marker-start="url(#arrowhead-start)" x1="128" x2="224" y1="742" y2="742" />
<line marker-end="url(#arrowhead-end)" marker-start="url(#arrowhead-start)" x1="304" x2="376" y1="742" y2="742" />
<line marker-end="url(#arrowhead-end)" marker-start="url(#arrowhead-start)" x1="136" x2="216" y1="728" y2="728" />
<line marker-end="url(#arrowhead-end)" marker-start="url(#arrowhead-start)" x1="304" x2="376" y1="728" y2="728" />
<line marker-end="url(#arrowhead-end)" marker-start="url(#arrowhead-start)" x1="176" x2="296" y1="714" y2="714" />
<line marker-end="url(#arrowhead-end)" marker-start="url(#arrowhead-start)" x1="176" x2="296" y1="700" y2="700" />
<line marker-end="url(#arrowhead-end)" marker-start="url(#arrowhead-start)" x1="184" x2="256" y1="686" y2="686" />
<line marker-end="url(#arrowhead-end)" marker-start="url(#arrowhead-start)" x1="328" x2="400" y1="686" y2="686" />
<line marker-end="url(#arrowhead-end)" marker-start="url(#arrowhead-start)" x1="184" x2="256" y1="672" y2="672" />
<line marker-end="url(#arrowhead-end)" marker-start="url(#arrowhead-start)" x1="184" x2="256" y1="658" y2="658" />
<line marker-end="url(#arrowhead-end)" marker-start="url(#arrowhead-start)" x1="184" x2="256" y1="644" y2="644" />
<line marker-end="url(#arrowhead-end)" marker-start="url(#arrowhead-start)" x1="184" x2="256" y1="630" y2="630" />
<line marker-end="url(#arrowhead-end)" marker-start="url(#arrowhead-start)" x1="184" x2="264" y1="616" y2="616" />
<line marker-end="url(#arrowhead-end)" marker-start="url(#arrowhead-start)" x1="184" x2="264" y1="602" y2="602" />
<line marker-end="url(#arrowhead-end)" marker-start="url(#arrowhead-start)" x1="184" x2="264" y1="588" y2="588" />
<line marker-end="url(#arrowhead-end)" marker-start="url(#arrowhead-start)" x1="184" x2="264" y1="574" y2="574" />
<line marker-end="url(#arrowhead-end)" marker-start="url(#arrowhead-start)" x1="184" x2="264" y1="560" y2="560" />
<line marker-end="url(#arrowhead-end)" marker-start="url(#arrowhead-start)" x1="184" x2="264" y1="546" y2="546" />
<line marker-end="url(#arrowhead-end)" marker-start="url(#arrowhead-start)" x1="184" x2="264" y1="532" y2="532" />
<line marker-end="url(#arrowhead-end)" marker-start="url(#arrowhead-start)" x1="184" x2="296" y1="518" y2="518" />
<line marker-end="url(#arrowhead-end)" marker-start="url(#arrowhead-start)" x1="184" x2="296" y1="504" y2="504" />
<line marker-end="url(#arrowhead-end)" marker-start="url(#arrowhead-start)" x1="192" x2="264" y1="490" y2="490" />
<line marker-end="url(#arrowhead-end)" marker-start="url(#arrowhead-start)" x1="192" x2="272" y1="476" y2="476" />
<line marker-end="url(#arrowhead-end)" marker-start="url(#arrowhead-start)" x1="192" x2="272" y1="462" y2="462" />
<line marker-end="url(#arrowhead-end)" marker-start="url(#arrowhead-start)" x1="192" x2="272" y1="448" y2="448" />
<line marker-end="url(#arrowhead-end)" marker-start="url(#arrowhead-start)" x1="200" x2="272" y1="434" y2="434" />
<line marker-end="url(#arrowhead-end)" marker-start="url(#arrowhead-start)" x1="200" x2="272" y1="420" y2="420" />
<line marker-end="url(#arrowhead-end)" marker-start="url(#arrowhead-start)" x1="200" x2="272" y1="406" y2="406" />
<line marker-end="url(#arrowhead-end)" marker-start="url(#arrowhead-start)" x1="200" x2="272" y1="392" y2="392" />
<line marker-end="url(#arrowhead-end)" marker-start="url(#arrowhead-start)" x1="200" x2="272" y1="378" y2="378" />
<line marker-end="url(#arrowhead-end)" marker-start="url(#arrowhead-start)" x1="200" x2="272" y1="364" y2="364" />
<line marker-end="url(#arrowhead-end)" marker-start="url(#arrowhead-start)" x1="200" x2="272" y1="350" y2="350" />
<line marker-end="url(#arrowhead-end)" marker-start="url(#arrowhead-start)" x1="200" x2="272" y1="336" y2="336" />
<line marker-end="url(#arrowhead-end)" marker-start="url(#arrowhead-start)" x1="200" x2="272" y1="322" y2="322" />
<line marker-end="url(#arrowhead-end)" marker-start="url(#arrowhead-start)" x1="200" x2="272" y1="308" y2="308" />
<line marker-end="url(#arrowhead-end)" marker-start="url(#arrowhead-start)" x1="200" x2="280" y1="294" y2="294" />
<line marker-end="url(#arrowhead-end)" marker-start="url(#arrowhead-start)" x1="200" x2="280" y1="280" y2="280" />
<line marker-end="url(#arrowhead-end)" marker-start="url(#arrowhead-start)" x1="200" x2="280" y1="266" y2="266" />
<line marker-end="url(#arrowhead-end)" marker-start="url(#arrowhead-start)" x1="200" x2="280" y1="252" y2="252" />
<line marker-end="url(#arrowhead-end)" marker-start="url(#arrowhead-start)" x1="200" x2="280" y1="238" y2="238" />
<line marker-end="url(#arrowhead-end)" marker-start="url(#arrowhead-start)" x1="200" x2="280" y1="224" y2="224" />
<line marker-end="url(#arrowhead-end)" marker-start="url(#arrowhead-start)" x1="200" x2="280" y1="210" y2="210" />
<line marker-end="url(#arrowhead-end)" marker-start="url(#arrowhead-start)" x1="200" x2="280" y1="196" y2="196" />
<line marker-end="url(#arrowhead-end)" marker-start="url(#arrowhead-start)" x1="200" x2="288" y1="182" y2="182" />
<line marker-end="url(#arrowhead-end)" marker-start="url(#arrowhead-start)" x1="200" x2="296" y1="168" y2="168" />
<line marker-end="url(#arrowhead-end)" marker-start="url(#arrowhead-start)" x1="208" x2="280" y1="154" y2="154" />
<line marker-end="url(#arrowhead-end)" marker-start="url(#arrowhead-start)" x1="216" x2="280" y1="140" y2="140" />
<line marker-end="url(#arrowhead-end)" marker-start="url(#arrowhead-start)" x1="216" x2="288" y1="126" y2="126" />
<line marker-end="url(#arrowhead-end)" marker-start="url(#arrowhead-start)" x1="216" x2="288" y1="112" y2="112" />
<line marker-end="url(#arrowhead-end)" marker-start="url(#arrowhead-start)" x1="216" x2="288" y1="98" y2="98" />
<line marker-end="url(#arrowhead-end)" marker-start="url(#arrowhead-start)" x1="216" x2="296" y1="84" y2="84" />
<line marker-end="url(#arrowhead-end)" marker-start="url(#arrowhead-start)" x1="216" x2="296" y1="70" y2="70" />
<line marker-end="url(#arrowhead-end)" marker-start="url(#arrowhead-start)" x1="216" x2="296" y1="56" y2="56" />
<line marker-end="url(#arrowhead-end)" marker-start="url(#arrowhead-start)" x1="216" x2="296" y1="42" y2="42" />
<line marker-end="url(#arrowhead-end)" marker-start="url(#arrowhead-start)" x1="216" x2="296" y1="28" y2="28" />
</g>
<g class="label" id="label">
<a target="_top" xlink:href="../../ctl_search?results=Search;protein=p17;inrange=1-10"><text x="88" y="867">human
</text>
</a>
<a target="_top" xlink:href="../../ctl_search?results=Search;protein=p17;inrange=19-27;hla=B*2705"><text x="228" y="867">B*2705
</text>
</a>
<a target="_top" xlink:href="../../ctl_search?results=Search;protein=p17;inrange=36-44;hla=B*3501"><text x="364" y="867">B*3501
</text>
</a>
<a target="_top" xlink:href="../../ctl_search?results=Search;protein=p17;inrange=5-13"><text x="116" y="853">human
</text>
</a>
<a target="_top" xlink:href="../../ctl_search?results=Search;protein=p17;inrange=22-29;hla=B42"><text x="248" y="853">B42
</text>
</a>
<a target="_top" xlink:href="../../ctl_search?results=Search;protein=p17;inrange=42-50;hla=B27"><text x="412" y="853">B27
</text>
</a>
<a target="_top" xlink:href="../../ctl_search?results=Search;protein=p17;inrange=5-15"><text x="124" y="839">human
</text>
</a>
<a target="_top" xlink:href="../../ctl_search?results=Search;protein=p17;inrange=24-31;hla=B*0801"><text x="264" y="839">B*0801
</text>
</a>
<a target="_top" xlink:href="../../ctl_search?results=Search;protein=p17;inrange=42-51;hla=B27"><text x="416" y="839">B27
</text>
</a>
<a target="_top" xlink:href="../../ctl_search?results=Search;protein=p17;inrange=5-18"><text x="136" y="825">human
</text>
</a>
<a target="_top" xlink:href="../../ctl_search?results=Search;protein=p17;inrange=27-35"><text x="292" y="825">human
</text>
</a>
<a target="_top" xlink:href="../../ctl_search?results=Search;protein=p17;inrange=44-52"><text x="424" y="825">human
</text>
</a>
<a target="_top" xlink:href="../../ctl_search?results=Search;protein=p17;inrange=6-15;hla=A11"><text x="128" y="811">A11
</text>
</a>
<a target="_top" xlink:href="../../ctl_search?results=Search;protein=p17;inrange=24-31;hla=B8"><text x="264" y="811">B8
</text>
</a>
<a target="_top" xlink:href="../../ctl_search?results=Search;protein=p17;inrange=43-51;hla=B63"><text x="420" y="811">B63
</text>
</a>
<a target="_top" xlink:href="../../ctl_search?results=Search;protein=p17;inrange=6-19"><text x="144" y="797">human
</text>
</a>
<a target="_top" xlink:href="../../ctl_search?results=Search;protein=p17;inrange=28-36;hla=A*23"><text x="300" y="797">A*23
</text>
</a>
<a target="_top" xlink:href="../../ctl_search?results=Search;protein=p17;inrange=47-55"><text x="436" y="797">human
</text>
</a>
<a target="_top" xlink:href="../../ctl_search?results=Search;protein=p17;inrange=8-18"><text x="148" y="783">macaque
</text>
</a>
<a target="_top" xlink:href="../../ctl_search?results=Search;protein=p17;inrange=28-36;hla=A*2301"><text x="300" y="783">A*2301
</text>
</a>
<a target="_top" xlink:href="../../ctl_search?results=Search;protein=p17;inrange=49-57;hla=A2"><text x="444" y="783">A2
</text>
</a>
<a target="_top" xlink:href="../../ctl_search?results=Search;protein=p17;inrange=11-19;hla=B*4002"><text x="164" y="769">B*4002
</text>
</a>
<a target="_top" xlink:href="../../ctl_search?results=Search;protein=p17;inrange=28-36;hla=A*2402"><text x="300" y="769">A*2402
</text>
</a>
<a target="_top" xlink:href="../../ctl_search?results=Search;protein=p17;inrange=11-19;hla=B40"><text x="164" y="755">B40
</text>
</a>
<a target="_top" xlink:href="../../ctl_search?results=Search;protein=p17;inrange=28-36;hla=A*2602"><text x="300" y="755">A*2602
</text>
</a>
<a target="_top" xlink:href="../../ctl_search?results=Search;protein=p17;inrange=11-22"><text x="176" y="741">human
</text>
</a>
<a target="_top" xlink:href="../../ctl_search?results=Search;protein=p17;inrange=33-41;hla=Cw*0602"><text x="340" y="741">Cw*0602
</text>
</a>
<a target="_top" xlink:href="../../ctl_search?results=Search;protein=p17;inrange=12-21;hla=B63"><text x="176" y="727">B63
</text>
</a>
<a target="_top" xlink:href="../../ctl_search?results=Search;protein=p17;inrange=33-41;hla=Cw*0804"><text x="340" y="727">Cw*0804
</text>
</a>
<a target="_top" xlink:href="../../ctl_search?results=Search;protein=p17;inrange=17-31;hla=B27"><text x="236" y="713">B27
</text>
</a>
<a target="_top" xlink:href="../../ctl_search?results=Search;protein=p17;inrange=17-31;hla=B7"><text x="236" y="699">B7
</text>
</a>
<a target="_top" xlink:href="../../ctl_search?results=Search;protein=p17;inrange=18-26;hla=A*0301"><text x="220" y="685">A*0301
</text>
</a>
<a target="_top" xlink:href="../../ctl_search?results=Search;protein=p17;inrange=36-44;hla=B35"><text x="364" y="685">B35
</text>
</a>
<a target="_top" xlink:href="../../ctl_search?results=Search;protein=p17;inrange=18-26;hla=A11"><text x="220" y="671">A11
</text>
</a>
<a target="_top" xlink:href="../../ctl_search?results=Search;protein=p17;inrange=18-26;hla=A3"><text x="220" y="657">A3
</text>
</a>
<a target="_top" xlink:href="../../ctl_search?results=Search;protein=p17;inrange=18-26;hla=B27"><text x="220" y="643">B27
</text>
</a>
<a target="_top" xlink:href="../../ctl_search?results=Search;protein=p17;inrange=18-26;hla=B7"><text x="220" y="629">B7
</text>
</a>
<a target="_top" xlink:href="../../ctl_search?results=Search;protein=p17;inrange=18-27;hla=A*0301"><text x="224" y="615">A*0301
</text>
</a>
<a target="_top" xlink:href="../../ctl_search?results=Search;protein=p17;inrange=18-27;hla=A11"><text x="224" y="601">A11
</text>
</a>
<a target="_top" xlink:href="../../ctl_search?results=Search;protein=p17;inrange=18-27;hla=A3"><text x="224" y="587">A3
</text>
</a>
<a target="_top" xlink:href="../../ctl_search?results=Search;protein=p17;inrange=18-27;hla=B*2705"><text x="224" y="573">B*2705
</text>
</a>
<a target="_top" xlink:href="../../ctl_search?results=Search;protein=p17;inrange=18-27;hla=B27"><text x="224" y="559">B27
</text>
</a>
<a target="_top" xlink:href="../../ctl_search?results=Search;protein=p17;inrange=18-27;hla=B35"><text x="224" y="545">B35
</text>
</a>
<a target="_top" xlink:href="../../ctl_search?results=Search;protein=p17;inrange=18-27;hla=B7"><text x="224" y="531">B7
</text>
</a>
<a target="_top" xlink:href="../../ctl_search?results=Search;protein=p17;inrange=18-31;hla=A3"><text x="240" y="517">A3
</text>
</a>
<a target="_top" xlink:href="../../ctl_search?results=Search;protein=p17;inrange=18-31;hla=B62"><text x="240" y="503">B62
</text>
</a>
<a target="_top" xlink:href="../../ctl_search?results=Search;protein=p17;inrange=19-27;hla=B27"><text x="228" y="489">B27
</text>
</a>
<a target="_top" xlink:href="../../ctl_search?results=Search;protein=p17;inrange=19-28;hla=A11"><text x="232" y="475">A11
</text>
</a>
<a target="_top" xlink:href="../../ctl_search?results=Search;protein=p17;inrange=19-28;hla=A3"><text x="232" y="461">A3
</text>
</a>
<a target="_top" xlink:href="../../ctl_search?results=Search;protein=p17;inrange=19-28;hla=B62"><text x="232" y="447">B62
</text>
</a>
<a target="_top" xlink:href="../../ctl_search?results=Search;protein=p17;inrange=20-28;hla=A*0201"><text x="236" y="433">A*0201
</text>
</a>
<a target="_top" xlink:href="../../ctl_search?results=Search;protein=p17;inrange=20-28;hla=A*0301"><text x="236" y="419">A*0301
</text>
</a>
<a target="_top" xlink:href="../../ctl_search?results=Search;protein=p17;inrange=20-28;hla=A11"><text x="236" y="405">A11
</text>
</a>
<a target="_top" xlink:href="../../ctl_search?results=Search;protein=p17;inrange=20-28;hla=A3"><text x="236" y="391">A3
</text>
</a>
<a target="_top" xlink:href="../../ctl_search?results=Search;protein=p17;inrange=20-28;hla=A30"><text x="236" y="377">A30
</text>
</a>
<a target="_top" xlink:href="../../ctl_search?results=Search;protein=p17;inrange=20-28;hla=A31"><text x="236" y="363">A31
</text>
</a>
<a target="_top" xlink:href="../../ctl_search?results=Search;protein=p17;inrange=20-28;hla=A68"><text x="236" y="349">A68
</text>
</a>
<a target="_top" xlink:href="../../ctl_search?results=Search;protein=p17;inrange=20-28;hla=B42"><text x="236" y="335">B42
</text>
</a>
<a target="_top" xlink:href="../../ctl_search?results=Search;protein=p17;inrange=20-28;hla=B62"><text x="236" y="321">B62
</text>
</a>
<a target="_top" xlink:href="../../ctl_search?results=Search;protein=p17;inrange=20-28;hla=B7"><text x="236" y="307">B7
</text>
</a>
<a target="_top" xlink:href="../../ctl_search?results=Search;protein=p17;inrange=20-29;hla=A*0301"><text x="240" y="293">A*0301
</text>
</a>
<a target="_top" xlink:href="../../ctl_search?results=Search;protein=p17;inrange=20-29;hla=A*3002"><text x="240" y="279">A*3002
</text>
</a>
<a target="_top" xlink:href="../../ctl_search?results=Search;protein=p17;inrange=20-29;hla=A3"><text x="240" y="265">A3
</text>
</a>
<a target="_top" xlink:href="../../ctl_search?results=Search;protein=p17;inrange=20-29;hla=A30"><text x="240" y="251">A30
</text>
</a>
<a target="_top" xlink:href="../../ctl_search?results=Search;protein=p17;inrange=20-29;hla=B*4201"><text x="240" y="237">B*4201
</text>
</a>
<a target="_top" xlink:href="../../ctl_search?results=Search;protein=p17;inrange=20-29;hla=B15"><text x="240" y="223">B15
</text>
</a>
<a target="_top" xlink:href="../../ctl_search?results=Search;protein=p17;inrange=20-29;hla=B42"><text x="240" y="209">B42
</text>
</a>
<a target="_top" xlink:href="../../ctl_search?results=Search;protein=p17;inrange=20-29;hla=B62"><text x="240" y="195">B62
</text>
</a>
<a target="_top" xlink:href="../../ctl_search?results=Search;protein=p17;inrange=20-30"><text x="244" y="181">human
</text>
</a>
<a target="_top" xlink:href="../../ctl_search?results=Search;protein=p17;inrange=20-31"><text x="248" y="167">human
</text>
</a>
<a target="_top" xlink:href="../../ctl_search?results=Search;protein=p17;inrange=21-29"><text x="244" y="153">human
</text>
</a>
<a target="_top" xlink:href="../../ctl_search?results=Search;protein=p17;inrange=22-29;hla=B7"><text x="248" y="139">B7
</text>
</a>
<a target="_top" xlink:href="../../ctl_search?results=Search;protein=p17;inrange=22-30;hla=B*4201"><text x="252" y="125">B*4201
</text>
</a>
<a target="_top" xlink:href="../../ctl_search?results=Search;protein=p17;inrange=22-30;hla=B*4202"><text x="252" y="111">B*4202
</text>
</a>
<a target="_top" xlink:href="../../ctl_search?results=Search;protein=p17;inrange=22-30;hla=B7"><text x="252" y="97">B7
</text>
</a>
<a target="_top" xlink:href="../../ctl_search?results=Search;protein=p17;inrange=22-31;hla=B*0702"><text x="256" y="83">B*0702
</text>
</a>
<a target="_top" xlink:href="../../ctl_search?results=Search;protein=p17;inrange=22-31;hla=B*4201"><text x="256" y="69">B*4201
</text>
</a>
<a target="_top" xlink:href="../../ctl_search?results=Search;protein=p17;inrange=22-31;hla=B*5101"><text x="256" y="55">B*5101
</text>
</a>
<a target="_top" xlink:href="../../ctl_search?results=Search;protein=p17;inrange=22-31;hla=B7"><text x="256" y="41">B7
</text>
</a>
<a target="_top" xlink:href="../../ctl_search?results=Search;protein=p17;inrange=22-31;hla=Cw4"><text x="256" y="27">Cw4
</text>
</a>
</g>
</svg>
