<?xml version="1.0" encoding="UTF-8" standalone="yes"?>
<!DOCTYPE svg PUBLIC "-//W3C//DTD SVG 1.0//EN" "http://www.w3.org/TR/2001/REC-SVG-20010904/DTD/svg10.dtd">
<svg height="757" id="ctl/p17-ctl-03.svg" width="481" xmlns="http://www.w3.org/2000/svg" xmlns:svg="http://www.w3.org/2000/svg" xmlns:xlink="http://www.w3.org/1999/xlink"><title id="title">ctl/p17-ctl-03
</title><style type="text/css"><![CDATA[.mono {
    font-size: 14px;
    font-family:  BitstreamVeraSansMono, Monaco, Courier, monospace;
}
.tics {
    stroke: black;
    stroke-width: .5;
    font-family: serif;
    font-size: 10px;
    text-anchor: middle;
}
.vertlines {
    stroke: black;
    stroke-width: .5;
}
.arrows {
    stroke: black;
    stroke-width: .5;
}
.label {
    font-family: serif;
    font-size: 11px;
    text-anchor: middle;
}
.name {
    font-family: serif;
    font-size: 12px;
    text-anchor: end;
}
]]>
</style>
<defs >
<marker id="arrowhead-end" markerHeight="12" markerUnits="strokeWidth" markerWidth="12" orient="auto" refX="24" refY="15" viewBox="0, 0, 30, 30">
<path d="M 0 0 L 30 15 L 0 30 z" />
</marker>
<marker id="arrowhead-start" markerHeight="12" markerUnits="strokeWidth" markerWidth="12" orient="auto" refX="6" refY="15" viewBox="0, 0, 30, 30">
<path d="M 30 0 L 0 15 L 30 30 z" />
</marker>
</defs>
<rect fill="oldlace" height="757" rx="5" width="481" x="0" y="0" />
<g class="mono" id="rule">
<a target="_top" xlink:href="../../ctl_search?results=Search;protein=p17;spans=51"><text x="48" y="728">L
</text>
</a>
<a target="_top" xlink:href="../../ctl_search?results=Search;protein=p17;spans=52"><text x="56" y="728">E
</text>
</a>
<a target="_top" xlink:href="../../ctl_search?results=Search;protein=p17;spans=53"><text x="64" y="728">T
</text>
</a>
<a target="_top" xlink:href="../../ctl_search?results=Search;protein=p17;spans=54"><text x="72" y="728">S
</text>
</a>
<a target="_top" xlink:href="../../ctl_search?results=Search;protein=p17;spans=55"><text x="80" y="728">E
</text>
</a>
<a target="_top" xlink:href="../../ctl_search?results=Search;protein=p17;spans=56"><text x="88" y="728">G
</text>
</a>
<a target="_top" xlink:href="../../ctl_search?results=Search;protein=p17;spans=57"><text x="96" y="728">C
</text>
</a>
<a target="_top" xlink:href="../../ctl_search?results=Search;protein=p17;spans=58"><text x="104" y="728">R
</text>
</a>
<a target="_top" xlink:href="../../ctl_search?results=Search;protein=p17;spans=59"><text x="112" y="728">Q
</text>
</a>
<a target="_top" xlink:href="../../ctl_search?results=Search;protein=p17;spans=60"><text x="120" y="728">I
</text>
</a>
<a target="_top" xlink:href="../../ctl_search?results=Search;protein=p17;spans=61"><text x="128" y="728">L
</text>
</a>
<a target="_top" xlink:href="../../ctl_search?results=Search;protein=p17;spans=62"><text x="136" y="728">G
</text>
</a>
<a target="_top" xlink:href="../../ctl_search?results=Search;protein=p17;spans=63"><text x="144" y="728">Q
</text>
</a>
<a target="_top" xlink:href="../../ctl_search?results=Search;protein=p17;spans=64"><text x="152" y="728">L
</text>
</a>
<a target="_top" xlink:href="../../ctl_search?results=Search;protein=p17;spans=65"><text x="160" y="728">Q
</text>
</a>
<a target="_top" xlink:href="../../ctl_search?results=Search;protein=p17;spans=66"><text x="168" y="728">P
</text>
</a>
<a target="_top" xlink:href="../../ctl_search?results=Search;protein=p17;spans=67"><text x="176" y="728">S
</text>
</a>
<a target="_top" xlink:href="../../ctl_search?results=Search;protein=p17;spans=68"><text x="184" y="728">L
</text>
</a>
<a target="_top" xlink:href="../../ctl_search?results=Search;protein=p17;spans=69"><text x="192" y="728">Q
</text>
</a>
<a target="_top" xlink:href="../../ctl_search?results=Search;protein=p17;spans=70"><text x="200" y="728">T
</text>
</a>
<a target="_top" xlink:href="../../ctl_search?results=Search;protein=p17;spans=71"><text x="208" y="728">G
</text>
</a>
<a target="_top" xlink:href="../../ctl_search?results=Search;protein=p17;spans=72"><text x="216" y="728">S
</text>
</a>
<a target="_top" xlink:href="../../ctl_search?results=Search;protein=p17;spans=73"><text x="224" y="728">E
</text>
</a>
<a target="_top" xlink:href="../../ctl_search?results=Search;protein=p17;spans=74"><text x="232" y="728">E
</text>
</a>
<a target="_top" xlink:href="../../ctl_search?results=Search;protein=p17;spans=75"><text x="240" y="728">L
</text>
</a>
<a target="_top" xlink:href="../../ctl_search?results=Search;protein=p17;spans=76"><text x="248" y="728">R
</text>
</a>
<a target="_top" xlink:href="../../ctl_search?results=Search;protein=p17;spans=77"><text x="256" y="728">S
</text>
</a>
<a target="_top" xlink:href="../../ctl_search?results=Search;protein=p17;spans=78"><text x="264" y="728">L
</text>
</a>
<a target="_top" xlink:href="../../ctl_search?results=Search;protein=p17;spans=79"><text x="272" y="728">Y
</text>
</a>
<a target="_top" xlink:href="../../ctl_search?results=Search;protein=p17;spans=80"><text x="280" y="728">N
</text>
</a>
<a target="_top" xlink:href="../../ctl_search?results=Search;protein=p17;spans=81"><text x="288" y="728">T
</text>
</a>
<a target="_top" xlink:href="../../ctl_search?results=Search;protein=p17;spans=82"><text x="296" y="728">V
</text>
</a>
<a target="_top" xlink:href="../../ctl_search?results=Search;protein=p17;spans=83"><text x="304" y="728">A
</text>
</a>
<a target="_top" xlink:href="../../ctl_search?results=Search;protein=p17;spans=84"><text x="312" y="728">T
</text>
</a>
<a target="_top" xlink:href="../../ctl_search?results=Search;protein=p17;spans=85"><text x="320" y="728">L
</text>
</a>
<a target="_top" xlink:href="../../ctl_search?results=Search;protein=p17;spans=86"><text x="328" y="728">Y
</text>
</a>
<a target="_top" xlink:href="../../ctl_search?results=Search;protein=p17;spans=87"><text x="336" y="728">C
</text>
</a>
<a target="_top" xlink:href="../../ctl_search?results=Search;protein=p17;spans=88"><text x="344" y="728">V
</text>
</a>
<a target="_top" xlink:href="../../ctl_search?results=Search;protein=p17;spans=89"><text x="352" y="728">H
</text>
</a>
<a target="_top" xlink:href="../../ctl_search?results=Search;protein=p17;spans=90"><text x="360" y="728">Q
</text>
</a>
<a target="_top" xlink:href="../../ctl_search?results=Search;protein=p17;spans=91"><text x="368" y="728">R
</text>
</a>
<a target="_top" xlink:href="../../ctl_search?results=Search;protein=p17;spans=92"><text x="376" y="728">I
</text>
</a>
<a target="_top" xlink:href="../../ctl_search?results=Search;protein=p17;spans=93"><text x="384" y="728">E
</text>
</a>
<a target="_top" xlink:href="../../ctl_search?results=Search;protein=p17;spans=94"><text x="392" y="728">I
</text>
</a>
<a target="_top" xlink:href="../../ctl_search?results=Search;protein=p17;spans=95"><text x="400" y="728">K
</text>
</a>
<a target="_top" xlink:href="../../ctl_search?results=Search;protein=p17;spans=96"><text x="408" y="728">D
</text>
</a>
<a target="_top" xlink:href="../../ctl_search?results=Search;protein=p17;spans=97"><text x="416" y="728">T
</text>
</a>
<a target="_top" xlink:href="../../ctl_search?results=Search;protein=p17;spans=98"><text x="424" y="728">K
</text>
</a>
<a target="_top" xlink:href="../../ctl_search?results=Search;protein=p17;spans=99"><text x="432" y="728">E
</text>
</a>
<a target="_top" xlink:href="../../ctl_search?results=Search;protein=p17;spans=100"><text x="440" y="728">A
</text>
</a>
</g>
<g class="tics" id="tics">
<line x1="124" x2="124" y1="729" y2="733" /><text stroke-width="0" x="124" y="742">60
</text>
<line x1="204" x2="204" y1="729" y2="733" /><text stroke-width="0" x="204" y="742">70
</text>
<line x1="284" x2="284" y1="729" y2="733" /><text stroke-width="0" x="284" y="742">80
</text>
<line x1="364" x2="364" y1="729" y2="733" /><text stroke-width="0" x="364" y="742">90
</text>
<line x1="444" x2="444" y1="729" y2="733" /><text stroke-width="0" x="444" y="742">100
</text>
</g>
<g class="vertlines" id="vertlines">
<line x1="56" x2="56" y1="714" y2="683.2" />
<line x1="64" x2="64" y1="714" y2="669.2" />
<line x1="88" x2="88" y1="714" y2="655.2" />
<line x1="104" x2="104" y1="714" y2="641.2" />
<line x1="112" x2="112" y1="714" y2="613.2" />
<line x1="144" x2="144" y1="714" y2="697.2" />
<line x1="184" x2="184" y1="714" y2="627.2" />
<line x1="192" x2="192" y1="714" y2="613.2" />
<line x1="208" x2="208" y1="714" y2="655.2" />
<line x1="224" x2="224" y1="714" y2="599.2" />
<line x1="232" x2="232" y1="714" y2="543.2" />
<line x1="248" x2="248" y1="714" y2="459.2" />
<line x1="256" x2="256" y1="714" y2="347.2" />
<line x1="264" x2="264" y1="714" y2="249.2" />
<line x1="272" x2="272" y1="714" y2="235.2" />
<line x1="280" x2="280" y1="714" y2="221.2" />
<line x1="296" x2="296" y1="714" y2="193.2" />
<line x1="304" x2="304" y1="714" y2="165.2" />
<line x1="312" x2="312" y1="714" y2="95.1999999999999" />
<line x1="320" x2="320" y1="714" y2="67.1999999999999" />
<line x1="328" x2="328" y1="714" y2="53.1999999999999" />
<line x1="336" x2="336" y1="714" y2="39.1999999999999" />
<line x1="352" x2="352" y1="714" y2="221.2" />
<line x1="360" x2="360" y1="714" y2="347.2" />
<line x1="368" x2="368" y1="714" y2="235.2" />
<line x1="376" x2="376" y1="714" y2="137.2" />
<line x1="384" x2="384" y1="714" y2="25.1999999999999" />
<line x1="400" x2="400" y1="714" y2="165.2" />
<line x1="408" x2="408" y1="714" y2="39.1999999999999" />
<line x1="416" x2="416" y1="714" y2="53.1999999999999" />
<line x1="432" x2="432" y1="714" y2="683.2" />
</g>
<g class="arrows" id="arrows">
<line marker-end="url(#arrowhead-end)" x1="40" x2="56" y1="700" y2="700" />
<line marker-end="url(#arrowhead-end)" marker-start="url(#arrowhead-start)" x1="144" x2="224" y1="700" y2="700" />
<line marker-end="url(#arrowhead-end)" marker-start="url(#arrowhead-start)" x1="296" x2="368" y1="700" y2="700" />
<line marker-end="url(#arrowhead-end)" x1="40" x2="56" y1="686" y2="686" />
<line marker-end="url(#arrowhead-end)" marker-start="url(#arrowhead-start)" x1="208" x2="280" y1="686" y2="686" />
<line marker-end="url(#arrowhead-end)" marker-start="url(#arrowhead-start)" x1="352" x2="432" y1="686" y2="686" />
<line marker-end="url(#arrowhead-end)" x1="40" x2="64" y1="672" y2="672" />
<line marker-end="url(#arrowhead-end)" marker-start="url(#arrowhead-start)" x1="208" x2="280" y1="672" y2="672" />
<line marker-start="url(#arrowhead-start)" x1="368" x2="456" y1="672" y2="672" />
<line marker-end="url(#arrowhead-end)" x1="40" x2="88" y1="658" y2="658" />
<line marker-end="url(#arrowhead-end)" marker-start="url(#arrowhead-start)" x1="208" x2="280" y1="658" y2="658" />
<line marker-start="url(#arrowhead-start)" x1="376" x2="456" y1="658" y2="658" />
<line marker-end="url(#arrowhead-end)" x1="40" x2="104" y1="644" y2="644" />
<line marker-end="url(#arrowhead-end)" marker-start="url(#arrowhead-start)" x1="224" x2="296" y1="644" y2="644" />
<line marker-start="url(#arrowhead-start)" x1="376" x2="456" y1="644" y2="644" />
<line marker-end="url(#arrowhead-end)" marker-start="url(#arrowhead-start)" x1="112" x2="184" y1="630" y2="630" />
<line marker-end="url(#arrowhead-end)" marker-start="url(#arrowhead-start)" x1="248" x2="336" y1="630" y2="630" />
<line marker-end="url(#arrowhead-end)" marker-start="url(#arrowhead-start)" x1="112" x2="192" y1="616" y2="616" />
<line marker-end="url(#arrowhead-end)" marker-start="url(#arrowhead-start)" x1="256" x2="328" y1="616" y2="616" />
<line marker-end="url(#arrowhead-end)" marker-start="url(#arrowhead-start)" x1="224" x2="304" y1="602" y2="602" />
<line marker-start="url(#arrowhead-start)" x1="376" x2="456" y1="602" y2="602" />
<line marker-end="url(#arrowhead-end)" marker-start="url(#arrowhead-start)" x1="232" x2="304" y1="588" y2="588" />
<line marker-start="url(#arrowhead-start)" x1="376" x2="456" y1="588" y2="588" />
<line marker-end="url(#arrowhead-end)" marker-start="url(#arrowhead-start)" x1="232" x2="304" y1="574" y2="574" />
<line marker-start="url(#arrowhead-start)" x1="384" x2="456" y1="574" y2="574" />
<line marker-end="url(#arrowhead-end)" marker-start="url(#arrowhead-start)" x1="232" x2="304" y1="560" y2="560" />
<line marker-start="url(#arrowhead-start)" x1="384" x2="456" y1="560" y2="560" />
<line marker-end="url(#arrowhead-end)" marker-start="url(#arrowhead-start)" x1="232" x2="312" y1="546" y2="546" />
<line marker-start="url(#arrowhead-start)" x1="384" x2="456" y1="546" y2="546" />
<line marker-end="url(#arrowhead-end)" marker-start="url(#arrowhead-start)" x1="248" x2="336" y1="532" y2="532" />
<line marker-end="url(#arrowhead-end)" marker-start="url(#arrowhead-start)" x1="248" x2="336" y1="518" y2="518" />
<line marker-end="url(#arrowhead-end)" marker-start="url(#arrowhead-start)" x1="248" x2="336" y1="504" y2="504" />
<line marker-end="url(#arrowhead-end)" marker-start="url(#arrowhead-start)" x1="248" x2="336" y1="490" y2="490" />
<line marker-end="url(#arrowhead-end)" marker-start="url(#arrowhead-start)" x1="248" x2="336" y1="476" y2="476" />
<line marker-end="url(#arrowhead-end)" marker-start="url(#arrowhead-start)" x1="248" x2="352" y1="462" y2="462" />
<line marker-end="url(#arrowhead-end)" marker-start="url(#arrowhead-start)" x1="256" x2="328" y1="448" y2="448" />
<line marker-end="url(#arrowhead-end)" marker-start="url(#arrowhead-start)" x1="256" x2="328" y1="434" y2="434" />
<line marker-end="url(#arrowhead-end)" marker-start="url(#arrowhead-start)" x1="256" x2="328" y1="420" y2="420" />
<line marker-end="url(#arrowhead-end)" marker-start="url(#arrowhead-start)" x1="256" x2="328" y1="406" y2="406" />
<line marker-end="url(#arrowhead-end)" marker-start="url(#arrowhead-start)" x1="256" x2="328" y1="392" y2="392" />
<line marker-end="url(#arrowhead-end)" marker-start="url(#arrowhead-start)" x1="256" x2="336" y1="378" y2="378" />
<line marker-end="url(#arrowhead-end)" marker-start="url(#arrowhead-start)" x1="256" x2="336" y1="364" y2="364" />
<line marker-end="url(#arrowhead-end)" marker-start="url(#arrowhead-start)" x1="256" x2="360" y1="350" y2="350" />
<line marker-end="url(#arrowhead-end)" marker-start="url(#arrowhead-start)" x1="264" x2="328" y1="336" y2="336" />
<line marker-end="url(#arrowhead-end)" marker-start="url(#arrowhead-start)" x1="264" x2="328" y1="322" y2="322" />
<line marker-end="url(#arrowhead-end)" marker-start="url(#arrowhead-start)" x1="264" x2="328" y1="308" y2="308" />
<line marker-end="url(#arrowhead-end)" marker-start="url(#arrowhead-start)" x1="264" x2="336" y1="294" y2="294" />
<line marker-end="url(#arrowhead-end)" marker-start="url(#arrowhead-start)" x1="264" x2="336" y1="280" y2="280" />
<line marker-end="url(#arrowhead-end)" marker-start="url(#arrowhead-start)" x1="264" x2="336" y1="266" y2="266" />
<line marker-end="url(#arrowhead-end)" marker-start="url(#arrowhead-start)" x1="264" x2="336" y1="252" y2="252" />
<line marker-end="url(#arrowhead-end)" marker-start="url(#arrowhead-start)" x1="272" x2="368" y1="238" y2="238" />
<line marker-end="url(#arrowhead-end)" marker-start="url(#arrowhead-start)" x1="280" x2="352" y1="224" y2="224" />
<line marker-end="url(#arrowhead-end)" marker-start="url(#arrowhead-start)" x1="296" x2="376" y1="210" y2="210" />
<line marker-end="url(#arrowhead-end)" marker-start="url(#arrowhead-start)" x1="296" x2="384" y1="196" y2="196" />
<line marker-end="url(#arrowhead-end)" marker-start="url(#arrowhead-start)" x1="304" x2="376" y1="182" y2="182" />
<line marker-end="url(#arrowhead-end)" marker-start="url(#arrowhead-start)" x1="304" x2="400" y1="168" y2="168" />
<line marker-end="url(#arrowhead-end)" marker-start="url(#arrowhead-start)" x1="312" x2="376" y1="154" y2="154" />
<line marker-end="url(#arrowhead-end)" marker-start="url(#arrowhead-start)" x1="312" x2="376" y1="140" y2="140" />
<line marker-end="url(#arrowhead-end)" marker-start="url(#arrowhead-start)" x1="312" x2="384" y1="126" y2="126" />
<line marker-end="url(#arrowhead-end)" marker-start="url(#arrowhead-start)" x1="312" x2="384" y1="112" y2="112" />
<line marker-end="url(#arrowhead-end)" marker-start="url(#arrowhead-start)" x1="312" x2="384" y1="98" y2="98" />
<line marker-end="url(#arrowhead-end)" marker-start="url(#arrowhead-start)" x1="320" x2="384" y1="84" y2="84" />
<line marker-end="url(#arrowhead-end)" marker-start="url(#arrowhead-start)" x1="320" x2="384" y1="70" y2="70" />
<line marker-end="url(#arrowhead-end)" marker-start="url(#arrowhead-start)" x1="328" x2="416" y1="56" y2="56" />
<line marker-end="url(#arrowhead-end)" marker-start="url(#arrowhead-start)" x1="336" x2="408" y1="42" y2="42" />
<line marker-start="url(#arrowhead-start)" x1="384" x2="456" y1="28" y2="28" />
</g>
<g class="label" id="label">
<a target="_top" xlink:href="../../ctl_search?results=Search;protein=p17;inrange=42-51;hla=B27"><text x="48" y="699">B27
</text>
</a>
<a target="_top" xlink:href="../../ctl_search?results=Search;protein=p17;inrange=63-72;hla=A2"><text x="184" y="699">A2
</text>
</a>
<a target="_top" xlink:href="../../ctl_search?results=Search;protein=p17;inrange=82-90"><text x="332" y="699">human
</text>
</a>
<a target="_top" xlink:href="../../ctl_search?results=Search;protein=p17;inrange=43-51;hla=B63"><text x="48" y="685">B63
</text>
</a>
<a target="_top" xlink:href="../../ctl_search?results=Search;protein=p17;inrange=71-79;hla=A*01"><text x="244" y="685">A*01
</text>
</a>
<a target="_top" xlink:href="../../ctl_search?results=Search;protein=p17;inrange=89-98;hla=A11"><text x="392" y="685">A11
</text>
</a>
<a target="_top" xlink:href="../../ctl_search?results=Search;protein=p17;inrange=44-52"><text x="52" y="671">human
</text>
</a>
<a target="_top" xlink:href="../../ctl_search?results=Search;protein=p17;inrange=71-79;hla=A*0101"><text x="244" y="671">A*0101
</text>
</a>
<a target="_top" xlink:href="../../ctl_search?results=Search;protein=p17;inrange=91-101"><text x="412" y="671">human
</text>
</a>
<a target="_top" xlink:href="../../ctl_search?results=Search;protein=p17;inrange=47-55"><text x="64" y="657">human
</text>
</a>
<a target="_top" xlink:href="../../ctl_search?results=Search;protein=p17;inrange=71-79;hla=A1"><text x="244" y="657">A1
</text>
</a>
<a target="_top" xlink:href="../../ctl_search?results=Search;protein=p17;inrange=92-101;hla=B*4001"><text x="416" y="657">B*4001
</text>
</a>
<a target="_top" xlink:href="../../ctl_search?results=Search;protein=p17;inrange=49-57;hla=A2"><text x="72" y="643">A2
</text>
</a>
<a target="_top" xlink:href="../../ctl_search?results=Search;protein=p17;inrange=73-81"><text x="260" y="643">human
</text>
</a>
<a target="_top" xlink:href="../../ctl_search?results=Search;protein=p17;inrange=92-101;hla=B40"><text x="416" y="643">B40
</text>
</a>
<a target="_top" xlink:href="../../ctl_search?results=Search;protein=p17;inrange=59-67;hla=A2"><text x="148" y="629">A2
</text>
</a>
<a target="_top" xlink:href="../../ctl_search?results=Search;protein=p17;inrange=76-86;hla=A*0201"><text x="292" y="629">A*0201
</text>
</a>
<a target="_top" xlink:href="../../ctl_search?results=Search;protein=p17;inrange=59-68;hla=A2"><text x="152" y="615">A2
</text>
</a>
<a target="_top" xlink:href="../../ctl_search?results=Search;protein=p17;inrange=77-85;hla=A*0201"><text x="292" y="615">A*0201
</text>
</a>
<a target="_top" xlink:href="../../ctl_search?results=Search;protein=p17;inrange=73-82;hla=B*4006"><text x="264" y="601">B*4006
</text>
</a>
<a target="_top" xlink:href="../../ctl_search?results=Search;protein=p17;inrange=92-101;hla=B60"><text x="416" y="601">B60
</text>
</a>
<a target="_top" xlink:href="../../ctl_search?results=Search;protein=p17;inrange=74-82;hla=A*0801"><text x="268" y="587">A*0801
</text>
</a>
<a target="_top" xlink:href="../../ctl_search?results=Search;protein=p17;inrange=92-101;hla=B61"><text x="416" y="587">B61
</text>
</a>
<a target="_top" xlink:href="../../ctl_search?results=Search;protein=p17;inrange=74-82;hla=B*0801"><text x="268" y="573">B*0801
</text>
</a>
<a target="_top" xlink:href="../../ctl_search?results=Search;protein=p17;inrange=93-101;hla=B*0801"><text x="420" y="573">B*0801
</text>
</a>
<a target="_top" xlink:href="../../ctl_search?results=Search;protein=p17;inrange=74-82;hla=B8"><text x="268" y="559">B8
</text>
</a>
<a target="_top" xlink:href="../../ctl_search?results=Search;protein=p17;inrange=93-101;hla=B*60"><text x="420" y="559">B*60
</text>
</a>
<a target="_top" xlink:href="../../ctl_search?results=Search;protein=p17;inrange=74-83;hla=A2"><text x="272" y="545">A2
</text>
</a>
<a target="_top" xlink:href="../../ctl_search?results=Search;protein=p17;inrange=93-101;hla=B60"><text x="420" y="545">B60
</text>
</a>
<a target="_top" xlink:href="../../ctl_search?results=Search;protein=p17;inrange=76-86;hla=A*3002"><text x="292" y="531">A*3002
</text>
</a>
<a target="_top" xlink:href="../../ctl_search?results=Search;protein=p17;inrange=76-86;hla=A30"><text x="292" y="517">A30
</text>
</a>
<a target="_top" xlink:href="../../ctl_search?results=Search;protein=p17;inrange=76-86;hla=B57"><text x="292" y="503">B57
</text>
</a>
<a target="_top" xlink:href="../../ctl_search?results=Search;protein=p17;inrange=76-86;hla=B58"><text x="292" y="489">B58
</text>
</a>
<a target="_top" xlink:href="../../ctl_search?results=Search;protein=p17;inrange=76-86;hla=B63"><text x="292" y="475">B63
</text>
</a>
<a target="_top" xlink:href="../../ctl_search?results=Search;protein=p17;inrange=76-88;hla=H-2D&lt;sup&gt;b&lt;/sup&gt;"><text x="300" y="461">H-2Db
</text>
</a>
<a target="_top" xlink:href="../../ctl_search?results=Search;protein=p17;inrange=77-85;hla=A*0202"><text x="292" y="447">A*0202
</text>
</a>
<a target="_top" xlink:href="../../ctl_search?results=Search;protein=p17;inrange=77-85;hla=A*0205"><text x="292" y="433">A*0205
</text>
</a>
<a target="_top" xlink:href="../../ctl_search?results=Search;protein=p17;inrange=77-85;hla=A*0214"><text x="292" y="419">A*0214
</text>
</a>
<a target="_top" xlink:href="../../ctl_search?results=Search;protein=p17;inrange=77-85;hla=A2"><text x="292" y="405">A2
</text>
</a>
<a target="_top" xlink:href="../../ctl_search?results=Search;protein=p17;inrange=77-85;hla=A68"><text x="292" y="391">A68
</text>
</a>
<a target="_top" xlink:href="../../ctl_search?results=Search;protein=p17;inrange=77-86;hla=A*0201"><text x="296" y="377">A*0201
</text>
</a>
<a target="_top" xlink:href="../../ctl_search?results=Search;protein=p17;inrange=77-86;hla=A2"><text x="296" y="363">A2
</text>
</a>
<a target="_top" xlink:href="../../ctl_search?results=Search;protein=p17;inrange=77-89"><text x="308" y="349">human
</text>
</a>
<a target="_top" xlink:href="../../ctl_search?results=Search;protein=p17;inrange=78-85;hla=A24"><text x="296" y="335">A24
</text>
</a>
<a target="_top" xlink:href="../../ctl_search?results=Search;protein=p17;inrange=78-85;hla=Cw14"><text x="296" y="321">Cw14
</text>
</a>
<a target="_top" xlink:href="../../ctl_search?results=Search;protein=p17;inrange=78-85;hla=H-2&lt;sup&gt;d&lt;/sup&gt;"><text x="296" y="307">H-2d
</text>
</a>
<a target="_top" xlink:href="../../ctl_search?results=Search;protein=p17;inrange=78-86;hla=A*2902"><text x="300" y="293">A*2902
</text>
</a>
<a target="_top" xlink:href="../../ctl_search?results=Search;protein=p17;inrange=78-86;hla=A29"><text x="300" y="279">A29
</text>
</a>
<a target="_top" xlink:href="../../ctl_search?results=Search;protein=p17;inrange=78-86;hla=B*4403"><text x="300" y="265">B*4403
</text>
</a>
<a target="_top" xlink:href="../../ctl_search?results=Search;protein=p17;inrange=78-86;hla=B44"><text x="300" y="251">B44
</text>
</a>
<a target="_top" xlink:href="../../ctl_search?results=Search;protein=p17;inrange=79-90"><text x="320" y="237">human
</text>
</a>
<a target="_top" xlink:href="../../ctl_search?results=Search;protein=p17;inrange=80-88;hla=A2"><text x="316" y="223">A2
</text>
</a>
<a target="_top" xlink:href="../../ctl_search?results=Search;protein=p17;inrange=82-91;hla=A11"><text x="336" y="209">A11
</text>
</a>
<a target="_top" xlink:href="../../ctl_search?results=Search;protein=p17;inrange=82-92;hla=A11"><text x="340" y="195">A11
</text>
</a>
<a target="_top" xlink:href="../../ctl_search?results=Search;protein=p17;inrange=83-91;hla=A11"><text x="340" y="181">A11
</text>
</a>
<a target="_top" xlink:href="../../ctl_search?results=Search;protein=p17;inrange=83-94"><text x="352" y="167">human
</text>
</a>
<a target="_top" xlink:href="../../ctl_search?results=Search;protein=p17;inrange=84-91;hla=A*1101"><text x="344" y="153">A*1101
</text>
</a>
<a target="_top" xlink:href="../../ctl_search?results=Search;protein=p17;inrange=84-91;hla=A11"><text x="344" y="139">A11
</text>
</a>
<a target="_top" xlink:href="../../ctl_search?results=Search;protein=p17;inrange=84-92;hla=A*1103"><text x="348" y="125">A*1103
</text>
</a>
<a target="_top" xlink:href="../../ctl_search?results=Search;protein=p17;inrange=84-92;hla=A11"><text x="348" y="111">A11
</text>
</a>
<a target="_top" xlink:href="../../ctl_search?results=Search;protein=p17;inrange=84-92;hla=A2"><text x="348" y="97">A2
</text>
</a>
<a target="_top" xlink:href="../../ctl_search?results=Search;protein=p17;inrange=85-92;hla=A24"><text x="352" y="83">A24
</text>
</a>
<a target="_top" xlink:href="../../ctl_search?results=Search;protein=p17;inrange=85-92;hla=H-2&lt;sup&gt;d&lt;/sup&gt;"><text x="352" y="69">H-2d
</text>
</a>
<a target="_top" xlink:href="../../ctl_search?results=Search;protein=p17;inrange=86-96"><text x="372" y="55">human
</text>
</a>
<a target="_top" xlink:href="../../ctl_search?results=Search;protein=p17;inrange=87-95;hla=A11"><text x="372" y="41">A11
</text>
</a>
<a target="_top" xlink:href="../../ctl_search?results=Search;protein=p17;inrange=93-101;hla=B8"><text x="420" y="27">B8
</text>
</a>
</g>
</svg>
