<?xml version="1.0" encoding="UTF-8" standalone="yes"?>
<!DOCTYPE svg PUBLIC "-//W3C//DTD SVG 1.0//EN" "http://www.w3.org/TR/2001/REC-SVG-20010904/DTD/svg10.dtd">
<svg height="925" id="ctl/p24-ctl-04.svg" width="481" xmlns="http://www.w3.org/2000/svg" xmlns:svg="http://www.w3.org/2000/svg" xmlns:xlink="http://www.w3.org/1999/xlink"><title id="title">ctl/p24-ctl-04
</title><style type="text/css"><![CDATA[.mono {
    font-size: 14px;
    font-family:  BitstreamVeraSansMono, Monaco, Courier, monospace;
}
.tics {
    stroke: black;
    stroke-width: .5;
    font-family: serif;
    font-size: 10px;
    text-anchor: middle;
}
.vertlines {
    stroke: black;
    stroke-width: .5;
}
.arrows {
    stroke: black;
    stroke-width: .5;
}
.label {
    font-family: serif;
    font-size: 11px;
    text-anchor: middle;
}
.name {
    font-family: serif;
    font-size: 12px;
    text-anchor: end;
}
]]>
</style>
<defs >
<marker id="arrowhead-end" markerHeight="12" markerUnits="strokeWidth" markerWidth="12" orient="auto" refX="24" refY="15" viewBox="0, 0, 30, 30">
<path d="M 0 0 L 30 15 L 0 30 z" />
</marker>
<marker id="arrowhead-start" markerHeight="12" markerUnits="strokeWidth" markerWidth="12" orient="auto" refX="6" refY="15" viewBox="0, 0, 30, 30">
<path d="M 30 0 L 0 15 L 30 30 z" />
</marker>
</defs>
<rect fill="oldlace" height="925" rx="5" width="481" x="0" y="0" />
<g class="mono" id="rule">
<a target="_top" xlink:href="../../ctl_search?results=Search;protein=p24;spans=101"><text x="48" y="896">G
</text>
</a>
<a target="_top" xlink:href="../../ctl_search?results=Search;protein=p24;spans=102"><text x="56" y="896">S
</text>
</a>
<a target="_top" xlink:href="../../ctl_search?results=Search;protein=p24;spans=103"><text x="64" y="896">D
</text>
</a>
<a target="_top" xlink:href="../../ctl_search?results=Search;protein=p24;spans=104"><text x="72" y="896">I
</text>
</a>
<a target="_top" xlink:href="../../ctl_search?results=Search;protein=p24;spans=105"><text x="80" y="896">A
</text>
</a>
<a target="_top" xlink:href="../../ctl_search?results=Search;protein=p24;spans=106"><text x="88" y="896">G
</text>
</a>
<a target="_top" xlink:href="../../ctl_search?results=Search;protein=p24;spans=107"><text x="96" y="896">T
</text>
</a>
<a target="_top" xlink:href="../../ctl_search?results=Search;protein=p24;spans=108"><text x="104" y="896">T
</text>
</a>
<a target="_top" xlink:href="../../ctl_search?results=Search;protein=p24;spans=109"><text x="112" y="896">S
</text>
</a>
<a target="_top" xlink:href="../../ctl_search?results=Search;protein=p24;spans=110"><text x="120" y="896">T
</text>
</a>
<a target="_top" xlink:href="../../ctl_search?results=Search;protein=p24;spans=111"><text x="128" y="896">L
</text>
</a>
<a target="_top" xlink:href="../../ctl_search?results=Search;protein=p24;spans=112"><text x="136" y="896">Q
</text>
</a>
<a target="_top" xlink:href="../../ctl_search?results=Search;protein=p24;spans=113"><text x="144" y="896">E
</text>
</a>
<a target="_top" xlink:href="../../ctl_search?results=Search;protein=p24;spans=114"><text x="152" y="896">Q
</text>
</a>
<a target="_top" xlink:href="../../ctl_search?results=Search;protein=p24;spans=115"><text x="160" y="896">I
</text>
</a>
<a target="_top" xlink:href="../../ctl_search?results=Search;protein=p24;spans=116"><text x="168" y="896">G
</text>
</a>
<a target="_top" xlink:href="../../ctl_search?results=Search;protein=p24;spans=117"><text x="176" y="896">W
</text>
</a>
<a target="_top" xlink:href="../../ctl_search?results=Search;protein=p24;spans=118"><text x="184" y="896">M
</text>
</a>
<a target="_top" xlink:href="../../ctl_search?results=Search;protein=p24;spans=119"><text x="192" y="896">T
</text>
</a>
<a target="_top" xlink:href="../../ctl_search?results=Search;protein=p24;spans=120"><text x="200" y="896">N
</text>
</a>
<a target="_top" xlink:href="../../ctl_search?results=Search;protein=p24;spans=121"><text x="208" y="896">N
</text>
</a>
<a target="_top" xlink:href="../../ctl_search?results=Search;protein=p24;spans=122"><text x="216" y="896">P
</text>
</a>
<a target="_top" xlink:href="../../ctl_search?results=Search;protein=p24;spans=123"><text x="224" y="896">P
</text>
</a>
<a target="_top" xlink:href="../../ctl_search?results=Search;protein=p24;spans=124"><text x="232" y="896">I
</text>
</a>
<a target="_top" xlink:href="../../ctl_search?results=Search;protein=p24;spans=125"><text x="240" y="896">P
</text>
</a>
<a target="_top" xlink:href="../../ctl_search?results=Search;protein=p24;spans=126"><text x="248" y="896">V
</text>
</a>
<a target="_top" xlink:href="../../ctl_search?results=Search;protein=p24;spans=127"><text x="256" y="896">G
</text>
</a>
<a target="_top" xlink:href="../../ctl_search?results=Search;protein=p24;spans=128"><text x="264" y="896">E
</text>
</a>
<a target="_top" xlink:href="../../ctl_search?results=Search;protein=p24;spans=129"><text x="272" y="896">I
</text>
</a>
<a target="_top" xlink:href="../../ctl_search?results=Search;protein=p24;spans=130"><text x="280" y="896">Y
</text>
</a>
<a target="_top" xlink:href="../../ctl_search?results=Search;protein=p24;spans=131"><text x="288" y="896">K
</text>
</a>
<a target="_top" xlink:href="../../ctl_search?results=Search;protein=p24;spans=132"><text x="296" y="896">R
</text>
</a>
<a target="_top" xlink:href="../../ctl_search?results=Search;protein=p24;spans=133"><text x="304" y="896">W
</text>
</a>
<a target="_top" xlink:href="../../ctl_search?results=Search;protein=p24;spans=134"><text x="312" y="896">I
</text>
</a>
<a target="_top" xlink:href="../../ctl_search?results=Search;protein=p24;spans=135"><text x="320" y="896">I
</text>
</a>
<a target="_top" xlink:href="../../ctl_search?results=Search;protein=p24;spans=136"><text x="328" y="896">L
</text>
</a>
<a target="_top" xlink:href="../../ctl_search?results=Search;protein=p24;spans=137"><text x="336" y="896">G
</text>
</a>
<a target="_top" xlink:href="../../ctl_search?results=Search;protein=p24;spans=138"><text x="344" y="896">L
</text>
</a>
<a target="_top" xlink:href="../../ctl_search?results=Search;protein=p24;spans=139"><text x="352" y="896">N
</text>
</a>
<a target="_top" xlink:href="../../ctl_search?results=Search;protein=p24;spans=140"><text x="360" y="896">K
</text>
</a>
<a target="_top" xlink:href="../../ctl_search?results=Search;protein=p24;spans=141"><text x="368" y="896">I
</text>
</a>
<a target="_top" xlink:href="../../ctl_search?results=Search;protein=p24;spans=142"><text x="376" y="896">V
</text>
</a>
<a target="_top" xlink:href="../../ctl_search?results=Search;protein=p24;spans=143"><text x="384" y="896">R
</text>
</a>
<a target="_top" xlink:href="../../ctl_search?results=Search;protein=p24;spans=144"><text x="392" y="896">M
</text>
</a>
<a target="_top" xlink:href="../../ctl_search?results=Search;protein=p24;spans=145"><text x="400" y="896">Y
</text>
</a>
<a target="_top" xlink:href="../../ctl_search?results=Search;protein=p24;spans=146"><text x="408" y="896">S
</text>
</a>
<a target="_top" xlink:href="../../ctl_search?results=Search;protein=p24;spans=147"><text x="416" y="896">P
</text>
</a>
<a target="_top" xlink:href="../../ctl_search?results=Search;protein=p24;spans=148"><text x="424" y="896">T
</text>
</a>
<a target="_top" xlink:href="../../ctl_search?results=Search;protein=p24;spans=149"><text x="432" y="896">S
</text>
</a>
<a target="_top" xlink:href="../../ctl_search?results=Search;protein=p24;spans=150"><text x="440" y="896">I
</text>
</a>
</g>
<g class="tics" id="tics">
<line x1="124" x2="124" y1="897" y2="901" /><text stroke-width="0" x="124" y="910">110
</text>
<line x1="204" x2="204" y1="897" y2="901" /><text stroke-width="0" x="204" y="910">120
</text>
<line x1="284" x2="284" y1="897" y2="901" /><text stroke-width="0" x="284" y="910">130
</text>
<line x1="364" x2="364" y1="897" y2="901" /><text stroke-width="0" x="364" y="910">140
</text>
<line x1="444" x2="444" y1="897" y2="901" /><text stroke-width="0" x="444" y="910">150
</text>
</g>
<g class="vertlines" id="vertlines">
<line x1="56" x2="56" y1="882" y2="809.2" />
<line x1="72" x2="72" y1="882" y2="795.2" />
<line x1="80" x2="80" y1="882" y2="823.2" />
<line x1="88" x2="88" y1="882" y2="781.2" />
<line x1="96" x2="96" y1="882" y2="753.2" />
<line x1="104" x2="104" y1="882" y2="557.2" />
<line x1="112" x2="112" y1="882" y2="487.2" />
<line x1="120" x2="120" y1="882" y2="473.2" />
<line x1="128" x2="128" y1="882" y2="809.2" />
<line x1="136" x2="136" y1="882" y2="459.2" />
<line x1="144" x2="144" y1="882" y2="795.2" />
<line x1="160" x2="160" y1="882" y2="781.2" />
<line x1="168" x2="168" y1="882" y2="767.2" />
<line x1="176" x2="176" y1="882" y2="851.2" />
<line x1="184" x2="184" y1="882" y2="417.2" />
<line x1="192" x2="192" y1="882" y2="487.2" />
<line x1="200" x2="200" y1="882" y2="473.2" />
<line x1="208" x2="208" y1="882" y2="403.2" />
<line x1="216" x2="216" y1="882" y2="333.2" />
<line x1="224" x2="224" y1="882" y2="781.2" />
<line x1="240" x2="240" y1="882" y2="767.2" />
<line x1="248" x2="248" y1="882" y2="739.2" />
<line x1="256" x2="256" y1="882" y2="417.2" />
<line x1="264" x2="264" y1="882" y2="585.2" />
<line x1="272" x2="272" y1="882" y2="459.2" />
<line x1="280" x2="280" y1="882" y2="795.2" />
<line x1="288" x2="288" y1="882" y2="221.2" />
<line x1="296" x2="296" y1="882" y2="193.2" />
<line x1="304" x2="304" y1="882" y2="179.2" />
<line x1="312" x2="312" y1="882" y2="95.1999999999999" />
<line x1="320" x2="320" y1="882" y2="53.1999999999999" />
<line x1="328" x2="328" y1="882" y2="25.1999999999999" />
<line x1="336" x2="336" y1="882" y2="543.2" />
<line x1="344" x2="344" y1="882" y2="529.2" />
<line x1="352" x2="352" y1="882" y2="473.2" />
<line x1="360" x2="360" y1="882" y2="319.2" />
<line x1="368" x2="368" y1="882" y2="207.2" />
<line x1="376" x2="376" y1="882" y2="151.2" />
<line x1="384" x2="384" y1="882" y2="137.2" />
<line x1="392" x2="392" y1="882" y2="95.1999999999999" />
<line x1="400" x2="400" y1="882" y2="711.2" />
<line x1="408" x2="408" y1="882" y2="39.1999999999999" />
<line x1="416" x2="416" y1="882" y2="25.1999999999999" />
<line x1="432" x2="432" y1="882" y2="739.2" />
<line x1="440" x2="440" y1="882" y2="697.2" />
<line x1="448" x2="448" y1="882" y2="781.2" />
</g>
<g class="arrows" id="arrows">
<line marker-end="url(#arrowhead-end)" x1="40" x2="56" y1="868" y2="868" />
<line marker-end="url(#arrowhead-end)" marker-start="url(#arrowhead-start)" x1="120" x2="192" y1="868" y2="868" />
<line marker-end="url(#arrowhead-end)" marker-start="url(#arrowhead-start)" x1="256" x2="320" y1="868" y2="868" />
<line marker-end="url(#arrowhead-end)" marker-start="url(#arrowhead-start)" x1="384" x2="448" y1="868" y2="868" />
<line marker-end="url(#arrowhead-end)" x1="40" x2="80" y1="854" y2="854" />
<line marker-end="url(#arrowhead-end)" marker-start="url(#arrowhead-start)" x1="176" x2="256" y1="854" y2="854" />
<line marker-end="url(#arrowhead-end)" marker-start="url(#arrowhead-start)" x1="320" x2="384" y1="854" y2="854" />
<line marker-end="url(#arrowhead-end)" x1="40" x2="88" y1="840" y2="840" />
<line marker-end="url(#arrowhead-end)" marker-start="url(#arrowhead-start)" x1="184" x2="256" y1="840" y2="840" />
<line marker-end="url(#arrowhead-end)" marker-start="url(#arrowhead-start)" x1="320" x2="384" y1="840" y2="840" />
<line marker-end="url(#arrowhead-end)" x1="40" x2="80" y1="826" y2="826" />
<line marker-end="url(#arrowhead-end)" marker-start="url(#arrowhead-start)" x1="184" x2="256" y1="826" y2="826" />
<line marker-end="url(#arrowhead-end)" marker-start="url(#arrowhead-start)" x1="320" x2="384" y1="826" y2="826" />
<line marker-end="url(#arrowhead-end)" marker-start="url(#arrowhead-start)" x1="56" x2="128" y1="812" y2="812" />
<line marker-end="url(#arrowhead-end)" marker-start="url(#arrowhead-start)" x1="208" x2="280" y1="812" y2="812" />
<line marker-end="url(#arrowhead-end)" marker-start="url(#arrowhead-start)" x1="376" x2="448" y1="812" y2="812" />
<line marker-end="url(#arrowhead-end)" marker-start="url(#arrowhead-start)" x1="72" x2="144" y1="798" y2="798" />
<line marker-end="url(#arrowhead-end)" marker-start="url(#arrowhead-start)" x1="208" x2="280" y1="798" y2="798" />
<line marker-end="url(#arrowhead-end)" marker-start="url(#arrowhead-start)" x1="376" x2="448" y1="798" y2="798" />
<line marker-end="url(#arrowhead-end)" marker-start="url(#arrowhead-start)" x1="88" x2="160" y1="784" y2="784" />
<line marker-end="url(#arrowhead-end)" marker-start="url(#arrowhead-start)" x1="224" x2="296" y1="784" y2="784" />
<line marker-end="url(#arrowhead-end)" marker-start="url(#arrowhead-start)" x1="384" x2="448" y1="784" y2="784" />
<line marker-end="url(#arrowhead-end)" marker-start="url(#arrowhead-start)" x1="96" x2="168" y1="770" y2="770" />
<line marker-end="url(#arrowhead-end)" marker-start="url(#arrowhead-start)" x1="240" x2="328" y1="770" y2="770" />
<line marker-start="url(#arrowhead-start)" x1="392" x2="456" y1="770" y2="770" />
<line marker-end="url(#arrowhead-end)" marker-start="url(#arrowhead-start)" x1="96" x2="192" y1="756" y2="756" />
<line marker-end="url(#arrowhead-end)" marker-start="url(#arrowhead-start)" x1="256" x2="328" y1="756" y2="756" />
<line marker-start="url(#arrowhead-start)" x1="392" x2="456" y1="756" y2="756" />
<line marker-end="url(#arrowhead-end)" marker-start="url(#arrowhead-start)" x1="104" x2="184" y1="742" y2="742" />
<line marker-end="url(#arrowhead-end)" marker-start="url(#arrowhead-start)" x1="248" x2="368" y1="742" y2="742" />
<line marker-start="url(#arrowhead-start)" x1="432" x2="456" y1="742" y2="742" />
<line marker-end="url(#arrowhead-end)" marker-start="url(#arrowhead-start)" x1="104" x2="184" y1="728" y2="728" />
<line marker-end="url(#arrowhead-end)" marker-start="url(#arrowhead-start)" x1="256" x2="328" y1="728" y2="728" />
<line marker-start="url(#arrowhead-start)" x1="400" x2="456" y1="728" y2="728" />
<line marker-end="url(#arrowhead-end)" marker-start="url(#arrowhead-start)" x1="104" x2="184" y1="714" y2="714" />
<line marker-end="url(#arrowhead-end)" marker-start="url(#arrowhead-start)" x1="256" x2="336" y1="714" y2="714" />
<line marker-start="url(#arrowhead-start)" x1="400" x2="456" y1="714" y2="714" />
<line marker-end="url(#arrowhead-end)" marker-start="url(#arrowhead-start)" x1="104" x2="184" y1="700" y2="700" />
<line marker-end="url(#arrowhead-end)" marker-start="url(#arrowhead-start)" x1="256" x2="336" y1="700" y2="700" />
<line marker-start="url(#arrowhead-start)" x1="440" x2="456" y1="700" y2="700" />
<line marker-end="url(#arrowhead-end)" marker-start="url(#arrowhead-start)" x1="104" x2="184" y1="686" y2="686" />
<line marker-end="url(#arrowhead-end)" marker-start="url(#arrowhead-start)" x1="256" x2="336" y1="686" y2="686" />
<line marker-end="url(#arrowhead-end)" marker-start="url(#arrowhead-start)" x1="104" x2="184" y1="672" y2="672" />
<line marker-end="url(#arrowhead-end)" marker-start="url(#arrowhead-start)" x1="264" x2="328" y1="672" y2="672" />
<line marker-end="url(#arrowhead-end)" marker-start="url(#arrowhead-start)" x1="104" x2="184" y1="658" y2="658" />
<line marker-end="url(#arrowhead-end)" marker-start="url(#arrowhead-start)" x1="264" x2="328" y1="658" y2="658" />
<line marker-end="url(#arrowhead-end)" marker-start="url(#arrowhead-start)" x1="104" x2="184" y1="644" y2="644" />
<line marker-end="url(#arrowhead-end)" marker-start="url(#arrowhead-start)" x1="264" x2="328" y1="644" y2="644" />
<line marker-end="url(#arrowhead-end)" marker-start="url(#arrowhead-start)" x1="104" x2="184" y1="630" y2="630" />
<line marker-end="url(#arrowhead-end)" marker-start="url(#arrowhead-start)" x1="264" x2="336" y1="630" y2="630" />
<line marker-end="url(#arrowhead-end)" marker-start="url(#arrowhead-start)" x1="104" x2="184" y1="616" y2="616" />
<line marker-end="url(#arrowhead-end)" marker-start="url(#arrowhead-start)" x1="264" x2="336" y1="616" y2="616" />
<line marker-end="url(#arrowhead-end)" marker-start="url(#arrowhead-start)" x1="104" x2="184" y1="602" y2="602" />
<line marker-end="url(#arrowhead-end)" marker-start="url(#arrowhead-start)" x1="264" x2="336" y1="602" y2="602" />
<line marker-end="url(#arrowhead-end)" marker-start="url(#arrowhead-start)" x1="104" x2="192" y1="588" y2="588" />
<line marker-end="url(#arrowhead-end)" marker-start="url(#arrowhead-start)" x1="264" x2="336" y1="588" y2="588" />
<line marker-end="url(#arrowhead-end)" marker-start="url(#arrowhead-start)" x1="104" x2="192" y1="574" y2="574" />
<line marker-end="url(#arrowhead-end)" marker-start="url(#arrowhead-start)" x1="272" x2="336" y1="574" y2="574" />
<line marker-end="url(#arrowhead-end)" marker-start="url(#arrowhead-start)" x1="104" x2="192" y1="560" y2="560" />
<line marker-end="url(#arrowhead-end)" marker-start="url(#arrowhead-start)" x1="272" x2="336" y1="560" y2="560" />
<line marker-end="url(#arrowhead-end)" marker-start="url(#arrowhead-start)" x1="112" x2="184" y1="546" y2="546" />
<line marker-end="url(#arrowhead-end)" marker-start="url(#arrowhead-start)" x1="272" x2="336" y1="546" y2="546" />
<line marker-end="url(#arrowhead-end)" marker-start="url(#arrowhead-start)" x1="112" x2="184" y1="532" y2="532" />
<line marker-end="url(#arrowhead-end)" marker-start="url(#arrowhead-start)" x1="272" x2="344" y1="532" y2="532" />
<line marker-end="url(#arrowhead-end)" marker-start="url(#arrowhead-start)" x1="112" x2="184" y1="518" y2="518" />
<line marker-end="url(#arrowhead-end)" marker-start="url(#arrowhead-start)" x1="272" x2="352" y1="518" y2="518" />
<line marker-end="url(#arrowhead-end)" marker-start="url(#arrowhead-start)" x1="112" x2="184" y1="504" y2="504" />
<line marker-end="url(#arrowhead-end)" marker-start="url(#arrowhead-start)" x1="272" x2="352" y1="504" y2="504" />
<line marker-end="url(#arrowhead-end)" marker-start="url(#arrowhead-start)" x1="112" x2="192" y1="490" y2="490" />
<line marker-end="url(#arrowhead-end)" marker-start="url(#arrowhead-start)" x1="272" x2="352" y1="490" y2="490" />
<line marker-end="url(#arrowhead-end)" marker-start="url(#arrowhead-start)" x1="120" x2="200" y1="476" y2="476" />
<line marker-end="url(#arrowhead-end)" marker-start="url(#arrowhead-start)" x1="272" x2="352" y1="476" y2="476" />
<line marker-end="url(#arrowhead-end)" marker-start="url(#arrowhead-start)" x1="136" x2="208" y1="462" y2="462" />
<line marker-end="url(#arrowhead-end)" marker-start="url(#arrowhead-start)" x1="272" x2="368" y1="462" y2="462" />
<line marker-end="url(#arrowhead-end)" marker-start="url(#arrowhead-start)" x1="184" x2="256" y1="448" y2="448" />
<line marker-end="url(#arrowhead-end)" marker-start="url(#arrowhead-start)" x1="320" x2="384" y1="448" y2="448" />
<line marker-end="url(#arrowhead-end)" marker-start="url(#arrowhead-start)" x1="184" x2="256" y1="434" y2="434" />
<line marker-end="url(#arrowhead-end)" marker-start="url(#arrowhead-start)" x1="320" x2="392" y1="434" y2="434" />
<line marker-end="url(#arrowhead-end)" marker-start="url(#arrowhead-start)" x1="184" x2="256" y1="420" y2="420" />
<line marker-end="url(#arrowhead-end)" marker-start="url(#arrowhead-start)" x1="320" x2="392" y1="420" y2="420" />
<line marker-end="url(#arrowhead-end)" marker-start="url(#arrowhead-start)" x1="208" x2="288" y1="406" y2="406" />
<line marker-start="url(#arrowhead-start)" x1="384" x2="456" y1="406" y2="406" />
<line marker-end="url(#arrowhead-end)" marker-start="url(#arrowhead-start)" x1="216" x2="288" y1="392" y2="392" />
<line marker-end="url(#arrowhead-end)" marker-start="url(#arrowhead-start)" x1="216" x2="288" y1="378" y2="378" />
<line marker-end="url(#arrowhead-end)" marker-start="url(#arrowhead-start)" x1="216" x2="288" y1="364" y2="364" />
<line marker-end="url(#arrowhead-end)" marker-start="url(#arrowhead-start)" x1="216" x2="288" y1="350" y2="350" />
<line marker-end="url(#arrowhead-end)" marker-start="url(#arrowhead-start)" x1="216" x2="288" y1="336" y2="336" />
<line marker-end="url(#arrowhead-end)" marker-start="url(#arrowhead-start)" x1="288" x2="360" y1="322" y2="322" />
<line marker-end="url(#arrowhead-end)" marker-start="url(#arrowhead-start)" x1="288" x2="368" y1="308" y2="308" />
<line marker-end="url(#arrowhead-end)" marker-start="url(#arrowhead-start)" x1="288" x2="368" y1="294" y2="294" />
<line marker-end="url(#arrowhead-end)" marker-start="url(#arrowhead-start)" x1="288" x2="368" y1="280" y2="280" />
<line marker-end="url(#arrowhead-end)" marker-start="url(#arrowhead-start)" x1="288" x2="368" y1="266" y2="266" />
<line marker-end="url(#arrowhead-end)" marker-start="url(#arrowhead-start)" x1="288" x2="368" y1="252" y2="252" />
<line marker-end="url(#arrowhead-end)" marker-start="url(#arrowhead-start)" x1="288" x2="384" y1="238" y2="238" />
<line marker-end="url(#arrowhead-end)" marker-start="url(#arrowhead-start)" x1="288" x2="408" y1="224" y2="224" />
<line marker-end="url(#arrowhead-end)" marker-start="url(#arrowhead-start)" x1="296" x2="368" y1="210" y2="210" />
<line marker-end="url(#arrowhead-end)" marker-start="url(#arrowhead-start)" x1="296" x2="408" y1="196" y2="196" />
<line marker-end="url(#arrowhead-end)" marker-start="url(#arrowhead-start)" x1="304" x2="376" y1="182" y2="182" />
<line marker-end="url(#arrowhead-end)" marker-start="url(#arrowhead-start)" x1="312" x2="376" y1="168" y2="168" />
<line marker-end="url(#arrowhead-end)" marker-start="url(#arrowhead-start)" x1="312" x2="376" y1="154" y2="154" />
<line marker-end="url(#arrowhead-end)" marker-start="url(#arrowhead-start)" x1="312" x2="384" y1="140" y2="140" />
<line marker-end="url(#arrowhead-end)" marker-start="url(#arrowhead-start)" x1="312" x2="392" y1="126" y2="126" />
<line marker-end="url(#arrowhead-end)" marker-start="url(#arrowhead-start)" x1="312" x2="392" y1="112" y2="112" />
<line marker-end="url(#arrowhead-end)" marker-start="url(#arrowhead-start)" x1="312" x2="392" y1="98" y2="98" />
<line marker-end="url(#arrowhead-end)" marker-start="url(#arrowhead-start)" x1="320" x2="408" y1="84" y2="84" />
<line marker-end="url(#arrowhead-end)" marker-start="url(#arrowhead-start)" x1="320" x2="408" y1="70" y2="70" />
<line marker-end="url(#arrowhead-end)" marker-start="url(#arrowhead-start)" x1="320" x2="408" y1="56" y2="56" />
<line marker-end="url(#arrowhead-end)" marker-start="url(#arrowhead-start)" x1="328" x2="408" y1="42" y2="42" />
<line marker-end="url(#arrowhead-end)" marker-start="url(#arrowhead-start)" x1="328" x2="416" y1="28" y2="28" />
</g>
<g class="label" id="label">
<a target="_top" xlink:href="../../ctl_search?results=Search;protein=p24;inrange=93-101"><text x="48" y="867">human
</text>
</a>
<a target="_top" xlink:href="../../ctl_search?results=Search;protein=p24;inrange=110-118;hla=A2"><text x="156" y="867">A2
</text>
</a>
<a target="_top" xlink:href="../../ctl_search?results=Search;protein=p24;inrange=127-134;hla=B*0801"><text x="288" y="867">B*0801
</text>
</a>
<a target="_top" xlink:href="../../ctl_search?results=Search;protein=p24;inrange=143-150;hla=B*5201"><text x="416" y="867">B*5201
</text>
</a>
<a target="_top" xlink:href="../../ctl_search?results=Search;protein=p24;inrange=94-104;hla=B13"><text x="60" y="853">B13
</text>
</a>
<a target="_top" xlink:href="../../ctl_search?results=Search;protein=p24;inrange=117-126;hla=A2"><text x="216" y="853">A2
</text>
</a>
<a target="_top" xlink:href="../../ctl_search?results=Search;protein=p24;inrange=135-142;hla=A*0201"><text x="352" y="853">A*0201
</text>
</a>
<a target="_top" xlink:href="../../ctl_search?results=Search;protein=p24;inrange=94-105"><text x="64" y="839">human
</text>
</a>
<a target="_top" xlink:href="../../ctl_search?results=Search;protein=p24;inrange=118-126;hla=A*0201"><text x="220" y="839">A*0201
</text>
</a>
<a target="_top" xlink:href="../../ctl_search?results=Search;protein=p24;inrange=135-142;hla=A2"><text x="352" y="839">A2
</text>
</a>
<a target="_top" xlink:href="../../ctl_search?results=Search;protein=p24;inrange=96-104"><text x="60" y="825">human
</text>
</a>
<a target="_top" xlink:href="../../ctl_search?results=Search;protein=p24;inrange=118-126;hla=A2"><text x="220" y="825">A2
</text>
</a>
<a target="_top" xlink:href="../../ctl_search?results=Search;protein=p24;inrange=135-142;hla=A3"><text x="352" y="825">A3
</text>
</a>
<a target="_top" xlink:href="../../ctl_search?results=Search;protein=p24;inrange=102-110"><text x="92" y="811">human
</text>
</a>
<a target="_top" xlink:href="../../ctl_search?results=Search;protein=p24;inrange=121-129;hla=H-2D&lt;sup&gt;d&lt;/sup&gt;"><text x="244" y="811">H-2Dd
</text>
</a>
<a target="_top" xlink:href="../../ctl_search?results=Search;protein=p24;inrange=142-150;hla=Cw*1801"><text x="412" y="811">Cw*1801
</text>
</a>
<a target="_top" xlink:href="../../ctl_search?results=Search;protein=p24;inrange=104-112"><text x="108" y="797">human
</text>
</a>
<a target="_top" xlink:href="../../ctl_search?results=Search;protein=p24;inrange=121-129;hla=H-2L&lt;sup&gt;d&lt;/sup&gt;"><text x="244" y="797">H-2Ld
</text>
</a>
<a target="_top" xlink:href="../../ctl_search?results=Search;protein=p24;inrange=142-150;hla=Cw18"><text x="412" y="797">Cw18
</text>
</a>
<a target="_top" xlink:href="../../ctl_search?results=Search;protein=p24;inrange=106-114"><text x="124" y="783">human
</text>
</a>
<a target="_top" xlink:href="../../ctl_search?results=Search;protein=p24;inrange=123-131"><text x="260" y="783">human
</text>
</a>
<a target="_top" xlink:href="../../ctl_search?results=Search;protein=p24;inrange=143-150;hla=B52"><text x="416" y="783">B52
</text>
</a>
<a target="_top" xlink:href="../../ctl_search?results=Search;protein=p24;inrange=107-115;hla=H-2K&lt;sup&gt;d&lt;/sup&gt;"><text x="132" y="769">H-2Kd
</text>
</a>
<a target="_top" xlink:href="../../ctl_search?results=Search;protein=p24;inrange=125-135"><text x="284" y="769">human
</text>
</a>
<a target="_top" xlink:href="../../ctl_search?results=Search;protein=p24;inrange=144-151;hla=A24"><text x="424" y="769">A24
</text>
</a>
<a target="_top" xlink:href="../../ctl_search?results=Search;protein=p24;inrange=107-118;hla=B*5701"><text x="144" y="755">B*5701
</text>
</a>
<a target="_top" xlink:href="../../ctl_search?results=Search;protein=p24;inrange=127-135;hla=B*0801"><text x="292" y="755">B*0801
</text>
</a>
<a target="_top" xlink:href="../../ctl_search?results=Search;protein=p24;inrange=144-153;hla=H-2&lt;sup&gt;d&lt;/sup&gt;"><text x="424" y="755">H-2d
</text>
</a>
<a target="_top" xlink:href="../../ctl_search?results=Search;protein=p24;inrange=108-117;hla=A*0201"><text x="144" y="741">A*0201
</text>
</a>
<a target="_top" xlink:href="../../ctl_search?results=Search;protein=p24;inrange=126-140"><text x="308" y="741">human
</text>
</a>
<a target="_top" xlink:href="../../ctl_search?results=Search;protein=p24;inrange=149-158;hla=A11"><text x="444" y="741">A11
</text>
</a>
<a target="_top" xlink:href="../../ctl_search?results=Search;protein=p24;inrange=108-117;hla=A2"><text x="144" y="727">A2
</text>
</a>
<a target="_top" xlink:href="../../ctl_search?results=Search;protein=p24;inrange=127-135;hla=B8"><text x="292" y="727">B8
</text>
</a>
<a target="_top" xlink:href="../../ctl_search?results=Search;protein=p24;inrange=145-153;hla=Cw*0102"><text x="428" y="727">Cw*0102
</text>
</a>
<a target="_top" xlink:href="../../ctl_search?results=Search;protein=p24;inrange=108-117;hla=B*2705"><text x="144" y="713">B*2705
</text>
</a>
<a target="_top" xlink:href="../../ctl_search?results=Search;protein=p24;inrange=127-136;hla=A24"><text x="296" y="713">A24
</text>
</a>
<a target="_top" xlink:href="../../ctl_search?results=Search;protein=p24;inrange=145-153;hla=Cw12"><text x="428" y="713">Cw12
</text>
</a>
<a target="_top" xlink:href="../../ctl_search?results=Search;protein=p24;inrange=108-117;hla=B*5701"><text x="144" y="699">B*5701
</text>
</a>
<a target="_top" xlink:href="../../ctl_search?results=Search;protein=p24;inrange=127-136;hla=B*0801"><text x="296" y="699">B*0801
</text>
</a>
<a target="_top" xlink:href="../../ctl_search?results=Search;protein=p24;inrange=150-158"><text x="448" y="699">human
</text>
</a>
<a target="_top" xlink:href="../../ctl_search?results=Search;protein=p24;inrange=108-117;hla=B*5702"><text x="144" y="685">B*5702
</text>
</a>
<a target="_top" xlink:href="../../ctl_search?results=Search;protein=p24;inrange=127-136;hla=B8"><text x="296" y="685">B8
</text>
</a>
<a target="_top" xlink:href="../../ctl_search?results=Search;protein=p24;inrange=108-117;hla=B*5703"><text x="144" y="671">B*5703
</text>
</a>
<a target="_top" xlink:href="../../ctl_search?results=Search;protein=p24;inrange=128-135;hla=A*0201"><text x="296" y="671">A*0201
</text>
</a>
<a target="_top" xlink:href="../../ctl_search?results=Search;protein=p24;inrange=108-117;hla=B*5801"><text x="144" y="657">B*5801
</text>
</a>
<a target="_top" xlink:href="../../ctl_search?results=Search;protein=p24;inrange=128-135;hla=B*0801"><text x="296" y="657">B*0801
</text>
</a>
<a target="_top" xlink:href="../../ctl_search?results=Search;protein=p24;inrange=108-117;hla=B57"><text x="144" y="643">B57
</text>
</a>
<a target="_top" xlink:href="../../ctl_search?results=Search;protein=p24;inrange=128-135;hla=B8"><text x="296" y="643">B8
</text>
</a>
<a target="_top" xlink:href="../../ctl_search?results=Search;protein=p24;inrange=108-117;hla=B58"><text x="144" y="629">B58
</text>
</a>
<a target="_top" xlink:href="../../ctl_search?results=Search;protein=p24;inrange=128-136;hla=A*2402"><text x="300" y="629">A*2402
</text>
</a>
<a target="_top" xlink:href="../../ctl_search?results=Search;protein=p24;inrange=108-117;hla=B63"><text x="144" y="615">B63
</text>
</a>
<a target="_top" xlink:href="../../ctl_search?results=Search;protein=p24;inrange=128-136;hla=A2"><text x="300" y="615">A2
</text>
</a>
<a target="_top" xlink:href="../../ctl_search?results=Search;protein=p24;inrange=108-117;hla=B7"><text x="144" y="601">B7
</text>
</a>
<a target="_top" xlink:href="../../ctl_search?results=Search;protein=p24;inrange=128-136;hla=A24"><text x="300" y="601">A24
</text>
</a>
<a target="_top" xlink:href="../../ctl_search?results=Search;protein=p24;inrange=108-118;hla=B*5801"><text x="148" y="587">B*5801
</text>
</a>
<a target="_top" xlink:href="../../ctl_search?results=Search;protein=p24;inrange=128-136;hla=B8"><text x="300" y="587">B8
</text>
</a>
<a target="_top" xlink:href="../../ctl_search?results=Search;protein=p24;inrange=108-118;hla=B57"><text x="148" y="573">B57
</text>
</a>
<a target="_top" xlink:href="../../ctl_search?results=Search;protein=p24;inrange=129-136;hla=A*2402"><text x="304" y="573">A*2402
</text>
</a>
<a target="_top" xlink:href="../../ctl_search?results=Search;protein=p24;inrange=108-118;hla=B58"><text x="148" y="559">B58
</text>
</a>
<a target="_top" xlink:href="../../ctl_search?results=Search;protein=p24;inrange=129-136;hla=A24"><text x="304" y="559">A24
</text>
</a>
<a target="_top" xlink:href="../../ctl_search?results=Search;protein=p24;inrange=109-117;hla=B*5701"><text x="148" y="545">B*5701
</text>
</a>
<a target="_top" xlink:href="../../ctl_search?results=Search;protein=p24;inrange=129-136;hla=B8"><text x="304" y="545">B8
</text>
</a>
<a target="_top" xlink:href="../../ctl_search?results=Search;protein=p24;inrange=109-117;hla=B*5801"><text x="148" y="531">B*5801
</text>
</a>
<a target="_top" xlink:href="../../ctl_search?results=Search;protein=p24;inrange=129-137;hla=A*2402"><text x="308" y="531">A*2402
</text>
</a>
<a target="_top" xlink:href="../../ctl_search?results=Search;protein=p24;inrange=109-117;hla=B57"><text x="148" y="517">B57
</text>
</a>
<a target="_top" xlink:href="../../ctl_search?results=Search;protein=p24;inrange=129-138;hla=A*2402"><text x="312" y="517">A*2402
</text>
</a>
<a target="_top" xlink:href="../../ctl_search?results=Search;protein=p24;inrange=109-117;hla=B58"><text x="148" y="503">B58
</text>
</a>
<a target="_top" xlink:href="../../ctl_search?results=Search;protein=p24;inrange=129-138;hla=A24"><text x="312" y="503">A24
</text>
</a>
<a target="_top" xlink:href="../../ctl_search?results=Search;protein=p24;inrange=109-118;hla=A2"><text x="152" y="489">A2
</text>
</a>
<a target="_top" xlink:href="../../ctl_search?results=Search;protein=p24;inrange=129-138;hla=B27"><text x="312" y="489">B27
</text>
</a>
<a target="_top" xlink:href="../../ctl_search?results=Search;protein=p24;inrange=110-119;hla=A2"><text x="160" y="475">A2
</text>
</a>
<a target="_top" xlink:href="../../ctl_search?results=Search;protein=p24;inrange=129-138;hla=H-2&lt;sup&gt;d&lt;/sup&gt;"><text x="312" y="475">H-2d
</text>
</a>
<a target="_top" xlink:href="../../ctl_search?results=Search;protein=p24;inrange=112-120"><text x="172" y="461">human
</text>
</a>
<a target="_top" xlink:href="../../ctl_search?results=Search;protein=p24;inrange=129-140;hla=A24"><text x="320" y="461">A24
</text>
</a>
<a target="_top" xlink:href="../../ctl_search?results=Search;protein=p24;inrange=118-126;hla=A2 supertype"><text x="220" y="447">A2 supertype
</text>
</a>
<a target="_top" xlink:href="../../ctl_search?results=Search;protein=p24;inrange=135-142;hla=B27"><text x="352" y="447">B27
</text>
</a>
<a target="_top" xlink:href="../../ctl_search?results=Search;protein=p24;inrange=118-126;hla=A3"><text x="220" y="433">A3
</text>
</a>
<a target="_top" xlink:href="../../ctl_search?results=Search;protein=p24;inrange=135-143;hla=A11"><text x="356" y="433">A11
</text>
</a>
<a target="_top" xlink:href="../../ctl_search?results=Search;protein=p24;inrange=118-126;hla=B7"><text x="220" y="419">B7
</text>
</a>
<a target="_top" xlink:href="../../ctl_search?results=Search;protein=p24;inrange=135-143;hla=A3"><text x="356" y="419">A3
</text>
</a>
<a target="_top" xlink:href="../../ctl_search?results=Search;protein=p24;inrange=121-130;hla=B*3501"><text x="248" y="405">B*3501
</text>
</a>
<a target="_top" xlink:href="../../ctl_search?results=Search;protein=p24;inrange=143-151;hla=A2"><text x="420" y="405">A2
</text>
</a>
<a target="_top" xlink:href="../../ctl_search?results=Search;protein=p24;inrange=122-130;hla=B*3501"><text x="252" y="391">B*3501
</text>
</a>
<a target="_top" xlink:href="../../ctl_search?results=Search;protein=p24;inrange=122-130;hla=B*3502"><text x="252" y="377">B*3502
</text>
</a>
<a target="_top" xlink:href="../../ctl_search?results=Search;protein=p24;inrange=122-130;hla=B35"><text x="252" y="363">B35
</text>
</a>
<a target="_top" xlink:href="../../ctl_search?results=Search;protein=p24;inrange=122-130;hla=B53"><text x="252" y="349">B53
</text>
</a>
<a target="_top" xlink:href="../../ctl_search?results=Search;protein=p24;inrange=122-130;hla=B7 supertype"><text x="252" y="335">B7 supertype
</text>
</a>
<a target="_top" xlink:href="../../ctl_search?results=Search;protein=p24;inrange=131-139;hla=Patr-B3"><text x="324" y="321">Patr-B3
</text>
</a>
<a target="_top" xlink:href="../../ctl_search?results=Search;protein=p24;inrange=131-140;hla=A*0201"><text x="328" y="307">A*0201
</text>
</a>
<a target="_top" xlink:href="../../ctl_search?results=Search;protein=p24;inrange=131-140;hla=A2"><text x="328" y="293">A2
</text>
</a>
<a target="_top" xlink:href="../../ctl_search?results=Search;protein=p24;inrange=131-140;hla=B*2703"><text x="328" y="279">B*2703
</text>
</a>
<a target="_top" xlink:href="../../ctl_search?results=Search;protein=p24;inrange=131-140;hla=B*2705"><text x="328" y="265">B*2705
</text>
</a>
<a target="_top" xlink:href="../../ctl_search?results=Search;protein=p24;inrange=131-140;hla=B27"><text x="328" y="251">B27
</text>
</a>
<a target="_top" xlink:href="../../ctl_search?results=Search;protein=p24;inrange=131-142;hla=B27"><text x="336" y="237">B27
</text>
</a>
<a target="_top" xlink:href="../../ctl_search?results=Search;protein=p24;inrange=131-145"><text x="348" y="223">human
</text>
</a>
<a target="_top" xlink:href="../../ctl_search?results=Search;protein=p24;inrange=132-140;hla=B27"><text x="332" y="209">B27
</text>
</a>
<a target="_top" xlink:href="../../ctl_search?results=Search;protein=p24;inrange=132-145;hla=B27"><text x="352" y="195">B27
</text>
</a>
<a target="_top" xlink:href="../../ctl_search?results=Search;protein=p24;inrange=133-141"><text x="340" y="181">human
</text>
</a>
<a target="_top" xlink:href="../../ctl_search?results=Search;protein=p24;inrange=134-141;hla=A2"><text x="344" y="167">A2
</text>
</a>
<a target="_top" xlink:href="../../ctl_search?results=Search;protein=p24;inrange=134-141;hla=A3"><text x="344" y="153">A3
</text>
</a>
<a target="_top" xlink:href="../../ctl_search?results=Search;protein=p24;inrange=134-142;hla=A2"><text x="348" y="139">A2
</text>
</a>
<a target="_top" xlink:href="../../ctl_search?results=Search;protein=p24;inrange=134-143;hla=A11"><text x="352" y="125">A11
</text>
</a>
<a target="_top" xlink:href="../../ctl_search?results=Search;protein=p24;inrange=134-143;hla=A3"><text x="352" y="111">A3
</text>
</a>
<a target="_top" xlink:href="../../ctl_search?results=Search;protein=p24;inrange=134-143;hla=A33"><text x="352" y="97">A33
</text>
</a>
<a target="_top" xlink:href="../../ctl_search?results=Search;protein=p24;inrange=135-145;hla=B27"><text x="364" y="83">B27
</text>
</a>
<a target="_top" xlink:href="../../ctl_search?results=Search;protein=p24;inrange=135-145;hla=B7"><text x="364" y="69">B7
</text>
</a>
<a target="_top" xlink:href="../../ctl_search?results=Search;protein=p24;inrange=135-145;hla=B7 supertype"><text x="364" y="55">B7 supertype
</text>
</a>
<a target="_top" xlink:href="../../ctl_search?results=Search;protein=p24;inrange=136-145;hla=B62"><text x="368" y="41">B62
</text>
</a>
<a target="_top" xlink:href="../../ctl_search?results=Search;protein=p24;inrange=136-146;hla=B62"><text x="372" y="27">B62
</text>
</a>
</g>
</svg>
