<?xml version="1.0" encoding="UTF-8" standalone="yes"?>
<!DOCTYPE svg PUBLIC "-//W3C//DTD SVG 1.0//EN" "http://www.w3.org/TR/2001/REC-SVG-20010904/DTD/svg10.dtd">
<svg height="925" id="ctl/p24-ctl-01.svg" width="481" xmlns="http://www.w3.org/2000/svg" xmlns:svg="http://www.w3.org/2000/svg" xmlns:xlink="http://www.w3.org/1999/xlink"><title id="title">ctl/p24-ctl-01
</title><style type="text/css"><![CDATA[.mono {
    font-size: 14px;
    font-family:  BitstreamVeraSansMono, Monaco, Courier, monospace;
}
.tics {
    stroke: black;
    stroke-width: .5;
    font-family: serif;
    font-size: 10px;
    text-anchor: middle;
}
.vertlines {
    stroke: black;
    stroke-width: .5;
}
.arrows {
    stroke: black;
    stroke-width: .5;
}
.label {
    font-family: serif;
    font-size: 11px;
    text-anchor: middle;
}
.name {
    font-family: serif;
    font-size: 12px;
    text-anchor: end;
}
]]>
</style>
<defs >
<marker id="arrowhead-end" markerHeight="12" markerUnits="strokeWidth" markerWidth="12" orient="auto" refX="24" refY="15" viewBox="0, 0, 30, 30">
<path d="M 0 0 L 30 15 L 0 30 z" />
</marker>
<marker id="arrowhead-start" markerHeight="12" markerUnits="strokeWidth" markerWidth="12" orient="auto" refX="6" refY="15" viewBox="0, 0, 30, 30">
<path d="M 30 0 L 0 15 L 30 30 z" />
</marker>
</defs>
<rect fill="oldlace" height="925" rx="5" width="481" x="0" y="0" />
<g class="mono" id="rule">
<a target="_top" xlink:href="../../ctl_search?results=Search;protein=p24;spans=1"><text x="48" y="896">P
</text>
</a>
<a target="_top" xlink:href="../../ctl_search?results=Search;protein=p24;spans=2"><text x="56" y="896">I
</text>
</a>
<a target="_top" xlink:href="../../ctl_search?results=Search;protein=p24;spans=3"><text x="64" y="896">V
</text>
</a>
<a target="_top" xlink:href="../../ctl_search?results=Search;protein=p24;spans=4"><text x="72" y="896">Q
</text>
</a>
<a target="_top" xlink:href="../../ctl_search?results=Search;protein=p24;spans=5"><text x="80" y="896">N
</text>
</a>
<a target="_top" xlink:href="../../ctl_search?results=Search;protein=p24;spans=6"><text x="88" y="896">I
</text>
</a>
<a target="_top" xlink:href="../../ctl_search?results=Search;protein=p24;spans=7"><text x="96" y="896">Q
</text>
</a>
<a target="_top" xlink:href="../../ctl_search?results=Search;protein=p24;spans=8"><text x="104" y="896">G
</text>
</a>
<a target="_top" xlink:href="../../ctl_search?results=Search;protein=p24;spans=9"><text x="112" y="896">Q
</text>
</a>
<a target="_top" xlink:href="../../ctl_search?results=Search;protein=p24;spans=10"><text x="120" y="896">M
</text>
</a>
<a target="_top" xlink:href="../../ctl_search?results=Search;protein=p24;spans=11"><text x="128" y="896">V
</text>
</a>
<a target="_top" xlink:href="../../ctl_search?results=Search;protein=p24;spans=12"><text x="136" y="896">H
</text>
</a>
<a target="_top" xlink:href="../../ctl_search?results=Search;protein=p24;spans=13"><text x="144" y="896">Q
</text>
</a>
<a target="_top" xlink:href="../../ctl_search?results=Search;protein=p24;spans=14"><text x="152" y="896">A
</text>
</a>
<a target="_top" xlink:href="../../ctl_search?results=Search;protein=p24;spans=15"><text x="160" y="896">I
</text>
</a>
<a target="_top" xlink:href="../../ctl_search?results=Search;protein=p24;spans=16"><text x="168" y="896">S
</text>
</a>
<a target="_top" xlink:href="../../ctl_search?results=Search;protein=p24;spans=17"><text x="176" y="896">P
</text>
</a>
<a target="_top" xlink:href="../../ctl_search?results=Search;protein=p24;spans=18"><text x="184" y="896">R
</text>
</a>
<a target="_top" xlink:href="../../ctl_search?results=Search;protein=p24;spans=19"><text x="192" y="896">T
</text>
</a>
<a target="_top" xlink:href="../../ctl_search?results=Search;protein=p24;spans=20"><text x="200" y="896">L
</text>
</a>
<a target="_top" xlink:href="../../ctl_search?results=Search;protein=p24;spans=21"><text x="208" y="896">N
</text>
</a>
<a target="_top" xlink:href="../../ctl_search?results=Search;protein=p24;spans=22"><text x="216" y="896">A
</text>
</a>
<a target="_top" xlink:href="../../ctl_search?results=Search;protein=p24;spans=23"><text x="224" y="896">W
</text>
</a>
<a target="_top" xlink:href="../../ctl_search?results=Search;protein=p24;spans=24"><text x="232" y="896">V
</text>
</a>
<a target="_top" xlink:href="../../ctl_search?results=Search;protein=p24;spans=25"><text x="240" y="896">K
</text>
</a>
<a target="_top" xlink:href="../../ctl_search?results=Search;protein=p24;spans=26"><text x="248" y="896">V
</text>
</a>
<a target="_top" xlink:href="../../ctl_search?results=Search;protein=p24;spans=27"><text x="256" y="896">V
</text>
</a>
<a target="_top" xlink:href="../../ctl_search?results=Search;protein=p24;spans=28"><text x="264" y="896">E
</text>
</a>
<a target="_top" xlink:href="../../ctl_search?results=Search;protein=p24;spans=29"><text x="272" y="896">E
</text>
</a>
<a target="_top" xlink:href="../../ctl_search?results=Search;protein=p24;spans=30"><text x="280" y="896">K
</text>
</a>
<a target="_top" xlink:href="../../ctl_search?results=Search;protein=p24;spans=31"><text x="288" y="896">A
</text>
</a>
<a target="_top" xlink:href="../../ctl_search?results=Search;protein=p24;spans=32"><text x="296" y="896">F
</text>
</a>
<a target="_top" xlink:href="../../ctl_search?results=Search;protein=p24;spans=33"><text x="304" y="896">S
</text>
</a>
<a target="_top" xlink:href="../../ctl_search?results=Search;protein=p24;spans=34"><text x="312" y="896">P
</text>
</a>
<a target="_top" xlink:href="../../ctl_search?results=Search;protein=p24;spans=35"><text x="320" y="896">E
</text>
</a>
<a target="_top" xlink:href="../../ctl_search?results=Search;protein=p24;spans=36"><text x="328" y="896">V
</text>
</a>
<a target="_top" xlink:href="../../ctl_search?results=Search;protein=p24;spans=37"><text x="336" y="896">I
</text>
</a>
<a target="_top" xlink:href="../../ctl_search?results=Search;protein=p24;spans=38"><text x="344" y="896">P
</text>
</a>
<a target="_top" xlink:href="../../ctl_search?results=Search;protein=p24;spans=39"><text x="352" y="896">M
</text>
</a>
<a target="_top" xlink:href="../../ctl_search?results=Search;protein=p24;spans=40"><text x="360" y="896">F
</text>
</a>
<a target="_top" xlink:href="../../ctl_search?results=Search;protein=p24;spans=41"><text x="368" y="896">S
</text>
</a>
<a target="_top" xlink:href="../../ctl_search?results=Search;protein=p24;spans=42"><text x="376" y="896">A
</text>
</a>
<a target="_top" xlink:href="../../ctl_search?results=Search;protein=p24;spans=43"><text x="384" y="896">L
</text>
</a>
<a target="_top" xlink:href="../../ctl_search?results=Search;protein=p24;spans=44"><text x="392" y="896">S
</text>
</a>
<a target="_top" xlink:href="../../ctl_search?results=Search;protein=p24;spans=45"><text x="400" y="896">E
</text>
</a>
<a target="_top" xlink:href="../../ctl_search?results=Search;protein=p24;spans=46"><text x="408" y="896">G
</text>
</a>
<a target="_top" xlink:href="../../ctl_search?results=Search;protein=p24;spans=47"><text x="416" y="896">A
</text>
</a>
<a target="_top" xlink:href="../../ctl_search?results=Search;protein=p24;spans=48"><text x="424" y="896">T
</text>
</a>
<a target="_top" xlink:href="../../ctl_search?results=Search;protein=p24;spans=49"><text x="432" y="896">P
</text>
</a>
<a target="_top" xlink:href="../../ctl_search?results=Search;protein=p24;spans=50"><text x="440" y="896">Q
</text>
</a>
</g>
<g class="tics" id="tics">
<line x1="124" x2="124" y1="897" y2="901" /><text stroke-width="0" x="124" y="910">10
</text>
<line x1="204" x2="204" y1="897" y2="901" /><text stroke-width="0" x="204" y="910">20
</text>
<line x1="284" x2="284" y1="897" y2="901" /><text stroke-width="0" x="284" y="910">30
</text>
<line x1="364" x2="364" y1="897" y2="901" /><text stroke-width="0" x="364" y="910">40
</text>
<line x1="444" x2="444" y1="897" y2="901" /><text stroke-width="0" x="444" y="910">50
</text>
</g>
<g class="vertlines" id="vertlines">
<line x1="56" x2="56" y1="882" y2="865.2" />
<line x1="64" x2="64" y1="882" y2="753.2" />
<line x1="72" x2="72" y1="882" y2="809.2" />
<line x1="88" x2="88" y1="882" y2="739.2" />
<line x1="96" x2="96" y1="882" y2="725.2" />
<line x1="104" x2="104" y1="882" y2="613.2" />
<line x1="112" x2="112" y1="882" y2="599.2" />
<line x1="120" x2="120" y1="882" y2="585.2" />
<line x1="128" x2="128" y1="882" y2="557.2" />
<line x1="136" x2="136" y1="882" y2="753.2" />
<line x1="144" x2="144" y1="882" y2="501.2" />
<line x1="152" x2="152" y1="882" y2="403.2" />
<line x1="160" x2="160" y1="882" y2="263.2" />
<line x1="168" x2="168" y1="882" y2="221.2" />
<line x1="176" x2="176" y1="882" y2="207.2" />
<line x1="184" x2="184" y1="882" y2="179.2" />
<line x1="192" x2="192" y1="882" y2="123.2" />
<line x1="208" x2="208" y1="882" y2="543.2" />
<line x1="216" x2="216" y1="882" y2="613.2" />
<line x1="224" x2="224" y1="882" y2="487.2" />
<line x1="232" x2="232" y1="882" y2="291.2" />
<line x1="240" x2="240" y1="882" y2="235.2" />
<line x1="256" x2="256" y1="882" y2="165.2" />
<line x1="264" x2="264" y1="882" y2="123.2" />
<line x1="272" x2="272" y1="882" y2="207.2" />
<line x1="280" x2="280" y1="882" y2="95.1999999999999" />
<line x1="288" x2="288" y1="882" y2="81.1999999999999" />
<line x1="296" x2="296" y1="882" y2="515.2" />
<line x1="304" x2="304" y1="882" y2="725.2" />
<line x1="320" x2="320" y1="882" y2="417.2" />
<line x1="328" x2="328" y1="882" y2="361.2" />
<line x1="336" x2="336" y1="882" y2="669.2" />
<line x1="344" x2="344" y1="882" y2="333.2" />
<line x1="352" x2="352" y1="882" y2="655.2" />
<line x1="360" x2="360" y1="882" y2="753.2" />
<line x1="368" x2="368" y1="882" y2="95.1999999999999" />
<line x1="376" x2="376" y1="882" y2="487.2" />
<line x1="384" x2="384" y1="882" y2="277.2" />
<line x1="392" x2="392" y1="882" y2="207.2" />
<line x1="400" x2="400" y1="882" y2="81.1999999999999" />
<line x1="408" x2="408" y1="882" y2="823.2" />
<line x1="416" x2="416" y1="882" y2="347.2" />
<line x1="424" x2="424" y1="882" y2="25.1999999999999" />
<line x1="432" x2="432" y1="882" y2="333.2" />
</g>
<g class="arrows" id="arrows">
<line marker-end="url(#arrowhead-end)" x1="40" x2="56" y1="868" y2="868" />
<line marker-end="url(#arrowhead-end)" marker-start="url(#arrowhead-start)" x1="120" x2="192" y1="868" y2="868" />
<line marker-end="url(#arrowhead-end)" marker-start="url(#arrowhead-start)" x1="256" x2="336" y1="868" y2="868" />
<line marker-start="url(#arrowhead-start)" x1="400" x2="456" y1="868" y2="868" />
<line marker-end="url(#arrowhead-end)" x1="40" x2="72" y1="854" y2="854" />
<line marker-end="url(#arrowhead-end)" marker-start="url(#arrowhead-start)" x1="136" x2="208" y1="854" y2="854" />
<line marker-end="url(#arrowhead-end)" marker-start="url(#arrowhead-start)" x1="272" x2="336" y1="854" y2="854" />
<line marker-start="url(#arrowhead-start)" x1="408" x2="456" y1="854" y2="854" />
<line marker-end="url(#arrowhead-end)" x1="40" x2="72" y1="840" y2="840" />
<line marker-end="url(#arrowhead-end)" marker-start="url(#arrowhead-start)" x1="136" x2="208" y1="840" y2="840" />
<line marker-end="url(#arrowhead-end)" marker-start="url(#arrowhead-start)" x1="272" x2="360" y1="840" y2="840" />
<line marker-start="url(#arrowhead-start)" x1="424" x2="456" y1="840" y2="840" />
<line marker-end="url(#arrowhead-end)" x1="40" x2="72" y1="826" y2="826" />
<line marker-end="url(#arrowhead-end)" marker-start="url(#arrowhead-start)" x1="136" x2="208" y1="826" y2="826" />
<line marker-end="url(#arrowhead-end)" marker-start="url(#arrowhead-start)" x1="280" x2="344" y1="826" y2="826" />
<line marker-start="url(#arrowhead-start)" x1="408" x2="456" y1="826" y2="826" />
<line marker-end="url(#arrowhead-end)" x1="40" x2="72" y1="812" y2="812" />
<line marker-end="url(#arrowhead-end)" marker-start="url(#arrowhead-start)" x1="144" x2="208" y1="812" y2="812" />
<line marker-end="url(#arrowhead-end)" marker-start="url(#arrowhead-start)" x1="280" x2="344" y1="812" y2="812" />
<line marker-start="url(#arrowhead-start)" x1="416" x2="456" y1="812" y2="812" />
<line marker-end="url(#arrowhead-end)" x1="40" x2="104" y1="798" y2="798" />
<line marker-end="url(#arrowhead-end)" marker-start="url(#arrowhead-start)" x1="168" x2="240" y1="798" y2="798" />
<line marker-end="url(#arrowhead-end)" marker-start="url(#arrowhead-start)" x1="304" x2="368" y1="798" y2="798" />
<line marker-start="url(#arrowhead-start)" x1="432" x2="456" y1="798" y2="798" />
<line marker-end="url(#arrowhead-end)" x1="40" x2="96" y1="784" y2="784" />
<line marker-end="url(#arrowhead-end)" marker-start="url(#arrowhead-start)" x1="160" x2="232" y1="784" y2="784" />
<line marker-end="url(#arrowhead-end)" marker-start="url(#arrowhead-start)" x1="296" x2="368" y1="784" y2="784" />
<line marker-start="url(#arrowhead-start)" x1="432" x2="456" y1="784" y2="784" />
<line marker-end="url(#arrowhead-end)" marker-start="url(#arrowhead-start)" x1="64" x2="136" y1="770" y2="770" />
<line marker-end="url(#arrowhead-end)" marker-start="url(#arrowhead-start)" x1="208" x2="288" y1="770" y2="770" />
<line marker-end="url(#arrowhead-end)" marker-start="url(#arrowhead-start)" x1="352" x2="424" y1="770" y2="770" />
<line marker-end="url(#arrowhead-end)" marker-start="url(#arrowhead-start)" x1="64" x2="136" y1="756" y2="756" />
<line marker-end="url(#arrowhead-end)" marker-start="url(#arrowhead-start)" x1="208" x2="296" y1="756" y2="756" />
<line marker-end="url(#arrowhead-end)" marker-start="url(#arrowhead-start)" x1="360" x2="432" y1="756" y2="756" />
<line marker-end="url(#arrowhead-end)" marker-start="url(#arrowhead-start)" x1="88" x2="168" y1="742" y2="742" />
<line marker-end="url(#arrowhead-end)" marker-start="url(#arrowhead-start)" x1="232" x2="304" y1="742" y2="742" />
<line marker-start="url(#arrowhead-start)" x1="376" x2="456" y1="742" y2="742" />
<line marker-end="url(#arrowhead-end)" marker-start="url(#arrowhead-start)" x1="96" x2="168" y1="728" y2="728" />
<line marker-end="url(#arrowhead-end)" marker-start="url(#arrowhead-start)" x1="232" x2="304" y1="728" y2="728" />
<line marker-start="url(#arrowhead-start)" x1="376" x2="456" y1="728" y2="728" />
<line marker-end="url(#arrowhead-end)" marker-start="url(#arrowhead-start)" x1="104" x2="168" y1="714" y2="714" />
<line marker-end="url(#arrowhead-end)" marker-start="url(#arrowhead-start)" x1="256" x2="344" y1="714" y2="714" />
<line marker-start="url(#arrowhead-start)" x1="416" x2="456" y1="714" y2="714" />
<line marker-end="url(#arrowhead-end)" marker-start="url(#arrowhead-start)" x1="104" x2="176" y1="700" y2="700" />
<line marker-end="url(#arrowhead-end)" marker-start="url(#arrowhead-start)" x1="264" x2="336" y1="700" y2="700" />
<line marker-start="url(#arrowhead-start)" x1="416" x2="456" y1="700" y2="700" />
<line marker-end="url(#arrowhead-end)" marker-start="url(#arrowhead-start)" x1="104" x2="184" y1="686" y2="686" />
<line marker-end="url(#arrowhead-end)" marker-start="url(#arrowhead-start)" x1="264" x2="336" y1="686" y2="686" />
<line marker-start="url(#arrowhead-start)" x1="416" x2="456" y1="686" y2="686" />
<line marker-end="url(#arrowhead-end)" marker-start="url(#arrowhead-start)" x1="104" x2="184" y1="672" y2="672" />
<line marker-end="url(#arrowhead-end)" marker-start="url(#arrowhead-start)" x1="264" x2="336" y1="672" y2="672" />
<line marker-start="url(#arrowhead-start)" x1="416" x2="456" y1="672" y2="672" />
<line marker-end="url(#arrowhead-end)" marker-start="url(#arrowhead-start)" x1="104" x2="192" y1="658" y2="658" />
<line marker-end="url(#arrowhead-end)" marker-start="url(#arrowhead-start)" x1="280" x2="352" y1="658" y2="658" />
<line marker-start="url(#arrowhead-start)" x1="416" x2="456" y1="658" y2="658" />
<line marker-end="url(#arrowhead-end)" marker-start="url(#arrowhead-start)" x1="104" x2="208" y1="644" y2="644" />
<line marker-end="url(#arrowhead-end)" marker-start="url(#arrowhead-start)" x1="280" x2="368" y1="644" y2="644" />
<line marker-start="url(#arrowhead-start)" x1="432" x2="456" y1="644" y2="644" />
<line marker-end="url(#arrowhead-end)" marker-start="url(#arrowhead-start)" x1="104" x2="216" y1="630" y2="630" />
<line marker-end="url(#arrowhead-end)" marker-start="url(#arrowhead-start)" x1="280" x2="368" y1="630" y2="630" />
<line marker-start="url(#arrowhead-start)" x1="432" x2="456" y1="630" y2="630" />
<line marker-end="url(#arrowhead-end)" marker-start="url(#arrowhead-start)" x1="104" x2="216" y1="616" y2="616" />
<line marker-end="url(#arrowhead-end)" marker-start="url(#arrowhead-start)" x1="280" x2="368" y1="616" y2="616" />
<line marker-end="url(#arrowhead-end)" marker-start="url(#arrowhead-start)" x1="112" x2="192" y1="602" y2="602" />
<line marker-end="url(#arrowhead-end)" marker-start="url(#arrowhead-start)" x1="280" x2="368" y1="602" y2="602" />
<line marker-end="url(#arrowhead-end)" marker-start="url(#arrowhead-start)" x1="120" x2="232" y1="588" y2="588" />
<line marker-end="url(#arrowhead-end)" marker-start="url(#arrowhead-start)" x1="296" x2="368" y1="588" y2="588" />
<line marker-end="url(#arrowhead-end)" marker-start="url(#arrowhead-start)" x1="128" x2="208" y1="574" y2="574" />
<line marker-end="url(#arrowhead-end)" marker-start="url(#arrowhead-start)" x1="280" x2="368" y1="574" y2="574" />
<line marker-end="url(#arrowhead-end)" marker-start="url(#arrowhead-start)" x1="128" x2="240" y1="560" y2="560" />
<line marker-end="url(#arrowhead-end)" marker-start="url(#arrowhead-start)" x1="320" x2="392" y1="560" y2="560" />
<line marker-end="url(#arrowhead-end)" marker-start="url(#arrowhead-start)" x1="144" x2="208" y1="546" y2="546" />
<line marker-end="url(#arrowhead-end)" marker-start="url(#arrowhead-start)" x1="280" x2="368" y1="546" y2="546" />
<line marker-end="url(#arrowhead-end)" marker-start="url(#arrowhead-start)" x1="144" x2="232" y1="532" y2="532" />
<line marker-end="url(#arrowhead-end)" marker-start="url(#arrowhead-start)" x1="296" x2="368" y1="532" y2="532" />
<line marker-end="url(#arrowhead-end)" marker-start="url(#arrowhead-start)" x1="144" x2="232" y1="518" y2="518" />
<line marker-end="url(#arrowhead-end)" marker-start="url(#arrowhead-start)" x1="296" x2="368" y1="518" y2="518" />
<line marker-end="url(#arrowhead-end)" marker-start="url(#arrowhead-start)" x1="144" x2="232" y1="504" y2="504" />
<line marker-end="url(#arrowhead-end)" marker-start="url(#arrowhead-start)" x1="320" x2="392" y1="504" y2="504" />
<line marker-end="url(#arrowhead-end)" marker-start="url(#arrowhead-start)" x1="152" x2="224" y1="490" y2="490" />
<line marker-end="url(#arrowhead-end)" marker-start="url(#arrowhead-start)" x1="288" x2="376" y1="490" y2="490" />
<line marker-end="url(#arrowhead-end)" marker-start="url(#arrowhead-start)" x1="152" x2="232" y1="476" y2="476" />
<line marker-end="url(#arrowhead-end)" marker-start="url(#arrowhead-start)" x1="320" x2="392" y1="476" y2="476" />
<line marker-end="url(#arrowhead-end)" marker-start="url(#arrowhead-start)" x1="152" x2="232" y1="462" y2="462" />
<line marker-end="url(#arrowhead-end)" marker-start="url(#arrowhead-start)" x1="320" x2="392" y1="462" y2="462" />
<line marker-end="url(#arrowhead-end)" marker-start="url(#arrowhead-start)" x1="152" x2="232" y1="448" y2="448" />
<line marker-end="url(#arrowhead-end)" marker-start="url(#arrowhead-start)" x1="320" x2="392" y1="448" y2="448" />
<line marker-end="url(#arrowhead-end)" marker-start="url(#arrowhead-start)" x1="152" x2="232" y1="434" y2="434" />
<line marker-end="url(#arrowhead-end)" marker-start="url(#arrowhead-start)" x1="320" x2="392" y1="434" y2="434" />
<line marker-end="url(#arrowhead-end)" marker-start="url(#arrowhead-start)" x1="152" x2="232" y1="420" y2="420" />
<line marker-end="url(#arrowhead-end)" marker-start="url(#arrowhead-start)" x1="320" x2="392" y1="420" y2="420" />
<line marker-end="url(#arrowhead-end)" marker-start="url(#arrowhead-start)" x1="152" x2="240" y1="406" y2="406" />
<line marker-end="url(#arrowhead-end)" marker-start="url(#arrowhead-start)" x1="328" x2="392" y1="406" y2="406" />
<line marker-end="url(#arrowhead-end)" marker-start="url(#arrowhead-start)" x1="160" x2="232" y1="392" y2="392" />
<line marker-end="url(#arrowhead-end)" marker-start="url(#arrowhead-start)" x1="328" x2="392" y1="392" y2="392" />
<line marker-end="url(#arrowhead-end)" marker-start="url(#arrowhead-start)" x1="160" x2="232" y1="378" y2="378" />
<line marker-end="url(#arrowhead-end)" marker-start="url(#arrowhead-start)" x1="328" x2="392" y1="378" y2="378" />
<line marker-end="url(#arrowhead-end)" marker-start="url(#arrowhead-start)" x1="160" x2="232" y1="364" y2="364" />
<line marker-end="url(#arrowhead-end)" marker-start="url(#arrowhead-start)" x1="328" x2="400" y1="364" y2="364" />
<line marker-end="url(#arrowhead-end)" marker-start="url(#arrowhead-start)" x1="160" x2="232" y1="350" y2="350" />
<line marker-end="url(#arrowhead-end)" marker-start="url(#arrowhead-start)" x1="344" x2="416" y1="350" y2="350" />
<line marker-end="url(#arrowhead-end)" marker-start="url(#arrowhead-start)" x1="160" x2="232" y1="336" y2="336" />
<line marker-end="url(#arrowhead-end)" marker-start="url(#arrowhead-start)" x1="344" x2="432" y1="336" y2="336" />
<line marker-end="url(#arrowhead-end)" marker-start="url(#arrowhead-start)" x1="160" x2="232" y1="322" y2="322" />
<line marker-start="url(#arrowhead-start)" x1="384" x2="456" y1="322" y2="322" />
<line marker-end="url(#arrowhead-end)" marker-start="url(#arrowhead-start)" x1="160" x2="232" y1="308" y2="308" />
<line marker-start="url(#arrowhead-start)" x1="384" x2="456" y1="308" y2="308" />
<line marker-end="url(#arrowhead-end)" marker-start="url(#arrowhead-start)" x1="160" x2="232" y1="294" y2="294" />
<line marker-start="url(#arrowhead-start)" x1="384" x2="456" y1="294" y2="294" />
<line marker-end="url(#arrowhead-end)" marker-start="url(#arrowhead-start)" x1="160" x2="240" y1="280" y2="280" />
<line marker-start="url(#arrowhead-start)" x1="384" x2="456" y1="280" y2="280" />
<line marker-end="url(#arrowhead-end)" marker-start="url(#arrowhead-start)" x1="160" x2="240" y1="266" y2="266" />
<line marker-start="url(#arrowhead-start)" x1="392" x2="456" y1="266" y2="266" />
<line marker-end="url(#arrowhead-end)" marker-start="url(#arrowhead-start)" x1="168" x2="240" y1="252" y2="252" />
<line marker-start="url(#arrowhead-start)" x1="392" x2="456" y1="252" y2="252" />
<line marker-end="url(#arrowhead-end)" marker-start="url(#arrowhead-start)" x1="168" x2="240" y1="238" y2="238" />
<line marker-start="url(#arrowhead-start)" x1="392" x2="456" y1="238" y2="238" />
<line marker-end="url(#arrowhead-end)" marker-start="url(#arrowhead-start)" x1="168" x2="256" y1="224" y2="224" />
<line marker-start="url(#arrowhead-start)" x1="392" x2="456" y1="224" y2="224" />
<line marker-end="url(#arrowhead-end)" marker-start="url(#arrowhead-start)" x1="176" x2="272" y1="210" y2="210" />
<line marker-start="url(#arrowhead-start)" x1="392" x2="456" y1="210" y2="210" />
<line marker-end="url(#arrowhead-end)" marker-start="url(#arrowhead-start)" x1="184" x2="256" y1="196" y2="196" />
<line marker-start="url(#arrowhead-start)" x1="424" x2="456" y1="196" y2="196" />
<line marker-end="url(#arrowhead-end)" marker-start="url(#arrowhead-start)" x1="184" x2="256" y1="182" y2="182" />
<line marker-start="url(#arrowhead-start)" x1="424" x2="456" y1="182" y2="182" />
<line marker-end="url(#arrowhead-end)" marker-start="url(#arrowhead-start)" x1="192" x2="256" y1="168" y2="168" />
<line marker-start="url(#arrowhead-start)" x1="424" x2="456" y1="168" y2="168" />
<line marker-end="url(#arrowhead-end)" marker-start="url(#arrowhead-start)" x1="192" x2="264" y1="154" y2="154" />
<line marker-start="url(#arrowhead-start)" x1="424" x2="456" y1="154" y2="154" />
<line marker-end="url(#arrowhead-end)" marker-start="url(#arrowhead-start)" x1="192" x2="264" y1="140" y2="140" />
<line marker-start="url(#arrowhead-start)" x1="424" x2="456" y1="140" y2="140" />
<line marker-end="url(#arrowhead-end)" marker-start="url(#arrowhead-start)" x1="192" x2="264" y1="126" y2="126" />
<line marker-start="url(#arrowhead-start)" x1="424" x2="456" y1="126" y2="126" />
<line marker-end="url(#arrowhead-end)" marker-start="url(#arrowhead-start)" x1="280" x2="368" y1="112" y2="112" />
<line marker-end="url(#arrowhead-end)" marker-start="url(#arrowhead-start)" x1="280" x2="368" y1="98" y2="98" />
<line marker-end="url(#arrowhead-end)" marker-start="url(#arrowhead-start)" x1="288" x2="400" y1="84" y2="84" />
<line marker-start="url(#arrowhead-start)" x1="424" x2="456" y1="70" y2="70" />
<line marker-start="url(#arrowhead-start)" x1="424" x2="456" y1="56" y2="56" />
<line marker-start="url(#arrowhead-start)" x1="424" x2="456" y1="42" y2="42" />
<line marker-start="url(#arrowhead-start)" x1="424" x2="456" y1="28" y2="28" />
</g>
<g class="label" id="label">
<a target="_top" xlink:href="../../ctl_search?results=Search;protein=p17-p24;inrange=124-1"><text x="48" y="867">human
</text>
</a>
<a target="_top" xlink:href="../../ctl_search?results=Search;protein=p24;inrange=10-18;hla=A3 supertype"><text x="156" y="867">A3 supertype
</text>
</a>
<a target="_top" xlink:href="../../ctl_search?results=Search;protein=p24;inrange=27-36"><text x="296" y="867">human
</text>
</a>
<a target="_top" xlink:href="../../ctl_search?results=Search;protein=p24;inrange=45-56"><text x="428" y="867">human
</text>
</a>
<a target="_top" xlink:href="../../ctl_search?results=Search;protein=p17-p24;inrange=125-3"><text x="56" y="853">human
</text>
</a>
<a target="_top" xlink:href="../../ctl_search?results=Search;protein=p24;inrange=12-20;hla=B*1510"><text x="172" y="853">B*1510
</text>
</a>
<a target="_top" xlink:href="../../ctl_search?results=Search;protein=p24;inrange=29-36"><text x="304" y="853">human
</text>
</a>
<a target="_top" xlink:href="../../ctl_search?results=Search;protein=p24;inrange=46-54"><text x="432" y="853">human
</text>
</a>
<a target="_top" xlink:href="../../ctl_search?results=Search;protein=p17-p24;inrange=127-3;hla=A*68"><text x="56" y="839">A*68
</text>
</a>
<a target="_top" xlink:href="../../ctl_search?results=Search;protein=p24;inrange=12-20;hla=B15"><text x="172" y="839">B15
</text>
</a>
<a target="_top" xlink:href="../../ctl_search?results=Search;protein=p24;inrange=29-39"><text x="316" y="839">macaque
</text>
</a>
<a target="_top" xlink:href="../../ctl_search?results=Search;protein=p24;inrange=48-55;hla=B*8101"><text x="440" y="839">B*8101
</text>
</a>
<a target="_top" xlink:href="../../ctl_search?results=Search;protein=p17-p24;inrange=127-3;hla=A*6802"><text x="56" y="825">A*6802
</text>
</a>
<a target="_top" xlink:href="../../ctl_search?results=Search;protein=p24;inrange=12-20;hla=Patr-B2"><text x="172" y="825">Patr-B2
</text>
</a>
<a target="_top" xlink:href="../../ctl_search?results=Search;protein=p24;inrange=30-37;hla=B*5703"><text x="312" y="825">B*5703
</text>
</a>
<a target="_top" xlink:href="../../ctl_search?results=Search;protein=p24;inrange=46-59"><text x="432" y="825">human
</text>
</a>
<a target="_top" xlink:href="../../ctl_search?results=Search;protein=p17-p24;inrange=127-3;hla=A68"><text x="56" y="811">A68
</text>
</a>
<a target="_top" xlink:href="../../ctl_search?results=Search;protein=p24;inrange=13-20;hla=Cw3"><text x="176" y="811">Cw3
</text>
</a>
<a target="_top" xlink:href="../../ctl_search?results=Search;protein=p24;inrange=30-37;hla=B57"><text x="312" y="811">B57
</text>
</a>
<a target="_top" xlink:href="../../ctl_search?results=Search;protein=p24;inrange=47-55;hla=B7"><text x="436" y="811">B7
</text>
</a>
<a target="_top" xlink:href="../../ctl_search?results=Search;protein=p17-p24;inrange=129-7"><text x="72" y="797">macaque
</text>
</a>
<a target="_top" xlink:href="../../ctl_search?results=Search;protein=p24;inrange=16-24;hla=B*0702"><text x="204" y="797">B*0702
</text>
</a>
<a target="_top" xlink:href="../../ctl_search?results=Search;protein=p24;inrange=33-40"><text x="336" y="797">human
</text>
</a>
<a target="_top" xlink:href="../../ctl_search?results=Search;protein=p24;inrange=49-57;hla=B14"><text x="444" y="797">B14
</text>
</a>
<a target="_top" xlink:href="../../ctl_search?results=Search;protein=p17-p24;inrange=131-6;hla=A*2402"><text x="68" y="783">A*2402
</text>
</a>
<a target="_top" xlink:href="../../ctl_search?results=Search;protein=p24;inrange=15-23;hla=B*5701"><text x="196" y="783">B*5701
</text>
</a>
<a target="_top" xlink:href="../../ctl_search?results=Search;protein=p24;inrange=32-40;hla=B57"><text x="332" y="783">B57
</text>
</a>
<a target="_top" xlink:href="../../ctl_search?results=Search;protein=p24;inrange=49-57;hla=Cw7"><text x="444" y="783">Cw7
</text>
</a>
<a target="_top" xlink:href="../../ctl_search?results=Search;protein=p24;inrange=3-11;hla=B*1302"><text x="100" y="769">B*1302
</text>
</a>
<a target="_top" xlink:href="../../ctl_search?results=Search;protein=p24;inrange=21-30"><text x="248" y="769">human
</text>
</a>
<a target="_top" xlink:href="../../ctl_search?results=Search;protein=p24;inrange=39-47;hla=H-2&lt;sup&gt;d&lt;/sup&gt;"><text x="388" y="769">H-2d
</text>
</a>
<a target="_top" xlink:href="../../ctl_search?results=Search;protein=p24;inrange=3-11;hla=B13"><text x="100" y="755">B13
</text>
</a>
<a target="_top" xlink:href="../../ctl_search?results=Search;protein=p24;inrange=21-31"><text x="252" y="755">macaque
</text>
</a>
<a target="_top" xlink:href="../../ctl_search?results=Search;protein=p24;inrange=40-48"><text x="396" y="755">human
</text>
</a>
<a target="_top" xlink:href="../../ctl_search?results=Search;protein=p24;inrange=6-15;hla=B*4801"><text x="128" y="741">B*4801
</text>
</a>
<a target="_top" xlink:href="../../ctl_search?results=Search;protein=p24;inrange=24-32;hla=B*1503"><text x="268" y="741">B*1503
</text>
</a>
<a target="_top" xlink:href="../../ctl_search?results=Search;protein=p24;inrange=42-52"><text x="416" y="741">human
</text>
</a>
<a target="_top" xlink:href="../../ctl_search?results=Search;protein=p24;inrange=7-15"><text x="132" y="727">human
</text>
</a>
<a target="_top" xlink:href="../../ctl_search?results=Search;protein=p24;inrange=24-32;hla=B15"><text x="268" y="727">B15
</text>
</a>
<a target="_top" xlink:href="../../ctl_search?results=Search;protein=p24;inrange=42-55"><text x="416" y="727">human
</text>
</a>
<a target="_top" xlink:href="../../ctl_search?results=Search;protein=p24;inrange=8-15;hla=B*4801"><text x="136" y="713">B*4801
</text>
</a>
<a target="_top" xlink:href="../../ctl_search?results=Search;protein=p24;inrange=27-37;hla=B*4501"><text x="300" y="713">B*4501
</text>
</a>
<a target="_top" xlink:href="../../ctl_search?results=Search;protein=p24;inrange=47-56;hla=B53"><text x="436" y="713">B53
</text>
</a>
<a target="_top" xlink:href="../../ctl_search?results=Search;protein=p24;inrange=8-16"><text x="140" y="699">human
</text>
</a>
<a target="_top" xlink:href="../../ctl_search?results=Search;protein=p24;inrange=28-36;hla=B*4415"><text x="300" y="699">B*4415
</text>
</a>
<a target="_top" xlink:href="../../ctl_search?results=Search;protein=p24;inrange=47-56;hla=B58"><text x="436" y="699">B58
</text>
</a>
<a target="_top" xlink:href="../../ctl_search?results=Search;protein=p24;inrange=8-17;hla=B*5802"><text x="144" y="685">B*5802
</text>
</a>
<a target="_top" xlink:href="../../ctl_search?results=Search;protein=p24;inrange=28-36;hla=B*4501"><text x="300" y="685">B*4501
</text>
</a>
<a target="_top" xlink:href="../../ctl_search?results=Search;protein=p24;inrange=47-56;hla=B7"><text x="436" y="685">B7
</text>
</a>
<a target="_top" xlink:href="../../ctl_search?results=Search;protein=p24;inrange=8-17;hla=B57"><text x="144" y="671">B57
</text>
</a>
<a target="_top" xlink:href="../../ctl_search?results=Search;protein=p24;inrange=28-36;hla=B44"><text x="300" y="671">B44
</text>
</a>
<a target="_top" xlink:href="../../ctl_search?results=Search;protein=p24;inrange=47-58;hla=B*5802"><text x="436" y="671">B*5802
</text>
</a>
<a target="_top" xlink:href="../../ctl_search?results=Search;protein=p24;inrange=8-18;hla=A*7401"><text x="148" y="657">A*7401
</text>
</a>
<a target="_top" xlink:href="../../ctl_search?results=Search;protein=p24;inrange=30-38;hla=B57"><text x="316" y="657">B57
</text>
</a>
<a target="_top" xlink:href="../../ctl_search?results=Search;protein=p24;inrange=47-58;hla=B58"><text x="436" y="657">B58
</text>
</a>
<a target="_top" xlink:href="../../ctl_search?results=Search;protein=p24;inrange=8-20;hla=Cw3"><text x="156" y="643">Cw3
</text>
</a>
<a target="_top" xlink:href="../../ctl_search?results=Search;protein=p24;inrange=30-40;hla=A*0201"><text x="324" y="643">A*0201
</text>
</a>
<a target="_top" xlink:href="../../ctl_search?results=Search;protein=p24;inrange=49-57;hla=Cw8"><text x="444" y="643">Cw8
</text>
</a>
<a target="_top" xlink:href="../../ctl_search?results=Search;protein=p24;inrange=8-21;hla=A3"><text x="160" y="629">A3
</text>
</a>
<a target="_top" xlink:href="../../ctl_search?results=Search;protein=p24;inrange=30-40;hla=B*4801"><text x="324" y="629">B*4801
</text>
</a>
<a target="_top" xlink:href="../../ctl_search?results=Search;protein=p24;inrange=49-59;hla=B14"><text x="444" y="629">B14
</text>
</a>
<a target="_top" xlink:href="../../ctl_search?results=Search;protein=p24;inrange=8-21;hla=Cw3"><text x="160" y="615">Cw3
</text>
</a>
<a target="_top" xlink:href="../../ctl_search?results=Search;protein=p24;inrange=30-40;hla=B*5701"><text x="324" y="615">B*5701
</text>
</a>
<a target="_top" xlink:href="../../ctl_search?results=Search;protein=p24;inrange=9-18;hla=A3 supertype"><text x="152" y="601">A3 supertype
</text>
</a>
<a target="_top" xlink:href="../../ctl_search?results=Search;protein=p24;inrange=30-40;hla=B*5703"><text x="324" y="601">B*5703
</text>
</a>
<a target="_top" xlink:href="../../ctl_search?results=Search;protein=p24;inrange=10-23"><text x="176" y="587">human
</text>
</a>
<a target="_top" xlink:href="../../ctl_search?results=Search;protein=p24;inrange=32-40;hla=B58"><text x="332" y="587">B58
</text>
</a>
<a target="_top" xlink:href="../../ctl_search?results=Search;protein=p24;inrange=11-20;hla=B*1510"><text x="168" y="573">B*1510
</text>
</a>
<a target="_top" xlink:href="../../ctl_search?results=Search;protein=p24;inrange=30-40;hla=B*5801"><text x="324" y="573">B*5801
</text>
</a>
<a target="_top" xlink:href="../../ctl_search?results=Search;protein=p24;inrange=11-24"><text x="184" y="559">human
</text>
</a>
<a target="_top" xlink:href="../../ctl_search?results=Search;protein=p24;inrange=35-43;hla=A*26"><text x="356" y="559">A*26
</text>
</a>
<a target="_top" xlink:href="../../ctl_search?results=Search;protein=p24;inrange=13-20;hla=Cw7"><text x="176" y="545">Cw7
</text>
</a>
<a target="_top" xlink:href="../../ctl_search?results=Search;protein=p24;inrange=30-40;hla=B57"><text x="324" y="545">B57
</text>
</a>
<a target="_top" xlink:href="../../ctl_search?results=Search;protein=p24;inrange=13-23;hla=A*2501"><text x="188" y="531">A*2501
</text>
</a>
<a target="_top" xlink:href="../../ctl_search?results=Search;protein=p24;inrange=32-40;hla=B63"><text x="332" y="531">B63
</text>
</a>
<a target="_top" xlink:href="../../ctl_search?results=Search;protein=p24;inrange=13-23;hla=A25"><text x="188" y="517">A25
</text>
</a>
<a target="_top" xlink:href="../../ctl_search?results=Search;protein=p24;inrange=32-40;hla=Mamu A*01"><text x="332" y="517">Mamu A*01
</text>
</a>
<a target="_top" xlink:href="../../ctl_search?results=Search;protein=p24;inrange=13-23;hla=B57"><text x="188" y="503">B57
</text>
</a>
<a target="_top" xlink:href="../../ctl_search?results=Search;protein=p24;inrange=35-43;hla=A*2601"><text x="356" y="503">A*2601
</text>
</a>
<a target="_top" xlink:href="../../ctl_search?results=Search;protein=p24;inrange=14-22"><text x="188" y="489">human
</text>
</a>
<a target="_top" xlink:href="../../ctl_search?results=Search;protein=p24;inrange=31-41"><text x="332" y="489">human
</text>
</a>
<a target="_top" xlink:href="../../ctl_search?results=Search;protein=p24;inrange=14-23;hla=B*5701"><text x="192" y="475">B*5701
</text>
</a>
<a target="_top" xlink:href="../../ctl_search?results=Search;protein=p24;inrange=35-43;hla=A*2602"><text x="356" y="475">A*2602
</text>
</a>
<a target="_top" xlink:href="../../ctl_search?results=Search;protein=p24;inrange=14-23;hla=B*5801"><text x="192" y="461">B*5801
</text>
</a>
<a target="_top" xlink:href="../../ctl_search?results=Search;protein=p24;inrange=35-43;hla=A*2603"><text x="356" y="461">A*2603
</text>
</a>
<a target="_top" xlink:href="../../ctl_search?results=Search;protein=p24;inrange=14-23;hla=B57"><text x="192" y="447">B57
</text>
</a>
<a target="_top" xlink:href="../../ctl_search?results=Search;protein=p24;inrange=35-43;hla=A*2638"><text x="356" y="447">A*2638
</text>
</a>
<a target="_top" xlink:href="../../ctl_search?results=Search;protein=p24;inrange=14-23;hla=B58"><text x="192" y="433">B58
</text>
</a>
<a target="_top" xlink:href="../../ctl_search?results=Search;protein=p24;inrange=35-43;hla=A26"><text x="356" y="433">A26
</text>
</a>
<a target="_top" xlink:href="../../ctl_search?results=Search;protein=p24;inrange=14-23;hla=B63"><text x="192" y="419">B63
</text>
</a>
<a target="_top" xlink:href="../../ctl_search?results=Search;protein=p24;inrange=35-43;hla=Cw3"><text x="356" y="419">Cw3
</text>
</a>
<a target="_top" xlink:href="../../ctl_search?results=Search;protein=p24;inrange=14-24;hla=B57"><text x="196" y="405">B57
</text>
</a>
<a target="_top" xlink:href="../../ctl_search?results=Search;protein=p24;inrange=36-43;hla=Cw*0102"><text x="360" y="405">Cw*0102
</text>
</a>
<a target="_top" xlink:href="../../ctl_search?results=Search;protein=p24;inrange=15-23;hla=B*5702"><text x="196" y="391">B*5702
</text>
</a>
<a target="_top" xlink:href="../../ctl_search?results=Search;protein=p24;inrange=36-43;hla=Cw1"><text x="360" y="391">Cw1
</text>
</a>
<a target="_top" xlink:href="../../ctl_search?results=Search;protein=p24;inrange=15-23;hla=B*5703"><text x="196" y="377">B*5703
</text>
</a>
<a target="_top" xlink:href="../../ctl_search?results=Search;protein=p24;inrange=36-43;hla=Cw2"><text x="360" y="377">Cw2
</text>
</a>
<a target="_top" xlink:href="../../ctl_search?results=Search;protein=p24;inrange=15-23;hla=B*5801"><text x="196" y="363">B*5801
</text>
</a>
<a target="_top" xlink:href="../../ctl_search?results=Search;protein=p24;inrange=36-44"><text x="364" y="363">human
</text>
</a>
<a target="_top" xlink:href="../../ctl_search?results=Search;protein=p24;inrange=15-23;hla=B15"><text x="196" y="349">B15
</text>
</a>
<a target="_top" xlink:href="../../ctl_search?results=Search;protein=p24;inrange=38-46"><text x="380" y="349">human
</text>
</a>
<a target="_top" xlink:href="../../ctl_search?results=Search;protein=p24;inrange=15-23;hla=B57"><text x="196" y="335">B57
</text>
</a>
<a target="_top" xlink:href="../../ctl_search?results=Search;protein=p24;inrange=38-48"><text x="388" y="335">human
</text>
</a>
<a target="_top" xlink:href="../../ctl_search?results=Search;protein=p24;inrange=15-23;hla=B58"><text x="196" y="321">B58
</text>
</a>
<a target="_top" xlink:href="../../ctl_search?results=Search;protein=p24;inrange=43-51"><text x="420" y="321">human
</text>
</a>
<a target="_top" xlink:href="../../ctl_search?results=Search;protein=p24;inrange=15-23;hla=B63"><text x="196" y="307">B63
</text>
</a>
<a target="_top" xlink:href="../../ctl_search?results=Search;protein=p24;inrange=43-52;hla=B*4403"><text x="420" y="307">B*4403
</text>
</a>
<a target="_top" xlink:href="../../ctl_search?results=Search;protein=p24;inrange=15-23;hla=Cw*0602"><text x="196" y="293">Cw*0602
</text>
</a>
<a target="_top" xlink:href="../../ctl_search?results=Search;protein=p24;inrange=43-52;hla=B42"><text x="420" y="293">B42
</text>
</a>
<a target="_top" xlink:href="../../ctl_search?results=Search;protein=p24;inrange=15-24;hla=B*5702"><text x="200" y="279">B*5702
</text>
</a>
<a target="_top" xlink:href="../../ctl_search?results=Search;protein=p24;inrange=43-52;hla=B44"><text x="420" y="279">B44
</text>
</a>
<a target="_top" xlink:href="../../ctl_search?results=Search;protein=p24;inrange=15-24;hla=B*5703"><text x="200" y="265">B*5703
</text>
</a>
<a target="_top" xlink:href="../../ctl_search?results=Search;protein=p24;inrange=44-52;hla=B*4001"><text x="424" y="265">B*4001
</text>
</a>
<a target="_top" xlink:href="../../ctl_search?results=Search;protein=p24;inrange=16-24;hla=B*8101"><text x="204" y="251">B*8101
</text>
</a>
<a target="_top" xlink:href="../../ctl_search?results=Search;protein=p24;inrange=44-52;hla=B40"><text x="424" y="251">B40
</text>
</a>
<a target="_top" xlink:href="../../ctl_search?results=Search;protein=p24;inrange=16-24;hla=B7"><text x="204" y="237">B7
</text>
</a>
<a target="_top" xlink:href="../../ctl_search?results=Search;protein=p24;inrange=44-52;hla=B44"><text x="424" y="237">B44
</text>
</a>
<a target="_top" xlink:href="../../ctl_search?results=Search;protein=p24;inrange=16-26;hla=B7"><text x="212" y="223">B7
</text>
</a>
<a target="_top" xlink:href="../../ctl_search?results=Search;protein=p24;inrange=44-52;hla=B60"><text x="424" y="223">B60
</text>
</a>
<a target="_top" xlink:href="../../ctl_search?results=Search;protein=p24;inrange=17-28"><text x="224" y="209">human
</text>
</a>
<a target="_top" xlink:href="../../ctl_search?results=Search;protein=p24;inrange=44-52;hla=B61"><text x="424" y="209">B61
</text>
</a>
<a target="_top" xlink:href="../../ctl_search?results=Search;protein=p24;inrange=18-26;hla=A*0201"><text x="220" y="195">A*0201
</text>
</a>
<a target="_top" xlink:href="../../ctl_search?results=Search;protein=p24;inrange=48-55;hla=B7"><text x="440" y="195">B7
</text>
</a>
<a target="_top" xlink:href="../../ctl_search?results=Search;protein=p24;inrange=18-26;hla=A2"><text x="220" y="181">A2
</text>
</a>
<a target="_top" xlink:href="../../ctl_search?results=Search;protein=p24;inrange=48-56;hla=B*0702"><text x="440" y="181">B*0702
</text>
</a>
<a target="_top" xlink:href="../../ctl_search?results=Search;protein=p24;inrange=19-26;hla=A*0201"><text x="224" y="167">A*0201
</text>
</a>
<a target="_top" xlink:href="../../ctl_search?results=Search;protein=p24;inrange=48-56;hla=B*3910"><text x="440" y="167">B*3910
</text>
</a>
<a target="_top" xlink:href="../../ctl_search?results=Search;protein=p24;inrange=19-27;hla=A*0201"><text x="228" y="153">A*0201
</text>
</a>
<a target="_top" xlink:href="../../ctl_search?results=Search;protein=p24;inrange=48-56;hla=B*4201"><text x="440" y="153">B*4201
</text>
</a>
<a target="_top" xlink:href="../../ctl_search?results=Search;protein=p24;inrange=19-27;hla=A*0202"><text x="228" y="139">A*0202
</text>
</a>
<a target="_top" xlink:href="../../ctl_search?results=Search;protein=p24;inrange=48-56;hla=B*4202"><text x="440" y="139">B*4202
</text>
</a>
<a target="_top" xlink:href="../../ctl_search?results=Search;protein=p24;inrange=19-27;hla=A2"><text x="228" y="125">A2
</text>
</a>
<a target="_top" xlink:href="../../ctl_search?results=Search;protein=p24;inrange=48-56;hla=B*5301"><text x="440" y="125">B*5301
</text>
</a>
<a target="_top" xlink:href="../../ctl_search?results=Search;protein=p24;inrange=30-40;hla=B58"><text x="324" y="111">B58
</text>
</a>
<a target="_top" xlink:href="../../ctl_search?results=Search;protein=p24;inrange=30-40;hla=B63"><text x="324" y="97">B63
</text>
</a>
<a target="_top" xlink:href="../../ctl_search?results=Search;protein=p24;inrange=31-44"><text x="344" y="83">human
</text>
</a>
<a target="_top" xlink:href="../../ctl_search?results=Search;protein=p24;inrange=48-56;hla=B*5801"><text x="440" y="69">B*5801
</text>
</a>
<a target="_top" xlink:href="../../ctl_search?results=Search;protein=p24;inrange=48-56;hla=B*8101"><text x="440" y="55">B*8101
</text>
</a>
<a target="_top" xlink:href="../../ctl_search?results=Search;protein=p24;inrange=48-56;hla=B14"><text x="440" y="41">B14
</text>
</a>
<a target="_top" xlink:href="../../ctl_search?results=Search;protein=p24;inrange=48-56;hla=B39"><text x="440" y="27">B39
</text>
</a>
</g>
</svg>
