<?xml version="1.0" encoding="UTF-8" standalone="yes"?>
<!DOCTYPE svg PUBLIC "-//W3C//DTD SVG 1.0//EN" "http://www.w3.org/TR/2001/REC-SVG-20010904/DTD/svg10.dtd">
<svg height="827" id="ctl/p24-ctl-03.svg" width="481" xmlns="http://www.w3.org/2000/svg" xmlns:svg="http://www.w3.org/2000/svg" xmlns:xlink="http://www.w3.org/1999/xlink"><title id="title">ctl/p24-ctl-03
</title><style type="text/css"><![CDATA[.mono {
    font-size: 14px;
    font-family:  BitstreamVeraSansMono, Monaco, Courier, monospace;
}
.tics {
    stroke: black;
    stroke-width: .5;
    font-family: serif;
    font-size: 10px;
    text-anchor: middle;
}
.vertlines {
    stroke: black;
    stroke-width: .5;
}
.arrows {
    stroke: black;
    stroke-width: .5;
}
.label {
    font-family: serif;
    font-size: 11px;
    text-anchor: middle;
}
.name {
    font-family: serif;
    font-size: 12px;
    text-anchor: end;
}
]]>
</style>
<defs >
<marker id="arrowhead-end" markerHeight="12" markerUnits="strokeWidth" markerWidth="12" orient="auto" refX="24" refY="15" viewBox="0, 0, 30, 30">
<path d="M 0 0 L 30 15 L 0 30 z" />
</marker>
<marker id="arrowhead-start" markerHeight="12" markerUnits="strokeWidth" markerWidth="12" orient="auto" refX="6" refY="15" viewBox="0, 0, 30, 30">
<path d="M 30 0 L 0 15 L 30 30 z" />
</marker>
</defs>
<rect fill="oldlace" height="827" rx="5" width="481" x="0" y="0" />
<g class="mono" id="rule">
<a target="_top" xlink:href="../../ctl_search?results=Search;protein=p24;spans=51"><text x="48" y="798">D
</text>
</a>
<a target="_top" xlink:href="../../ctl_search?results=Search;protein=p24;spans=52"><text x="56" y="798">L
</text>
</a>
<a target="_top" xlink:href="../../ctl_search?results=Search;protein=p24;spans=53"><text x="64" y="798">N
</text>
</a>
<a target="_top" xlink:href="../../ctl_search?results=Search;protein=p24;spans=54"><text x="72" y="798">T
</text>
</a>
<a target="_top" xlink:href="../../ctl_search?results=Search;protein=p24;spans=55"><text x="80" y="798">M
</text>
</a>
<a target="_top" xlink:href="../../ctl_search?results=Search;protein=p24;spans=56"><text x="88" y="798">L
</text>
</a>
<a target="_top" xlink:href="../../ctl_search?results=Search;protein=p24;spans=57"><text x="96" y="798">N
</text>
</a>
<a target="_top" xlink:href="../../ctl_search?results=Search;protein=p24;spans=58"><text x="104" y="798">T
</text>
</a>
<a target="_top" xlink:href="../../ctl_search?results=Search;protein=p24;spans=59"><text x="112" y="798">V
</text>
</a>
<a target="_top" xlink:href="../../ctl_search?results=Search;protein=p24;spans=60"><text x="120" y="798">G
</text>
</a>
<a target="_top" xlink:href="../../ctl_search?results=Search;protein=p24;spans=61"><text x="128" y="798">G
</text>
</a>
<a target="_top" xlink:href="../../ctl_search?results=Search;protein=p24;spans=62"><text x="136" y="798">H
</text>
</a>
<a target="_top" xlink:href="../../ctl_search?results=Search;protein=p24;spans=63"><text x="144" y="798">Q
</text>
</a>
<a target="_top" xlink:href="../../ctl_search?results=Search;protein=p24;spans=64"><text x="152" y="798">A
</text>
</a>
<a target="_top" xlink:href="../../ctl_search?results=Search;protein=p24;spans=65"><text x="160" y="798">A
</text>
</a>
<a target="_top" xlink:href="../../ctl_search?results=Search;protein=p24;spans=66"><text x="168" y="798">M
</text>
</a>
<a target="_top" xlink:href="../../ctl_search?results=Search;protein=p24;spans=67"><text x="176" y="798">Q
</text>
</a>
<a target="_top" xlink:href="../../ctl_search?results=Search;protein=p24;spans=68"><text x="184" y="798">M
</text>
</a>
<a target="_top" xlink:href="../../ctl_search?results=Search;protein=p24;spans=69"><text x="192" y="798">L
</text>
</a>
<a target="_top" xlink:href="../../ctl_search?results=Search;protein=p24;spans=70"><text x="200" y="798">K
</text>
</a>
<a target="_top" xlink:href="../../ctl_search?results=Search;protein=p24;spans=71"><text x="208" y="798">E
</text>
</a>
<a target="_top" xlink:href="../../ctl_search?results=Search;protein=p24;spans=72"><text x="216" y="798">T
</text>
</a>
<a target="_top" xlink:href="../../ctl_search?results=Search;protein=p24;spans=73"><text x="224" y="798">I
</text>
</a>
<a target="_top" xlink:href="../../ctl_search?results=Search;protein=p24;spans=74"><text x="232" y="798">N
</text>
</a>
<a target="_top" xlink:href="../../ctl_search?results=Search;protein=p24;spans=75"><text x="240" y="798">E
</text>
</a>
<a target="_top" xlink:href="../../ctl_search?results=Search;protein=p24;spans=76"><text x="248" y="798">E
</text>
</a>
<a target="_top" xlink:href="../../ctl_search?results=Search;protein=p24;spans=77"><text x="256" y="798">A
</text>
</a>
<a target="_top" xlink:href="../../ctl_search?results=Search;protein=p24;spans=78"><text x="264" y="798">A
</text>
</a>
<a target="_top" xlink:href="../../ctl_search?results=Search;protein=p24;spans=79"><text x="272" y="798">E
</text>
</a>
<a target="_top" xlink:href="../../ctl_search?results=Search;protein=p24;spans=80"><text x="280" y="798">W
</text>
</a>
<a target="_top" xlink:href="../../ctl_search?results=Search;protein=p24;spans=81"><text x="288" y="798">D
</text>
</a>
<a target="_top" xlink:href="../../ctl_search?results=Search;protein=p24;spans=82"><text x="296" y="798">R
</text>
</a>
<a target="_top" xlink:href="../../ctl_search?results=Search;protein=p24;spans=83"><text x="304" y="798">V
</text>
</a>
<a target="_top" xlink:href="../../ctl_search?results=Search;protein=p24;spans=84"><text x="312" y="798">H
</text>
</a>
<a target="_top" xlink:href="../../ctl_search?results=Search;protein=p24;spans=85"><text x="320" y="798">P
</text>
</a>
<a target="_top" xlink:href="../../ctl_search?results=Search;protein=p24;spans=86"><text x="328" y="798">V
</text>
</a>
<a target="_top" xlink:href="../../ctl_search?results=Search;protein=p24;spans=87"><text x="336" y="798">H
</text>
</a>
<a target="_top" xlink:href="../../ctl_search?results=Search;protein=p24;spans=88"><text x="344" y="798">A
</text>
</a>
<a target="_top" xlink:href="../../ctl_search?results=Search;protein=p24;spans=89"><text x="352" y="798">G
</text>
</a>
<a target="_top" xlink:href="../../ctl_search?results=Search;protein=p24;spans=90"><text x="360" y="798">P
</text>
</a>
<a target="_top" xlink:href="../../ctl_search?results=Search;protein=p24;spans=91"><text x="368" y="798">I
</text>
</a>
<a target="_top" xlink:href="../../ctl_search?results=Search;protein=p24;spans=92"><text x="376" y="798">A
</text>
</a>
<a target="_top" xlink:href="../../ctl_search?results=Search;protein=p24;spans=93"><text x="384" y="798">P
</text>
</a>
<a target="_top" xlink:href="../../ctl_search?results=Search;protein=p24;spans=94"><text x="392" y="798">G
</text>
</a>
<a target="_top" xlink:href="../../ctl_search?results=Search;protein=p24;spans=95"><text x="400" y="798">Q
</text>
</a>
<a target="_top" xlink:href="../../ctl_search?results=Search;protein=p24;spans=96"><text x="408" y="798">M
</text>
</a>
<a target="_top" xlink:href="../../ctl_search?results=Search;protein=p24;spans=97"><text x="416" y="798">R
</text>
</a>
<a target="_top" xlink:href="../../ctl_search?results=Search;protein=p24;spans=98"><text x="424" y="798">E
</text>
</a>
<a target="_top" xlink:href="../../ctl_search?results=Search;protein=p24;spans=99"><text x="432" y="798">P
</text>
</a>
<a target="_top" xlink:href="../../ctl_search?results=Search;protein=p24;spans=100"><text x="440" y="798">R
</text>
</a>
</g>
<g class="tics" id="tics">
<line x1="124" x2="124" y1="799" y2="803" /><text stroke-width="0" x="124" y="812">60
</text>
<line x1="204" x2="204" y1="799" y2="803" /><text stroke-width="0" x="204" y="812">70
</text>
<line x1="284" x2="284" y1="799" y2="803" /><text stroke-width="0" x="284" y="812">80
</text>
<line x1="364" x2="364" y1="799" y2="803" /><text stroke-width="0" x="364" y="812">90
</text>
<line x1="444" x2="444" y1="799" y2="803" /><text stroke-width="0" x="444" y="812">100
</text>
</g>
<g class="vertlines" id="vertlines">
<line x1="48" x2="48" y1="784" y2="95.1999999999999" />
<line x1="56" x2="56" y1="784" y2="81.1999999999999" />
<line x1="64" x2="64" y1="784" y2="67.1999999999999" />
<line x1="72" x2="72" y1="784" y2="53.1999999999999" />
<line x1="80" x2="80" y1="784" y2="599.2" />
<line x1="88" x2="88" y1="784" y2="39.1999999999999" />
<line x1="96" x2="96" y1="784" y2="263.2" />
<line x1="104" x2="104" y1="784" y2="179.2" />
<line x1="112" x2="112" y1="784" y2="25.1999999999999" />
<line x1="120" x2="120" y1="784" y2="123.2" />
<line x1="128" x2="128" y1="784" y2="81.1999999999999" />
<line x1="136" x2="136" y1="784" y2="627.2" />
<line x1="144" x2="144" y1="784" y2="53.1999999999999" />
<line x1="160" x2="160" y1="784" y2="39.1999999999999" />
<line x1="168" x2="168" y1="784" y2="529.2" />
<line x1="176" x2="176" y1="784" y2="67.1999999999999" />
<line x1="200" x2="200" y1="784" y2="501.2" />
<line x1="208" x2="208" y1="784" y2="417.2" />
<line x1="216" x2="216" y1="784" y2="403.2" />
<line x1="224" x2="224" y1="784" y2="25.1999999999999" />
<line x1="232" x2="232" y1="784" y2="543.2" />
<line x1="240" x2="240" y1="784" y2="389.2" />
<line x1="248" x2="248" y1="784" y2="375.2" />
<line x1="256" x2="256" y1="784" y2="333.2" />
<line x1="264" x2="264" y1="784" y2="697.2" />
<line x1="272" x2="272" y1="784" y2="515.2" />
<line x1="280" x2="280" y1="784" y2="529.2" />
<line x1="288" x2="288" y1="784" y2="403.2" />
<line x1="296" x2="296" y1="784" y2="669.2" />
<line x1="304" x2="304" y1="784" y2="641.2" />
<line x1="312" x2="312" y1="784" y2="305.2" />
<line x1="320" x2="320" y1="784" y2="375.2" />
<line x1="328" x2="328" y1="784" y2="291.2" />
<line x1="336" x2="336" y1="784" y2="347.2" />
<line x1="344" x2="344" y1="784" y2="333.2" />
<line x1="352" x2="352" y1="784" y2="585.2" />
<line x1="368" x2="368" y1="784" y2="529.2" />
<line x1="376" x2="376" y1="784" y2="627.2" />
<line x1="384" x2="384" y1="784" y2="305.2" />
<line x1="392" x2="392" y1="784" y2="487.2" />
<line x1="400" x2="400" y1="784" y2="291.2" />
<line x1="408" x2="408" y1="784" y2="767.2" />
<line x1="416" x2="416" y1="784" y2="585.2" />
<line x1="448" x2="448" y1="784" y2="529.2" />
</g>
<g class="arrows" id="arrows">
<line marker-end="url(#arrowhead-end)" x1="40" x2="64" y1="770" y2="770" />
<line marker-end="url(#arrowhead-end)" marker-start="url(#arrowhead-start)" x1="128" x2="200" y1="770" y2="770" />
<line marker-end="url(#arrowhead-end)" marker-start="url(#arrowhead-start)" x1="264" x2="336" y1="770" y2="770" />
<line marker-start="url(#arrowhead-start)" x1="408" x2="456" y1="770" y2="770" />
<line marker-end="url(#arrowhead-end)" x1="40" x2="88" y1="756" y2="756" />
<line marker-end="url(#arrowhead-end)" marker-start="url(#arrowhead-start)" x1="160" x2="224" y1="756" y2="756" />
<line marker-end="url(#arrowhead-end)" marker-start="url(#arrowhead-start)" x1="288" x2="376" y1="756" y2="756" />
<line marker-end="url(#arrowhead-end)" x1="40" x2="56" y1="742" y2="742" />
<line marker-end="url(#arrowhead-end)" marker-start="url(#arrowhead-start)" x1="120" x2="208" y1="742" y2="742" />
<line marker-end="url(#arrowhead-end)" marker-start="url(#arrowhead-start)" x1="272" x2="336" y1="742" y2="742" />
<line marker-end="url(#arrowhead-end)" x1="40" x2="64" y1="728" y2="728" />
<line marker-end="url(#arrowhead-end)" marker-start="url(#arrowhead-start)" x1="128" x2="200" y1="728" y2="728" />
<line marker-end="url(#arrowhead-end)" marker-start="url(#arrowhead-start)" x1="264" x2="336" y1="728" y2="728" />
<line marker-end="url(#arrowhead-end)" x1="40" x2="64" y1="714" y2="714" />
<line marker-end="url(#arrowhead-end)" marker-start="url(#arrowhead-start)" x1="128" x2="200" y1="714" y2="714" />
<line marker-end="url(#arrowhead-end)" marker-start="url(#arrowhead-start)" x1="264" x2="336" y1="714" y2="714" />
<line marker-end="url(#arrowhead-end)" x1="40" x2="64" y1="700" y2="700" />
<line marker-end="url(#arrowhead-end)" marker-start="url(#arrowhead-start)" x1="128" x2="200" y1="700" y2="700" />
<line marker-end="url(#arrowhead-end)" marker-start="url(#arrowhead-start)" x1="264" x2="336" y1="700" y2="700" />
<line marker-end="url(#arrowhead-end)" x1="40" x2="64" y1="686" y2="686" />
<line marker-end="url(#arrowhead-end)" marker-start="url(#arrowhead-start)" x1="128" x2="200" y1="686" y2="686" />
<line marker-end="url(#arrowhead-end)" marker-start="url(#arrowhead-start)" x1="296" x2="368" y1="686" y2="686" />
<line marker-end="url(#arrowhead-end)" x1="40" x2="64" y1="672" y2="672" />
<line marker-end="url(#arrowhead-end)" marker-start="url(#arrowhead-start)" x1="128" x2="216" y1="672" y2="672" />
<line marker-end="url(#arrowhead-end)" marker-start="url(#arrowhead-start)" x1="296" x2="384" y1="672" y2="672" />
<line marker-end="url(#arrowhead-end)" x1="40" x2="64" y1="658" y2="658" />
<line marker-end="url(#arrowhead-end)" marker-start="url(#arrowhead-start)" x1="136" x2="208" y1="658" y2="658" />
<line marker-end="url(#arrowhead-end)" marker-start="url(#arrowhead-start)" x1="304" x2="376" y1="658" y2="658" />
<line marker-end="url(#arrowhead-end)" x1="40" x2="64" y1="644" y2="644" />
<line marker-end="url(#arrowhead-end)" marker-start="url(#arrowhead-start)" x1="136" x2="208" y1="644" y2="644" />
<line marker-end="url(#arrowhead-end)" marker-start="url(#arrowhead-start)" x1="304" x2="384" y1="644" y2="644" />
<line marker-end="url(#arrowhead-end)" x1="40" x2="64" y1="630" y2="630" />
<line marker-end="url(#arrowhead-end)" marker-start="url(#arrowhead-start)" x1="136" x2="248" y1="630" y2="630" />
<line marker-end="url(#arrowhead-end)" marker-start="url(#arrowhead-start)" x1="312" x2="376" y1="630" y2="630" />
<line marker-end="url(#arrowhead-end)" x1="40" x2="96" y1="616" y2="616" />
<line marker-end="url(#arrowhead-end)" marker-start="url(#arrowhead-start)" x1="160" x2="232" y1="616" y2="616" />
<line marker-end="url(#arrowhead-end)" marker-start="url(#arrowhead-start)" x1="312" x2="384" y1="616" y2="616" />
<line marker-end="url(#arrowhead-end)" x1="40" x2="80" y1="602" y2="602" />
<line marker-end="url(#arrowhead-end)" marker-start="url(#arrowhead-start)" x1="160" x2="232" y1="602" y2="602" />
<line marker-end="url(#arrowhead-end)" marker-start="url(#arrowhead-start)" x1="312" x2="384" y1="602" y2="602" />
<line marker-end="url(#arrowhead-end)" x1="40" x2="120" y1="588" y2="588" />
<line marker-end="url(#arrowhead-end)" marker-start="url(#arrowhead-start)" x1="200" x2="272" y1="588" y2="588" />
<line marker-end="url(#arrowhead-end)" marker-start="url(#arrowhead-start)" x1="352" x2="416" y1="588" y2="588" />
<line marker-end="url(#arrowhead-end)" x1="40" x2="88" y1="574" y2="574" />
<line marker-end="url(#arrowhead-end)" marker-start="url(#arrowhead-start)" x1="160" x2="232" y1="574" y2="574" />
<line marker-end="url(#arrowhead-end)" marker-start="url(#arrowhead-start)" x1="312" x2="384" y1="574" y2="574" />
<line marker-end="url(#arrowhead-end)" x1="40" x2="96" y1="560" y2="560" />
<line marker-end="url(#arrowhead-end)" marker-start="url(#arrowhead-start)" x1="160" x2="232" y1="560" y2="560" />
<line marker-end="url(#arrowhead-end)" marker-start="url(#arrowhead-start)" x1="312" x2="384" y1="560" y2="560" />
<line marker-end="url(#arrowhead-end)" x1="40" x2="96" y1="546" y2="546" />
<line marker-end="url(#arrowhead-end)" marker-start="url(#arrowhead-start)" x1="160" x2="232" y1="546" y2="546" />
<line marker-end="url(#arrowhead-end)" marker-start="url(#arrowhead-start)" x1="312" x2="384" y1="546" y2="546" />
<line marker-end="url(#arrowhead-end)" x1="40" x2="96" y1="532" y2="532" />
<line marker-end="url(#arrowhead-end)" marker-start="url(#arrowhead-start)" x1="168" x2="280" y1="532" y2="532" />
<line marker-end="url(#arrowhead-end)" marker-start="url(#arrowhead-start)" x1="368" x2="448" y1="532" y2="532" />
<line marker-end="url(#arrowhead-end)" x1="40" x2="112" y1="518" y2="518" />
<line marker-end="url(#arrowhead-end)" marker-start="url(#arrowhead-start)" x1="200" x2="272" y1="518" y2="518" />
<line marker-start="url(#arrowhead-start)" x1="384" x2="456" y1="518" y2="518" />
<line marker-end="url(#arrowhead-end)" x1="40" x2="112" y1="504" y2="504" />
<line marker-end="url(#arrowhead-end)" marker-start="url(#arrowhead-start)" x1="200" x2="312" y1="504" y2="504" />
<line marker-start="url(#arrowhead-start)" x1="392" x2="456" y1="504" y2="504" />
<line marker-end="url(#arrowhead-end)" x1="40" x2="88" y1="490" y2="490" />
<line marker-end="url(#arrowhead-end)" marker-start="url(#arrowhead-start)" x1="208" x2="288" y1="490" y2="490" />
<line marker-start="url(#arrowhead-start)" x1="392" x2="456" y1="490" y2="490" />
<line marker-end="url(#arrowhead-end)" x1="40" x2="88" y1="476" y2="476" />
<line marker-end="url(#arrowhead-end)" marker-start="url(#arrowhead-start)" x1="208" x2="288" y1="476" y2="476" />
<line marker-end="url(#arrowhead-end)" x1="40" x2="96" y1="462" y2="462" />
<line marker-end="url(#arrowhead-end)" marker-start="url(#arrowhead-start)" x1="208" x2="288" y1="462" y2="462" />
<line marker-end="url(#arrowhead-end)" x1="40" x2="96" y1="448" y2="448" />
<line marker-end="url(#arrowhead-end)" marker-start="url(#arrowhead-start)" x1="208" x2="288" y1="448" y2="448" />
<line marker-end="url(#arrowhead-end)" x1="40" x2="96" y1="434" y2="434" />
<line marker-end="url(#arrowhead-end)" marker-start="url(#arrowhead-start)" x1="208" x2="288" y1="434" y2="434" />
<line marker-end="url(#arrowhead-end)" x1="40" x2="96" y1="420" y2="420" />
<line marker-end="url(#arrowhead-end)" marker-start="url(#arrowhead-start)" x1="208" x2="288" y1="420" y2="420" />
<line marker-end="url(#arrowhead-end)" x1="40" x2="96" y1="406" y2="406" />
<line marker-end="url(#arrowhead-end)" marker-start="url(#arrowhead-start)" x1="216" x2="288" y1="406" y2="406" />
<line marker-end="url(#arrowhead-end)" x1="40" x2="96" y1="392" y2="392" />
<line marker-end="url(#arrowhead-end)" marker-start="url(#arrowhead-start)" x1="240" x2="312" y1="392" y2="392" />
<line marker-end="url(#arrowhead-end)" x1="40" x2="96" y1="378" y2="378" />
<line marker-end="url(#arrowhead-end)" marker-start="url(#arrowhead-start)" x1="248" x2="320" y1="378" y2="378" />
<line marker-end="url(#arrowhead-end)" x1="40" x2="96" y1="364" y2="364" />
<line marker-end="url(#arrowhead-end)" marker-start="url(#arrowhead-start)" x1="256" x2="328" y1="364" y2="364" />
<line marker-end="url(#arrowhead-end)" x1="40" x2="96" y1="350" y2="350" />
<line marker-end="url(#arrowhead-end)" marker-start="url(#arrowhead-start)" x1="256" x2="336" y1="350" y2="350" />
<line marker-end="url(#arrowhead-end)" x1="40" x2="96" y1="336" y2="336" />
<line marker-end="url(#arrowhead-end)" marker-start="url(#arrowhead-start)" x1="256" x2="344" y1="336" y2="336" />
<line marker-end="url(#arrowhead-end)" x1="40" x2="96" y1="322" y2="322" />
<line marker-end="url(#arrowhead-end)" marker-start="url(#arrowhead-start)" x1="312" x2="384" y1="322" y2="322" />
<line marker-end="url(#arrowhead-end)" x1="40" x2="96" y1="308" y2="308" />
<line marker-end="url(#arrowhead-end)" marker-start="url(#arrowhead-start)" x1="312" x2="384" y1="308" y2="308" />
<line marker-end="url(#arrowhead-end)" x1="40" x2="96" y1="294" y2="294" />
<line marker-end="url(#arrowhead-end)" marker-start="url(#arrowhead-start)" x1="328" x2="400" y1="294" y2="294" />
<line marker-end="url(#arrowhead-end)" x1="40" x2="96" y1="280" y2="280" />
<line marker-end="url(#arrowhead-end)" x1="40" x2="96" y1="266" y2="266" />
<line marker-end="url(#arrowhead-end)" x1="40" x2="104" y1="252" y2="252" />
<line marker-end="url(#arrowhead-end)" x1="40" x2="104" y1="238" y2="238" />
<line marker-end="url(#arrowhead-end)" x1="40" x2="120" y1="224" y2="224" />
<line marker-end="url(#arrowhead-end)" x1="40" x2="104" y1="210" y2="210" />
<line marker-end="url(#arrowhead-end)" x1="40" x2="104" y1="196" y2="196" />
<line marker-end="url(#arrowhead-end)" x1="40" x2="104" y1="182" y2="182" />
<line marker-end="url(#arrowhead-end)" x1="40" x2="120" y1="168" y2="168" />
<line marker-end="url(#arrowhead-end)" marker-start="url(#arrowhead-start)" x1="48" x2="120" y1="154" y2="154" />
<line marker-end="url(#arrowhead-end)" marker-start="url(#arrowhead-start)" x1="48" x2="120" y1="140" y2="140" />
<line marker-end="url(#arrowhead-end)" marker-start="url(#arrowhead-start)" x1="48" x2="120" y1="126" y2="126" />
<line marker-end="url(#arrowhead-end)" marker-start="url(#arrowhead-start)" x1="48" x2="128" y1="112" y2="112" />
<line marker-end="url(#arrowhead-end)" marker-start="url(#arrowhead-start)" x1="48" x2="128" y1="98" y2="98" />
<line marker-end="url(#arrowhead-end)" marker-start="url(#arrowhead-start)" x1="56" x2="128" y1="84" y2="84" />
<line marker-end="url(#arrowhead-end)" marker-start="url(#arrowhead-start)" x1="64" x2="176" y1="70" y2="70" />
<line marker-end="url(#arrowhead-end)" marker-start="url(#arrowhead-start)" x1="72" x2="144" y1="56" y2="56" />
<line marker-end="url(#arrowhead-end)" marker-start="url(#arrowhead-start)" x1="88" x2="160" y1="42" y2="42" />
<line marker-end="url(#arrowhead-end)" marker-start="url(#arrowhead-start)" x1="112" x2="224" y1="28" y2="28" />
</g>
<g class="label" id="label">
<a target="_top" xlink:href="../../ctl_search?results=Search;protein=p24;inrange=42-52"><text x="52" y="769">human
</text>
</a>
<a target="_top" xlink:href="../../ctl_search?results=Search;protein=p24;inrange=61-69;hla=B*1510"><text x="164" y="769">B*1510
</text>
</a>
<a target="_top" xlink:href="../../ctl_search?results=Search;protein=p24;inrange=78-86;hla=A2"><text x="300" y="769">A2
</text>
</a>
<a target="_top" xlink:href="../../ctl_search?results=Search;protein=p24;inrange=96-104"><text x="432" y="769">human
</text>
</a>
<a target="_top" xlink:href="../../ctl_search?results=Search;protein=p24;inrange=42-55"><text x="64" y="755">human
</text>
</a>
<a target="_top" xlink:href="../../ctl_search?results=Search;protein=p24;inrange=65-72;hla=H-2&lt;sup&gt;d&lt;/sup&gt;"><text x="192" y="755">H-2d
</text>
</a>
<a target="_top" xlink:href="../../ctl_search?results=Search;protein=p24;inrange=81-91"><text x="332" y="755">macaque
</text>
</a>
<a target="_top" xlink:href="../../ctl_search?results=Search;protein=p24;inrange=43-51"><text x="48" y="741">human
</text>
</a>
<a target="_top" xlink:href="../../ctl_search?results=Search;protein=p24;inrange=60-70"><text x="164" y="741">human
</text>
</a>
<a target="_top" xlink:href="../../ctl_search?results=Search;protein=p24;inrange=79-86;hla=A2"><text x="304" y="741">A2
</text>
</a>
<a target="_top" xlink:href="../../ctl_search?results=Search;protein=p24;inrange=43-52;hla=B*4403"><text x="52" y="727">B*4403
</text>
</a>
<a target="_top" xlink:href="../../ctl_search?results=Search;protein=p24;inrange=61-69;hla=B*3901"><text x="164" y="727">B*3901
</text>
</a>
<a target="_top" xlink:href="../../ctl_search?results=Search;protein=p24;inrange=78-86;hla=B*4002"><text x="300" y="727">B*4002
</text>
</a>
<a target="_top" xlink:href="../../ctl_search?results=Search;protein=p24;inrange=43-52;hla=B42"><text x="52" y="713">B42
</text>
</a>
<a target="_top" xlink:href="../../ctl_search?results=Search;protein=p24;inrange=61-69;hla=B15"><text x="164" y="713">B15
</text>
</a>
<a target="_top" xlink:href="../../ctl_search?results=Search;protein=p24;inrange=78-86;hla=B*4006"><text x="300" y="713">B*4006
</text>
</a>
<a target="_top" xlink:href="../../ctl_search?results=Search;protein=p24;inrange=43-52;hla=B44"><text x="52" y="699">B44
</text>
</a>
<a target="_top" xlink:href="../../ctl_search?results=Search;protein=p24;inrange=61-69;hla=B38"><text x="164" y="699">B38
</text>
</a>
<a target="_top" xlink:href="../../ctl_search?results=Search;protein=p24;inrange=78-86;hla=B40"><text x="300" y="699">B40
</text>
</a>
<a target="_top" xlink:href="../../ctl_search?results=Search;protein=p24;inrange=44-52;hla=B*4001"><text x="52" y="685">B*4001
</text>
</a>
<a target="_top" xlink:href="../../ctl_search?results=Search;protein=p24;inrange=61-69;hla=B39"><text x="164" y="685">B39
</text>
</a>
<a target="_top" xlink:href="../../ctl_search?results=Search;protein=p24;inrange=82-90"><text x="332" y="685">human
</text>
</a>
<a target="_top" xlink:href="../../ctl_search?results=Search;protein=p24;inrange=44-52;hla=B40"><text x="52" y="671">B40
</text>
</a>
<a target="_top" xlink:href="../../ctl_search?results=Search;protein=p24;inrange=61-71;hla=A2"><text x="172" y="671">A2
</text>
</a>
<a target="_top" xlink:href="../../ctl_search?results=Search;protein=p24;inrange=82-92"><text x="340" y="671">human
</text>
</a>
<a target="_top" xlink:href="../../ctl_search?results=Search;protein=p24;inrange=44-52;hla=B44"><text x="52" y="657">B44
</text>
</a>
<a target="_top" xlink:href="../../ctl_search?results=Search;protein=p24;inrange=62-70;hla=A11"><text x="172" y="657">A11
</text>
</a>
<a target="_top" xlink:href="../../ctl_search?results=Search;protein=p24;inrange=83-91"><text x="340" y="657">human
</text>
</a>
<a target="_top" xlink:href="../../ctl_search?results=Search;protein=p24;inrange=44-52;hla=B60"><text x="52" y="643">B60
</text>
</a>
<a target="_top" xlink:href="../../ctl_search?results=Search;protein=p24;inrange=62-70;hla=B52"><text x="172" y="643">B52
</text>
</a>
<a target="_top" xlink:href="../../ctl_search?results=Search;protein=p24;inrange=83-92;hla=B55"><text x="344" y="643">B55
</text>
</a>
<a target="_top" xlink:href="../../ctl_search?results=Search;protein=p24;inrange=44-52;hla=B61"><text x="52" y="629">B61
</text>
</a>
<a target="_top" xlink:href="../../ctl_search?results=Search;protein=p24;inrange=62-75"><text x="192" y="629">human
</text>
</a>
<a target="_top" xlink:href="../../ctl_search?results=Search;protein=p24;inrange=84-91;hla=B35"><text x="344" y="629">B35
</text>
</a>
<a target="_top" xlink:href="../../ctl_search?results=Search;protein=p24;inrange=45-56"><text x="68" y="615">human
</text>
</a>
<a target="_top" xlink:href="../../ctl_search?results=Search;protein=p24;inrange=65-73;hla=A2"><text x="196" y="615">A2
</text>
</a>
<a target="_top" xlink:href="../../ctl_search?results=Search;protein=p24;inrange=84-92;hla=B*0702"><text x="348" y="615">B*0702
</text>
</a>
<a target="_top" xlink:href="../../ctl_search?results=Search;protein=p24;inrange=46-54"><text x="60" y="601">human
</text>
</a>
<a target="_top" xlink:href="../../ctl_search?results=Search;protein=p24;inrange=65-73;hla=H-2&lt;sup&gt;d&lt;/sup&gt;"><text x="196" y="601">H-2d
</text>
</a>
<a target="_top" xlink:href="../../ctl_search?results=Search;protein=p24;inrange=84-92;hla=B*3501"><text x="348" y="601">B*3501
</text>
</a>
<a target="_top" xlink:href="../../ctl_search?results=Search;protein=p24;inrange=46-59"><text x="80" y="587">human
</text>
</a>
<a target="_top" xlink:href="../../ctl_search?results=Search;protein=p24;inrange=70-78;hla=B*4002"><text x="236" y="587">B*4002
</text>
</a>
<a target="_top" xlink:href="../../ctl_search?results=Search;protein=p24;inrange=89-96;hla=B35"><text x="384" y="587">B35
</text>
</a>
<a target="_top" xlink:href="../../ctl_search?results=Search;protein=p24;inrange=47-55;hla=B7"><text x="64" y="573">B7
</text>
</a>
<a target="_top" xlink:href="../../ctl_search?results=Search;protein=p24;inrange=65-73;hla=H-2&lt;sup&gt;kd&lt;/sup&gt;"><text x="196" y="573">H-2kd
</text>
</a>
<a target="_top" xlink:href="../../ctl_search?results=Search;protein=p24;inrange=84-92;hla=B*3910"><text x="348" y="573">B*3910
</text>
</a>
<a target="_top" xlink:href="../../ctl_search?results=Search;protein=p24;inrange=47-56;hla=B53"><text x="68" y="559">B53
</text>
</a>
<a target="_top" xlink:href="../../ctl_search?results=Search;protein=p24;inrange=65-73;hla=H-2D&lt;sup&gt;d&lt;/sup&gt;"><text x="196" y="559">H-2Dd
</text>
</a>
<a target="_top" xlink:href="../../ctl_search?results=Search;protein=p24;inrange=84-92;hla=B35"><text x="348" y="559">B35
</text>
</a>
<a target="_top" xlink:href="../../ctl_search?results=Search;protein=p24;inrange=47-56;hla=B58"><text x="68" y="545">B58
</text>
</a>
<a target="_top" xlink:href="../../ctl_search?results=Search;protein=p24;inrange=65-73;hla=H-2K&lt;sup&gt;d&lt;/sup&gt;"><text x="196" y="545">H-2Kd
</text>
</a>
<a target="_top" xlink:href="../../ctl_search?results=Search;protein=p24;inrange=84-92;hla=B39"><text x="348" y="545">B39
</text>
</a>
<a target="_top" xlink:href="../../ctl_search?results=Search;protein=p24;inrange=47-56;hla=B7"><text x="68" y="531">B7
</text>
</a>
<a target="_top" xlink:href="../../ctl_search?results=Search;protein=p24;inrange=66-79"><text x="224" y="531">human
</text>
</a>
<a target="_top" xlink:href="../../ctl_search?results=Search;protein=p24;inrange=91-100;hla=H-2D"><text x="408" y="531">H-2D
</text>
</a>
<a target="_top" xlink:href="../../ctl_search?results=Search;protein=p24;inrange=47-58;hla=B*5802"><text x="76" y="517">B*5802
</text>
</a>
<a target="_top" xlink:href="../../ctl_search?results=Search;protein=p24;inrange=70-78;hla=B40"><text x="236" y="517">B40
</text>
</a>
<a target="_top" xlink:href="../../ctl_search?results=Search;protein=p24;inrange=93-101"><text x="420" y="517">human
</text>
</a>
<a target="_top" xlink:href="../../ctl_search?results=Search;protein=p24;inrange=47-58;hla=B58"><text x="76" y="503">B58
</text>
</a>
<a target="_top" xlink:href="../../ctl_search?results=Search;protein=p24;inrange=70-83"><text x="256" y="503">human
</text>
</a>
<a target="_top" xlink:href="../../ctl_search?results=Search;protein=p24;inrange=94-104;hla=B13"><text x="424" y="503">B13
</text>
</a>
<a target="_top" xlink:href="../../ctl_search?results=Search;protein=p24;inrange=48-55;hla=B*8101"><text x="64" y="489">B*8101
</text>
</a>
<a target="_top" xlink:href="../../ctl_search?results=Search;protein=p24;inrange=71-80;hla=A*2501"><text x="248" y="489">A*2501
</text>
</a>
<a target="_top" xlink:href="../../ctl_search?results=Search;protein=p24;inrange=94-105"><text x="424" y="489">human
</text>
</a>
<a target="_top" xlink:href="../../ctl_search?results=Search;protein=p24;inrange=48-55;hla=B7"><text x="64" y="475">B7
</text>
</a>
<a target="_top" xlink:href="../../ctl_search?results=Search;protein=p24;inrange=71-80;hla=A25"><text x="248" y="475">A25
</text>
</a>
<a target="_top" xlink:href="../../ctl_search?results=Search;protein=p24;inrange=48-56;hla=B*0702"><text x="68" y="461">B*0702
</text>
</a>
<a target="_top" xlink:href="../../ctl_search?results=Search;protein=p24;inrange=71-80;hla=B*5301"><text x="248" y="461">B*5301
</text>
</a>
<a target="_top" xlink:href="../../ctl_search?results=Search;protein=p24;inrange=48-56;hla=B*3910"><text x="68" y="447">B*3910
</text>
</a>
<a target="_top" xlink:href="../../ctl_search?results=Search;protein=p24;inrange=71-80;hla=B*5801"><text x="248" y="447">B*5801
</text>
</a>
<a target="_top" xlink:href="../../ctl_search?results=Search;protein=p24;inrange=48-56;hla=B*4201"><text x="68" y="433">B*4201
</text>
</a>
<a target="_top" xlink:href="../../ctl_search?results=Search;protein=p24;inrange=71-80;hla=B53"><text x="248" y="433">B53
</text>
</a>
<a target="_top" xlink:href="../../ctl_search?results=Search;protein=p24;inrange=48-56;hla=B*4202"><text x="68" y="419">B*4202
</text>
</a>
<a target="_top" xlink:href="../../ctl_search?results=Search;protein=p24;inrange=71-80;hla=B58"><text x="248" y="419">B58
</text>
</a>
<a target="_top" xlink:href="../../ctl_search?results=Search;protein=p24;inrange=48-56;hla=B*5301"><text x="68" y="405">B*5301
</text>
</a>
<a target="_top" xlink:href="../../ctl_search?results=Search;protein=p24;inrange=72-80;hla=B57"><text x="252" y="405">B57
</text>
</a>
<a target="_top" xlink:href="../../ctl_search?results=Search;protein=p24;inrange=48-56;hla=B*5801"><text x="68" y="391">B*5801
</text>
</a>
<a target="_top" xlink:href="../../ctl_search?results=Search;protein=p24;inrange=75-83;hla=B40"><text x="276" y="391">B40
</text>
</a>
<a target="_top" xlink:href="../../ctl_search?results=Search;protein=p24;inrange=48-56;hla=B*8101"><text x="68" y="377">B*8101
</text>
</a>
<a target="_top" xlink:href="../../ctl_search?results=Search;protein=p24;inrange=76-84"><text x="284" y="377">human
</text>
</a>
<a target="_top" xlink:href="../../ctl_search?results=Search;protein=p24;inrange=48-56;hla=B14"><text x="68" y="363">B14
</text>
</a>
<a target="_top" xlink:href="../../ctl_search?results=Search;protein=p24;inrange=77-85"><text x="292" y="363">human
</text>
</a>
<a target="_top" xlink:href="../../ctl_search?results=Search;protein=p24;inrange=48-56;hla=B39"><text x="68" y="349">B39
</text>
</a>
<a target="_top" xlink:href="../../ctl_search?results=Search;protein=p24;inrange=77-86"><text x="296" y="349">human
</text>
</a>
<a target="_top" xlink:href="../../ctl_search?results=Search;protein=p24;inrange=48-56;hla=B42"><text x="68" y="335">B42
</text>
</a>
<a target="_top" xlink:href="../../ctl_search?results=Search;protein=p24;inrange=77-87"><text x="300" y="335">human
</text>
</a>
<a target="_top" xlink:href="../../ctl_search?results=Search;protein=p24;inrange=48-56;hla=B53"><text x="68" y="321">B53
</text>
</a>
<a target="_top" xlink:href="../../ctl_search?results=Search;protein=p24;inrange=84-92;hla=B7"><text x="348" y="321">B7
</text>
</a>
<a target="_top" xlink:href="../../ctl_search?results=Search;protein=p24;inrange=48-56;hla=B7"><text x="68" y="307">B7
</text>
</a>
<a target="_top" xlink:href="../../ctl_search?results=Search;protein=p24;inrange=84-92;hla=B7 supertype"><text x="348" y="307">B7 supertype
</text>
</a>
<a target="_top" xlink:href="../../ctl_search?results=Search;protein=p24;inrange=48-56;hla=B81"><text x="68" y="293">B81
</text>
</a>
<a target="_top" xlink:href="../../ctl_search?results=Search;protein=p24;inrange=86-94"><text x="364" y="293">human
</text>
</a>
<a target="_top" xlink:href="../../ctl_search?results=Search;protein=p24;inrange=48-56;hla=Cw*0802"><text x="68" y="279">Cw*0802
</text>
</a>
<a target="_top" xlink:href="../../ctl_search?results=Search;protein=p24;inrange=48-56;hla=Cw8"><text x="68" y="265">Cw8
</text>
</a>
<a target="_top" xlink:href="../../ctl_search?results=Search;protein=p24;inrange=48-57;hla=B14"><text x="72" y="251">B14
</text>
</a>
<a target="_top" xlink:href="../../ctl_search?results=Search;protein=p24;inrange=48-57;hla=B7"><text x="72" y="237">B7
</text>
</a>
<a target="_top" xlink:href="../../ctl_search?results=Search;protein=p24;inrange=48-59;hla=B58"><text x="80" y="223">B58
</text>
</a>
<a target="_top" xlink:href="../../ctl_search?results=Search;protein=p24;inrange=49-57;hla=B14"><text x="72" y="209">B14
</text>
</a>
<a target="_top" xlink:href="../../ctl_search?results=Search;protein=p24;inrange=49-57;hla=Cw7"><text x="72" y="195">Cw7
</text>
</a>
<a target="_top" xlink:href="../../ctl_search?results=Search;protein=p24;inrange=49-57;hla=Cw8"><text x="72" y="181">Cw8
</text>
</a>
<a target="_top" xlink:href="../../ctl_search?results=Search;protein=p24;inrange=49-59;hla=B14"><text x="80" y="167">B14
</text>
</a>
<a target="_top" xlink:href="../../ctl_search?results=Search;protein=p24;inrange=51-59;hla=B*1402"><text x="84" y="153">B*1402
</text>
</a>
<a target="_top" xlink:href="../../ctl_search?results=Search;protein=p24;inrange=51-59;hla=B14"><text x="84" y="139">B14
</text>
</a>
<a target="_top" xlink:href="../../ctl_search?results=Search;protein=p24;inrange=51-59;hla=Cw8"><text x="84" y="125">Cw8
</text>
</a>
<a target="_top" xlink:href="../../ctl_search?results=Search;protein=p24;inrange=51-60;hla=A2"><text x="88" y="111">A2
</text>
</a>
<a target="_top" xlink:href="../../ctl_search?results=Search;protein=p24;inrange=51-60;hla=B14"><text x="88" y="97">B14
</text>
</a>
<a target="_top" xlink:href="../../ctl_search?results=Search;protein=p24;inrange=52-60"><text x="92" y="83">human
</text>
</a>
<a target="_top" xlink:href="../../ctl_search?results=Search;protein=p24;inrange=53-66"><text x="120" y="69">human
</text>
</a>
<a target="_top" xlink:href="../../ctl_search?results=Search;protein=p24;inrange=54-62"><text x="108" y="55">human
</text>
</a>
<a target="_top" xlink:href="../../ctl_search?results=Search;protein=p24;inrange=56-64"><text x="124" y="41">human
</text>
</a>
<a target="_top" xlink:href="../../ctl_search?results=Search;protein=p24;inrange=59-72"><text x="168" y="27">human
</text>
</a>
</g>
</svg>
