<?xml version="1.0" encoding="UTF-8" standalone="yes"?>
<!DOCTYPE svg PUBLIC "-//W3C//DTD SVG 1.0//EN" "http://www.w3.org/TR/2001/REC-SVG-20010904/DTD/svg10.dtd">
<svg height="295" id="ctl/p2p7p1p6-ctl-02.svg" width="481" xmlns="http://www.w3.org/2000/svg" xmlns:svg="http://www.w3.org/2000/svg" xmlns:xlink="http://www.w3.org/1999/xlink"><title id="title">ctl/p2p7p1p6-ctl-02
</title><style type="text/css"><![CDATA[.mono {
    font-size: 14px;
    font-family:  BitstreamVeraSansMono, Monaco, Courier, monospace;
}
.tics {
    stroke: black;
    stroke-width: .5;
    font-family: serif;
    font-size: 10px;
    text-anchor: middle;
}
.vertlines {
    stroke: black;
    stroke-width: .5;
}
.arrows {
    stroke: black;
    stroke-width: .5;
}
.label {
    font-family: serif;
    font-size: 11px;
    text-anchor: middle;
}
.name {
    font-family: serif;
    font-size: 12px;
    text-anchor: end;
}
]]>
</style>
<defs >
<marker id="arrowhead-end" markerHeight="12" markerUnits="strokeWidth" markerWidth="12" orient="auto" refX="24" refY="15" viewBox="0, 0, 30, 30">
<path d="M 0 0 L 30 15 L 0 30 z" />
</marker>
<marker id="arrowhead-start" markerHeight="12" markerUnits="strokeWidth" markerWidth="12" orient="auto" refX="6" refY="15" viewBox="0, 0, 30, 30">
<path d="M 30 0 L 0 15 L 30 30 z" />
</marker>
</defs>
<rect fill="oldlace" height="295" rx="5" width="481" x="0" y="0" />
<g class="mono" id="rule">
<a target="_top" xlink:href="../../ctl_search?results=Search;protein=p2p7p1p6;spans=51"><text x="48" y="266">W
</text>
</a>
<a target="_top" xlink:href="../../ctl_search?results=Search;protein=p2p7p1p6;spans=52"><text x="56" y="266">K
</text>
</a>
<a target="_top" xlink:href="../../ctl_search?results=Search;protein=p2p7p1p6;spans=53"><text x="64" y="266">C
</text>
</a>
<a target="_top" xlink:href="../../ctl_search?results=Search;protein=p2p7p1p6;spans=54"><text x="72" y="266">G
</text>
</a>
<a target="_top" xlink:href="../../ctl_search?results=Search;protein=p2p7p1p6;spans=55"><text x="80" y="266">K
</text>
</a>
<a target="_top" xlink:href="../../ctl_search?results=Search;protein=p2p7p1p6;spans=56"><text x="88" y="266">E
</text>
</a>
<a target="_top" xlink:href="../../ctl_search?results=Search;protein=p2p7p1p6;spans=57"><text x="96" y="266">G
</text>
</a>
<a target="_top" xlink:href="../../ctl_search?results=Search;protein=p2p7p1p6;spans=58"><text x="104" y="266">H
</text>
</a>
<a target="_top" xlink:href="../../ctl_search?results=Search;protein=p2p7p1p6;spans=59"><text x="112" y="266">Q
</text>
</a>
<a target="_top" xlink:href="../../ctl_search?results=Search;protein=p2p7p1p6;spans=60"><text x="120" y="266">M
</text>
</a>
<a target="_top" xlink:href="../../ctl_search?results=Search;protein=p2p7p1p6;spans=61"><text x="128" y="266">K
</text>
</a>
<a target="_top" xlink:href="../../ctl_search?results=Search;protein=p2p7p1p6;spans=62"><text x="136" y="266">D
</text>
</a>
<a target="_top" xlink:href="../../ctl_search?results=Search;protein=p2p7p1p6;spans=63"><text x="144" y="266">C
</text>
</a>
<a target="_top" xlink:href="../../ctl_search?results=Search;protein=p2p7p1p6;spans=64"><text x="152" y="266">T
</text>
</a>
<a target="_top" xlink:href="../../ctl_search?results=Search;protein=p2p7p1p6;spans=65"><text x="160" y="266">E
</text>
</a>
<a target="_top" xlink:href="../../ctl_search?results=Search;protein=p2p7p1p6;spans=66"><text x="168" y="266">R
</text>
</a>
<a target="_top" xlink:href="../../ctl_search?results=Search;protein=p2p7p1p6;spans=67"><text x="176" y="266">Q
</text>
</a>
<a target="_top" xlink:href="../../ctl_search?results=Search;protein=p2p7p1p6;spans=68"><text x="184" y="266">A
</text>
</a>
<a target="_top" xlink:href="../../ctl_search?results=Search;protein=p2p7p1p6;spans=69"><text x="192" y="266">N
</text>
</a>
<a target="_top" xlink:href="../../ctl_search?results=Search;protein=p2p7p1p6;spans=70"><text x="200" y="266">F
</text>
</a>
<a target="_top" xlink:href="../../ctl_search?results=Search;protein=p2p7p1p6;spans=71"><text x="208" y="266">L
</text>
</a>
<a target="_top" xlink:href="../../ctl_search?results=Search;protein=p2p7p1p6;spans=72"><text x="216" y="266">G
</text>
</a>
<a target="_top" xlink:href="../../ctl_search?results=Search;protein=p2p7p1p6;spans=73"><text x="224" y="266">K
</text>
</a>
<a target="_top" xlink:href="../../ctl_search?results=Search;protein=p2p7p1p6;spans=74"><text x="232" y="266">I
</text>
</a>
<a target="_top" xlink:href="../../ctl_search?results=Search;protein=p2p7p1p6;spans=75"><text x="240" y="266">W
</text>
</a>
<a target="_top" xlink:href="../../ctl_search?results=Search;protein=p2p7p1p6;spans=76"><text x="248" y="266">P
</text>
</a>
<a target="_top" xlink:href="../../ctl_search?results=Search;protein=p2p7p1p6;spans=77"><text x="256" y="266">S
</text>
</a>
<a target="_top" xlink:href="../../ctl_search?results=Search;protein=p2p7p1p6;spans=78"><text x="264" y="266">Y
</text>
</a>
<a target="_top" xlink:href="../../ctl_search?results=Search;protein=p2p7p1p6;spans=79"><text x="272" y="266">K
</text>
</a>
<a target="_top" xlink:href="../../ctl_search?results=Search;protein=p2p7p1p6;spans=80"><text x="280" y="266">G
</text>
</a>
<a target="_top" xlink:href="../../ctl_search?results=Search;protein=p2p7p1p6;spans=81"><text x="288" y="266">R
</text>
</a>
<a target="_top" xlink:href="../../ctl_search?results=Search;protein=p2p7p1p6;spans=82"><text x="296" y="266">P
</text>
</a>
<a target="_top" xlink:href="../../ctl_search?results=Search;protein=p2p7p1p6;spans=83"><text x="304" y="266">G
</text>
</a>
<a target="_top" xlink:href="../../ctl_search?results=Search;protein=p2p7p1p6;spans=84"><text x="312" y="266">N
</text>
</a>
<a target="_top" xlink:href="../../ctl_search?results=Search;protein=p2p7p1p6;spans=85"><text x="320" y="266">F
</text>
</a>
<a target="_top" xlink:href="../../ctl_search?results=Search;protein=p2p7p1p6;spans=86"><text x="328" y="266">L
</text>
</a>
<a target="_top" xlink:href="../../ctl_search?results=Search;protein=p2p7p1p6;spans=87"><text x="336" y="266">Q
</text>
</a>
<a target="_top" xlink:href="../../ctl_search?results=Search;protein=p2p7p1p6;spans=88"><text x="344" y="266">S
</text>
</a>
<a target="_top" xlink:href="../../ctl_search?results=Search;protein=p2p7p1p6;spans=89"><text x="352" y="266">R
</text>
</a>
<a target="_top" xlink:href="../../ctl_search?results=Search;protein=p2p7p1p6;spans=90"><text x="360" y="266">P
</text>
</a>
<a target="_top" xlink:href="../../ctl_search?results=Search;protein=p2p7p1p6;spans=91"><text x="368" y="266">E
</text>
</a>
<a target="_top" xlink:href="../../ctl_search?results=Search;protein=p2p7p1p6;spans=92"><text x="376" y="266">P
</text>
</a>
<a target="_top" xlink:href="../../ctl_search?results=Search;protein=p2p7p1p6;spans=93"><text x="384" y="266">T
</text>
</a>
<a target="_top" xlink:href="../../ctl_search?results=Search;protein=p2p7p1p6;spans=94"><text x="392" y="266">A
</text>
</a>
<a target="_top" xlink:href="../../ctl_search?results=Search;protein=p2p7p1p6;spans=95"><text x="400" y="266">P
</text>
</a>
<a target="_top" xlink:href="../../ctl_search?results=Search;protein=p2p7p1p6;spans=96"><text x="408" y="266">P
</text>
</a>
<a target="_top" xlink:href="../../ctl_search?results=Search;protein=p2p7p1p6;spans=97"><text x="416" y="266">E
</text>
</a>
<a target="_top" xlink:href="../../ctl_search?results=Search;protein=p2p7p1p6;spans=98"><text x="424" y="266">E
</text>
</a>
<a target="_top" xlink:href="../../ctl_search?results=Search;protein=p2p7p1p6;spans=99"><text x="432" y="266">S
</text>
</a>
<a target="_top" xlink:href="../../ctl_search?results=Search;protein=p2p7p1p6;spans=100"><text x="440" y="266">F
</text>
</a>
</g>
<g class="tics" id="tics">
<line x1="124" x2="124" y1="267" y2="271" /><text stroke-width="0" x="124" y="280">60
</text>
<line x1="204" x2="204" y1="267" y2="271" /><text stroke-width="0" x="204" y="280">70
</text>
<line x1="284" x2="284" y1="267" y2="271" /><text stroke-width="0" x="284" y="280">80
</text>
<line x1="364" x2="364" y1="267" y2="271" /><text stroke-width="0" x="364" y="280">90
</text>
<line x1="444" x2="444" y1="267" y2="271" /><text stroke-width="0" x="444" y="280">100
</text>
</g>
<g class="vertlines" id="vertlines">
<line x1="56" x2="56" y1="252" y2="193.2" />
<line x1="64" x2="64" y1="252" y2="207.2" />
<line x1="104" x2="104" y1="252" y2="179.2" />
<line x1="136" x2="136" y1="252" y2="193.2" />
<line x1="144" x2="144" y1="252" y2="221.2" />
<line x1="152" x2="152" y1="252" y2="165.2" />
<line x1="160" x2="160" y1="252" y2="151.2" />
<line x1="168" x2="168" y1="252" y2="109.2" />
<line x1="200" x2="200" y1="252" y2="53.2" />
<line x1="216" x2="216" y1="252" y2="165.2" />
<line x1="224" x2="224" y1="252" y2="39.2" />
<line x1="240" x2="240" y1="252" y2="25.2" />
<line x1="248" x2="248" y1="252" y2="151.2" />
<line x1="264" x2="264" y1="252" y2="95.2" />
<line x1="280" x2="280" y1="252" y2="53.2" />
<line x1="296" x2="296" y1="252" y2="39.2" />
<line x1="304" x2="304" y1="252" y2="235.2" />
<line x1="320" x2="320" y1="252" y2="221.2" />
<line x1="328" x2="328" y1="252" y2="25.2" />
<line x1="352" x2="352" y1="252" y2="207.2" />
<line x1="368" x2="368" y1="252" y2="165.2" />
<line x1="400" x2="400" y1="252" y2="221.2" />
<line x1="416" x2="416" y1="252" y2="151.2" />
<line x1="424" x2="424" y1="252" y2="207.2" />
<line x1="448" x2="448" y1="252" y2="179.2" />
</g>
<g class="arrows" id="arrows">
<line marker-end="url(#arrowhead-end)" x1="40" x2="56" y1="238" y2="238" />
<line marker-end="url(#arrowhead-end)" marker-start="url(#arrowhead-start)" x1="136" x2="224" y1="238" y2="238" />
<line marker-end="url(#arrowhead-end)" marker-start="url(#arrowhead-start)" x1="304" x2="424" y1="238" y2="238" />
<line marker-end="url(#arrowhead-end)" x1="40" x2="56" y1="224" y2="224" />
<line marker-end="url(#arrowhead-end)" marker-start="url(#arrowhead-start)" x1="144" x2="216" y1="224" y2="224" />
<line marker-end="url(#arrowhead-end)" marker-start="url(#arrowhead-start)" x1="320" x2="400" y1="224" y2="224" />
<line marker-end="url(#arrowhead-end)" x1="40" x2="64" y1="210" y2="210" />
<line marker-end="url(#arrowhead-end)" marker-start="url(#arrowhead-start)" x1="152" x2="216" y1="210" y2="210" />
<line marker-end="url(#arrowhead-end)" marker-start="url(#arrowhead-start)" x1="352" x2="424" y1="210" y2="210" />
<line marker-end="url(#arrowhead-end)" marker-start="url(#arrowhead-start)" x1="56" x2="136" y1="196" y2="196" />
<line marker-end="url(#arrowhead-end)" marker-start="url(#arrowhead-start)" x1="200" x2="264" y1="196" y2="196" />
<line marker-end="url(#arrowhead-end)" marker-start="url(#arrowhead-start)" x1="368" x2="448" y1="196" y2="196" />
<line marker-end="url(#arrowhead-end)" marker-start="url(#arrowhead-start)" x1="104" x2="200" y1="182" y2="182" />
<line marker-end="url(#arrowhead-end)" marker-start="url(#arrowhead-start)" x1="368" x2="448" y1="182" y2="182" />
<line marker-end="url(#arrowhead-end)" marker-start="url(#arrowhead-start)" x1="152" x2="216" y1="168" y2="168" />
<line marker-start="url(#arrowhead-start)" x1="368" x2="456" y1="168" y2="168" />
<line marker-end="url(#arrowhead-end)" marker-start="url(#arrowhead-start)" x1="160" x2="248" y1="154" y2="154" />
<line marker-start="url(#arrowhead-start)" x1="416" x2="456" y1="154" y2="154" />
<line marker-end="url(#arrowhead-end)" marker-start="url(#arrowhead-start)" x1="168" x2="240" y1="140" y2="140" />
<line marker-end="url(#arrowhead-end)" marker-start="url(#arrowhead-start)" x1="168" x2="240" y1="126" y2="126" />
<line marker-end="url(#arrowhead-end)" marker-start="url(#arrowhead-start)" x1="168" x2="240" y1="112" y2="112" />
<line marker-end="url(#arrowhead-end)" marker-start="url(#arrowhead-start)" x1="200" x2="264" y1="98" y2="98" />
<line marker-end="url(#arrowhead-end)" marker-start="url(#arrowhead-start)" x1="200" x2="280" y1="84" y2="84" />
<line marker-end="url(#arrowhead-end)" marker-start="url(#arrowhead-start)" x1="200" x2="280" y1="70" y2="70" />
<line marker-end="url(#arrowhead-end)" marker-start="url(#arrowhead-start)" x1="200" x2="280" y1="56" y2="56" />
<line marker-end="url(#arrowhead-end)" marker-start="url(#arrowhead-start)" x1="224" x2="296" y1="42" y2="42" />
<line marker-end="url(#arrowhead-end)" marker-start="url(#arrowhead-start)" x1="240" x2="328" y1="28" y2="28" />
</g>
<g class="label" id="label">
<a target="_top" xlink:href="../../ctl_search?results=Search;protein=p2p7p1p6;inrange=42-51;hla=B57"><text x="48" y="237">B57
</text>
</a>
<a target="_top" xlink:href="../../ctl_search?results=Search;protein=p2p7p1p6;inrange=62-72"><text x="180" y="237">human
</text>
</a>
<a target="_top" xlink:href="../../ctl_search?results=Search;protein=p2p7p1p6;inrange=83-97;hla=A2"><text x="364" y="237">A2
</text>
</a>
<a target="_top" xlink:href="../../ctl_search?results=Search;protein=p2p7p1p6;inrange=43-51"><text x="48" y="223">human
</text>
</a>
<a target="_top" xlink:href="../../ctl_search?results=Search;protein=p2p7p1p6;inrange=63-71;hla=B61"><text x="180" y="223">B61
</text>
</a>
<a target="_top" xlink:href="../../ctl_search?results=Search;protein=p2p7p1p6;inrange=85-94;hla=A2"><text x="360" y="223">A2
</text>
</a>
<a target="_top" xlink:href="../../ctl_search?results=Search;protein=p2p7p1p6;inrange=43-52;hla=A11"><text x="52" y="209">A11
</text>
</a>
<a target="_top" xlink:href="../../ctl_search?results=Search;protein=p2p7p1p6;inrange=64-71;hla=B*4002"><text x="184" y="209">B*4002
</text>
</a>
<a target="_top" xlink:href="../../ctl_search?results=Search;protein=p2p7p1p6;inrange=89-97"><text x="388" y="209">human
</text>
</a>
<a target="_top" xlink:href="../../ctl_search?results=Search;protein=p2p7p1p6;inrange=52-61;hla=A11"><text x="96" y="195">A11
</text>
</a>
<a target="_top" xlink:href="../../ctl_search?results=Search;protein=p2p7p1p6;inrange=70-77;hla=A*0201"><text x="232" y="195">A*0201
</text>
</a>
<a target="_top" xlink:href="../../ctl_search?results=Search;protein=p2p7p1p6;inrange=91-100;hla=B35"><text x="408" y="195">B35
</text>
</a>
<a target="_top" xlink:href="../../ctl_search?results=Search;protein=p2p7p1p6;inrange=58-69;hla=A2"><text x="152" y="181">A2
</text>
</a>
<a target="_top" xlink:href="../../ctl_search?results=Search;protein=p2p7p1p6;inrange=91-100;hla=B58"><text x="408" y="181">B58
</text>
</a>
<a target="_top" xlink:href="../../ctl_search?results=Search;protein=p2p7p1p6;inrange=64-71;hla=B40"><text x="184" y="167">B40
</text>
</a>
<a target="_top" xlink:href="../../ctl_search?results=Search;protein=p2p7p1p6;inrange=91-102;hla=B*5801"><text x="412" y="167">B*5801
</text>
</a>
<a target="_top" xlink:href="../../ctl_search?results=Search;protein=p2p7p1p6;inrange=65-75"><text x="204" y="153">human
</text>
</a>
<a target="_top" xlink:href="../../ctl_search?results=Search;protein=p2p7p1p6;inrange=97-107"><text x="436" y="153">human
</text>
</a>
<a target="_top" xlink:href="../../ctl_search?results=Search;protein=p2p7p1p6;inrange=66-74;hla=B*1302"><text x="204" y="139">B*1302
</text>
</a>
<a target="_top" xlink:href="../../ctl_search?results=Search;protein=p2p7p1p6;inrange=66-74;hla=B*4801"><text x="204" y="125">B*4801
</text>
</a>
<a target="_top" xlink:href="../../ctl_search?results=Search;protein=p2p7p1p6;inrange=66-74;hla=B13"><text x="204" y="111">B13
</text>
</a>
<a target="_top" xlink:href="../../ctl_search?results=Search;protein=p2p7p1p6;inrange=70-77;hla=A2"><text x="232" y="97">A2
</text>
</a>
<a target="_top" xlink:href="../../ctl_search?results=Search;protein=p2p7p1p6;inrange=70-79;hla=A*0201"><text x="240" y="83">A*0201
</text>
</a>
<a target="_top" xlink:href="../../ctl_search?results=Search;protein=p2p7p1p6;inrange=70-79;hla=A*0205"><text x="240" y="69">A*0205
</text>
</a>
<a target="_top" xlink:href="../../ctl_search?results=Search;protein=p2p7p1p6;inrange=70-79;hla=A2"><text x="240" y="55">A2
</text>
</a>
<a target="_top" xlink:href="../../ctl_search?results=Search;protein=p2p7p1p6;inrange=73-81;hla=A*3101"><text x="260" y="41">A*3101
</text>
</a>
<a target="_top" xlink:href="../../ctl_search?results=Search;protein=p2p7p1p6;inrange=75-85;hla=B35"><text x="284" y="27">B35
</text>
</a>
</g>
</svg>
