<?xml version="1.0" encoding="UTF-8" standalone="yes"?>
<!DOCTYPE svg PUBLIC "-//W3C//DTD SVG 1.0//EN" "http://www.w3.org/TR/2001/REC-SVG-20010904/DTD/svg10.dtd">
<svg height="267" id="ctl/Nef-ctl-01.svg" width="481" xmlns="http://www.w3.org/2000/svg" xmlns:svg="http://www.w3.org/2000/svg" xmlns:xlink="http://www.w3.org/1999/xlink"><title id="title">ctl/Nef-ctl-01
</title><style type="text/css"><![CDATA[.mono {
    font-size: 14px;
    font-family:  BitstreamVeraSansMono, Monaco, Courier, monospace;
}
.tics {
    stroke: black;
    stroke-width: .5;
    font-family: serif;
    font-size: 10px;
    text-anchor: middle;
}
.vertlines {
    stroke: black;
    stroke-width: .5;
}
.arrows {
    stroke: black;
    stroke-width: .5;
}
.label {
    font-family: serif;
    font-size: 11px;
    text-anchor: middle;
}
.name {
    font-family: serif;
    font-size: 12px;
    text-anchor: end;
}
]]>
</style>
<defs >
<marker id="arrowhead-end" markerHeight="12" markerUnits="strokeWidth" markerWidth="12" orient="auto" refX="24" refY="15" viewBox="0, 0, 30, 30">
<path d="M 0 0 L 30 15 L 0 30 z" />
</marker>
<marker id="arrowhead-start" markerHeight="12" markerUnits="strokeWidth" markerWidth="12" orient="auto" refX="6" refY="15" viewBox="0, 0, 30, 30">
<path d="M 30 0 L 0 15 L 30 30 z" />
</marker>
</defs>
<rect fill="oldlace" height="267" rx="5" width="481" x="0" y="0" />
<g class="mono" id="rule">
<a target="_top" xlink:href="../../ctl_search?results=Search;protein=Nef;spans=1"><text x="48" y="238">M
</text>
</a>
<a target="_top" xlink:href="../../ctl_search?results=Search;protein=Nef;spans=2"><text x="56" y="238">G
</text>
</a>
<a target="_top" xlink:href="../../ctl_search?results=Search;protein=Nef;spans=3"><text x="64" y="238">G
</text>
</a>
<a target="_top" xlink:href="../../ctl_search?results=Search;protein=Nef;spans=4"><text x="72" y="238">K
</text>
</a>
<a target="_top" xlink:href="../../ctl_search?results=Search;protein=Nef;spans=5"><text x="80" y="238">W
</text>
</a>
<a target="_top" xlink:href="../../ctl_search?results=Search;protein=Nef;spans=6"><text x="88" y="238">S
</text>
</a>
<a target="_top" xlink:href="../../ctl_search?results=Search;protein=Nef;spans=7"><text x="96" y="238">K
</text>
</a>
<a target="_top" xlink:href="../../ctl_search?results=Search;protein=Nef;spans=8"><text x="104" y="238">S
</text>
</a>
<a target="_top" xlink:href="../../ctl_search?results=Search;protein=Nef;spans=9"><text x="112" y="238">S
</text>
</a>
<a target="_top" xlink:href="../../ctl_search?results=Search;protein=Nef;spans=10"><text x="120" y="238">V
</text>
</a>
<a target="_top" xlink:href="../../ctl_search?results=Search;protein=Nef;spans=11"><text x="128" y="238">I
</text>
</a>
<a target="_top" xlink:href="../../ctl_search?results=Search;protein=Nef;spans=12"><text x="136" y="238">G
</text>
</a>
<a target="_top" xlink:href="../../ctl_search?results=Search;protein=Nef;spans=13"><text x="144" y="238">W
</text>
</a>
<a target="_top" xlink:href="../../ctl_search?results=Search;protein=Nef;spans=14"><text x="152" y="238">P
</text>
</a>
<a target="_top" xlink:href="../../ctl_search?results=Search;protein=Nef;spans=15"><text x="160" y="238">T
</text>
</a>
<a target="_top" xlink:href="../../ctl_search?results=Search;protein=Nef;spans=16"><text x="168" y="238">V
</text>
</a>
<a target="_top" xlink:href="../../ctl_search?results=Search;protein=Nef;spans=17"><text x="176" y="238">R
</text>
</a>
<a target="_top" xlink:href="../../ctl_search?results=Search;protein=Nef;spans=18"><text x="184" y="238">E
</text>
</a>
<a target="_top" xlink:href="../../ctl_search?results=Search;protein=Nef;spans=19"><text x="192" y="238">R
</text>
</a>
<a target="_top" xlink:href="../../ctl_search?results=Search;protein=Nef;spans=20"><text x="200" y="238">M
</text>
</a>
<a target="_top" xlink:href="../../ctl_search?results=Search;protein=Nef;spans=21"><text x="208" y="238">R
</text>
</a>
<a target="_top" xlink:href="../../ctl_search?results=Search;protein=Nef;spans=22"><text x="216" y="238">R
</text>
</a>
<a target="_top" xlink:href="../../ctl_search?results=Search;protein=Nef;spans=23"><text x="224" y="238">A
</text>
</a>
<a target="_top" xlink:href="../../ctl_search?results=Search;protein=Nef;spans=24"><text x="232" y="238">E
</text>
</a>
<a target="_top" xlink:href="../../ctl_search?results=Search;protein=Nef;spans=25"><text x="240" y="238">P
</text>
</a>
<a target="_top" xlink:href="../../ctl_search?results=Search;protein=Nef;spans=26"><text x="248" y="238">A
</text>
</a>
<a target="_top" xlink:href="../../ctl_search?results=Search;protein=Nef;spans=27"><text x="256" y="238">A
</text>
</a>
<a target="_top" xlink:href="../../ctl_search?results=Search;protein=Nef;spans=28"><text x="264" y="238">D
</text>
</a>
<a target="_top" xlink:href="../../ctl_search?results=Search;protein=Nef;spans=29"><text x="272" y="238">R
</text>
</a>
<a target="_top" xlink:href="../../ctl_search?results=Search;protein=Nef;spans=30"><text x="280" y="238">V
</text>
</a>
<a target="_top" xlink:href="../../ctl_search?results=Search;protein=Nef;spans=31"><text x="288" y="238">G
</text>
</a>
<a target="_top" xlink:href="../../ctl_search?results=Search;protein=Nef;spans=32"><text x="296" y="238">A
</text>
</a>
<a target="_top" xlink:href="../../ctl_search?results=Search;protein=Nef;spans=33"><text x="304" y="238">A
</text>
</a>
<a target="_top" xlink:href="../../ctl_search?results=Search;protein=Nef;spans=34"><text x="312" y="238">S
</text>
</a>
<a target="_top" xlink:href="../../ctl_search?results=Search;protein=Nef;spans=35"><text x="320" y="238">R
</text>
</a>
<a target="_top" xlink:href="../../ctl_search?results=Search;protein=Nef;spans=36"><text x="328" y="238">D
</text>
</a>
<a target="_top" xlink:href="../../ctl_search?results=Search;protein=Nef;spans=37"><text x="336" y="238">L
</text>
</a>
<a target="_top" xlink:href="../../ctl_search?results=Search;protein=Nef;spans=38"><text x="344" y="238">E
</text>
</a>
<a target="_top" xlink:href="../../ctl_search?results=Search;protein=Nef;spans=39"><text x="352" y="238">K
</text>
</a>
<a target="_top" xlink:href="../../ctl_search?results=Search;protein=Nef;spans=40"><text x="360" y="238">H
</text>
</a>
<a target="_top" xlink:href="../../ctl_search?results=Search;protein=Nef;spans=41"><text x="368" y="238">G
</text>
</a>
<a target="_top" xlink:href="../../ctl_search?results=Search;protein=Nef;spans=42"><text x="376" y="238">A
</text>
</a>
<a target="_top" xlink:href="../../ctl_search?results=Search;protein=Nef;spans=43"><text x="384" y="238">I
</text>
</a>
<a target="_top" xlink:href="../../ctl_search?results=Search;protein=Nef;spans=44"><text x="392" y="238">T
</text>
</a>
<a target="_top" xlink:href="../../ctl_search?results=Search;protein=Nef;spans=45"><text x="400" y="238">S
</text>
</a>
<a target="_top" xlink:href="../../ctl_search?results=Search;protein=Nef;spans=46"><text x="408" y="238">S
</text>
</a>
<a target="_top" xlink:href="../../ctl_search?results=Search;protein=Nef;spans=47"><text x="416" y="238">N
</text>
</a>
<a target="_top" xlink:href="../../ctl_search?results=Search;protein=Nef;spans=48"><text x="424" y="238">T
</text>
</a>
<a target="_top" xlink:href="../../ctl_search?results=Search;protein=Nef;spans=49"><text x="432" y="238">A
</text>
</a>
<a target="_top" xlink:href="../../ctl_search?results=Search;protein=Nef;spans=50"><text x="440" y="238">A
</text>
</a>
</g>
<g class="tics" id="tics">
<line x1="124" x2="124" y1="239" y2="243" /><text stroke-width="0" x="124" y="252">10
</text>
<line x1="204" x2="204" y1="239" y2="243" /><text stroke-width="0" x="204" y="252">20
</text>
<line x1="284" x2="284" y1="239" y2="243" /><text stroke-width="0" x="284" y="252">30
</text>
<line x1="364" x2="364" y1="239" y2="243" /><text stroke-width="0" x="364" y="252">40
</text>
<line x1="444" x2="444" y1="239" y2="243" /><text stroke-width="0" x="444" y="252">50
</text>
</g>
<g class="vertlines" id="vertlines">
<line x1="80" x2="80" y1="224" y2="207.2" />
<line x1="88" x2="88" y1="224" y2="179.2" />
<line x1="112" x2="112" y1="224" y2="165.2" />
<line x1="128" x2="128" y1="224" y2="151.2" />
<line x1="144" x2="144" y1="224" y2="123.2" />
<line x1="152" x2="152" y1="224" y2="207.2" />
<line x1="160" x2="160" y1="224" y2="81.2" />
<line x1="184" x2="184" y1="224" y2="67.2" />
<line x1="192" x2="192" y1="224" y2="39.2" />
<line x1="200" x2="200" y1="224" y2="25.2" />
<line x1="208" x2="208" y1="224" y2="123.2" />
<line x1="216" x2="216" y1="224" y2="207.2" />
<line x1="232" x2="232" y1="224" y2="81.2" />
<line x1="256" x2="256" y1="224" y2="67.2" />
<line x1="264" x2="264" y1="224" y2="39.2" />
<line x1="272" x2="272" y1="224" y2="25.2" />
<line x1="288" x2="288" y1="224" y2="207.2" />
<line x1="320" x2="320" y1="224" y2="165.2" />
<line x1="336" x2="336" y1="224" y2="123.2" />
<line x1="344" x2="344" y1="224" y2="179.2" />
<line x1="376" x2="376" y1="224" y2="109.2" />
<line x1="392" x2="392" y1="224" y2="165.2" />
<line x1="408" x2="408" y1="224" y2="123.2" />
<line x1="424" x2="424" y1="224" y2="193.2" />
<line x1="432" x2="432" y1="224" y2="179.2" />
<line x1="448" x2="448" y1="224" y2="109.2" />
</g>
<g class="arrows" id="arrows">
<line marker-end="url(#arrowhead-end)" marker-start="url(#arrowhead-start)" x1="80" x2="152" y1="210" y2="210" />
<line marker-end="url(#arrowhead-end)" marker-start="url(#arrowhead-start)" x1="216" x2="288" y1="210" y2="210" />
<line marker-end="url(#arrowhead-end)" marker-start="url(#arrowhead-start)" x1="376" x2="448" y1="210" y2="210" />
<line marker-end="url(#arrowhead-end)" marker-start="url(#arrowhead-start)" x1="88" x2="160" y1="196" y2="196" />
<line marker-end="url(#arrowhead-end)" marker-start="url(#arrowhead-start)" x1="272" x2="344" y1="196" y2="196" />
<line marker-start="url(#arrowhead-start)" x1="424" x2="456" y1="196" y2="196" />
<line marker-end="url(#arrowhead-end)" marker-start="url(#arrowhead-start)" x1="88" x2="200" y1="182" y2="182" />
<line marker-end="url(#arrowhead-end)" marker-start="url(#arrowhead-start)" x1="272" x2="344" y1="182" y2="182" />
<line marker-start="url(#arrowhead-start)" x1="432" x2="456" y1="182" y2="182" />
<line marker-end="url(#arrowhead-end)" marker-start="url(#arrowhead-start)" x1="112" x2="184" y1="168" y2="168" />
<line marker-end="url(#arrowhead-end)" marker-start="url(#arrowhead-start)" x1="320" x2="392" y1="168" y2="168" />
<line marker-end="url(#arrowhead-end)" marker-start="url(#arrowhead-start)" x1="128" x2="208" y1="154" y2="154" />
<line marker-end="url(#arrowhead-end)" marker-start="url(#arrowhead-start)" x1="336" x2="408" y1="154" y2="154" />
<line marker-end="url(#arrowhead-end)" marker-start="url(#arrowhead-start)" x1="144" x2="208" y1="140" y2="140" />
<line marker-end="url(#arrowhead-end)" marker-start="url(#arrowhead-start)" x1="336" x2="408" y1="140" y2="140" />
<line marker-end="url(#arrowhead-end)" marker-start="url(#arrowhead-start)" x1="144" x2="208" y1="126" y2="126" />
<line marker-end="url(#arrowhead-end)" marker-start="url(#arrowhead-start)" x1="336" x2="408" y1="126" y2="126" />
<line marker-end="url(#arrowhead-end)" marker-start="url(#arrowhead-start)" x1="160" x2="232" y1="112" y2="112" />
<line marker-end="url(#arrowhead-end)" marker-start="url(#arrowhead-start)" x1="376" x2="448" y1="112" y2="112" />
<line marker-end="url(#arrowhead-end)" marker-start="url(#arrowhead-start)" x1="160" x2="232" y1="98" y2="98" />
<line marker-end="url(#arrowhead-end)" marker-start="url(#arrowhead-start)" x1="160" x2="232" y1="84" y2="84" />
<line marker-end="url(#arrowhead-end)" marker-start="url(#arrowhead-start)" x1="184" x2="256" y1="70" y2="70" />
<line marker-end="url(#arrowhead-end)" marker-start="url(#arrowhead-start)" x1="192" x2="264" y1="56" y2="56" />
<line marker-end="url(#arrowhead-end)" marker-start="url(#arrowhead-start)" x1="192" x2="264" y1="42" y2="42" />
<line marker-end="url(#arrowhead-end)" marker-start="url(#arrowhead-start)" x1="200" x2="272" y1="28" y2="28" />
</g>
<g class="label" id="label">
<a target="_top" xlink:href="../../ctl_search?results=Search;protein=Nef;inrange=5-13;hla=A*2501"><text x="116" y="209">A*2501
</text>
</a>
<a target="_top" xlink:href="../../ctl_search?results=Search;protein=Nef;inrange=22-30"><text x="252" y="209">human
</text>
</a>
<a target="_top" xlink:href="../../ctl_search?results=Search;protein=Nef;inrange=42-50;hla=A*0201"><text x="412" y="209">A*0201
</text>
</a>
<a target="_top" xlink:href="../../ctl_search?results=Search;protein=Nef;inrange=6-14"><text x="124" y="195">human
</text>
</a>
<a target="_top" xlink:href="../../ctl_search?results=Search;protein=Nef;inrange=29-37;hla=A*0205"><text x="308" y="195">A*0205
</text>
</a>
<a target="_top" xlink:href="../../ctl_search?results=Search;protein=Nef;inrange=48-56;hla=H-2&lt;sup&gt;b&lt;/sup&gt;"><text x="440" y="195">H-2b
</text>
</a>
<a target="_top" xlink:href="../../ctl_search?results=Search;protein=Nef;inrange=6-19"><text x="144" y="181">human
</text>
</a>
<a target="_top" xlink:href="../../ctl_search?results=Search;protein=Nef;inrange=29-37;hla=A2"><text x="308" y="181">A2
</text>
</a>
<a target="_top" xlink:href="../../ctl_search?results=Search;protein=Nef;inrange=49-57"><text x="444" y="181">human
</text>
</a>
<a target="_top" xlink:href="../../ctl_search?results=Search;protein=Nef;inrange=9-17"><text x="148" y="167">human
</text>
</a>
<a target="_top" xlink:href="../../ctl_search?results=Search;protein=Nef;inrange=35-43"><text x="356" y="167">human
</text>
</a>
<a target="_top" xlink:href="../../ctl_search?results=Search;protein=Nef;inrange=11-20"><text x="168" y="153">human
</text>
</a>
<a target="_top" xlink:href="../../ctl_search?results=Search;protein=Nef;inrange=37-45;hla=B*4001"><text x="372" y="153">B*4001
</text>
</a>
<a target="_top" xlink:href="../../ctl_search?results=Search;protein=Nef;inrange=13-20;hla=B*0801"><text x="176" y="139">B*0801
</text>
</a>
<a target="_top" xlink:href="../../ctl_search?results=Search;protein=Nef;inrange=37-45;hla=B40"><text x="372" y="139">B40
</text>
</a>
<a target="_top" xlink:href="../../ctl_search?results=Search;protein=Nef;inrange=13-20;hla=B8"><text x="176" y="125">B8
</text>
</a>
<a target="_top" xlink:href="../../ctl_search?results=Search;protein=Nef;inrange=37-45;hla=B50"><text x="372" y="125">B50
</text>
</a>
<a target="_top" xlink:href="../../ctl_search?results=Search;protein=Nef;inrange=15-23;hla=B*0702"><text x="196" y="111">B*0702
</text>
</a>
<a target="_top" xlink:href="../../ctl_search?results=Search;protein=Nef;inrange=42-50;hla=A2"><text x="412" y="111">A2
</text>
</a>
<a target="_top" xlink:href="../../ctl_search?results=Search;protein=Nef;inrange=15-23;hla=B7"><text x="196" y="97">B7
</text>
</a>
<a target="_top" xlink:href="../../ctl_search?results=Search;protein=Nef;inrange=15-23;hla=B8"><text x="196" y="83">B8
</text>
</a>
<a target="_top" xlink:href="../../ctl_search?results=Search;protein=Nef;inrange=18-26"><text x="220" y="69">human
</text>
</a>
<a target="_top" xlink:href="../../ctl_search?results=Search;protein=Nef;inrange=19-27;hla=B15"><text x="228" y="55">B15
</text>
</a>
<a target="_top" xlink:href="../../ctl_search?results=Search;protein=Nef;inrange=19-27;hla=B62"><text x="228" y="41">B62
</text>
</a>
<a target="_top" xlink:href="../../ctl_search?results=Search;protein=Nef;inrange=20-28"><text x="236" y="27">human
</text>
</a>
</g>
</svg>
