<?xml version="1.0" encoding="UTF-8" standalone="yes"?>
<!DOCTYPE svg PUBLIC "-//W3C//DTD SVG 1.0//EN" "http://www.w3.org/TR/2001/REC-SVG-20010904/DTD/svg10.dtd">
<svg height="547" id="ctl/Nef-ctl-06.svg" width="481" xmlns="http://www.w3.org/2000/svg" xmlns:svg="http://www.w3.org/2000/svg" xmlns:xlink="http://www.w3.org/1999/xlink"><title id="title">ctl/Nef-ctl-06
</title><style type="text/css"><![CDATA[.mono {
    font-size: 14px;
    font-family:  BitstreamVeraSansMono, Monaco, Courier, monospace;
}
.tics {
    stroke: black;
    stroke-width: .5;
    font-family: serif;
    font-size: 10px;
    text-anchor: middle;
}
.vertlines {
    stroke: black;
    stroke-width: .5;
}
.arrows {
    stroke: black;
    stroke-width: .5;
}
.label {
    font-family: serif;
    font-size: 11px;
    text-anchor: middle;
}
.name {
    font-family: serif;
    font-size: 12px;
    text-anchor: end;
}
]]>
</style>
<defs >
<marker id="arrowhead-end" markerHeight="12" markerUnits="strokeWidth" markerWidth="12" orient="auto" refX="24" refY="15" viewBox="0, 0, 30, 30">
<path d="M 0 0 L 30 15 L 0 30 z" />
</marker>
<marker id="arrowhead-start" markerHeight="12" markerUnits="strokeWidth" markerWidth="12" orient="auto" refX="6" refY="15" viewBox="0, 0, 30, 30">
<path d="M 30 0 L 0 15 L 30 30 z" />
</marker>
</defs>
<rect fill="oldlace" height="547" rx="5" width="481" x="0" y="0" />
<g class="mono" id="rule">
<a target="_top" xlink:href="../../ctl_search?results=Search;protein=Nef;spans=151"><text x="48" y="518">D
</text>
</a>
<a target="_top" xlink:href="../../ctl_search?results=Search;protein=Nef;spans=152"><text x="56" y="518">K
</text>
</a>
<a target="_top" xlink:href="../../ctl_search?results=Search;protein=Nef;spans=153"><text x="64" y="518">I
</text>
</a>
<a target="_top" xlink:href="../../ctl_search?results=Search;protein=Nef;spans=154"><text x="72" y="518">E
</text>
</a>
<a target="_top" xlink:href="../../ctl_search?results=Search;protein=Nef;spans=155"><text x="80" y="518">E
</text>
</a>
<a target="_top" xlink:href="../../ctl_search?results=Search;protein=Nef;spans=156"><text x="88" y="518">A
</text>
</a>
<a target="_top" xlink:href="../../ctl_search?results=Search;protein=Nef;spans=157"><text x="96" y="518">N
</text>
</a>
<a target="_top" xlink:href="../../ctl_search?results=Search;protein=Nef;spans=158"><text x="104" y="518">K
</text>
</a>
<a target="_top" xlink:href="../../ctl_search?results=Search;protein=Nef;spans=159"><text x="112" y="518">G
</text>
</a>
<a target="_top" xlink:href="../../ctl_search?results=Search;protein=Nef;spans=160"><text x="120" y="518">E
</text>
</a>
<a target="_top" xlink:href="../../ctl_search?results=Search;protein=Nef;spans=161"><text x="128" y="518">N
</text>
</a>
<a target="_top" xlink:href="../../ctl_search?results=Search;protein=Nef;spans=162"><text x="136" y="518">T
</text>
</a>
<a target="_top" xlink:href="../../ctl_search?results=Search;protein=Nef;spans=163"><text x="144" y="518">S
</text>
</a>
<a target="_top" xlink:href="../../ctl_search?results=Search;protein=Nef;spans=164"><text x="152" y="518">L
</text>
</a>
<a target="_top" xlink:href="../../ctl_search?results=Search;protein=Nef;spans=165"><text x="160" y="518">L
</text>
</a>
<a target="_top" xlink:href="../../ctl_search?results=Search;protein=Nef;spans=166"><text x="168" y="518">H
</text>
</a>
<a target="_top" xlink:href="../../ctl_search?results=Search;protein=Nef;spans=167"><text x="176" y="518">P
</text>
</a>
<a target="_top" xlink:href="../../ctl_search?results=Search;protein=Nef;spans=168"><text x="184" y="518">V
</text>
</a>
<a target="_top" xlink:href="../../ctl_search?results=Search;protein=Nef;spans=169"><text x="192" y="518">S
</text>
</a>
<a target="_top" xlink:href="../../ctl_search?results=Search;protein=Nef;spans=170"><text x="200" y="518">L
</text>
</a>
<a target="_top" xlink:href="../../ctl_search?results=Search;protein=Nef;spans=171"><text x="208" y="518">H
</text>
</a>
<a target="_top" xlink:href="../../ctl_search?results=Search;protein=Nef;spans=172"><text x="216" y="518">G
</text>
</a>
<a target="_top" xlink:href="../../ctl_search?results=Search;protein=Nef;spans=173"><text x="224" y="518">M
</text>
</a>
<a target="_top" xlink:href="../../ctl_search?results=Search;protein=Nef;spans=174"><text x="232" y="518">D
</text>
</a>
<a target="_top" xlink:href="../../ctl_search?results=Search;protein=Nef;spans=175"><text x="240" y="518">D
</text>
</a>
<a target="_top" xlink:href="../../ctl_search?results=Search;protein=Nef;spans=176"><text x="248" y="518">P
</text>
</a>
<a target="_top" xlink:href="../../ctl_search?results=Search;protein=Nef;spans=177"><text x="256" y="518">E
</text>
</a>
<a target="_top" xlink:href="../../ctl_search?results=Search;protein=Nef;spans=178"><text x="264" y="518">R
</text>
</a>
<a target="_top" xlink:href="../../ctl_search?results=Search;protein=Nef;spans=179"><text x="272" y="518">E
</text>
</a>
<a target="_top" xlink:href="../../ctl_search?results=Search;protein=Nef;spans=180"><text x="280" y="518">V
</text>
</a>
<a target="_top" xlink:href="../../ctl_search?results=Search;protein=Nef;spans=181"><text x="288" y="518">L
</text>
</a>
<a target="_top" xlink:href="../../ctl_search?results=Search;protein=Nef;spans=182"><text x="296" y="518">E
</text>
</a>
<a target="_top" xlink:href="../../ctl_search?results=Search;protein=Nef;spans=183"><text x="304" y="518">W
</text>
</a>
<a target="_top" xlink:href="../../ctl_search?results=Search;protein=Nef;spans=184"><text x="312" y="518">R
</text>
</a>
<a target="_top" xlink:href="../../ctl_search?results=Search;protein=Nef;spans=185"><text x="320" y="518">F
</text>
</a>
<a target="_top" xlink:href="../../ctl_search?results=Search;protein=Nef;spans=186"><text x="328" y="518">D
</text>
</a>
<a target="_top" xlink:href="../../ctl_search?results=Search;protein=Nef;spans=187"><text x="336" y="518">S
</text>
</a>
<a target="_top" xlink:href="../../ctl_search?results=Search;protein=Nef;spans=188"><text x="344" y="518">R
</text>
</a>
<a target="_top" xlink:href="../../ctl_search?results=Search;protein=Nef;spans=189"><text x="352" y="518">L
</text>
</a>
<a target="_top" xlink:href="../../ctl_search?results=Search;protein=Nef;spans=190"><text x="360" y="518">A
</text>
</a>
<a target="_top" xlink:href="../../ctl_search?results=Search;protein=Nef;spans=191"><text x="368" y="518">F
</text>
</a>
<a target="_top" xlink:href="../../ctl_search?results=Search;protein=Nef;spans=192"><text x="376" y="518">H
</text>
</a>
<a target="_top" xlink:href="../../ctl_search?results=Search;protein=Nef;spans=193"><text x="384" y="518">H
</text>
</a>
<a target="_top" xlink:href="../../ctl_search?results=Search;protein=Nef;spans=194"><text x="392" y="518">V
</text>
</a>
<a target="_top" xlink:href="../../ctl_search?results=Search;protein=Nef;spans=195"><text x="400" y="518">A
</text>
</a>
<a target="_top" xlink:href="../../ctl_search?results=Search;protein=Nef;spans=196"><text x="408" y="518">R
</text>
</a>
<a target="_top" xlink:href="../../ctl_search?results=Search;protein=Nef;spans=197"><text x="416" y="518">E
</text>
</a>
<a target="_top" xlink:href="../../ctl_search?results=Search;protein=Nef;spans=198"><text x="424" y="518">L
</text>
</a>
<a target="_top" xlink:href="../../ctl_search?results=Search;protein=Nef;spans=199"><text x="432" y="518">H
</text>
</a>
<a target="_top" xlink:href="../../ctl_search?results=Search;protein=Nef;spans=200"><text x="440" y="518">P
</text>
</a>
</g>
<g class="tics" id="tics">
<line x1="124" x2="124" y1="519" y2="523" /><text stroke-width="0" x="124" y="532">160
</text>
<line x1="204" x2="204" y1="519" y2="523" /><text stroke-width="0" x="204" y="532">170
</text>
<line x1="284" x2="284" y1="519" y2="523" /><text stroke-width="0" x="284" y="532">180
</text>
<line x1="364" x2="364" y1="519" y2="523" /><text stroke-width="0" x="364" y="532">190
</text>
<line x1="444" x2="444" y1="519" y2="523" /><text stroke-width="0" x="444" y="532">200
</text>
</g>
<g class="vertlines" id="vertlines">
<line x1="96" x2="96" y1="504" y2="487.2" />
<line x1="168" x2="168" y1="504" y2="487.2" />
<line x1="224" x2="224" y1="504" y2="473.2" />
<line x1="240" x2="240" y1="504" y2="445.2" />
<line x1="256" x2="256" y1="504" y2="431.2" />
<line x1="264" x2="264" y1="504" y2="487.2" />
<line x1="280" x2="280" y1="504" y2="403.2" />
<line x1="288" x2="288" y1="504" y2="375.2" />
<line x1="296" x2="296" y1="504" y2="361.2" />
<line x1="304" x2="304" y1="504" y2="291.2" />
<line x1="312" x2="312" y1="504" y2="263.2" />
<line x1="320" x2="320" y1="504" y2="445.2" />
<line x1="328" x2="328" y1="504" y2="235.2" />
<line x1="344" x2="344" y1="504" y2="137.2" />
<line x1="352" x2="352" y1="504" y2="123.2" />
<line x1="360" x2="360" y1="504" y2="25.1999999999999" />
<line x1="376" x2="376" y1="504" y2="277.2" />
<line x1="384" x2="384" y1="504" y2="263.2" />
<line x1="392" x2="392" y1="504" y2="291.2" />
<line x1="400" x2="400" y1="504" y2="235.2" />
<line x1="416" x2="416" y1="504" y2="165.2" />
<line x1="432" x2="432" y1="504" y2="25.1999999999999" />
</g>
<g class="arrows" id="arrows">
<line marker-end="url(#arrowhead-end)" x1="40" x2="96" y1="490" y2="490" />
<line marker-end="url(#arrowhead-end)" marker-start="url(#arrowhead-start)" x1="168" x2="264" y1="490" y2="490" />
<line marker-end="url(#arrowhead-end)" marker-start="url(#arrowhead-start)" x1="328" x2="392" y1="490" y2="490" />
<line marker-end="url(#arrowhead-end)" marker-start="url(#arrowhead-start)" x1="224" x2="296" y1="476" y2="476" />
<line marker-end="url(#arrowhead-end)" marker-start="url(#arrowhead-start)" x1="360" x2="432" y1="476" y2="476" />
<line marker-end="url(#arrowhead-end)" marker-start="url(#arrowhead-start)" x1="240" x2="312" y1="462" y2="462" />
<line marker-start="url(#arrowhead-start)" x1="400" x2="456" y1="462" y2="462" />
<line marker-end="url(#arrowhead-end)" marker-start="url(#arrowhead-start)" x1="240" x2="320" y1="448" y2="448" />
<line marker-end="url(#arrowhead-end)" marker-start="url(#arrowhead-start)" x1="256" x2="328" y1="434" y2="434" />
<line marker-end="url(#arrowhead-end)" marker-start="url(#arrowhead-start)" x1="280" x2="360" y1="420" y2="420" />
<line marker-end="url(#arrowhead-end)" marker-start="url(#arrowhead-start)" x1="280" x2="360" y1="406" y2="406" />
<line marker-end="url(#arrowhead-end)" marker-start="url(#arrowhead-start)" x1="288" x2="360" y1="392" y2="392" />
<line marker-end="url(#arrowhead-end)" marker-start="url(#arrowhead-start)" x1="288" x2="360" y1="378" y2="378" />
<line marker-end="url(#arrowhead-end)" marker-start="url(#arrowhead-start)" x1="296" x2="360" y1="364" y2="364" />
<line marker-end="url(#arrowhead-end)" marker-start="url(#arrowhead-start)" x1="304" x2="376" y1="350" y2="350" />
<line marker-end="url(#arrowhead-end)" marker-start="url(#arrowhead-start)" x1="304" x2="376" y1="336" y2="336" />
<line marker-end="url(#arrowhead-end)" marker-start="url(#arrowhead-start)" x1="304" x2="376" y1="322" y2="322" />
<line marker-end="url(#arrowhead-end)" marker-start="url(#arrowhead-start)" x1="304" x2="384" y1="308" y2="308" />
<line marker-end="url(#arrowhead-end)" marker-start="url(#arrowhead-start)" x1="304" x2="392" y1="294" y2="294" />
<line marker-end="url(#arrowhead-end)" marker-start="url(#arrowhead-start)" x1="312" x2="376" y1="280" y2="280" />
<line marker-end="url(#arrowhead-end)" marker-start="url(#arrowhead-start)" x1="312" x2="384" y1="266" y2="266" />
<line marker-end="url(#arrowhead-end)" marker-start="url(#arrowhead-start)" x1="328" x2="400" y1="252" y2="252" />
<line marker-end="url(#arrowhead-end)" marker-start="url(#arrowhead-start)" x1="328" x2="400" y1="238" y2="238" />
<line marker-end="url(#arrowhead-end)" marker-start="url(#arrowhead-start)" x1="344" x2="416" y1="224" y2="224" />
<line marker-end="url(#arrowhead-end)" marker-start="url(#arrowhead-start)" x1="344" x2="416" y1="210" y2="210" />
<line marker-end="url(#arrowhead-end)" marker-start="url(#arrowhead-start)" x1="344" x2="416" y1="196" y2="196" />
<line marker-end="url(#arrowhead-end)" marker-start="url(#arrowhead-start)" x1="344" x2="416" y1="182" y2="182" />
<line marker-end="url(#arrowhead-end)" marker-start="url(#arrowhead-start)" x1="344" x2="416" y1="168" y2="168" />
<line marker-start="url(#arrowhead-start)" x1="344" x2="456" y1="154" y2="154" />
<line marker-start="url(#arrowhead-start)" x1="344" x2="456" y1="140" y2="140" />
<line marker-end="url(#arrowhead-end)" marker-start="url(#arrowhead-start)" x1="352" x2="432" y1="126" y2="126" />
<line marker-end="url(#arrowhead-end)" marker-start="url(#arrowhead-start)" x1="360" x2="432" y1="112" y2="112" />
<line marker-end="url(#arrowhead-end)" marker-start="url(#arrowhead-start)" x1="360" x2="432" y1="98" y2="98" />
<line marker-end="url(#arrowhead-end)" marker-start="url(#arrowhead-start)" x1="360" x2="432" y1="84" y2="84" />
<line marker-end="url(#arrowhead-end)" marker-start="url(#arrowhead-start)" x1="360" x2="432" y1="70" y2="70" />
<line marker-end="url(#arrowhead-end)" marker-start="url(#arrowhead-start)" x1="360" x2="432" y1="56" y2="56" />
<line marker-end="url(#arrowhead-end)" marker-start="url(#arrowhead-start)" x1="360" x2="432" y1="42" y2="42" />
<line marker-end="url(#arrowhead-end)" marker-start="url(#arrowhead-start)" x1="360" x2="432" y1="28" y2="28" />
</g>
<g class="label" id="label">
<a target="_top" xlink:href="../../ctl_search?results=Search;protein=Nef;inrange=146-156;hla=B*5401"><text x="68" y="489">B*5401
</text>
</a>
<a target="_top" xlink:href="../../ctl_search?results=Search;protein=Nef;inrange=166-177;hla=B35"><text x="216" y="489">B35
</text>
</a>
<a target="_top" xlink:href="../../ctl_search?results=Search;protein=Nef;inrange=186-193;hla=B35"><text x="360" y="489">B35
</text>
</a>
<a target="_top" xlink:href="../../ctl_search?results=Search;protein=Nef;inrange=173-181"><text x="260" y="475">human
</text>
</a>
<a target="_top" xlink:href="../../ctl_search?results=Search;protein=Nef;inrange=190-198;hla=A*0201"><text x="396" y="475">A*0201
</text>
</a>
<a target="_top" xlink:href="../../ctl_search?results=Search;protein=Nef;inrange=175-183"><text x="276" y="461">human
</text>
</a>
<a target="_top" xlink:href="../../ctl_search?results=Search;protein=Nef;inrange=195-202;hla=A1"><text x="428" y="461">A1
</text>
</a>
<a target="_top" xlink:href="../../ctl_search?results=Search;protein=Nef;inrange=175-184;hla=B7"><text x="280" y="447">B7
</text>
</a>
<a target="_top" xlink:href="../../ctl_search?results=Search;protein=Nef;inrange=177-185;hla=B27"><text x="292" y="433">B27
</text>
</a>
<a target="_top" xlink:href="../../ctl_search?results=Search;protein=Nef;inrange=180-189;hla=A*0201"><text x="320" y="419">A*0201
</text>
</a>
<a target="_top" xlink:href="../../ctl_search?results=Search;protein=Nef;inrange=180-189;hla=A2"><text x="320" y="405">A2
</text>
</a>
<a target="_top" xlink:href="../../ctl_search?results=Search;protein=Nef;inrange=181-189;hla=A*0201"><text x="324" y="391">A*0201
</text>
</a>
<a target="_top" xlink:href="../../ctl_search?results=Search;protein=Nef;inrange=181-189;hla=A2"><text x="324" y="377">A2
</text>
</a>
<a target="_top" xlink:href="../../ctl_search?results=Search;protein=Nef;inrange=182-189;hla=B8"><text x="328" y="363">B8
</text>
</a>
<a target="_top" xlink:href="../../ctl_search?results=Search;protein=Nef;inrange=183-191;hla=A*0123"><text x="340" y="349">A*0123
</text>
</a>
<a target="_top" xlink:href="../../ctl_search?results=Search;protein=Nef;inrange=183-191;hla=B*1503"><text x="340" y="335">B*1503
</text>
</a>
<a target="_top" xlink:href="../../ctl_search?results=Search;protein=Nef;inrange=183-191;hla=B15"><text x="340" y="321">B15
</text>
</a>
<a target="_top" xlink:href="../../ctl_search?results=Search;protein=Nef;inrange=183-192;hla=A1"><text x="344" y="307">A1
</text>
</a>
<a target="_top" xlink:href="../../ctl_search?results=Search;protein=Nef;inrange=183-193;hla=A1"><text x="348" y="293">A1
</text>
</a>
<a target="_top" xlink:href="../../ctl_search?results=Search;protein=Nef;inrange=184-191;hla=A1"><text x="344" y="279">A1
</text>
</a>
<a target="_top" xlink:href="../../ctl_search?results=Search;protein=Nef;inrange=184-192;hla=A*01"><text x="348" y="265">A*01
</text>
</a>
<a target="_top" xlink:href="../../ctl_search?results=Search;protein=Nef;inrange=186-194;hla=A24"><text x="364" y="251">A24
</text>
</a>
<a target="_top" xlink:href="../../ctl_search?results=Search;protein=Nef;inrange=186-194;hla=B51"><text x="364" y="237">B51
</text>
</a>
<a target="_top" xlink:href="../../ctl_search?results=Search;protein=Nef;inrange=188-196;hla=A*3101"><text x="380" y="223">A*3101
</text>
</a>
<a target="_top" xlink:href="../../ctl_search?results=Search;protein=Nef;inrange=188-196;hla=A*7401"><text x="380" y="209">A*7401
</text>
</a>
<a target="_top" xlink:href="../../ctl_search?results=Search;protein=Nef;inrange=188-196;hla=A11"><text x="380" y="195">A11
</text>
</a>
<a target="_top" xlink:href="../../ctl_search?results=Search;protein=Nef;inrange=188-196;hla=A3"><text x="380" y="181">A3
</text>
</a>
<a target="_top" xlink:href="../../ctl_search?results=Search;protein=Nef;inrange=188-196;hla=B52"><text x="380" y="167">B52
</text>
</a>
<a target="_top" xlink:href="../../ctl_search?results=Search;protein=Nef;inrange=188-201;hla=B35"><text x="400" y="153">B35
</text>
</a>
<a target="_top" xlink:href="../../ctl_search?results=Search;protein=Nef;inrange=188-201;hla=Cw4"><text x="400" y="139">Cw4
</text>
</a>
<a target="_top" xlink:href="../../ctl_search?results=Search;protein=Nef;inrange=189-198"><text x="392" y="125">human
</text>
</a>
<a target="_top" xlink:href="../../ctl_search?results=Search;protein=Nef;inrange=190-198;hla=A*0202"><text x="396" y="111">A*0202
</text>
</a>
<a target="_top" xlink:href="../../ctl_search?results=Search;protein=Nef;inrange=190-198;hla=A2"><text x="396" y="97">A2
</text>
</a>
<a target="_top" xlink:href="../../ctl_search?results=Search;protein=Nef;inrange=190-198;hla=A24"><text x="396" y="83">A24
</text>
</a>
<a target="_top" xlink:href="../../ctl_search?results=Search;protein=Nef;inrange=190-198;hla=A3"><text x="396" y="69">A3
</text>
</a>
<a target="_top" xlink:href="../../ctl_search?results=Search;protein=Nef;inrange=190-198;hla=B*0801"><text x="396" y="55">B*0801
</text>
</a>
<a target="_top" xlink:href="../../ctl_search?results=Search;protein=Nef;inrange=190-198;hla=B51"><text x="396" y="41">B51
</text>
</a>
<a target="_top" xlink:href="../../ctl_search?results=Search;protein=Nef;inrange=190-198;hla=B52"><text x="396" y="27">B52
</text>
</a>
</g>
</svg>
