<?xml version="1.0" encoding="UTF-8" standalone="yes"?>
<!DOCTYPE svg PUBLIC "-//W3C//DTD SVG 1.0//EN" "http://www.w3.org/TR/2001/REC-SVG-20010904/DTD/svg10.dtd">
<svg height="365" id="ctl/RT-ctl-07.svg" width="481" xmlns="http://www.w3.org/2000/svg" xmlns:svg="http://www.w3.org/2000/svg" xmlns:xlink="http://www.w3.org/1999/xlink"><title id="title">ctl/RT-ctl-07
</title><style type="text/css"><![CDATA[.mono {
    font-size: 14px;
    font-family:  BitstreamVeraSansMono, Monaco, Courier, monospace;
}
.tics {
    stroke: black;
    stroke-width: .5;
    font-family: serif;
    font-size: 10px;
    text-anchor: middle;
}
.vertlines {
    stroke: black;
    stroke-width: .5;
}
.arrows {
    stroke: black;
    stroke-width: .5;
}
.label {
    font-family: serif;
    font-size: 11px;
    text-anchor: middle;
}
.name {
    font-family: serif;
    font-size: 12px;
    text-anchor: end;
}
]]>
</style>
<defs >
<marker id="arrowhead-end" markerHeight="12" markerUnits="strokeWidth" markerWidth="12" orient="auto" refX="24" refY="15" viewBox="0, 0, 30, 30">
<path d="M 0 0 L 30 15 L 0 30 z" />
</marker>
<marker id="arrowhead-start" markerHeight="12" markerUnits="strokeWidth" markerWidth="12" orient="auto" refX="6" refY="15" viewBox="0, 0, 30, 30">
<path d="M 30 0 L 0 15 L 30 30 z" />
</marker>
</defs>
<rect fill="oldlace" height="365" rx="5" width="481" x="0" y="0" />
<g class="mono" id="rule">
<a target="_top" xlink:href="../../ctl_search?results=Search;protein=RT;spans=301"><text x="48" y="336">L
</text>
</a>
<a target="_top" xlink:href="../../ctl_search?results=Search;protein=RT;spans=302"><text x="56" y="336">E
</text>
</a>
<a target="_top" xlink:href="../../ctl_search?results=Search;protein=RT;spans=303"><text x="64" y="336">L
</text>
</a>
<a target="_top" xlink:href="../../ctl_search?results=Search;protein=RT;spans=304"><text x="72" y="336">A
</text>
</a>
<a target="_top" xlink:href="../../ctl_search?results=Search;protein=RT;spans=305"><text x="80" y="336">E
</text>
</a>
<a target="_top" xlink:href="../../ctl_search?results=Search;protein=RT;spans=306"><text x="88" y="336">N
</text>
</a>
<a target="_top" xlink:href="../../ctl_search?results=Search;protein=RT;spans=307"><text x="96" y="336">R
</text>
</a>
<a target="_top" xlink:href="../../ctl_search?results=Search;protein=RT;spans=308"><text x="104" y="336">E
</text>
</a>
<a target="_top" xlink:href="../../ctl_search?results=Search;protein=RT;spans=309"><text x="112" y="336">I
</text>
</a>
<a target="_top" xlink:href="../../ctl_search?results=Search;protein=RT;spans=310"><text x="120" y="336">L
</text>
</a>
<a target="_top" xlink:href="../../ctl_search?results=Search;protein=RT;spans=311"><text x="128" y="336">K
</text>
</a>
<a target="_top" xlink:href="../../ctl_search?results=Search;protein=RT;spans=312"><text x="136" y="336">E
</text>
</a>
<a target="_top" xlink:href="../../ctl_search?results=Search;protein=RT;spans=313"><text x="144" y="336">P
</text>
</a>
<a target="_top" xlink:href="../../ctl_search?results=Search;protein=RT;spans=314"><text x="152" y="336">V
</text>
</a>
<a target="_top" xlink:href="../../ctl_search?results=Search;protein=RT;spans=315"><text x="160" y="336">H
</text>
</a>
<a target="_top" xlink:href="../../ctl_search?results=Search;protein=RT;spans=316"><text x="168" y="336">G
</text>
</a>
<a target="_top" xlink:href="../../ctl_search?results=Search;protein=RT;spans=317"><text x="176" y="336">V
</text>
</a>
<a target="_top" xlink:href="../../ctl_search?results=Search;protein=RT;spans=318"><text x="184" y="336">Y
</text>
</a>
<a target="_top" xlink:href="../../ctl_search?results=Search;protein=RT;spans=319"><text x="192" y="336">Y
</text>
</a>
<a target="_top" xlink:href="../../ctl_search?results=Search;protein=RT;spans=320"><text x="200" y="336">D
</text>
</a>
<a target="_top" xlink:href="../../ctl_search?results=Search;protein=RT;spans=321"><text x="208" y="336">P
</text>
</a>
<a target="_top" xlink:href="../../ctl_search?results=Search;protein=RT;spans=322"><text x="216" y="336">S
</text>
</a>
<a target="_top" xlink:href="../../ctl_search?results=Search;protein=RT;spans=323"><text x="224" y="336">K
</text>
</a>
<a target="_top" xlink:href="../../ctl_search?results=Search;protein=RT;spans=324"><text x="232" y="336">D
</text>
</a>
<a target="_top" xlink:href="../../ctl_search?results=Search;protein=RT;spans=325"><text x="240" y="336">L
</text>
</a>
<a target="_top" xlink:href="../../ctl_search?results=Search;protein=RT;spans=326"><text x="248" y="336">I
</text>
</a>
<a target="_top" xlink:href="../../ctl_search?results=Search;protein=RT;spans=327"><text x="256" y="336">A
</text>
</a>
<a target="_top" xlink:href="../../ctl_search?results=Search;protein=RT;spans=328"><text x="264" y="336">E
</text>
</a>
<a target="_top" xlink:href="../../ctl_search?results=Search;protein=RT;spans=329"><text x="272" y="336">I
</text>
</a>
<a target="_top" xlink:href="../../ctl_search?results=Search;protein=RT;spans=330"><text x="280" y="336">Q
</text>
</a>
<a target="_top" xlink:href="../../ctl_search?results=Search;protein=RT;spans=331"><text x="288" y="336">K
</text>
</a>
<a target="_top" xlink:href="../../ctl_search?results=Search;protein=RT;spans=332"><text x="296" y="336">Q
</text>
</a>
<a target="_top" xlink:href="../../ctl_search?results=Search;protein=RT;spans=333"><text x="304" y="336">G
</text>
</a>
<a target="_top" xlink:href="../../ctl_search?results=Search;protein=RT;spans=334"><text x="312" y="336">Q
</text>
</a>
<a target="_top" xlink:href="../../ctl_search?results=Search;protein=RT;spans=335"><text x="320" y="336">G
</text>
</a>
<a target="_top" xlink:href="../../ctl_search?results=Search;protein=RT;spans=336"><text x="328" y="336">Q
</text>
</a>
<a target="_top" xlink:href="../../ctl_search?results=Search;protein=RT;spans=337"><text x="336" y="336">W
</text>
</a>
<a target="_top" xlink:href="../../ctl_search?results=Search;protein=RT;spans=338"><text x="344" y="336">T
</text>
</a>
<a target="_top" xlink:href="../../ctl_search?results=Search;protein=RT;spans=339"><text x="352" y="336">Y
</text>
</a>
<a target="_top" xlink:href="../../ctl_search?results=Search;protein=RT;spans=340"><text x="360" y="336">Q
</text>
</a>
<a target="_top" xlink:href="../../ctl_search?results=Search;protein=RT;spans=341"><text x="368" y="336">I
</text>
</a>
<a target="_top" xlink:href="../../ctl_search?results=Search;protein=RT;spans=342"><text x="376" y="336">Y
</text>
</a>
<a target="_top" xlink:href="../../ctl_search?results=Search;protein=RT;spans=343"><text x="384" y="336">Q
</text>
</a>
<a target="_top" xlink:href="../../ctl_search?results=Search;protein=RT;spans=344"><text x="392" y="336">E
</text>
</a>
<a target="_top" xlink:href="../../ctl_search?results=Search;protein=RT;spans=345"><text x="400" y="336">P
</text>
</a>
<a target="_top" xlink:href="../../ctl_search?results=Search;protein=RT;spans=346"><text x="408" y="336">F
</text>
</a>
<a target="_top" xlink:href="../../ctl_search?results=Search;protein=RT;spans=347"><text x="416" y="336">K
</text>
</a>
<a target="_top" xlink:href="../../ctl_search?results=Search;protein=RT;spans=348"><text x="424" y="336">N
</text>
</a>
<a target="_top" xlink:href="../../ctl_search?results=Search;protein=RT;spans=349"><text x="432" y="336">L
</text>
</a>
<a target="_top" xlink:href="../../ctl_search?results=Search;protein=RT;spans=350"><text x="440" y="336">K
</text>
</a>
</g>
<g class="tics" id="tics">
<line x1="124" x2="124" y1="337" y2="341" /><text stroke-width="0" x="124" y="350">310
</text>
<line x1="204" x2="204" y1="337" y2="341" /><text stroke-width="0" x="204" y="350">320
</text>
<line x1="284" x2="284" y1="337" y2="341" /><text stroke-width="0" x="284" y="350">330
</text>
<line x1="364" x2="364" y1="337" y2="341" /><text stroke-width="0" x="364" y="350">340
</text>
<line x1="444" x2="444" y1="337" y2="341" /><text stroke-width="0" x="444" y="350">350
</text>
</g>
<g class="vertlines" id="vertlines">
<line x1="56" x2="56" y1="322" y2="207.2" />
<line x1="72" x2="72" y1="322" y2="179.2" />
<line x1="104" x2="104" y1="322" y2="165.2" />
<line x1="112" x2="112" y1="322" y2="25.2" />
<line x1="120" x2="120" y1="322" y2="305.2" />
<line x1="128" x2="128" y1="322" y2="291.2" />
<line x1="144" x2="144" y1="322" y2="179.2" />
<line x1="176" x2="176" y1="322" y2="263.2" />
<line x1="184" x2="184" y1="322" y2="95.2" />
<line x1="192" x2="192" y1="322" y2="25.2" />
<line x1="200" x2="200" y1="322" y2="291.2" />
<line x1="248" x2="248" y1="322" y2="277.2" />
<line x1="256" x2="256" y1="322" y2="249.2" />
<line x1="288" x2="288" y1="322" y2="305.2" />
<line x1="304" x2="304" y1="322" y2="291.2" />
<line x1="344" x2="344" y1="322" y2="277.2" />
<line x1="360" x2="360" y1="322" y2="249.2" />
<line x1="368" x2="368" y1="322" y2="193.2" />
<line x1="376" x2="376" y1="322" y2="291.2" />
<line x1="408" x2="408" y1="322" y2="179.2" />
<line x1="416" x2="416" y1="322" y2="277.2" />
<line x1="440" x2="440" y1="322" y2="221.2" />
<line x1="448" x2="448" y1="322" y2="193.2" />
</g>
<g class="arrows" id="arrows">
<line marker-end="url(#arrowhead-end)" x1="40" x2="56" y1="308" y2="308" />
<line marker-end="url(#arrowhead-end)" marker-start="url(#arrowhead-start)" x1="120" x2="192" y1="308" y2="308" />
<line marker-end="url(#arrowhead-end)" marker-start="url(#arrowhead-start)" x1="288" x2="360" y1="308" y2="308" />
<line marker-end="url(#arrowhead-end)" x1="40" x2="56" y1="294" y2="294" />
<line marker-end="url(#arrowhead-end)" marker-start="url(#arrowhead-start)" x1="128" x2="200" y1="294" y2="294" />
<line marker-end="url(#arrowhead-end)" marker-start="url(#arrowhead-start)" x1="304" x2="376" y1="294" y2="294" />
<line marker-end="url(#arrowhead-end)" x1="40" x2="56" y1="280" y2="280" />
<line marker-end="url(#arrowhead-end)" marker-start="url(#arrowhead-start)" x1="176" x2="248" y1="280" y2="280" />
<line marker-end="url(#arrowhead-end)" marker-start="url(#arrowhead-start)" x1="344" x2="416" y1="280" y2="280" />
<line marker-end="url(#arrowhead-end)" x1="40" x2="56" y1="266" y2="266" />
<line marker-end="url(#arrowhead-end)" marker-start="url(#arrowhead-start)" x1="176" x2="256" y1="266" y2="266" />
<line marker-end="url(#arrowhead-end)" marker-start="url(#arrowhead-start)" x1="360" x2="448" y1="266" y2="266" />
<line marker-end="url(#arrowhead-end)" x1="40" x2="56" y1="252" y2="252" />
<line marker-end="url(#arrowhead-end)" marker-start="url(#arrowhead-start)" x1="184" x2="256" y1="252" y2="252" />
<line marker-start="url(#arrowhead-start)" x1="360" x2="456" y1="252" y2="252" />
<line marker-end="url(#arrowhead-end)" x1="40" x2="56" y1="238" y2="238" />
<line marker-end="url(#arrowhead-end)" marker-start="url(#arrowhead-start)" x1="368" x2="440" y1="238" y2="238" />
<line marker-end="url(#arrowhead-end)" x1="40" x2="56" y1="224" y2="224" />
<line marker-end="url(#arrowhead-end)" marker-start="url(#arrowhead-start)" x1="368" x2="440" y1="224" y2="224" />
<line marker-end="url(#arrowhead-end)" x1="40" x2="56" y1="210" y2="210" />
<line marker-end="url(#arrowhead-end)" marker-start="url(#arrowhead-start)" x1="368" x2="448" y1="210" y2="210" />
<line marker-end="url(#arrowhead-end)" x1="40" x2="72" y1="196" y2="196" />
<line marker-end="url(#arrowhead-end)" marker-start="url(#arrowhead-start)" x1="368" x2="448" y1="196" y2="196" />
<line marker-end="url(#arrowhead-end)" marker-start="url(#arrowhead-start)" x1="72" x2="144" y1="182" y2="182" />
<line marker-start="url(#arrowhead-start)" x1="408" x2="456" y1="182" y2="182" />
<line marker-end="url(#arrowhead-end)" marker-start="url(#arrowhead-start)" x1="104" x2="184" y1="168" y2="168" />
<line marker-end="url(#arrowhead-end)" marker-start="url(#arrowhead-start)" x1="112" x2="184" y1="154" y2="154" />
<line marker-end="url(#arrowhead-end)" marker-start="url(#arrowhead-start)" x1="112" x2="184" y1="140" y2="140" />
<line marker-end="url(#arrowhead-end)" marker-start="url(#arrowhead-start)" x1="112" x2="184" y1="126" y2="126" />
<line marker-end="url(#arrowhead-end)" marker-start="url(#arrowhead-start)" x1="112" x2="184" y1="112" y2="112" />
<line marker-end="url(#arrowhead-end)" marker-start="url(#arrowhead-start)" x1="112" x2="184" y1="98" y2="98" />
<line marker-end="url(#arrowhead-end)" marker-start="url(#arrowhead-start)" x1="112" x2="192" y1="84" y2="84" />
<line marker-end="url(#arrowhead-end)" marker-start="url(#arrowhead-start)" x1="112" x2="192" y1="70" y2="70" />
<line marker-end="url(#arrowhead-end)" marker-start="url(#arrowhead-start)" x1="112" x2="192" y1="56" y2="56" />
<line marker-end="url(#arrowhead-end)" marker-start="url(#arrowhead-start)" x1="112" x2="192" y1="42" y2="42" />
<line marker-end="url(#arrowhead-end)" marker-start="url(#arrowhead-start)" x1="112" x2="192" y1="28" y2="28" />
</g>
<g class="label" id="label">
<a target="_top" xlink:href="../../ctl_search?results=Search;protein=RT;inrange=293-301;hla=B*0702"><text x="48" y="307">B*0702
</text>
</a>
<a target="_top" xlink:href="../../ctl_search?results=Search;protein=RT;inrange=310-318"><text x="156" y="307">human
</text>
</a>
<a target="_top" xlink:href="../../ctl_search?results=Search;protein=RT;inrange=331-339"><text x="324" y="307">human
</text>
</a>
<a target="_top" xlink:href="../../ctl_search?results=Search;protein=RT;inrange=293-301;hla=B*1501"><text x="48" y="293">B*1501
</text>
</a>
<a target="_top" xlink:href="../../ctl_search?results=Search;protein=RT;inrange=311-319"><text x="164" y="293">human
</text>
</a>
<a target="_top" xlink:href="../../ctl_search?results=Search;protein=RT;inrange=333-341;hla=B13"><text x="340" y="293">B13
</text>
</a>
<a target="_top" xlink:href="../../ctl_search?results=Search;protein=RT;inrange=293-301;hla=B*3501"><text x="48" y="279">B*3501
</text>
</a>
<a target="_top" xlink:href="../../ctl_search?results=Search;protein=RT;inrange=317-325;hla=A24"><text x="212" y="279">A24
</text>
</a>
<a target="_top" xlink:href="../../ctl_search?results=Search;protein=RT;inrange=338-346"><text x="380" y="279">human
</text>
</a>
<a target="_top" xlink:href="../../ctl_search?results=Search;protein=RT;inrange=293-301;hla=B*5101"><text x="48" y="265">B*5101
</text>
</a>
<a target="_top" xlink:href="../../ctl_search?results=Search;protein=RT;inrange=317-326;hla=H-2K&lt;sup&gt;d&lt;/sup&gt;"><text x="216" y="265">H-2Kd
</text>
</a>
<a target="_top" xlink:href="../../ctl_search?results=Search;protein=RT;inrange=340-350;hla=A11"><text x="404" y="265">A11
</text>
</a>
<a target="_top" xlink:href="../../ctl_search?results=Search;protein=RT;inrange=293-301;hla=B*5301"><text x="48" y="251">B*5301
</text>
</a>
<a target="_top" xlink:href="../../ctl_search?results=Search;protein=RT;inrange=318-326;hla=H-2D"><text x="220" y="251">H-2D
</text>
</a>
<a target="_top" xlink:href="../../ctl_search?results=Search;protein=RT;inrange=340-352;hla=A11"><text x="408" y="251">A11
</text>
</a>
<a target="_top" xlink:href="../../ctl_search?results=Search;protein=RT;inrange=293-301;hla=B35"><text x="48" y="237">B35
</text>
</a>
<a target="_top" xlink:href="../../ctl_search?results=Search;protein=RT;inrange=341-349;hla=A*2301"><text x="404" y="237">A*2301
</text>
</a>
<a target="_top" xlink:href="../../ctl_search?results=Search;protein=RT;inrange=293-301;hla=B51"><text x="48" y="223">B51
</text>
</a>
<a target="_top" xlink:href="../../ctl_search?results=Search;protein=RT;inrange=341-349;hla=A*2402"><text x="404" y="223">A*2402
</text>
</a>
<a target="_top" xlink:href="../../ctl_search?results=Search;protein=RT;inrange=293-301;hla=B7"><text x="48" y="209">B7
</text>
</a>
<a target="_top" xlink:href="../../ctl_search?results=Search;protein=RT;inrange=341-350;hla=A*1101"><text x="408" y="209">A*1101
</text>
</a>
<a target="_top" xlink:href="../../ctl_search?results=Search;protein=RT;inrange=295-303"><text x="56" y="195">human
</text>
</a>
<a target="_top" xlink:href="../../ctl_search?results=Search;protein=RT;inrange=341-350;hla=A11"><text x="408" y="195">A11
</text>
</a>
<a target="_top" xlink:href="../../ctl_search?results=Search;protein=RT;inrange=304-312"><text x="108" y="181">human
</text>
</a>
<a target="_top" xlink:href="../../ctl_search?results=Search;protein=RT;inrange=346-354"><text x="432" y="181">human
</text>
</a>
<a target="_top" xlink:href="../../ctl_search?results=Search;protein=RT;inrange=308-317;hla=A*0201"><text x="144" y="167">A*0201
</text>
</a>
<a target="_top" xlink:href="../../ctl_search?results=Search;protein=RT;inrange=309-317;hla=A*0201"><text x="148" y="153">A*0201
</text>
</a>
<a target="_top" xlink:href="../../ctl_search?results=Search;protein=RT;inrange=309-317;hla=A*0202"><text x="148" y="139">A*0202
</text>
</a>
<a target="_top" xlink:href="../../ctl_search?results=Search;protein=RT;inrange=309-317;hla=A*0205"><text x="148" y="125">A*0205
</text>
</a>
<a target="_top" xlink:href="../../ctl_search?results=Search;protein=RT;inrange=309-317;hla=A2"><text x="148" y="111">A2
</text>
</a>
<a target="_top" xlink:href="../../ctl_search?results=Search;protein=RT;inrange=309-317;hla=A2 supertype"><text x="148" y="97">A2 supertype
</text>
</a>
<a target="_top" xlink:href="../../ctl_search?results=Search;protein=RT;inrange=309-318;hla=A2"><text x="152" y="83">A2
</text>
</a>
<a target="_top" xlink:href="../../ctl_search?results=Search;protein=RT;inrange=309-318;hla=B*1501"><text x="152" y="69">B*1501
</text>
</a>
<a target="_top" xlink:href="../../ctl_search?results=Search;protein=RT;inrange=309-318;hla=B15"><text x="152" y="55">B15
</text>
</a>
<a target="_top" xlink:href="../../ctl_search?results=Search;protein=RT;inrange=309-318;hla=B62"><text x="152" y="41">B62
</text>
</a>
<a target="_top" xlink:href="../../ctl_search?results=Search;protein=RT;inrange=309-318;hla=Cw*1202"><text x="152" y="27">Cw*1202
</text>
</a>
</g>
</svg>
