<?xml version="1.0" encoding="UTF-8" standalone="yes"?>
<!DOCTYPE svg PUBLIC "-//W3C//DTD SVG 1.0//EN" "http://www.w3.org/TR/2001/REC-SVG-20010904/DTD/svg10.dtd">
<svg height="281" id="ctl/RT-ctl-10.svg" width="481" xmlns="http://www.w3.org/2000/svg" xmlns:svg="http://www.w3.org/2000/svg" xmlns:xlink="http://www.w3.org/1999/xlink"><title id="title">ctl/RT-ctl-10
</title><style type="text/css"><![CDATA[.mono {
    font-size: 14px;
    font-family:  BitstreamVeraSansMono, Monaco, Courier, monospace;
}
.tics {
    stroke: black;
    stroke-width: .5;
    font-family: serif;
    font-size: 10px;
    text-anchor: middle;
}
.vertlines {
    stroke: black;
    stroke-width: .5;
}
.arrows {
    stroke: black;
    stroke-width: .5;
}
.label {
    font-family: serif;
    font-size: 11px;
    text-anchor: middle;
}
.name {
    font-family: serif;
    font-size: 12px;
    text-anchor: end;
}
]]>
</style>
<defs >
<marker id="arrowhead-end" markerHeight="12" markerUnits="strokeWidth" markerWidth="12" orient="auto" refX="24" refY="15" viewBox="0, 0, 30, 30">
<path d="M 0 0 L 30 15 L 0 30 z" />
</marker>
<marker id="arrowhead-start" markerHeight="12" markerUnits="strokeWidth" markerWidth="12" orient="auto" refX="6" refY="15" viewBox="0, 0, 30, 30">
<path d="M 30 0 L 0 15 L 30 30 z" />
</marker>
</defs>
<rect fill="oldlace" height="281" rx="5" width="481" x="0" y="0" />
<g class="mono" id="rule">
<a target="_top" xlink:href="../../ctl_search?results=Search;protein=RT;spans=451"><text x="48" y="252">K
</text>
</a>
<a target="_top" xlink:href="../../ctl_search?results=Search;protein=RT;spans=452"><text x="56" y="252">L
</text>
</a>
<a target="_top" xlink:href="../../ctl_search?results=Search;protein=RT;spans=453"><text x="64" y="252">G
</text>
</a>
<a target="_top" xlink:href="../../ctl_search?results=Search;protein=RT;spans=454"><text x="72" y="252">K
</text>
</a>
<a target="_top" xlink:href="../../ctl_search?results=Search;protein=RT;spans=455"><text x="80" y="252">A
</text>
</a>
<a target="_top" xlink:href="../../ctl_search?results=Search;protein=RT;spans=456"><text x="88" y="252">G
</text>
</a>
<a target="_top" xlink:href="../../ctl_search?results=Search;protein=RT;spans=457"><text x="96" y="252">Y
</text>
</a>
<a target="_top" xlink:href="../../ctl_search?results=Search;protein=RT;spans=458"><text x="104" y="252">V
</text>
</a>
<a target="_top" xlink:href="../../ctl_search?results=Search;protein=RT;spans=459"><text x="112" y="252">T
</text>
</a>
<a target="_top" xlink:href="../../ctl_search?results=Search;protein=RT;spans=460"><text x="120" y="252">N
</text>
</a>
<a target="_top" xlink:href="../../ctl_search?results=Search;protein=RT;spans=461"><text x="128" y="252">R
</text>
</a>
<a target="_top" xlink:href="../../ctl_search?results=Search;protein=RT;spans=462"><text x="136" y="252">G
</text>
</a>
<a target="_top" xlink:href="../../ctl_search?results=Search;protein=RT;spans=463"><text x="144" y="252">R
</text>
</a>
<a target="_top" xlink:href="../../ctl_search?results=Search;protein=RT;spans=464"><text x="152" y="252">Q
</text>
</a>
<a target="_top" xlink:href="../../ctl_search?results=Search;protein=RT;spans=465"><text x="160" y="252">K
</text>
</a>
<a target="_top" xlink:href="../../ctl_search?results=Search;protein=RT;spans=466"><text x="168" y="252">V
</text>
</a>
<a target="_top" xlink:href="../../ctl_search?results=Search;protein=RT;spans=467"><text x="176" y="252">V
</text>
</a>
<a target="_top" xlink:href="../../ctl_search?results=Search;protein=RT;spans=468"><text x="184" y="252">T
</text>
</a>
<a target="_top" xlink:href="../../ctl_search?results=Search;protein=RT;spans=469"><text x="192" y="252">L
</text>
</a>
<a target="_top" xlink:href="../../ctl_search?results=Search;protein=RT;spans=470"><text x="200" y="252">T
</text>
</a>
<a target="_top" xlink:href="../../ctl_search?results=Search;protein=RT;spans=471"><text x="208" y="252">D
</text>
</a>
<a target="_top" xlink:href="../../ctl_search?results=Search;protein=RT;spans=472"><text x="216" y="252">T
</text>
</a>
<a target="_top" xlink:href="../../ctl_search?results=Search;protein=RT;spans=473"><text x="224" y="252">T
</text>
</a>
<a target="_top" xlink:href="../../ctl_search?results=Search;protein=RT;spans=474"><text x="232" y="252">N
</text>
</a>
<a target="_top" xlink:href="../../ctl_search?results=Search;protein=RT;spans=475"><text x="240" y="252">Q
</text>
</a>
<a target="_top" xlink:href="../../ctl_search?results=Search;protein=RT;spans=476"><text x="248" y="252">K
</text>
</a>
<a target="_top" xlink:href="../../ctl_search?results=Search;protein=RT;spans=477"><text x="256" y="252">T
</text>
</a>
<a target="_top" xlink:href="../../ctl_search?results=Search;protein=RT;spans=478"><text x="264" y="252">E
</text>
</a>
<a target="_top" xlink:href="../../ctl_search?results=Search;protein=RT;spans=479"><text x="272" y="252">L
</text>
</a>
<a target="_top" xlink:href="../../ctl_search?results=Search;protein=RT;spans=480"><text x="280" y="252">Q
</text>
</a>
<a target="_top" xlink:href="../../ctl_search?results=Search;protein=RT;spans=481"><text x="288" y="252">A
</text>
</a>
<a target="_top" xlink:href="../../ctl_search?results=Search;protein=RT;spans=482"><text x="296" y="252">I
</text>
</a>
<a target="_top" xlink:href="../../ctl_search?results=Search;protein=RT;spans=483"><text x="304" y="252">Y
</text>
</a>
<a target="_top" xlink:href="../../ctl_search?results=Search;protein=RT;spans=484"><text x="312" y="252">L
</text>
</a>
<a target="_top" xlink:href="../../ctl_search?results=Search;protein=RT;spans=485"><text x="320" y="252">A
</text>
</a>
<a target="_top" xlink:href="../../ctl_search?results=Search;protein=RT;spans=486"><text x="328" y="252">L
</text>
</a>
<a target="_top" xlink:href="../../ctl_search?results=Search;protein=RT;spans=487"><text x="336" y="252">Q
</text>
</a>
<a target="_top" xlink:href="../../ctl_search?results=Search;protein=RT;spans=488"><text x="344" y="252">D
</text>
</a>
<a target="_top" xlink:href="../../ctl_search?results=Search;protein=RT;spans=489"><text x="352" y="252">S
</text>
</a>
<a target="_top" xlink:href="../../ctl_search?results=Search;protein=RT;spans=490"><text x="360" y="252">G
</text>
</a>
<a target="_top" xlink:href="../../ctl_search?results=Search;protein=RT;spans=491"><text x="368" y="252">L
</text>
</a>
<a target="_top" xlink:href="../../ctl_search?results=Search;protein=RT;spans=492"><text x="376" y="252">E
</text>
</a>
<a target="_top" xlink:href="../../ctl_search?results=Search;protein=RT;spans=493"><text x="384" y="252">V
</text>
</a>
<a target="_top" xlink:href="../../ctl_search?results=Search;protein=RT;spans=494"><text x="392" y="252">N
</text>
</a>
<a target="_top" xlink:href="../../ctl_search?results=Search;protein=RT;spans=495"><text x="400" y="252">I
</text>
</a>
<a target="_top" xlink:href="../../ctl_search?results=Search;protein=RT;spans=496"><text x="408" y="252">V
</text>
</a>
<a target="_top" xlink:href="../../ctl_search?results=Search;protein=RT;spans=497"><text x="416" y="252">T
</text>
</a>
<a target="_top" xlink:href="../../ctl_search?results=Search;protein=RT;spans=498"><text x="424" y="252">D
</text>
</a>
<a target="_top" xlink:href="../../ctl_search?results=Search;protein=RT;spans=499"><text x="432" y="252">S
</text>
</a>
<a target="_top" xlink:href="../../ctl_search?results=Search;protein=RT;spans=500"><text x="440" y="252">Q
</text>
</a>
</g>
<g class="tics" id="tics">
<line x1="124" x2="124" y1="253" y2="257" /><text stroke-width="0" x="124" y="266">460
</text>
<line x1="204" x2="204" y1="253" y2="257" /><text stroke-width="0" x="204" y="266">470
</text>
<line x1="284" x2="284" y1="253" y2="257" /><text stroke-width="0" x="284" y="266">480
</text>
<line x1="364" x2="364" y1="253" y2="257" /><text stroke-width="0" x="364" y="266">490
</text>
<line x1="444" x2="444" y1="253" y2="257" /><text stroke-width="0" x="444" y="266">500
</text>
</g>
<g class="vertlines" id="vertlines">
<line x1="48" x2="48" y1="238" y2="165.2" />
<line x1="104" x2="104" y1="238" y2="193.2" />
<line x1="120" x2="120" y1="238" y2="165.2" />
<line x1="128" x2="128" y1="238" y2="151.2" />
<line x1="184" x2="184" y1="238" y2="221.2" />
<line x1="192" x2="192" y1="238" y2="207.2" />
<line x1="200" x2="200" y1="238" y2="151.2" />
<line x1="256" x2="256" y1="238" y2="193.2" />
<line x1="264" x2="264" y1="238" y2="207.2" />
<line x1="272" x2="272" y1="238" y2="179.2" />
<line x1="312" x2="312" y1="238" y2="165.2" />
<line x1="320" x2="320" y1="238" y2="137.2" />
<line x1="336" x2="336" y1="238" y2="193.2" />
<line x1="344" x2="344" y1="238" y2="179.2" />
<line x1="352" x2="352" y1="238" y2="207.2" />
<line x1="360" x2="360" y1="238" y2="123.2" />
<line x1="368" x2="368" y1="238" y2="109.2" />
<line x1="376" x2="376" y1="238" y2="95.2" />
<line x1="384" x2="384" y1="238" y2="81.2" />
<line x1="392" x2="392" y1="238" y2="151.2" />
<line x1="400" x2="400" y1="238" y2="137.2" />
<line x1="408" x2="408" y1="238" y2="25.2" />
<line x1="424" x2="424" y1="238" y2="207.2" />
<line x1="432" x2="432" y1="238" y2="123.2" />
</g>
<g class="arrows" id="arrows">
<line marker-end="url(#arrowhead-end)" x1="40" x2="104" y1="224" y2="224" />
<line marker-end="url(#arrowhead-end)" marker-start="url(#arrowhead-start)" x1="184" x2="256" y1="224" y2="224" />
<line marker-end="url(#arrowhead-end)" marker-start="url(#arrowhead-start)" x1="320" x2="392" y1="224" y2="224" />
<line marker-end="url(#arrowhead-end)" x1="40" x2="104" y1="210" y2="210" />
<line marker-end="url(#arrowhead-end)" marker-start="url(#arrowhead-start)" x1="192" x2="264" y1="210" y2="210" />
<line marker-end="url(#arrowhead-end)" marker-start="url(#arrowhead-start)" x1="352" x2="424" y1="210" y2="210" />
<line marker-end="url(#arrowhead-end)" x1="40" x2="104" y1="196" y2="196" />
<line marker-end="url(#arrowhead-end)" marker-start="url(#arrowhead-start)" x1="256" x2="336" y1="196" y2="196" />
<line marker-start="url(#arrowhead-start)" x1="400" x2="456" y1="196" y2="196" />
<line marker-end="url(#arrowhead-end)" marker-start="url(#arrowhead-start)" x1="48" x2="120" y1="182" y2="182" />
<line marker-end="url(#arrowhead-end)" marker-start="url(#arrowhead-start)" x1="272" x2="344" y1="182" y2="182" />
<line marker-start="url(#arrowhead-start)" x1="408" x2="456" y1="182" y2="182" />
<line marker-end="url(#arrowhead-end)" marker-start="url(#arrowhead-start)" x1="48" x2="120" y1="168" y2="168" />
<line marker-end="url(#arrowhead-end)" marker-start="url(#arrowhead-start)" x1="312" x2="384" y1="168" y2="168" />
<line marker-end="url(#arrowhead-end)" marker-start="url(#arrowhead-start)" x1="128" x2="200" y1="154" y2="154" />
<line marker-end="url(#arrowhead-end)" marker-start="url(#arrowhead-start)" x1="320" x2="392" y1="154" y2="154" />
<line marker-end="url(#arrowhead-end)" marker-start="url(#arrowhead-start)" x1="320" x2="400" y1="140" y2="140" />
<line marker-end="url(#arrowhead-end)" marker-start="url(#arrowhead-start)" x1="360" x2="432" y1="126" y2="126" />
<line marker-start="url(#arrowhead-start)" x1="368" x2="456" y1="112" y2="112" />
<line marker-start="url(#arrowhead-start)" x1="376" x2="456" y1="98" y2="98" />
<line marker-start="url(#arrowhead-start)" x1="384" x2="456" y1="84" y2="84" />
<line marker-start="url(#arrowhead-start)" x1="408" x2="456" y1="70" y2="70" />
<line marker-start="url(#arrowhead-start)" x1="408" x2="456" y1="56" y2="56" />
<line marker-start="url(#arrowhead-start)" x1="408" x2="456" y1="42" y2="42" />
<line marker-start="url(#arrowhead-start)" x1="408" x2="456" y1="28" y2="28" />
</g>
<g class="label" id="label">
<a target="_top" xlink:href="../../ctl_search?results=Search;protein=RT;inrange=448-457;hla=A29"><text x="72" y="223">A29
</text>
</a>
<a target="_top" xlink:href="../../ctl_search?results=Search;protein=RT;inrange=468-476;hla=A*7401"><text x="220" y="223">A*7401
</text>
</a>
<a target="_top" xlink:href="../../ctl_search?results=Search;protein=RT;inrange=485-493;hla=A*0201"><text x="356" y="223">A*0201
</text>
</a>
<a target="_top" xlink:href="../../ctl_search?results=Search;protein=RT;inrange=449-457;hla=A*2601"><text x="72" y="209">A*2601
</text>
</a>
<a target="_top" xlink:href="../../ctl_search?results=Search;protein=RT;inrange=469-477"><text x="228" y="209">human
</text>
</a>
<a target="_top" xlink:href="../../ctl_search?results=Search;protein=RT;inrange=489-497"><text x="388" y="209">human
</text>
</a>
<a target="_top" xlink:href="../../ctl_search?results=Search;protein=RT;inrange=449-457;hla=A26"><text x="72" y="195">A26
</text>
</a>
<a target="_top" xlink:href="../../ctl_search?results=Search;protein=RT;inrange=477-486;hla=B*1801"><text x="296" y="195">B*1801
</text>
</a>
<a target="_top" xlink:href="../../ctl_search?results=Search;protein=RT;inrange=495-503;hla=Cw*0802"><text x="428" y="195">Cw*0802
</text>
</a>
<a target="_top" xlink:href="../../ctl_search?results=Search;protein=RT;inrange=451-459;hla=A*0201"><text x="84" y="181">A*0201
</text>
</a>
<a target="_top" xlink:href="../../ctl_search?results=Search;protein=RT;inrange=479-487"><text x="308" y="181">human
</text>
</a>
<a target="_top" xlink:href="../../ctl_search?results=Search;protein=RT;inrange=496-505;hla=B*1402"><text x="432" y="181">B*1402
</text>
</a>
<a target="_top" xlink:href="../../ctl_search?results=Search;protein=RT;inrange=451-459;hla=A2"><text x="84" y="167">A2
</text>
</a>
<a target="_top" xlink:href="../../ctl_search?results=Search;protein=RT;inrange=484-492"><text x="348" y="167">human
</text>
</a>
<a target="_top" xlink:href="../../ctl_search?results=Search;protein=RT;inrange=461-469"><text x="164" y="153">human
</text>
</a>
<a target="_top" xlink:href="../../ctl_search?results=Search;protein=RT;inrange=485-493;hla=A2"><text x="356" y="153">A2
</text>
</a>
<a target="_top" xlink:href="../../ctl_search?results=Search;protein=RT;inrange=485-494;hla=A2"><text x="360" y="139">A2
</text>
</a>
<a target="_top" xlink:href="../../ctl_search?results=Search;protein=RT;inrange=490-498"><text x="396" y="125">human
</text>
</a>
<a target="_top" xlink:href="../../ctl_search?results=Search;protein=RT;inrange=491-501;hla=B*4403"><text x="412" y="111">B*4403
</text>
</a>
<a target="_top" xlink:href="../../ctl_search?results=Search;protein=RT;inrange=492-501;hla=A*2601"><text x="416" y="97">A*2601
</text>
</a>
<a target="_top" xlink:href="../../ctl_search?results=Search;protein=RT;inrange=493-502"><text x="420" y="83">human
</text>
</a>
<a target="_top" xlink:href="../../ctl_search?results=Search;protein=RT;inrange=496-505;hla=B*1503"><text x="432" y="69">B*1503
</text>
</a>
<a target="_top" xlink:href="../../ctl_search?results=Search;protein=RT;inrange=496-505;hla=B14"><text x="432" y="55">B14
</text>
</a>
<a target="_top" xlink:href="../../ctl_search?results=Search;protein=RT;inrange=496-505;hla=B15"><text x="432" y="41">B15
</text>
</a>
<a target="_top" xlink:href="../../ctl_search?results=Search;protein=RT;inrange=496-505;hla=Cw8"><text x="432" y="27">Cw8
</text>
</a>
</g>
</svg>
