<?xml version="1.0" encoding="UTF-8" standalone="yes"?>
<!DOCTYPE svg PUBLIC "-//W3C//DTD SVG 1.0//EN" "http://www.w3.org/TR/2001/REC-SVG-20010904/DTD/svg10.dtd">
<svg height="309" id="ctl/RT-ctl-09.svg" width="481" xmlns="http://www.w3.org/2000/svg" xmlns:svg="http://www.w3.org/2000/svg" xmlns:xlink="http://www.w3.org/1999/xlink"><title id="title">ctl/RT-ctl-09
</title><style type="text/css"><![CDATA[.mono {
    font-size: 14px;
    font-family:  BitstreamVeraSansMono, Monaco, Courier, monospace;
}
.tics {
    stroke: black;
    stroke-width: .5;
    font-family: serif;
    font-size: 10px;
    text-anchor: middle;
}
.vertlines {
    stroke: black;
    stroke-width: .5;
}
.arrows {
    stroke: black;
    stroke-width: .5;
}
.label {
    font-family: serif;
    font-size: 11px;
    text-anchor: middle;
}
.name {
    font-family: serif;
    font-size: 12px;
    text-anchor: end;
}
]]>
</style>
<defs >
<marker id="arrowhead-end" markerHeight="12" markerUnits="strokeWidth" markerWidth="12" orient="auto" refX="24" refY="15" viewBox="0, 0, 30, 30">
<path d="M 0 0 L 30 15 L 0 30 z" />
</marker>
<marker id="arrowhead-start" markerHeight="12" markerUnits="strokeWidth" markerWidth="12" orient="auto" refX="6" refY="15" viewBox="0, 0, 30, 30">
<path d="M 30 0 L 0 15 L 30 30 z" />
</marker>
</defs>
<rect fill="oldlace" height="309" rx="5" width="481" x="0" y="0" />
<g class="mono" id="rule">
<a target="_top" xlink:href="../../ctl_search?results=Search;protein=RT;spans=401"><text x="48" y="280">W
</text>
</a>
<a target="_top" xlink:href="../../ctl_search?results=Search;protein=RT;spans=402"><text x="56" y="280">W
</text>
</a>
<a target="_top" xlink:href="../../ctl_search?results=Search;protein=RT;spans=403"><text x="64" y="280">T
</text>
</a>
<a target="_top" xlink:href="../../ctl_search?results=Search;protein=RT;spans=404"><text x="72" y="280">E
</text>
</a>
<a target="_top" xlink:href="../../ctl_search?results=Search;protein=RT;spans=405"><text x="80" y="280">Y
</text>
</a>
<a target="_top" xlink:href="../../ctl_search?results=Search;protein=RT;spans=406"><text x="88" y="280">W
</text>
</a>
<a target="_top" xlink:href="../../ctl_search?results=Search;protein=RT;spans=407"><text x="96" y="280">Q
</text>
</a>
<a target="_top" xlink:href="../../ctl_search?results=Search;protein=RT;spans=408"><text x="104" y="280">A
</text>
</a>
<a target="_top" xlink:href="../../ctl_search?results=Search;protein=RT;spans=409"><text x="112" y="280">T
</text>
</a>
<a target="_top" xlink:href="../../ctl_search?results=Search;protein=RT;spans=410"><text x="120" y="280">W
</text>
</a>
<a target="_top" xlink:href="../../ctl_search?results=Search;protein=RT;spans=411"><text x="128" y="280">I
</text>
</a>
<a target="_top" xlink:href="../../ctl_search?results=Search;protein=RT;spans=412"><text x="136" y="280">P
</text>
</a>
<a target="_top" xlink:href="../../ctl_search?results=Search;protein=RT;spans=413"><text x="144" y="280">E
</text>
</a>
<a target="_top" xlink:href="../../ctl_search?results=Search;protein=RT;spans=414"><text x="152" y="280">W
</text>
</a>
<a target="_top" xlink:href="../../ctl_search?results=Search;protein=RT;spans=415"><text x="160" y="280">E
</text>
</a>
<a target="_top" xlink:href="../../ctl_search?results=Search;protein=RT;spans=416"><text x="168" y="280">F
</text>
</a>
<a target="_top" xlink:href="../../ctl_search?results=Search;protein=RT;spans=417"><text x="176" y="280">V
</text>
</a>
<a target="_top" xlink:href="../../ctl_search?results=Search;protein=RT;spans=418"><text x="184" y="280">N
</text>
</a>
<a target="_top" xlink:href="../../ctl_search?results=Search;protein=RT;spans=419"><text x="192" y="280">T
</text>
</a>
<a target="_top" xlink:href="../../ctl_search?results=Search;protein=RT;spans=420"><text x="200" y="280">P
</text>
</a>
<a target="_top" xlink:href="../../ctl_search?results=Search;protein=RT;spans=421"><text x="208" y="280">P
</text>
</a>
<a target="_top" xlink:href="../../ctl_search?results=Search;protein=RT;spans=422"><text x="216" y="280">L
</text>
</a>
<a target="_top" xlink:href="../../ctl_search?results=Search;protein=RT;spans=423"><text x="224" y="280">V
</text>
</a>
<a target="_top" xlink:href="../../ctl_search?results=Search;protein=RT;spans=424"><text x="232" y="280">K
</text>
</a>
<a target="_top" xlink:href="../../ctl_search?results=Search;protein=RT;spans=425"><text x="240" y="280">L
</text>
</a>
<a target="_top" xlink:href="../../ctl_search?results=Search;protein=RT;spans=426"><text x="248" y="280">W
</text>
</a>
<a target="_top" xlink:href="../../ctl_search?results=Search;protein=RT;spans=427"><text x="256" y="280">Y
</text>
</a>
<a target="_top" xlink:href="../../ctl_search?results=Search;protein=RT;spans=428"><text x="264" y="280">Q
</text>
</a>
<a target="_top" xlink:href="../../ctl_search?results=Search;protein=RT;spans=429"><text x="272" y="280">L
</text>
</a>
<a target="_top" xlink:href="../../ctl_search?results=Search;protein=RT;spans=430"><text x="280" y="280">E
</text>
</a>
<a target="_top" xlink:href="../../ctl_search?results=Search;protein=RT;spans=431"><text x="288" y="280">K
</text>
</a>
<a target="_top" xlink:href="../../ctl_search?results=Search;protein=RT;spans=432"><text x="296" y="280">E
</text>
</a>
<a target="_top" xlink:href="../../ctl_search?results=Search;protein=RT;spans=433"><text x="304" y="280">P
</text>
</a>
<a target="_top" xlink:href="../../ctl_search?results=Search;protein=RT;spans=434"><text x="312" y="280">I
</text>
</a>
<a target="_top" xlink:href="../../ctl_search?results=Search;protein=RT;spans=435"><text x="320" y="280">V
</text>
</a>
<a target="_top" xlink:href="../../ctl_search?results=Search;protein=RT;spans=436"><text x="328" y="280">G
</text>
</a>
<a target="_top" xlink:href="../../ctl_search?results=Search;protein=RT;spans=437"><text x="336" y="280">A
</text>
</a>
<a target="_top" xlink:href="../../ctl_search?results=Search;protein=RT;spans=438"><text x="344" y="280">E
</text>
</a>
<a target="_top" xlink:href="../../ctl_search?results=Search;protein=RT;spans=439"><text x="352" y="280">T
</text>
</a>
<a target="_top" xlink:href="../../ctl_search?results=Search;protein=RT;spans=440"><text x="360" y="280">F
</text>
</a>
<a target="_top" xlink:href="../../ctl_search?results=Search;protein=RT;spans=441"><text x="368" y="280">Y
</text>
</a>
<a target="_top" xlink:href="../../ctl_search?results=Search;protein=RT;spans=442"><text x="376" y="280">V
</text>
</a>
<a target="_top" xlink:href="../../ctl_search?results=Search;protein=RT;spans=443"><text x="384" y="280">D
</text>
</a>
<a target="_top" xlink:href="../../ctl_search?results=Search;protein=RT;spans=444"><text x="392" y="280">G
</text>
</a>
<a target="_top" xlink:href="../../ctl_search?results=Search;protein=RT;spans=445"><text x="400" y="280">A
</text>
</a>
<a target="_top" xlink:href="../../ctl_search?results=Search;protein=RT;spans=446"><text x="408" y="280">A
</text>
</a>
<a target="_top" xlink:href="../../ctl_search?results=Search;protein=RT;spans=447"><text x="416" y="280">N
</text>
</a>
<a target="_top" xlink:href="../../ctl_search?results=Search;protein=RT;spans=448"><text x="424" y="280">R
</text>
</a>
<a target="_top" xlink:href="../../ctl_search?results=Search;protein=RT;spans=449"><text x="432" y="280">E
</text>
</a>
<a target="_top" xlink:href="../../ctl_search?results=Search;protein=RT;spans=450"><text x="440" y="280">T
</text>
</a>
</g>
<g class="tics" id="tics">
<line x1="124" x2="124" y1="281" y2="285" /><text stroke-width="0" x="124" y="294">410
</text>
<line x1="204" x2="204" y1="281" y2="285" /><text stroke-width="0" x="204" y="294">420
</text>
<line x1="284" x2="284" y1="281" y2="285" /><text stroke-width="0" x="284" y="294">430
</text>
<line x1="364" x2="364" y1="281" y2="285" /><text stroke-width="0" x="364" y="294">440
</text>
<line x1="444" x2="444" y1="281" y2="285" /><text stroke-width="0" x="444" y="294">450
</text>
</g>
<g class="vertlines" id="vertlines">
<line x1="56" x2="56" y1="266" y2="235.2" />
<line x1="96" x2="96" y1="266" y2="151.2" />
<line x1="168" x2="168" y1="266" y2="221.2" />
<line x1="176" x2="176" y1="266" y2="151.2" />
<line x1="184" x2="184" y1="266" y2="207.2" />
<line x1="192" x2="192" y1="266" y2="193.2" />
<line x1="208" x2="208" y1="266" y2="123.2" />
<line x1="232" x2="232" y1="266" y2="249.2" />
<line x1="240" x2="240" y1="266" y2="221.2" />
<line x1="256" x2="256" y1="266" y2="207.2" />
<line x1="280" x2="280" y1="266" y2="123.2" />
<line x1="296" x2="296" y1="266" y2="95.2" />
<line x1="304" x2="304" y1="266" y2="235.2" />
<line x1="312" x2="312" y1="266" y2="221.2" />
<line x1="328" x2="328" y1="266" y2="67.2" />
<line x1="336" x2="336" y1="266" y2="25.2" />
<line x1="344" x2="344" y1="266" y2="137.2" />
<line x1="368" x2="368" y1="266" y2="165.2" />
<line x1="376" x2="376" y1="266" y2="95.2" />
<line x1="408" x2="408" y1="266" y2="39.2" />
<line x1="424" x2="424" y1="266" y2="25.2" />
<line x1="432" x2="432" y1="266" y2="137.2" />
</g>
<g class="arrows" id="arrows">
<line marker-end="url(#arrowhead-end)" x1="40" x2="56" y1="252" y2="252" />
<line marker-end="url(#arrowhead-end)" marker-start="url(#arrowhead-start)" x1="168" x2="232" y1="252" y2="252" />
<line marker-end="url(#arrowhead-end)" marker-start="url(#arrowhead-start)" x1="296" x2="368" y1="252" y2="252" />
<line marker-start="url(#arrowhead-start)" x1="432" x2="456" y1="252" y2="252" />
<line marker-end="url(#arrowhead-end)" x1="40" x2="56" y1="238" y2="238" />
<line marker-end="url(#arrowhead-end)" marker-start="url(#arrowhead-start)" x1="168" x2="240" y1="238" y2="238" />
<line marker-end="url(#arrowhead-end)" marker-start="url(#arrowhead-start)" x1="304" x2="376" y1="238" y2="238" />
<line marker-end="url(#arrowhead-end)" x1="40" x2="96" y1="224" y2="224" />
<line marker-end="url(#arrowhead-end)" marker-start="url(#arrowhead-start)" x1="168" x2="240" y1="224" y2="224" />
<line marker-end="url(#arrowhead-end)" marker-start="url(#arrowhead-start)" x1="312" x2="424" y1="224" y2="224" />
<line marker-end="url(#arrowhead-end)" x1="40" x2="96" y1="210" y2="210" />
<line marker-end="url(#arrowhead-end)" marker-start="url(#arrowhead-start)" x1="184" x2="256" y1="210" y2="210" />
<line marker-end="url(#arrowhead-end)" marker-start="url(#arrowhead-start)" x1="328" x2="408" y1="210" y2="210" />
<line marker-end="url(#arrowhead-end)" x1="40" x2="96" y1="196" y2="196" />
<line marker-end="url(#arrowhead-end)" marker-start="url(#arrowhead-start)" x1="192" x2="280" y1="196" y2="196" />
<line marker-end="url(#arrowhead-end)" marker-start="url(#arrowhead-start)" x1="344" x2="432" y1="196" y2="196" />
<line marker-end="url(#arrowhead-end)" marker-start="url(#arrowhead-start)" x1="96" x2="176" y1="182" y2="182" />
<line marker-end="url(#arrowhead-end)" marker-start="url(#arrowhead-start)" x1="296" x2="368" y1="182" y2="182" />
<line marker-start="url(#arrowhead-start)" x1="432" x2="456" y1="182" y2="182" />
<line marker-end="url(#arrowhead-end)" marker-start="url(#arrowhead-start)" x1="96" x2="176" y1="168" y2="168" />
<line marker-end="url(#arrowhead-end)" marker-start="url(#arrowhead-start)" x1="296" x2="368" y1="168" y2="168" />
<line marker-end="url(#arrowhead-end)" marker-start="url(#arrowhead-start)" x1="96" x2="176" y1="154" y2="154" />
<line marker-end="url(#arrowhead-end)" marker-start="url(#arrowhead-start)" x1="296" x2="376" y1="154" y2="154" />
<line marker-end="url(#arrowhead-end)" marker-start="url(#arrowhead-start)" x1="208" x2="280" y1="140" y2="140" />
<line marker-end="url(#arrowhead-end)" marker-start="url(#arrowhead-start)" x1="344" x2="432" y1="140" y2="140" />
<line marker-end="url(#arrowhead-end)" marker-start="url(#arrowhead-start)" x1="208" x2="280" y1="126" y2="126" />
<line marker-start="url(#arrowhead-start)" x1="424" x2="456" y1="126" y2="126" />
<line marker-end="url(#arrowhead-end)" marker-start="url(#arrowhead-start)" x1="296" x2="376" y1="112" y2="112" />
<line marker-end="url(#arrowhead-end)" marker-start="url(#arrowhead-start)" x1="296" x2="376" y1="98" y2="98" />
<line marker-end="url(#arrowhead-end)" marker-start="url(#arrowhead-start)" x1="328" x2="408" y1="84" y2="84" />
<line marker-end="url(#arrowhead-end)" marker-start="url(#arrowhead-start)" x1="328" x2="408" y1="70" y2="70" />
<line marker-end="url(#arrowhead-end)" marker-start="url(#arrowhead-start)" x1="336" x2="408" y1="56" y2="56" />
<line marker-end="url(#arrowhead-end)" marker-start="url(#arrowhead-start)" x1="336" x2="408" y1="42" y2="42" />
<line marker-end="url(#arrowhead-end)" marker-start="url(#arrowhead-start)" x1="336" x2="424" y1="28" y2="28" />
</g>
<g class="label" id="label">
<a target="_top" xlink:href="../../ctl_search?results=Search;protein=RT;inrange=392-401;hla=A*3201"><text x="48" y="251">A*3201
</text>
</a>
<a target="_top" xlink:href="../../ctl_search?results=Search;protein=RT;inrange=416-423;hla=A2"><text x="200" y="251">A2
</text>
</a>
<a target="_top" xlink:href="../../ctl_search?results=Search;protein=RT;inrange=432-440;hla=B*3501"><text x="332" y="251">B*3501
</text>
</a>
<a target="_top" xlink:href="../../ctl_search?results=Search;protein=RT;inrange=449-457;hla=A*2601"><text x="444" y="251">A*2601
</text>
</a>
<a target="_top" xlink:href="../../ctl_search?results=Search;protein=RT;inrange=392-401;hla=A32"><text x="48" y="237">A32
</text>
</a>
<a target="_top" xlink:href="../../ctl_search?results=Search;protein=RT;inrange=416-424;hla=A*1101"><text x="204" y="237">A*1101
</text>
</a>
<a target="_top" xlink:href="../../ctl_search?results=Search;protein=RT;inrange=433-441"><text x="340" y="237">human
</text>
</a>
<a target="_top" xlink:href="../../ctl_search?results=Search;protein=RT;inrange=397-406;hla=B44"><text x="68" y="223">B44
</text>
</a>
<a target="_top" xlink:href="../../ctl_search?results=Search;protein=RT;inrange=416-424;hla=A11"><text x="204" y="223">A11
</text>
</a>
<a target="_top" xlink:href="../../ctl_search?results=Search;protein=RT;inrange=434-447;hla=A*6802"><text x="368" y="223">A*6802
</text>
</a>
<a target="_top" xlink:href="../../ctl_search?results=Search;protein=RT;inrange=397-406;hla=B49"><text x="68" y="209">B49
</text>
</a>
<a target="_top" xlink:href="../../ctl_search?results=Search;protein=RT;inrange=418-426"><text x="220" y="209">human
</text>
</a>
<a target="_top" xlink:href="../../ctl_search?results=Search;protein=RT;inrange=436-445;hla=A*6802"><text x="368" y="209">A*6802
</text>
</a>
<a target="_top" xlink:href="../../ctl_search?results=Search;protein=RT;inrange=398-406"><text x="68" y="195">human
</text>
</a>
<a target="_top" xlink:href="../../ctl_search?results=Search;protein=RT;inrange=419-429"><text x="236" y="195">human
</text>
</a>
<a target="_top" xlink:href="../../ctl_search?results=Search;protein=RT;inrange=438-448;hla=A26"><text x="388" y="195">A26
</text>
</a>
<a target="_top" xlink:href="../../ctl_search?results=Search;protein=RT;inrange=407-416;hla=B*5702"><text x="136" y="181">B*5702
</text>
</a>
<a target="_top" xlink:href="../../ctl_search?results=Search;protein=RT;inrange=432-440;hla=B35"><text x="332" y="181">B35
</text>
</a>
<a target="_top" xlink:href="../../ctl_search?results=Search;protein=RT;inrange=449-457;hla=A26"><text x="444" y="181">A26
</text>
</a>
<a target="_top" xlink:href="../../ctl_search?results=Search;protein=RT;inrange=407-416;hla=B*5703"><text x="136" y="167">B*5703
</text>
</a>
<a target="_top" xlink:href="../../ctl_search?results=Search;protein=RT;inrange=432-440;hla=B51"><text x="332" y="167">B51
</text>
</a>
<a target="_top" xlink:href="../../ctl_search?results=Search;protein=RT;inrange=407-416;hla=B57"><text x="136" y="153">B57
</text>
</a>
<a target="_top" xlink:href="../../ctl_search?results=Search;protein=RT;inrange=432-441;hla=B*3501"><text x="336" y="153">B*3501
</text>
</a>
<a target="_top" xlink:href="../../ctl_search?results=Search;protein=RT;inrange=421-429;hla=A*0201"><text x="244" y="139">A*0201
</text>
</a>
<a target="_top" xlink:href="../../ctl_search?results=Search;protein=RT;inrange=438-448;hla=A66"><text x="388" y="139">A66
</text>
</a>
<a target="_top" xlink:href="../../ctl_search?results=Search;protein=RT;inrange=421-429;hla=A2"><text x="244" y="125">A2
</text>
</a>
<a target="_top" xlink:href="../../ctl_search?results=Search;protein=RT;inrange=448-457;hla=A29"><text x="440" y="125">A29
</text>
</a>
<a target="_top" xlink:href="../../ctl_search?results=Search;protein=RT;inrange=432-441;hla=B35"><text x="336" y="111">B35
</text>
</a>
<a target="_top" xlink:href="../../ctl_search?results=Search;protein=RT;inrange=432-441;hla=B51"><text x="336" y="97">B51
</text>
</a>
<a target="_top" xlink:href="../../ctl_search?results=Search;protein=RT;inrange=436-445;hla=A68"><text x="368" y="83">A68
</text>
</a>
<a target="_top" xlink:href="../../ctl_search?results=Search;protein=RT;inrange=436-445;hla=B45"><text x="368" y="69">B45
</text>
</a>
<a target="_top" xlink:href="../../ctl_search?results=Search;protein=RT;inrange=437-445;hla=B*4501"><text x="372" y="55">B*4501
</text>
</a>
<a target="_top" xlink:href="../../ctl_search?results=Search;protein=RT;inrange=437-445;hla=B44"><text x="372" y="41">B44
</text>
</a>
<a target="_top" xlink:href="../../ctl_search?results=Search;protein=RT;inrange=437-447;hla=A28"><text x="380" y="27">A28
</text>
</a>
</g>
</svg>
