<?xml version="1.0" encoding="UTF-8" standalone="yes"?>
<!DOCTYPE svg PUBLIC "-//W3C//DTD SVG 1.0//EN" "http://www.w3.org/TR/2001/REC-SVG-20010904/DTD/svg10.dtd">
<svg height="365" id="ctl/Protease-ctl-02.svg" width="473" xmlns="http://www.w3.org/2000/svg" xmlns:svg="http://www.w3.org/2000/svg" xmlns:xlink="http://www.w3.org/1999/xlink"><title id="title">ctl/Protease-ctl-02
</title><style type="text/css"><![CDATA[.mono {
    font-size: 14px;
    font-family:  BitstreamVeraSansMono, Monaco, Courier, monospace;
}
.tics {
    stroke: black;
    stroke-width: .5;
    font-family: serif;
    font-size: 10px;
    text-anchor: middle;
}
.vertlines {
    stroke: black;
    stroke-width: .5;
}
.arrows {
    stroke: black;
    stroke-width: .5;
}
.label {
    font-family: serif;
    font-size: 11px;
    text-anchor: middle;
}
.name {
    font-family: serif;
    font-size: 12px;
    text-anchor: end;
}
]]>
</style>
<defs >
<marker id="arrowhead-end" markerHeight="12" markerUnits="strokeWidth" markerWidth="12" orient="auto" refX="24" refY="15" viewBox="0, 0, 30, 30">
<path d="M 0 0 L 30 15 L 0 30 z" />
</marker>
<marker id="arrowhead-start" markerHeight="12" markerUnits="strokeWidth" markerWidth="12" orient="auto" refX="6" refY="15" viewBox="0, 0, 30, 30">
<path d="M 30 0 L 0 15 L 30 30 z" />
</marker>
</defs>
<rect fill="oldlace" height="365" rx="5" width="473" x="0" y="0" />
<g class="mono" id="rule">
<a target="_top" xlink:href="../../ctl_search?results=Search;protein=Protease;spans=51"><text x="48" y="336">G
</text>
</a>
<a target="_top" xlink:href="../../ctl_search?results=Search;protein=Protease;spans=52"><text x="56" y="336">G
</text>
</a>
<a target="_top" xlink:href="../../ctl_search?results=Search;protein=Protease;spans=53"><text x="64" y="336">F
</text>
</a>
<a target="_top" xlink:href="../../ctl_search?results=Search;protein=Protease;spans=54"><text x="72" y="336">I
</text>
</a>
<a target="_top" xlink:href="../../ctl_search?results=Search;protein=Protease;spans=55"><text x="80" y="336">K
</text>
</a>
<a target="_top" xlink:href="../../ctl_search?results=Search;protein=Protease;spans=56"><text x="88" y="336">V
</text>
</a>
<a target="_top" xlink:href="../../ctl_search?results=Search;protein=Protease;spans=57"><text x="96" y="336">R
</text>
</a>
<a target="_top" xlink:href="../../ctl_search?results=Search;protein=Protease;spans=58"><text x="104" y="336">Q
</text>
</a>
<a target="_top" xlink:href="../../ctl_search?results=Search;protein=Protease;spans=59"><text x="112" y="336">Y
</text>
</a>
<a target="_top" xlink:href="../../ctl_search?results=Search;protein=Protease;spans=60"><text x="120" y="336">D
</text>
</a>
<a target="_top" xlink:href="../../ctl_search?results=Search;protein=Protease;spans=61"><text x="128" y="336">Q
</text>
</a>
<a target="_top" xlink:href="../../ctl_search?results=Search;protein=Protease;spans=62"><text x="136" y="336">I
</text>
</a>
<a target="_top" xlink:href="../../ctl_search?results=Search;protein=Protease;spans=63"><text x="144" y="336">L
</text>
</a>
<a target="_top" xlink:href="../../ctl_search?results=Search;protein=Protease;spans=64"><text x="152" y="336">I
</text>
</a>
<a target="_top" xlink:href="../../ctl_search?results=Search;protein=Protease;spans=65"><text x="160" y="336">E
</text>
</a>
<a target="_top" xlink:href="../../ctl_search?results=Search;protein=Protease;spans=66"><text x="168" y="336">I
</text>
</a>
<a target="_top" xlink:href="../../ctl_search?results=Search;protein=Protease;spans=67"><text x="176" y="336">C
</text>
</a>
<a target="_top" xlink:href="../../ctl_search?results=Search;protein=Protease;spans=68"><text x="184" y="336">G
</text>
</a>
<a target="_top" xlink:href="../../ctl_search?results=Search;protein=Protease;spans=69"><text x="192" y="336">H
</text>
</a>
<a target="_top" xlink:href="../../ctl_search?results=Search;protein=Protease;spans=70"><text x="200" y="336">K
</text>
</a>
<a target="_top" xlink:href="../../ctl_search?results=Search;protein=Protease;spans=71"><text x="208" y="336">A
</text>
</a>
<a target="_top" xlink:href="../../ctl_search?results=Search;protein=Protease;spans=72"><text x="216" y="336">I
</text>
</a>
<a target="_top" xlink:href="../../ctl_search?results=Search;protein=Protease;spans=73"><text x="224" y="336">G
</text>
</a>
<a target="_top" xlink:href="../../ctl_search?results=Search;protein=Protease;spans=74"><text x="232" y="336">T
</text>
</a>
<a target="_top" xlink:href="../../ctl_search?results=Search;protein=Protease;spans=75"><text x="240" y="336">V
</text>
</a>
<a target="_top" xlink:href="../../ctl_search?results=Search;protein=Protease;spans=76"><text x="248" y="336">L
</text>
</a>
<a target="_top" xlink:href="../../ctl_search?results=Search;protein=Protease;spans=77"><text x="256" y="336">V
</text>
</a>
<a target="_top" xlink:href="../../ctl_search?results=Search;protein=Protease;spans=78"><text x="264" y="336">G
</text>
</a>
<a target="_top" xlink:href="../../ctl_search?results=Search;protein=Protease;spans=79"><text x="272" y="336">P
</text>
</a>
<a target="_top" xlink:href="../../ctl_search?results=Search;protein=Protease;spans=80"><text x="280" y="336">T
</text>
</a>
<a target="_top" xlink:href="../../ctl_search?results=Search;protein=Protease;spans=81"><text x="288" y="336">P
</text>
</a>
<a target="_top" xlink:href="../../ctl_search?results=Search;protein=Protease;spans=82"><text x="296" y="336">V
</text>
</a>
<a target="_top" xlink:href="../../ctl_search?results=Search;protein=Protease;spans=83"><text x="304" y="336">N
</text>
</a>
<a target="_top" xlink:href="../../ctl_search?results=Search;protein=Protease;spans=84"><text x="312" y="336">I
</text>
</a>
<a target="_top" xlink:href="../../ctl_search?results=Search;protein=Protease;spans=85"><text x="320" y="336">I
</text>
</a>
<a target="_top" xlink:href="../../ctl_search?results=Search;protein=Protease;spans=86"><text x="328" y="336">G
</text>
</a>
<a target="_top" xlink:href="../../ctl_search?results=Search;protein=Protease;spans=87"><text x="336" y="336">R
</text>
</a>
<a target="_top" xlink:href="../../ctl_search?results=Search;protein=Protease;spans=88"><text x="344" y="336">N
</text>
</a>
<a target="_top" xlink:href="../../ctl_search?results=Search;protein=Protease;spans=89"><text x="352" y="336">L
</text>
</a>
<a target="_top" xlink:href="../../ctl_search?results=Search;protein=Protease;spans=90"><text x="360" y="336">L
</text>
</a>
<a target="_top" xlink:href="../../ctl_search?results=Search;protein=Protease;spans=91"><text x="368" y="336">T
</text>
</a>
<a target="_top" xlink:href="../../ctl_search?results=Search;protein=Protease;spans=92"><text x="376" y="336">Q
</text>
</a>
<a target="_top" xlink:href="../../ctl_search?results=Search;protein=Protease;spans=93"><text x="384" y="336">I
</text>
</a>
<a target="_top" xlink:href="../../ctl_search?results=Search;protein=Protease;spans=94"><text x="392" y="336">G
</text>
</a>
<a target="_top" xlink:href="../../ctl_search?results=Search;protein=Protease;spans=95"><text x="400" y="336">C
</text>
</a>
<a target="_top" xlink:href="../../ctl_search?results=Search;protein=Protease;spans=96"><text x="408" y="336">T
</text>
</a>
<a target="_top" xlink:href="../../ctl_search?results=Search;protein=Protease;spans=97"><text x="416" y="336">L
</text>
</a>
<a target="_top" xlink:href="../../ctl_search?results=Search;protein=Protease;spans=98"><text x="424" y="336">N
</text>
</a>
<a target="_top" xlink:href="../../ctl_search?results=Search;protein=Protease;spans=99"><text x="432" y="336">F
</text>
</a>
</g>
<g class="tics" id="tics">
<line x1="124" x2="124" y1="337" y2="341" /><text stroke-width="0" x="124" y="350">60
</text>
<line x1="204" x2="204" y1="337" y2="341" /><text stroke-width="0" x="204" y="350">70
</text>
<line x1="284" x2="284" y1="337" y2="341" /><text stroke-width="0" x="284" y="350">80
</text>
<line x1="364" x2="364" y1="337" y2="341" /><text stroke-width="0" x="364" y="350">90
</text>
</g>
<g class="vertlines" id="vertlines">
<line x1="72" x2="72" y1="322" y2="291.2" />
<line x1="80" x2="80" y1="322" y2="207.2" />
<line x1="88" x2="88" y1="322" y2="193.2" />
<line x1="96" x2="96" y1="322" y2="179.2" />
<line x1="104" x2="104" y1="322" y2="151.2" />
<line x1="136" x2="136" y1="322" y2="305.2" />
<line x1="152" x2="152" y1="322" y2="207.2" />
<line x1="176" x2="176" y1="322" y2="151.2" />
<line x1="184" x2="184" y1="322" y2="235.2" />
<line x1="200" x2="200" y1="322" y2="109.2" />
<line x1="208" x2="208" y1="322" y2="305.2" />
<line x1="232" x2="232" y1="322" y2="263.2" />
<line x1="240" x2="240" y1="322" y2="221.2" />
<line x1="248" x2="248" y1="322" y2="151.2" />
<line x1="256" x2="256" y1="322" y2="53.2" />
<line x1="264" x2="264" y1="322" y2="109.2" />
<line x1="272" x2="272" y1="322" y2="305.2" />
<line x1="280" x2="280" y1="322" y2="25.2" />
<line x1="320" x2="320" y1="322" y2="95.2" />
<line x1="328" x2="328" y1="322" y2="67.2" />
<line x1="336" x2="336" y1="322" y2="53.2" />
<line x1="360" x2="360" y1="322" y2="305.2" />
<line x1="368" x2="368" y1="322" y2="25.2" />
<line x1="400" x2="400" y1="322" y2="235.2" />
<line x1="408" x2="408" y1="322" y2="221.2" />
<line x1="432" x2="432" y1="322" y2="207.2" />
<line x1="440" x2="440" y1="322" y2="249.2" />
</g>
<g class="arrows" id="arrows">
<line marker-end="url(#arrowhead-end)" x1="40" x2="72" y1="308" y2="308" />
<line marker-end="url(#arrowhead-end)" marker-start="url(#arrowhead-start)" x1="136" x2="208" y1="308" y2="308" />
<line marker-end="url(#arrowhead-end)" marker-start="url(#arrowhead-start)" x1="272" x2="360" y1="308" y2="308" />
<line marker-start="url(#arrowhead-start)" x1="432" x2="448" y1="308" y2="308" />
<line marker-end="url(#arrowhead-end)" x1="40" x2="72" y1="294" y2="294" />
<line marker-end="url(#arrowhead-end)" marker-start="url(#arrowhead-start)" x1="152" x2="232" y1="294" y2="294" />
<line marker-end="url(#arrowhead-end)" marker-start="url(#arrowhead-start)" x1="368" x2="440" y1="294" y2="294" />
<line marker-end="url(#arrowhead-end)" x1="40" x2="80" y1="280" y2="280" />
<line marker-end="url(#arrowhead-end)" marker-start="url(#arrowhead-start)" x1="152" x2="232" y1="280" y2="280" />
<line marker-end="url(#arrowhead-end)" marker-start="url(#arrowhead-start)" x1="368" x2="440" y1="280" y2="280" />
<line marker-end="url(#arrowhead-end)" x1="40" x2="80" y1="266" y2="266" />
<line marker-end="url(#arrowhead-end)" marker-start="url(#arrowhead-start)" x1="152" x2="232" y1="266" y2="266" />
<line marker-end="url(#arrowhead-end)" marker-start="url(#arrowhead-start)" x1="368" x2="440" y1="266" y2="266" />
<line marker-end="url(#arrowhead-end)" x1="40" x2="80" y1="252" y2="252" />
<line marker-end="url(#arrowhead-end)" marker-start="url(#arrowhead-start)" x1="184" x2="256" y1="252" y2="252" />
<line marker-end="url(#arrowhead-end)" marker-start="url(#arrowhead-start)" x1="368" x2="440" y1="252" y2="252" />
<line marker-end="url(#arrowhead-end)" x1="40" x2="80" y1="238" y2="238" />
<line marker-end="url(#arrowhead-end)" marker-start="url(#arrowhead-start)" x1="184" x2="256" y1="238" y2="238" />
<line marker-start="url(#arrowhead-start)" x1="400" x2="448" y1="238" y2="238" />
<line marker-end="url(#arrowhead-end)" marker-start="url(#arrowhead-start)" x1="80" x2="152" y1="224" y2="224" />
<line marker-end="url(#arrowhead-end)" marker-start="url(#arrowhead-start)" x1="240" x2="320" y1="224" y2="224" />
<line marker-start="url(#arrowhead-start)" x1="408" x2="448" y1="224" y2="224" />
<line marker-end="url(#arrowhead-end)" marker-start="url(#arrowhead-start)" x1="80" x2="152" y1="210" y2="210" />
<line marker-end="url(#arrowhead-end)" marker-start="url(#arrowhead-start)" x1="248" x2="320" y1="210" y2="210" />
<line marker-start="url(#arrowhead-start)" x1="432" x2="448" y1="210" y2="210" />
<line marker-end="url(#arrowhead-end)" marker-start="url(#arrowhead-start)" x1="88" x2="176" y1="196" y2="196" />
<line marker-end="url(#arrowhead-end)" marker-start="url(#arrowhead-start)" x1="248" x2="320" y1="196" y2="196" />
<line marker-end="url(#arrowhead-end)" marker-start="url(#arrowhead-start)" x1="96" x2="176" y1="182" y2="182" />
<line marker-end="url(#arrowhead-end)" marker-start="url(#arrowhead-start)" x1="248" x2="320" y1="182" y2="182" />
<line marker-end="url(#arrowhead-end)" marker-start="url(#arrowhead-start)" x1="104" x2="176" y1="168" y2="168" />
<line marker-end="url(#arrowhead-end)" marker-start="url(#arrowhead-start)" x1="248" x2="320" y1="168" y2="168" />
<line marker-end="url(#arrowhead-end)" marker-start="url(#arrowhead-start)" x1="104" x2="176" y1="154" y2="154" />
<line marker-end="url(#arrowhead-end)" marker-start="url(#arrowhead-start)" x1="248" x2="328" y1="154" y2="154" />
<line marker-end="url(#arrowhead-end)" marker-start="url(#arrowhead-start)" x1="200" x2="264" y1="140" y2="140" />
<line marker-end="url(#arrowhead-end)" marker-start="url(#arrowhead-start)" x1="200" x2="264" y1="126" y2="126" />
<line marker-end="url(#arrowhead-end)" marker-start="url(#arrowhead-start)" x1="200" x2="264" y1="112" y2="112" />
<line marker-end="url(#arrowhead-end)" marker-start="url(#arrowhead-start)" x1="256" x2="320" y1="98" y2="98" />
<line marker-end="url(#arrowhead-end)" marker-start="url(#arrowhead-start)" x1="256" x2="328" y1="84" y2="84" />
<line marker-end="url(#arrowhead-end)" marker-start="url(#arrowhead-start)" x1="256" x2="328" y1="70" y2="70" />
<line marker-end="url(#arrowhead-end)" marker-start="url(#arrowhead-start)" x1="256" x2="336" y1="56" y2="56" />
<line marker-end="url(#arrowhead-end)" marker-start="url(#arrowhead-start)" x1="280" x2="368" y1="42" y2="42" />
<line marker-end="url(#arrowhead-end)" marker-start="url(#arrowhead-start)" x1="280" x2="368" y1="28" y2="28" />
</g>
<g class="label" id="label">
<a target="_top" xlink:href="../../ctl_search?results=Search;protein=Protease;inrange=45-53;hla=B*1501"><text x="56" y="307">B*1501
</text>
</a>
<a target="_top" xlink:href="../../ctl_search?results=Search;protein=Protease;inrange=62-70;hla=A3"><text x="172" y="307">A3
</text>
</a>
<a target="_top" xlink:href="../../ctl_search?results=Search;protein=Protease;inrange=79-89;hla=B63"><text x="316" y="307">B63
</text>
</a>
<a target="_top" xlink:href="../../ctl_search?results=Search;protein=Protease-RT;inrange=99-8;hla=B*5401"><text x="440" y="307">B*5401
</text>
</a>
<a target="_top" xlink:href="../../ctl_search?results=Search;protein=Protease;inrange=45-53;hla=B62"><text x="56" y="293">B62
</text>
</a>
<a target="_top" xlink:href="../../ctl_search?results=Search;protein=Protease;inrange=64-73;hla=B18"><text x="192" y="293">B18
</text>
</a>
<a target="_top" xlink:href="../../ctl_search?results=Search;protein=Protease;inrange=91-99;hla=B*1501"><text x="404" y="293">B*1501
</text>
</a>
<a target="_top" xlink:href="../../ctl_search?results=Search;protein=Protease;inrange=45-54;hla=A*0201"><text x="60" y="279">A*0201
</text>
</a>
<a target="_top" xlink:href="../../ctl_search?results=Search;protein=Protease;inrange=64-73;hla=B40"><text x="192" y="279">B40
</text>
</a>
<a target="_top" xlink:href="../../ctl_search?results=Search;protein=Protease;inrange=91-99;hla=B*1503"><text x="404" y="279">B*1503
</text>
</a>
<a target="_top" xlink:href="../../ctl_search?results=Search;protein=Protease;inrange=45-54;hla=A2"><text x="60" y="265">A2
</text>
</a>
<a target="_top" xlink:href="../../ctl_search?results=Search;protein=Protease;inrange=64-73;hla=B44"><text x="192" y="265">B44
</text>
</a>
<a target="_top" xlink:href="../../ctl_search?results=Search;protein=Protease;inrange=91-99;hla=B62"><text x="404" y="265">B62
</text>
</a>
<a target="_top" xlink:href="../../ctl_search?results=Search;protein=Protease;inrange=45-54;hla=A2 supertype"><text x="60" y="251">A2 supertype
</text>
</a>
<a target="_top" xlink:href="../../ctl_search?results=Search;protein=Protease;inrange=68-76;hla=B*1503"><text x="220" y="251">B*1503
</text>
</a>
<a target="_top" xlink:href="../../ctl_search?results=Search;protein=Protease;inrange=91-99;hla=Cw3"><text x="404" y="251">Cw3
</text>
</a>
<a target="_top" xlink:href="../../ctl_search?results=Search;protein=Protease;inrange=45-54;hla=B62"><text x="60" y="237">B62
</text>
</a>
<a target="_top" xlink:href="../../ctl_search?results=Search;protein=Protease;inrange=68-76;hla=B15"><text x="220" y="237">B15
</text>
</a>
<a target="_top" xlink:href="../../ctl_search?results=Search;protein=Protease-RT;inrange=95-5;hla=A2 supertype"><text x="424" y="237">A2 supertype
</text>
</a>
<a target="_top" xlink:href="../../ctl_search?results=Search;protein=Protease;inrange=55-63;hla=A2"><text x="116" y="223">A2
</text>
</a>
<a target="_top" xlink:href="../../ctl_search?results=Search;protein=Protease;inrange=75-84;hla=A*0201"><text x="280" y="223">A*0201
</text>
</a>
<a target="_top" xlink:href="../../ctl_search?results=Search;protein=Protease-RT;inrange=96-5;hla=A2 supertype"><text x="428" y="223">A2 supertype
</text>
</a>
<a target="_top" xlink:href="../../ctl_search?results=Search;protein=Protease;inrange=55-63;hla=Cw6"><text x="116" y="209">Cw6
</text>
</a>
<a target="_top" xlink:href="../../ctl_search?results=Search;protein=Protease;inrange=76-84;hla=A*0201"><text x="284" y="209">A*0201
</text>
</a>
<a target="_top" xlink:href="../../ctl_search?results=Search;protein=Protease-RT;inrange=99-9;hla=B*5401"><text x="440" y="209">B*5401
</text>
</a>
<a target="_top" xlink:href="../../ctl_search?results=Search;protein=Protease;inrange=56-66;hla=B13"><text x="132" y="195">B13
</text>
</a>
<a target="_top" xlink:href="../../ctl_search?results=Search;protein=Protease;inrange=76-84;hla=A*0205"><text x="284" y="195">A*0205
</text>
</a>
<a target="_top" xlink:href="../../ctl_search?results=Search;protein=Protease;inrange=57-66;hla=B13"><text x="136" y="181">B13
</text>
</a>
<a target="_top" xlink:href="../../ctl_search?results=Search;protein=Protease;inrange=76-84;hla=A2"><text x="284" y="181">A2
</text>
</a>
<a target="_top" xlink:href="../../ctl_search?results=Search;protein=Protease;inrange=58-66;hla=Cw*04"><text x="140" y="167">Cw*04
</text>
</a>
<a target="_top" xlink:href="../../ctl_search?results=Search;protein=Protease;inrange=76-84;hla=A2 supertype"><text x="284" y="167">A2 supertype
</text>
</a>
<a target="_top" xlink:href="../../ctl_search?results=Search;protein=Protease;inrange=58-66;hla=Cw*0401"><text x="140" y="153">Cw*0401
</text>
</a>
<a target="_top" xlink:href="../../ctl_search?results=Search;protein=Protease;inrange=76-85;hla=A*0205"><text x="288" y="153">A*0205
</text>
</a>
<a target="_top" xlink:href="../../ctl_search?results=Search;protein=Protease;inrange=70-77;hla=B57"><text x="232" y="139">B57
</text>
</a>
<a target="_top" xlink:href="../../ctl_search?results=Search;protein=Protease;inrange=70-77;hla=B58"><text x="232" y="125">B58
</text>
</a>
<a target="_top" xlink:href="../../ctl_search?results=Search;protein=Protease;inrange=70-77;hla=B63"><text x="232" y="111">B63
</text>
</a>
<a target="_top" xlink:href="../../ctl_search?results=Search;protein=Protease;inrange=77-84;hla=H-2D"><text x="288" y="97">H-2D
</text>
</a>
<a target="_top" xlink:href="../../ctl_search?results=Search;protein=Protease;inrange=77-85;hla=H-2&lt;sup&gt;d&lt;/sup&gt;"><text x="292" y="83">H-2d
</text>
</a>
<a target="_top" xlink:href="../../ctl_search?results=Search;protein=Protease;inrange=77-85;hla=H-2D&lt;sup&gt;d&lt;/sup&gt;"><text x="292" y="69">H-2Dd
</text>
</a>
<a target="_top" xlink:href="../../ctl_search?results=Search;protein=Protease;inrange=77-86"><text x="296" y="55">mouse, transgenic mouse
</text>
</a>
<a target="_top" xlink:href="../../ctl_search?results=Search;protein=Protease;inrange=80-90;hla=B*8101"><text x="324" y="41">B*8101
</text>
</a>
<a target="_top" xlink:href="../../ctl_search?results=Search;protein=Protease;inrange=80-90;hla=B81"><text x="324" y="27">B81
</text>
</a>
</g>
</svg>
